<svg width="50" height="50" viewBox="0 0 50 50" fill="none" xmlns="http://www.w3.org/2000/svg">
<ellipse cx="25.25" cy="14.939" rx="14.75" ry="14.939" fill="#7AB865"/>
<ellipse cx="18.25" cy="32.3171" rx="18.25" ry="17.6829" fill="#7AB865"/>
<ellipse cx="11.25" cy="17.0732" rx="8.75" ry="8.53659" fill="#7AB865"/>
<ellipse cx="35.25" cy="9.14633" rx="8.75" ry="8.53659" fill="#7AB865"/>
<ellipse cx="39.75" cy="19.5122" rx="8.75" ry="8.53659" fill="#7AB865"/>
<ellipse cx="33.25" cy="33.8415" rx="16.75" ry="16.1585" fill="#7AB865"/>
<path d="M48.5 32.622C48.5 34.1374 47.2688 35.3659 45.75 35.3659C44.2312 35.3659 43 34.1374 43 32.622C43 31.1066 44.25 29.2683 45.75 30.183C47.25 28.9634 48.5 31.1066 48.5 32.622Z" fill="#9A1E1E"/>
<path d="M45.75 30.1829C45.95 29.2073 46 28.9634 46 28.9634" stroke="black"/>
<path d="M22 11.8903C22 13.4057 20.7688 14.6342 19.25 14.6342C17.7312 14.6342 16.5 13.4057 16.5 11.8903C16.5 10.3749 17.75 8.53664 19.25 9.45128C20.75 8.23175 22 10.3749 22 11.8903Z" fill="#9A1E1E"/>
<path d="M19.25 9.4512C19.45 8.47559 19.5 8.23169 19.5 8.23169" stroke="black"/>
<path d="M37.5 33.8415C37.5 35.3569 36.2688 36.5854 34.75 36.5854C33.2312 36.5854 32 35.3569 32 33.8415C32 32.3261 33.25 30.4878 34.75 31.4024C36.25 30.1829 37.5 32.3261 37.5 33.8415Z" fill="#9A1E1E"/>
<path d="M34.75 31.4025C34.95 30.4269 35 30.183 35 30.183" stroke="black"/>
<path d="M21 26.5245C21 28.0399 19.7688 29.2684 18.25 29.2684C16.7312 29.2684 15.5 28.0399 15.5 26.5245C15.5 25.009 16.75 23.1708 18.25 24.0854C19.75 22.8659 21 25.009 21 26.5245Z" fill="#9A1E1E"/>
<path d="M18.25 24.0854C18.45 23.1097 18.5 22.8658 18.5 22.8658" stroke="black"/>
<path d="M23.5 41.7684C23.5 43.2838 22.2688 44.5123 20.75 44.5123C19.2312 44.5123 18 43.2838 18 41.7684C18 40.2529 19.25 38.4147 20.75 39.3293C22.25 38.1098 23.5 40.2529 23.5 41.7684Z" fill="#9A1E1E"/>
<path d="M20.75 39.3293C20.95 38.3536 21 38.1097 21 38.1097" stroke="black"/>
<path d="M34 17.3781C34 18.8935 32.7688 20.122 31.25 20.122C29.7312 20.122 28.5 18.8935 28.5 17.3781C28.5 15.8627 29.75 14.0244 31.25 14.9391C32.75 13.7195 34 15.8627 34 17.3781Z" fill="#9A1E1E"/>
<path d="M31.25 14.939C31.45 13.9634 31.5 13.7195 31.5 13.7195" stroke="black"/>
<path d="M9.5 35.6708C9.5 37.1862 8.26878 38.4147 6.75 38.4147C5.23122 38.4147 4 37.1862 4 35.6708C4 34.1554 5.25 32.3172 6.75 33.2318C8.25 32.0123 9.5 34.1554 9.5 35.6708Z" fill="#9A1E1E"/>
<path d="M6.75 33.2317C6.95 32.2561 7 32.0122 7 32.0122" stroke="black"/>
<path d="M15.6714 34.4885C14.8835 33.1995 14.5844 30.3242 14.8268 30.0656C15.0692 29.807 17.0474 30.5359 18.3092 31.6742C19.1057 32.7846 19.355 33.7527 18.4326 35.0918C17.3767 35.8634 16.4593 35.7775 15.6714 34.4885Z" fill="#418944"/>
<path d="M39.6714 14.3666C38.8835 13.0776 38.5844 10.2024 38.8268 9.94379C39.0692 9.68517 41.0474 10.4141 42.3092 11.5524C43.1057 12.6627 43.355 13.6309 42.4326 14.97C41.3767 15.7416 40.4593 15.6557 39.6714 14.3666Z" fill="#418944"/>
<path d="M11.263 28.1695C10.1815 29.0888 7.81552 29.3621 7.61126 29.0584C7.40701 28.7548 8.06728 26.3668 9.04029 24.8649C9.97564 23.9293 10.777 23.6561 11.8452 24.8231C12.4441 26.1346 12.3445 27.2501 11.263 28.1695Z" fill="#418944"/>
<path d="M27.1714 8.87873C26.3835 7.58972 26.0844 4.71449 26.3268 4.45587C26.5692 4.19726 28.5474 4.92619 29.8092 6.06447C30.6057 7.17483 30.855 8.14296 29.9326 9.48208C28.8767 10.2537 27.9593 10.1677 27.1714 8.87873Z" fill="#418944"/>
<path d="M20.763 17.1938C19.6815 18.1131 17.3155 18.3864 17.1113 18.0827C16.907 17.779 17.5673 15.3911 18.5403 13.8892C19.4756 12.9536 20.277 12.6804 21.3452 13.8474C21.9441 15.1588 21.8445 16.2744 20.763 17.1938Z" fill="#418944"/>
<path d="M37.263 45.8524C36.1815 46.7717 33.8155 47.045 33.6113 46.7413C33.407 46.4376 34.0673 44.0496 35.0403 42.5478C35.9756 41.6121 36.777 41.339 37.8452 42.5059C38.4441 43.8174 38.3445 44.933 37.263 45.8524Z" fill="#418944"/>
<path d="M39.1714 32.6593C38.3835 31.3702 38.0844 28.495 38.3268 28.2364C38.5692 27.9778 40.5474 28.7067 41.8092 29.845C42.6057 30.9553 42.855 31.9235 41.9326 33.2626C40.8767 34.0342 39.9593 33.9483 39.1714 32.6593Z" fill="#418944"/>
<path d="M25.1714 34.4885C24.3835 33.1995 24.0844 30.3242 24.3268 30.0656C24.5692 29.807 26.5474 30.5359 27.8092 31.6742C28.6057 32.7846 28.855 33.7527 27.9326 35.0918C26.8767 35.8634 25.9593 35.7775 25.1714 34.4885Z" fill="#418944"/>
<path d="M34.763 26.3401C33.6815 27.2595 31.3155 27.5327 31.1113 27.2291C30.907 26.9254 31.5673 24.5374 32.5403 23.0356C33.4756 22.0999 34.277 21.8268 35.3452 22.9937C35.9441 24.3052 35.8445 25.4208 34.763 26.3401Z" fill="#418944"/>
</svg>
