<svg width="50" height="51" viewBox="0 0 50 51" fill="none" xmlns="http://www.w3.org/2000/svg">
<rect x="12" y="39.1732" width="28.3958" height="6" transform="rotate(-16.7282 12 39.1732)" fill="#BDC1AB"/>
<rect x="13" y="45" width="27" height="6" fill="#C5C3BA"/>
<path d="M7.5 31.5L18.5106 16.2852L23.5 14.5L27.4787 13.3713L29 16L33.0213 21L41.9894 33.3435L27.4787 28.6287L18.5106 40.9722V25.7148L7.5 31.5Z" fill="#195813"/>
<path d="M32 16L33.5716 20.8369H38.6574L34.5429 23.8262L36.1145 28.6631L32 25.6738L27.8855 28.6631L29.4571 23.8262L25.3426 20.8369H30.4284L32 16Z" fill="#67A851"/>
<path d="M11.4631 36.4267L15.4309 36.3488L14.6289 38.82L11.4631 36.4267Z" fill="#83A669"/>
<path d="M11.4631 36.4267L15.4309 36.3488L14.6289 38.82L11.4631 36.4267Z" fill="#83A669"/>
<path d="M42.2195 15.4438L38.9623 17.7112L38.2577 15.2105L42.2195 15.4438Z" fill="#83A669"/>
<path d="M42.2195 15.4438L38.9623 17.7112L38.2577 15.2105L42.2195 15.4438Z" fill="#83A669"/>
<path d="M35.4509 34.7272L31.983 32.7975L33.9198 31.0658L35.4509 34.7272Z" fill="#83A669"/>
<path d="M35.4509 34.7272L31.983 32.7975L33.9198 31.0658L35.4509 34.7272Z" fill="#83A669"/>
<path d="M15.287 35.0605L16.0986 31.1757L18.3277 32.5102L15.287 35.0605Z" fill="#83A669"/>
<path d="M15.287 35.0605L16.0986 31.1757L18.3277 32.5102L15.287 35.0605Z" fill="#83A669"/>
<path d="M35.4993 36.0443L36.9084 39.7543L34.3115 39.8309L35.4993 36.0443Z" fill="#83A669"/>
<path d="M35.4993 36.0443L36.9084 39.7543L34.3115 39.8309L35.4993 36.0443Z" fill="#83A669"/>
<path d="M34.5 47.5L32.2631 34.25H22.7368L34.5 47.5Z" fill="#195813"/>
<path d="M34.0747 8.99999L21.3627 13.3555L22.9071 22.7557L34.0747 8.99999Z" fill="#195813"/>
</svg>
