<svg width="50" height="50" viewBox="0 0 50 50" fill="none" xmlns="http://www.w3.org/2000/svg">
<rect x="6" y="44" width="39" height="6" fill="#BDC1AB"/>
<rect x="12" y="38" width="27" height="6" fill="#C5C3BA"/>
<path d="M25 0L29.7148 14.5106H44.9722L32.6287 23.4787L37.3435 37.9894L25 29.0213L12.6565 37.9894L17.3713 23.4787L5.02781 14.5106H20.2852L25 0Z" fill="#195813"/>
<path d="M25 14L26.5716 18.8369H31.6574L27.5429 21.8262L29.1145 26.6631L25 23.6738L20.8855 26.6631L22.4571 21.8262L18.3426 18.8369H23.4284L25 14Z" fill="#67A851"/>
<path d="M8.50153 15.5535L12.4694 15.4756L11.6673 17.9468L8.50153 15.5535Z" fill="#83A669"/>
<path d="M8.50153 15.5535L12.4694 15.4756L11.6673 17.9468L8.50153 15.5535Z" fill="#83A669"/>
<path d="M42.2195 15.4438L38.9623 17.7112L38.2577 15.2105L42.2195 15.4438Z" fill="#83A669"/>
<path d="M42.2195 15.4438L38.9623 17.7112L38.2577 15.2105L42.2195 15.4438Z" fill="#83A669"/>
<path d="M35.4509 34.7272L31.983 32.7975L33.9198 31.0658L35.4509 34.7272Z" fill="#83A669"/>
<path d="M35.4509 34.7272L31.983 32.7975L33.9198 31.0658L35.4509 34.7272Z" fill="#83A669"/>
<path d="M15.287 35.0605L16.0986 31.1757L18.3277 32.5102L15.287 35.0605Z" fill="#83A669"/>
<path d="M15.287 35.0605L16.0986 31.1757L18.3277 32.5102L15.287 35.0605Z" fill="#83A669"/>
<path d="M24.4993 4.04425L25.9084 7.7543L23.3115 7.83094L24.4993 4.04425Z" fill="#83A669"/>
<path d="M24.4993 4.04425L25.9084 7.7543L23.3115 7.83094L24.4993 4.04425Z" fill="#83A669"/>
</svg>
