<svg width="50" height="50" viewBox="0 0 50 50" fill="none" xmlns="http://www.w3.org/2000/svg">
<path d="M20.0743 16.7291C19.629 16.1508 19.5967 13.2599 20.6624 8.83505C21.7281 4.41025 21.1908 2.63363 22.3009 1.7956C23.3 1.46039 28.3887 0.186583 28.6551 1.7956C28.9215 3.40462 32.543 1.03657 32.9883 3.42736C33.4336 5.81815 34.998 7.05227 30.6533 5.81815C26.3085 4.58403 27.6448 8.63239 28.0901 9.78907C28.5424 10.9637 28.6551 14.1985 29.3211 16.8801L28.0901 45.9938H21.459C21.4327 46.0022 21.4062 46.002 21.3797 45.9938H21.459C22.1396 45.7758 22.7206 39.7784 20.0743 16.7291Z" fill="#F1F37C"/>
<path d="M0.454703 9.58634C8.2617 8.70801 23.3323 8.83168 21.1588 16.353L27.9828 37.4474L22.9253 38.2443L21.1588 32.5C21.1588 32.5 21.2467 30.5911 13.5823 31.271C5.9179 31.9509 15.058 27.3435 15.058 27.3435C15.058 27.3435 10.2717 26.5142 5.64175 26.7159C1.01185 26.9176 10.4232 20.6839 10.4232 20.6839C10.4232 20.6839 0.23 21.7623 1.94022 19.3814C3.65043 17.0005 18.0461 16.3156 8.04589 15.2522C-1.95433 14.1888 0.454703 9.58634 0.454703 9.58634Z" fill="#F1F37C"/>
<path d="M6.27244 11.5204C12.0734 10.8671 23.2709 10.9544 21.6539 16.5299L25.502 30.3318L23.2436 30.3318C23.2436 30.3318 21.7153 27.0833 16.0203 27.5895C10.3254 28.0957 17.1179 24.678 17.1179 24.678C17.1179 24.678 13.5618 24.0647 10.1217 24.2155C6.68156 24.3664 13.676 19.7432 13.676 19.7432C13.676 19.7432 6.10208 20.5454 7.37345 18.7802C8.64483 17.015 19.3412 16.5031 11.9112 15.7178C4.48122 14.9325 6.27244 11.5204 6.27244 11.5204Z" fill="#EFCF5F"/>
<path d="M49.5286 10.0443C41.4217 8.77029 25.7039 8.15889 27.6879 15.9055L22.2545 34.5L25.025 38.0569L28.3326 32.2413C28.3326 32.2413 27.0622 30.3646 35.0279 31.4301C42.9936 32.4956 33.6366 27.3683 33.6366 27.3683C33.6366 27.3683 38.6582 26.7599 43.4779 27.1913C48.2976 27.6226 38.7189 20.83 38.7189 20.83C38.7189 20.83 49.3062 22.424 47.6124 19.9218C45.9185 17.4195 30.9348 16.0198 41.4012 15.4286C51.8677 14.8374 49.5286 10.0443 49.5286 10.0443Z" fill="#F1F37C"/>
<path d="M41.2432 12.3492C36.0244 11.7705 25.9435 11.9122 27.3703 17.1084L23.2184 30.5502L25.2217 30.5502L27.3703 28.5C27.3703 28.5 27.2605 26.9608 32.3847 27.4027C37.5089 27.8446 31.4117 24.6906 31.4117 24.6906C31.4117 24.6906 34.6162 24.0989 37.7123 24.2213C40.8085 24.3436 34.5357 20.0653 34.5357 20.0653C34.5357 20.0653 41.3499 20.7735 40.2145 19.1324C39.0791 17.4913 29.4525 17.071 36.1453 16.298C42.8381 15.5249 41.2432 12.3492 41.2432 12.3492Z" fill="#EFCF5F"/>
<path d="M32.6402 6C31.761 2.32498 31.3214 3.06 29.1234 3.06L28.6838 5.265L32.6402 6Z" fill="#EFCF5F"/>
<ellipse cx="26.2111" cy="4.5" rx="0.494544" ry="0.5" fill="#EFCF5F"/>
<rect x="11.869" y="44" width="26.7646" height="5.84615" fill="#C5B563"/>
<rect x="15.8254" y="38" width="18.7927" height="6" fill="#C5B563"/>
</svg>
