<svg width="59" height="59" viewBox="0 0 59 59" fill="none" xmlns="http://www.w3.org/2000/svg">
<path d="M11.4424 46.7889C12.9742 48.9349 13.4751 53.6617 12.9816 54.0757C12.4882 54.4897 8.55741 53.213 6.07284 51.2945C4.5176 49.4411 4.0518 47.8434 5.94162 45.6857C8.07898 44.4642 9.91065 44.6429 11.4424 46.7889Z" fill="#418944"/>
<path d="M12.0452 40.9495C14.5981 41.6089 18.02 44.9078 17.9082 45.5421C17.7963 46.1765 13.9645 47.7251 10.828 47.8525C8.44528 47.4324 7.06148 46.5079 7.12226 43.6403C7.97437 41.3307 9.49238 40.2902 12.0452 40.9495Z" fill="#418944"/>
<path d="M6.29956 29.8726C8.11612 30.3733 10.4898 33.1156 10.3934 33.6625C10.297 34.2093 7.50587 35.6346 5.25026 35.8235C3.54978 35.5237 2.57948 34.766 2.69592 32.3052C3.36646 30.3028 4.48301 29.372 6.29956 29.8726Z" fill="#418944"/>
<path d="M19.5417 29.1022C17.9659 26.9882 17.3677 22.2728 17.8525 21.8487C18.3373 21.4246 22.2936 22.62 24.8172 24.4868C26.4103 26.3078 26.909 27.8955 25.064 30.0917C22.9523 31.3571 21.1174 31.2162 19.5417 29.1022Z" fill="#418944"/>
<path d="M14.9542 28.8245C12.7913 30.3323 8.05925 30.7804 7.65074 30.2824C7.24223 29.7844 8.56279 25.8681 10.5088 23.405C12.3795 21.8706 13.9823 21.4226 16.1187 23.3364C17.3164 25.4872 17.1172 27.3168 14.9542 28.8245Z" fill="#418944"/>
<path d="M49.6939 46.1944C47.5309 47.7021 42.7989 48.1502 42.3904 47.6522C41.9819 47.1542 43.3024 43.2379 45.2484 40.7749C47.1191 39.2404 48.7219 38.7924 50.8583 40.7062C52.056 42.8571 51.8569 44.6866 49.6939 46.1944Z" fill="#418944"/>
<path d="M56.6161 44.8288C55.0999 45.8857 51.7827 46.1999 51.4964 45.8507C51.21 45.5016 52.1357 42.7563 53.4999 41.0297C54.8112 39.9541 55.9348 39.6401 57.4324 40.9816C58.2719 42.4894 58.1323 43.7719 56.6161 44.8288Z" fill="#418944"/>
<path d="M48.8246 41.6475C46.2656 41.0126 42.8122 37.7466 42.9179 37.1112C43.0237 36.4758 46.8406 34.8906 49.9757 34.7332C52.3623 35.1305 53.7549 36.0417 53.7216 38.9097C52.8916 41.2274 51.3836 42.2824 48.8246 41.6475Z" fill="#418944"/>
<path d="M8.68933 25.8635C7.6857 28.3017 3.94819 31.2383 3.33521 31.0404C2.72223 30.8425 1.71443 26.8343 2.01883 23.7101C2.76216 21.4076 3.86789 20.1638 6.69999 20.6177C8.87076 21.7789 9.69295 23.4254 8.68933 25.8635Z" fill="#418944"/>
<path d="M36.4736 33.1961C37.6918 30.8578 41.6775 28.268 42.2703 28.5201C42.863 28.7721 43.5074 32.8545 42.9242 35.9389C41.9774 38.1655 40.7647 39.3051 37.9847 38.5991C35.9267 37.2481 35.2555 35.5345 36.4736 33.1961Z" fill="#418944"/>
<path d="M46.2441 50.5659C47.4623 48.2276 51.448 45.6379 52.0408 45.8899C52.6335 46.1419 53.278 50.2244 52.6947 53.3087C51.748 55.5353 50.5352 56.6749 47.7552 55.9689C45.6972 54.6179 45.026 52.9043 46.2441 50.5659Z" fill="#418944"/>
<path d="M29.8225 32.6689C31.3825 34.7945 31.9457 39.5142 31.4578 39.9347C30.9698 40.3552 27.0225 39.1304 24.5129 37.2449C22.9333 35.4122 22.4465 33.8207 24.3077 31.6384C26.4287 30.3887 28.2626 30.5432 29.8225 32.6689Z" fill="#418944"/>
<path d="M26.6251 4.41813C28.1851 6.54377 28.7483 11.2635 28.2604 11.684C27.7725 12.1045 23.8251 10.8797 21.3155 8.9942C19.7359 7.16142 19.2491 5.57001 21.1103 3.38763C23.2313 2.13797 25.0652 2.2925 26.6251 4.41813Z" fill="#418944"/>
<path d="M28.3294 49.6344C30.8823 50.2938 34.3042 53.5927 34.1924 54.227C34.0805 54.8614 30.2487 56.41 27.1122 56.5374C24.7295 56.1173 23.3457 55.1928 23.4064 52.3252C24.2585 50.0155 25.7766 48.9751 28.3294 49.6344Z" fill="#418944"/>
<path d="M25.0726 14.8948C27.6254 15.5541 31.0474 18.8531 30.9355 19.4874C30.8237 20.1217 26.9918 21.6703 23.8554 21.7978C21.4726 21.3776 20.0888 20.4532 20.1496 17.5856C21.0017 15.2759 22.5197 14.2354 25.0726 14.8948Z" fill="#418944"/>
<path d="M8.78839 5.12429C11.3412 5.78364 14.7632 9.08255 14.6514 9.71689C14.5395 10.3512 10.7076 11.8998 7.57121 12.0273C5.18845 11.6071 3.80464 10.6826 3.86543 7.81504C4.71753 5.5054 6.23555 4.46493 8.78839 5.12429Z" fill="#418944"/>
<path d="M9.74611 34.8162C12.3705 34.5627 16.7144 36.4923 16.8263 37.1266C16.9381 37.761 13.867 40.5268 10.9633 41.7192C8.58054 42.1394 6.96399 41.7439 6.04033 39.0285C6.0511 36.5667 7.12171 35.0698 9.74611 34.8162Z" fill="#418944"/>
<path d="M20.1274 48.9655C21.6591 51.1115 22.16 55.8382 21.6666 56.2523C21.1731 56.6663 17.2423 55.3895 14.7578 53.4711C13.2025 51.6176 12.7367 50.0199 14.6266 47.8623C16.7639 46.6407 18.5956 46.8195 20.1274 48.9655Z" fill="#4FC053"/>
<path d="M7.1355 40.0437C8.03515 41.3708 7.95568 44.5605 7.56326 44.8897C7.17084 45.219 4.46944 44.7098 2.86513 43.627C1.92147 42.5024 1.73563 41.4517 3.29168 39.7991C4.93841 38.7643 6.23584 38.7166 7.1355 40.0437Z" fill="#4FC053"/>
<path d="M34.2403 26.1676C35.772 28.3137 36.2729 33.0404 35.7795 33.4544C35.2861 33.8685 31.3553 32.5917 28.8707 30.6732C27.3155 28.8198 26.8497 27.2221 28.7395 25.0645C30.8768 23.8429 32.7085 24.0216 34.2403 26.1676Z" fill="#4FC053"/>
<path d="M32.4896 20.1962C35.0606 20.7805 38.5778 23.9777 38.4846 24.615C38.3914 25.2524 34.6065 26.9126 31.4752 27.1319C29.0811 26.7818 27.6708 25.8982 27.6476 23.0301C28.4316 20.6965 29.9185 19.6119 32.4896 20.1962Z" fill="#4FC053"/>
<path d="M19.6888 5.94596C21.6461 7.71251 23.1514 12.221 22.7586 12.7315C22.3657 13.2419 18.2523 12.84 15.4134 11.5006C13.4961 10.0248 12.6977 8.56459 14.0795 6.05113C15.9043 4.39863 17.7315 4.1794 19.6888 5.94596Z" fill="#4FC053"/>
<path d="M8.83262 13.5453C10.7899 15.3118 12.2952 19.8203 11.9024 20.3308C11.5095 20.8412 7.3961 20.4393 4.5572 19.0999C2.63987 17.6241 1.84149 16.1639 3.22328 13.6504C5.04805 11.9979 6.87531 11.7787 8.83262 13.5453Z" fill="#4FC053"/>
<path d="M20.7302 43.8693C23.283 43.21 26.705 39.911 26.5931 39.2767C26.4813 38.6424 22.6494 37.0938 19.513 36.9663C17.1302 37.3865 15.7464 38.3109 15.8072 41.1785C16.6593 43.4882 18.1773 44.5287 20.7302 43.8693Z" fill="#4FC053"/>
<path d="M28.6236 42.6867C25.9881 42.7619 21.9182 45.2174 21.8863 45.8607C21.8543 46.5041 25.2459 48.8659 28.2755 49.6875C30.692 49.8077 32.2467 49.214 32.8251 46.4047C32.5078 43.9634 31.2591 42.6114 28.6236 42.6867Z" fill="#4FC053"/>
<path d="M28.6236 42.6867C25.9881 42.7619 21.9182 45.2174 21.8863 45.8607C21.8543 46.5041 25.2459 48.8659 28.2755 49.6875C30.692 49.8077 32.2467 49.214 32.8251 46.4047C32.5078 43.9634 31.2591 42.6114 28.6236 42.6867Z" fill="#4FC053"/>
<path d="M39.7499 40.4463C38.2605 38.2707 33.9933 36.1769 33.435 36.4981C32.8767 36.8193 32.7258 40.9495 33.6742 43.9418C34.8808 46.039 36.2213 47.0252 38.8967 45.9914C40.7781 44.4036 41.2393 42.622 39.7499 40.4463Z" fill="#4FC053"/>
<path d="M50.3912 31.2895C51.05 28.7365 49.8198 24.1453 49.2106 23.9361C48.6014 23.7269 45.3914 26.3303 43.7617 29.013C42.9759 31.3014 43.115 32.9598 45.6536 34.2947C48.0871 34.6671 49.7324 33.8425 50.3912 31.2895Z" fill="#4FC053"/>
<path d="M50.3912 31.2895C51.05 28.7365 49.8198 24.1453 49.2106 23.9361C48.6014 23.7269 45.3914 26.3303 43.7617 29.013C42.9759 31.3014 43.115 32.9598 45.6536 34.2947C48.0871 34.6671 49.7324 33.8425 50.3912 31.2895Z" fill="#4FC053"/>
<path d="M55.7039 29.9687C54.9428 28.4553 52.406 26.7548 52.0229 26.9113C51.6397 27.0678 51.1882 29.6846 51.5345 31.6715C52.1223 33.1107 52.8909 33.854 54.6834 33.426C56.018 32.5769 56.465 31.4822 55.7039 29.9687Z" fill="#4FC053"/>
<path d="M19.1233 15.4772C17.6339 13.3015 13.3668 11.2077 12.8084 11.529C12.2501 11.8502 12.0992 15.9804 13.0476 18.9727C14.2542 21.0699 15.5947 22.0561 18.2702 21.0223C20.1515 19.4345 20.6127 17.6528 19.1233 15.4772Z" fill="#4FC053"/>
<path d="M35.4075 14.3916C33.9181 12.2159 29.6509 10.1221 29.0926 10.4433C28.5343 10.7645 28.3834 14.8947 29.3318 17.8871C30.5384 19.9843 31.8789 20.9705 34.5543 19.9366C36.4357 18.3488 36.8969 16.5672 35.4075 14.3916Z" fill="#4FC053"/>
<path d="M52.9507 11.4547C50.7877 12.9625 46.0557 13.4106 45.6472 12.9126C45.2387 12.4146 46.5592 8.49825 48.5053 6.03523C50.376 4.50077 51.9787 4.05281 54.1152 5.96659C55.3128 8.11744 55.1137 9.947 52.9507 11.4547Z" fill="#418944"/>
<path d="M33.7575 5.12429C36.3104 5.78364 39.7323 9.08255 39.6205 9.71689C39.5086 10.3512 35.6768 11.8998 32.5403 12.0273C30.1576 11.6071 28.7738 10.6826 28.8345 7.81504C29.6866 5.5054 31.2047 4.46493 33.7575 5.12429Z" fill="#418944"/>
<path d="M5.65382 51.5161C7.26104 51.9312 9.41545 54.0081 9.34503 54.4075C9.27461 54.8069 6.86214 55.7818 4.88751 55.8621C3.38737 55.5975 2.51615 55.0155 2.55442 53.2101C3.09089 51.756 4.0466 51.101 5.65382 51.5161Z" fill="#418944"/>
<path d="M46.2636 5.70669C44.7742 3.53104 40.507 1.43724 39.9487 1.75845C39.3904 2.07967 39.2395 6.20987 40.1879 9.20219C41.3944 11.2994 42.735 12.2856 45.4104 11.2518C47.2918 9.66396 47.753 7.88233 46.2636 5.70669Z" fill="#4FC053"/>
<path d="M18.5449 29.3881C15.9205 29.1346 11.5766 31.0642 11.4648 31.6985C11.3529 32.3329 14.424 35.0987 17.3277 36.2911C19.7105 36.7113 21.327 36.3158 22.2507 33.6004C22.2399 31.1386 21.1693 29.6417 18.5449 29.3881Z" fill="#4FC053"/>
<path d="M52.6204 15.2991C54.1803 17.4247 54.7435 22.1444 54.2556 22.5649C53.7677 22.9854 49.8204 21.7606 47.3107 19.8751C45.7312 18.0423 45.2443 16.4509 47.1055 14.2685C49.2266 13.0189 51.0604 13.1734 52.6204 15.2991Z" fill="#418944"/>
<path d="M43.528 26.4995C46.0809 25.8401 49.5028 22.5412 49.391 21.9069C49.2791 21.2725 45.4473 19.7239 42.3108 19.5965C39.9281 20.0166 38.5443 20.9411 38.6051 23.8087C39.4572 26.1184 40.9752 27.1588 43.528 26.4995Z" fill="#4FC053"/>
<path d="M41.3428 12.0183C38.7184 11.7648 34.3745 13.6944 34.2626 14.3287C34.1508 14.9631 37.2219 17.7288 40.1256 18.9213C42.5083 19.3415 44.1249 18.946 45.0485 16.2306C45.0378 13.7688 43.9672 12.2719 41.3428 12.0183Z" fill="#4FC053"/>
<path d="M40.2572 47.8436C37.6328 47.5901 33.2889 49.5196 33.177 50.154C33.0652 50.7883 36.1363 53.5541 39.04 54.7466C41.4228 55.1667 43.0393 54.7713 43.963 52.0558C43.9522 49.594 42.8816 48.0971 40.2572 47.8436Z" fill="#4FC053"/>
</svg>
