<svg width="61" height="61" viewBox="0 0 61 61" fill="none" xmlns="http://www.w3.org/2000/svg">
<path d="M48.0056 48.4513C50.2093 46.8975 55.0578 46.397 55.4815 46.8996C55.9052 47.4022 54.5885 51.3972 52.6164 53.9203C50.7127 55.4984 49.0733 55.9691 46.864 54.0432C45.6152 51.8673 45.8019 50.005 48.0056 48.4513Z" fill="#A0A756"/>
<path d="M42.0179 47.8272C42.6989 45.2323 46.0885 41.7585 46.7388 41.8735C47.3892 41.9884 48.9702 45.8881 49.0951 49.0779C48.6598 51.5003 47.7091 52.9058 44.7683 52.8386C42.4012 51.9677 41.337 50.4221 42.0179 47.8272Z" fill="#A0A756"/>
<path d="M30.6475 53.6495C31.1643 51.8031 33.9811 49.3943 34.5418 49.4934C35.1024 49.5925 36.559 52.4336 36.7485 54.7278C36.4379 56.4565 35.659 57.4418 33.1355 57.3188C31.0832 56.6331 30.1307 55.4959 30.6475 53.6495Z" fill="#A0A756"/>
<path d="M29.8819 40.1817C27.711 41.7802 22.874 42.3798 22.4399 41.886C22.0058 41.3922 23.2392 37.3711 25.1584 34.8082C27.0288 33.1915 28.6581 32.6873 30.9069 34.5676C32.2007 36.7175 32.0528 38.5833 29.8819 40.1817Z" fill="#A0A756"/>
<path d="M29.589 44.8463C31.1313 47.0487 31.5821 51.8618 31.0706 52.2763C30.5591 52.6908 26.5451 51.3405 24.0228 49.3569C22.4526 47.4516 21.9962 45.8208 23.9628 43.6518C26.1708 42.4379 28.0468 42.6438 29.589 44.8463Z" fill="#A0A756"/>
<path d="M47.4672 9.55014C49.0095 11.7526 49.4602 16.5656 48.9487 16.9801C48.4372 17.3946 44.4233 16.0444 41.901 14.0608C40.3308 12.1555 39.8743 10.5247 41.841 8.35565C44.049 7.14174 45.925 7.34767 47.4672 9.55014Z" fill="#A0A756"/>
<path d="M46.0795 2.50832C47.1606 4.05224 47.4766 7.42617 47.1181 7.71673C46.7595 8.0073 43.9457 7.06076 42.1776 5.67025C41.0769 4.33466 40.7569 3.19148 42.1355 1.67099C43.6834 0.820033 44.9984 0.964396 46.0795 2.50832Z" fill="#A0A756"/>
<path d="M42.8025 10.4259C42.1466 13.0271 38.7908 16.5329 38.1393 16.4241C37.4879 16.3154 35.8693 12.4308 35.7136 9.24234C36.1256 6.81596 37.0626 5.40149 40.0039 5.44077C42.3793 6.28914 43.4584 7.82466 42.8025 10.4259Z" fill="#A0A756"/>
<path d="M26.5406 51.2118C29.0392 52.237 32.0439 56.0433 31.8398 56.6663C31.6357 57.2893 27.5232 58.3067 24.3197 57.9913C21.9598 57.231 20.6863 56.1042 21.1571 53.225C22.3519 51.0196 24.042 50.1866 26.5406 51.2118Z" fill="#A0A756"/>
<path d="M34.1121 22.9703C31.7162 21.7271 29.0677 17.669 29.3273 17.0667C29.5869 16.4643 33.7748 15.8166 36.9369 16.4155C39.2186 17.3825 40.3851 18.618 39.6559 21.4438C38.2665 23.534 36.5079 24.2135 34.1121 22.9703Z" fill="#A0A756"/>
<path d="M51.9441 13.067C49.5483 11.8238 46.8997 7.76569 47.1593 7.16335C47.4189 6.56101 51.6068 5.91331 54.7689 6.51222C57.0507 7.47919 58.2172 8.71465 57.488 11.5404C56.0985 13.6307 54.3399 14.3102 51.9441 13.067Z" fill="#A0A756"/>
<path d="M33.5588 29.7332C35.7416 28.1508 40.583 27.5869 41.0133 28.0839C41.4437 28.5808 40.1802 32.5927 38.2419 35.1414C36.3594 36.7443 34.7264 37.2364 32.4917 35.3396C31.214 33.1803 31.3759 31.3156 33.5588 29.7332Z" fill="#A0A756"/>
<path d="M4.58049 32.9319C6.76334 31.3495 11.6047 30.7856 12.035 31.2826C12.4654 31.7796 11.202 35.7915 9.26363 38.3401C7.38109 39.943 5.74811 40.4351 3.51341 38.5383C2.23576 36.379 2.39765 34.5143 4.58049 32.9319Z" fill="#A0A756"/>
<path d="M50.9554 31.2835C51.6364 28.6886 55.026 25.2148 55.6763 25.3298C56.3267 25.4447 57.9077 29.3444 58.0326 32.5342C57.5973 34.9566 56.6466 36.3621 53.7058 36.2949C51.3387 35.424 50.2745 33.8784 50.9554 31.2835Z" fill="#A0A756"/>
<path d="M15.3219 34.5304C16.0028 31.9356 19.3924 28.4618 20.0428 28.5767C20.6931 28.6916 22.2742 32.5914 22.399 35.7812C21.9637 38.2035 21.013 39.6091 18.0723 39.5419C15.7052 38.671 14.641 37.1253 15.3219 34.5304Z" fill="#A0A756"/>
<path d="M5.27137 51.0722C5.95231 48.4773 9.34188 45.0035 9.99222 45.1185C10.6426 45.2334 12.2236 49.1331 12.3485 52.3229C11.9132 54.7453 10.9625 56.1508 8.02174 56.0836C5.65466 55.2127 4.59042 53.6671 5.27137 51.0722Z" fill="#A0A756"/>
<path d="M35.7241 50.154C35.4689 47.4846 37.4559 43.0707 38.1066 42.9582C38.7574 42.8456 41.5882 45.974 42.8057 48.9291C43.2322 51.353 42.8236 52.9962 40.0371 53.9304C37.5124 53.9149 35.9792 52.8233 35.7241 50.154Z" fill="#A0A756"/>
<path d="M50.2539 39.6231C52.4576 38.0694 57.3061 37.5689 57.7298 38.0715C58.1535 38.574 56.8368 42.5691 54.8647 45.0921C52.961 46.6703 51.3216 47.141 49.1123 45.2151C47.8635 43.0392 48.0502 41.1768 50.2539 39.6231Z" fill="#D5E052"/>
<path d="M41.0801 52.8184C42.4428 51.906 45.7138 51.9928 46.0508 52.3925C46.3877 52.7921 45.8604 55.5384 44.747 57.1678C43.5919 58.1254 42.5141 58.3124 40.8221 56.7269C39.7639 55.0503 39.7174 53.7308 41.0801 52.8184Z" fill="#D5E052"/>
<path d="M26.8997 25.2285C29.1034 23.6748 33.9518 23.1743 34.3755 23.6768C34.7992 24.1794 33.4825 28.1744 31.5105 30.6975C29.6067 32.2756 27.9674 32.7463 25.7581 30.8204C24.5093 28.6446 24.696 26.7822 26.8997 25.2285Z" fill="#D5E052"/>
<path d="M20.7723 26.9976C21.3762 24.384 24.6617 20.8132 25.3151 20.9092C25.9686 21.0052 27.6642 24.8573 27.8833 28.0421C27.5198 30.4761 26.6111 31.9086 23.6696 31.9269C21.2778 31.1252 20.1683 29.6111 20.7723 26.9976Z" fill="#D5E052"/>
<path d="M6.13443 39.9887C7.94976 38.0015 12.5763 36.4792 13.099 36.8797C13.6218 37.2802 13.202 41.4625 11.823 44.347C10.306 46.294 8.80699 47.1032 6.23187 45.6933C4.54054 43.8345 4.3191 41.9759 6.13443 39.9887Z" fill="#D5E052"/>
<path d="M13.9076 51.0429C15.723 49.0557 20.3495 47.5334 20.8722 47.9339C21.395 48.3344 20.9752 52.5167 19.5962 55.4012C18.0792 57.3482 16.5802 58.1574 14.0051 56.7475C12.3137 54.8887 12.0923 53.0301 13.9076 51.0429Z" fill="#D5E052"/>
<path d="M45.0287 39.0006C44.3573 36.4032 40.9804 32.9171 40.3296 33.0297C39.6789 33.1422 38.0836 37.0361 37.9471 40.2255C38.3735 42.6494 39.3191 44.0584 42.2601 44.0019C44.6303 43.1397 45.7002 41.5979 45.0287 39.0006Z" fill="#D5E052"/>
<path d="M43.8304 30.971C43.9026 33.6514 46.4133 37.7948 47.073 37.8285C47.7327 37.8622 50.1612 34.4176 51.0095 31.3382C51.1372 28.8809 50.5312 27.2987 47.6512 26.7054C45.1469 27.0234 43.7581 28.2907 43.8304 30.971Z" fill="#D5E052"/>
<path d="M43.8304 30.971C43.9026 33.6514 46.4133 37.7948 47.073 37.8285C47.7327 37.8622 50.1612 34.4176 51.0095 31.3382C51.1372 28.8809 50.5312 27.2987 47.6512 26.7054C45.1469 27.0234 43.7581 28.2907 43.8304 30.971Z" fill="#D5E052"/>
<path d="M41.5537 19.6522C39.3197 21.1627 37.1644 25.4983 37.4928 26.0667C37.8212 26.6351 42.0567 26.7963 45.1272 25.8374C47.2803 24.6143 48.2941 23.2529 47.2389 20.5302C45.614 18.614 43.7877 18.1416 41.5537 19.6522Z" fill="#D5E052"/>
<path d="M32.1825 8.81359C29.5655 8.13884 24.8547 9.38125 24.639 10.0004C24.4234 10.6195 27.0873 13.8888 29.8356 15.5512C32.181 16.3546 33.882 16.2162 35.2558 13.6371C35.6422 11.163 34.7995 9.48834 32.1825 8.81359Z" fill="#D5E052"/>
<path d="M32.1825 8.81359C29.5655 8.13884 24.8547 9.38125 24.639 10.0004C24.4234 10.6195 27.0873 13.8888 29.8356 15.5512C32.181 16.3546 33.882 16.2162 35.2558 13.6371C35.6422 11.163 34.7995 9.48834 32.1825 8.81359Z" fill="#D5E052"/>
<path d="M30.838 3.40801C29.2845 4.17917 27.5359 6.75576 27.6957 7.14569C27.8554 7.53562 30.5382 7.99972 32.5766 7.65123C34.0536 7.05621 34.8173 6.27591 34.3817 4.45224C33.5134 3.0935 32.3916 2.63686 30.838 3.40801Z" fill="#D5E052"/>
<path d="M15.9079 40.5817C13.6739 42.0923 11.5187 46.4279 11.8471 46.9963C12.1755 47.5646 16.4109 47.7258 19.4815 46.767C21.6345 45.5439 22.6484 44.1825 21.5931 41.4598C19.9682 39.5436 18.1419 39.0712 15.9079 40.5817Z" fill="#D5E052"/>
<path d="M14.8249 24.0194C12.5909 25.5299 10.4357 29.8655 10.7641 30.4339C11.0924 31.0023 15.3279 31.1635 18.3985 30.2046C20.5515 28.9815 21.5654 27.6201 20.5101 24.8974C18.8852 22.9812 17.0589 22.5088 14.8249 24.0194Z" fill="#D5E052"/>
<path d="M11.8459 6.17306C13.3881 8.37552 13.8389 13.1886 13.3274 13.6031C12.8159 14.0176 8.80197 12.6673 6.27963 10.6837C4.70942 8.77841 4.253 7.14762 6.21965 4.97858C8.42768 3.76466 10.3036 3.9706 11.8459 6.17306Z" fill="#A0A756"/>
<path d="M5.318 25.6801C5.99894 23.0852 9.38851 19.6114 10.0389 19.7264C10.6892 19.8413 12.2702 23.741 12.3951 26.9308C11.9598 29.3532 11.0091 30.7587 8.06837 30.6915C5.70129 29.8207 4.63705 28.275 5.318 25.6801Z" fill="#A0A756"/>
<path d="M52.8429 54.3468C53.2716 52.7131 55.4056 50.5261 55.815 50.5985C56.2245 50.6708 57.2199 53.126 57.2985 55.1343C57.0244 56.6593 56.4259 57.5442 54.5744 57.5019C53.0842 56.9536 52.4142 55.9805 52.8429 54.3468Z" fill="#A0A756"/>
<path d="M5.93844 12.963C3.70443 14.4735 1.5492 18.8091 1.87759 19.3775C2.20597 19.9459 6.44144 20.1071 9.51198 19.1482C11.665 17.9251 12.6789 16.5637 11.6236 13.841C9.99875 11.9248 8.17245 11.4524 5.93844 12.963Z" fill="#D5E052"/>
<path d="M30.1732 41.1956C29.9084 43.864 31.8792 48.2851 32.5295 48.4001C33.1799 48.515 36.022 45.397 37.2504 42.4464C37.6857 40.024 37.2831 38.3793 34.5 37.4349C31.9753 37.4413 30.4381 38.5272 30.1732 41.1956Z" fill="#D5E052"/>
<path d="M15.7875 6.51628C17.9704 4.93387 22.8117 4.36996 23.2421 4.86694C23.6724 5.36393 22.409 9.37583 20.4707 11.9245C18.5881 13.5274 16.9551 14.0195 14.7204 12.1227C13.4428 9.96334 13.6047 8.09868 15.7875 6.51628Z" fill="#A0A756"/>
<path d="M27.2572 15.7837C26.5858 13.1863 23.2089 9.70018 22.5582 9.81274C21.9074 9.9253 20.3121 13.8192 20.1756 17.0085C20.602 19.4325 21.5476 20.8415 24.4886 20.785C26.8588 19.9228 27.9287 18.381 27.2572 15.7837Z" fill="#D5E052"/>
<path d="M12.4023 17.9789C12.1374 20.6473 14.1082 25.0685 14.7585 25.1834C15.4089 25.2983 18.251 22.1804 19.4794 19.2297C19.9147 16.8073 19.5121 15.1627 16.729 14.2183C14.2043 14.2246 12.6671 15.3105 12.4023 17.9789Z" fill="#D5E052"/>
<path d="M49.1408 19.1503C48.8759 21.8187 50.8467 26.2399 51.4971 26.3548C52.1474 26.4697 54.9896 23.3517 56.2179 20.4011C56.6532 17.9787 56.2507 16.334 53.4675 15.3896C50.9428 15.396 49.4057 16.4819 49.1408 19.1503Z" fill="#D5E052"/>
</svg>
