<svg width="60" height="60" viewBox="0 0 60 60" fill="none" xmlns="http://www.w3.org/2000/svg">
<path d="M11.6363 47.9846C13.1941 50.1854 13.7034 55.0329 13.2016 55.4576C12.6998 55.8822 8.70242 54.5728 6.17574 52.6053C4.59415 50.7045 4.12045 49.066 6.0423 46.8532C8.21588 45.6004 10.0786 45.7837 11.6363 47.9846Z" fill="#418944"/>
<path d="M12.2493 41.9958C14.8454 42.672 18.3254 46.0552 18.2117 46.7058C18.0979 47.3564 14.2011 48.9445 11.0115 49.0752C8.58837 48.6443 7.18111 47.6962 7.24293 44.7554C8.10947 42.3867 9.65322 41.3196 12.2493 41.9958Z" fill="#418944"/>
<path d="M6.40627 30.6359C8.25361 31.1494 10.6675 33.9618 10.5695 34.5226C10.4714 35.0834 7.63302 36.5452 5.33918 36.7389C3.60988 36.4314 2.62315 35.6543 2.74155 33.1306C3.42346 31.0771 4.55893 30.1225 6.40627 30.6359Z" fill="#418944"/>
<path d="M19.8727 29.8458C18.2703 27.6778 17.6619 22.8419 18.1549 22.4069C18.6479 21.972 22.6713 23.198 25.2376 25.1125C26.8578 26.98 27.3649 28.6083 25.4887 30.8606C23.3412 32.1583 21.4751 32.0138 19.8727 29.8458Z" fill="#418944"/>
<path d="M15.2078 29.5611C13.0081 31.1073 8.19593 31.5669 7.7805 31.0562C7.36506 30.5454 8.708 26.529 10.687 24.0031C12.5894 22.4294 14.2193 21.97 16.392 23.9327C17.6099 26.1385 17.4074 28.0148 15.2078 29.5611Z" fill="#418944"/>
<path d="M50.5361 47.3747C48.3365 48.9209 43.5243 49.3805 43.1089 48.8698C42.6934 48.359 44.0364 44.3426 46.0154 41.8167C47.9178 40.243 49.5477 39.7836 51.7203 41.7463C52.9383 43.9521 52.7358 45.8284 50.5361 47.3747Z" fill="#418944"/>
<path d="M57.5757 45.9742C56.0337 47.0582 52.6604 47.3803 52.3692 47.0223C52.078 46.6643 53.0194 43.8488 54.4066 42.0781C55.7402 40.975 56.8828 40.6529 58.4058 42.0288C59.2596 43.575 59.1176 44.8903 57.5757 45.9742Z" fill="#418944"/>
<path d="M49.652 42.7116C47.0496 42.0605 43.5377 38.711 43.6453 38.0594C43.7528 37.4078 47.6344 35.7821 50.8226 35.6206C53.2497 36.0281 54.6659 36.9626 54.632 39.9039C53.788 42.2808 52.2544 43.3627 49.652 42.7116Z" fill="#418944"/>
<path d="M8.83669 26.5244C7.81606 29.0248 4.0152 32.0364 3.39184 31.8335C2.76847 31.6305 1.74359 27.5199 2.05315 24.3159C2.80908 21.9545 3.93355 20.679 6.81365 21.1445C9.02121 22.3354 9.85733 24.0239 8.83669 26.5244Z" fill="#418944"/>
<path d="M37.0918 34.0445C38.3306 31.6464 42.3839 28.9904 42.9867 29.2489C43.5895 29.5074 44.2449 33.6941 43.6517 36.8573C42.6889 39.1408 41.4556 40.3096 38.6285 39.5855C36.5357 38.1999 35.853 36.4425 37.0918 34.0445Z" fill="#418944"/>
<path d="M47.0279 51.8579C48.2667 49.4598 52.3199 46.8039 52.9227 47.0624C53.5256 47.3209 54.1809 51.5076 53.5878 54.6708C52.625 56.9543 51.3916 58.123 48.5645 57.399C46.4717 56.0134 45.7891 54.256 47.0279 51.8579Z" fill="#418944"/>
<path d="M30.3282 33.5037C31.9146 35.6836 32.4873 40.5239 31.9911 40.9552C31.4949 41.3864 27.4807 40.1303 24.9285 38.1967C23.3222 36.3171 22.8271 34.685 24.7198 32.4468C26.8768 31.1652 28.7418 31.3237 30.3282 33.5037Z" fill="#418944"/>
<path d="M27.0765 4.53102C28.6629 6.71097 29.2356 11.5513 28.7394 11.9825C28.2432 12.4138 24.229 11.1577 21.6768 9.22401C20.0705 7.3444 19.5754 5.71233 21.4681 3.47418C23.6251 2.19259 25.4901 2.35107 27.0765 4.53102Z" fill="#418944"/>
<path d="M28.8096 50.9027C31.4057 51.5789 34.8857 54.9621 34.772 55.6127C34.6582 56.2632 30.7614 57.8514 27.5718 57.9821C25.1487 57.5512 23.7414 56.6031 23.8032 53.6622C24.6698 51.2936 26.2135 50.2265 28.8096 50.9027Z" fill="#418944"/>
<path d="M25.4976 15.2754C28.0937 15.9516 31.5737 19.3348 31.4599 19.9853C31.3462 20.6359 27.4494 22.2241 24.2598 22.3548C21.8367 21.9239 20.4294 20.9758 20.4912 18.0349C21.3578 15.6662 22.9015 14.5992 25.4976 15.2754Z" fill="#418944"/>
<path d="M8.93732 5.25512C11.5334 5.93132 15.0134 9.31452 14.8996 9.96508C14.7859 10.6156 10.8891 12.2038 7.6995 12.3345C5.27636 11.9036 3.8691 10.9555 3.93092 8.01463C4.79746 5.64597 6.34121 4.57892 8.93732 5.25512Z" fill="#418944"/>
<path d="M9.91115 35.7059C12.58 35.4459 16.9975 37.4247 17.1113 38.0753C17.225 38.7258 14.1019 41.5623 11.149 42.7853C8.72582 43.2161 7.08188 42.8106 6.14257 40.0257C6.15352 37.501 7.24227 35.9659 9.91115 35.7059Z" fill="#418944"/>
<path d="M20.4684 50.2168C22.0261 52.4176 22.5355 57.2651 22.0337 57.6897C21.5319 58.1143 17.5344 56.8049 15.0078 54.8375C13.4262 52.9367 12.9525 51.2982 14.8743 49.0854C17.0479 47.8326 18.9106 48.0159 20.4684 50.2168Z" fill="#4FC053"/>
<path d="M7.25636 41.0669C8.17126 42.4279 8.09044 45.6991 7.69137 46.0368C7.2923 46.3745 4.54512 45.8522 2.91361 44.7417C1.95397 43.5884 1.76498 42.5109 3.3474 40.816C5.02204 39.7548 6.34146 39.7059 7.25636 41.0669Z" fill="#4FC053"/>
<path d="M34.8206 26.8363C36.3784 29.0371 36.8878 33.8846 36.386 34.3092C35.8842 34.7339 31.8867 33.4244 29.3601 31.457C27.7785 29.5562 27.3048 27.9177 29.2266 25.7049C31.4002 24.4521 33.2629 24.6354 34.8206 26.8363Z" fill="#4FC053"/>
<path d="M33.0402 20.7123C35.6548 21.3115 39.2316 24.5904 39.1368 25.244C39.042 25.8977 35.193 27.6003 32.0086 27.8252C29.574 27.4661 28.1398 26.56 28.1161 23.6186C28.9135 21.2253 30.4255 20.1131 33.0402 20.7123Z" fill="#4FC053"/>
<path d="M20.0224 6.09795C22.0129 7.90964 23.5437 12.5334 23.1441 13.0568C22.7446 13.5803 18.5615 13.1682 15.6745 11.7945C13.7247 10.281 12.9128 8.7835 14.318 6.20581C16.1737 4.51109 18.0319 4.28626 20.0224 6.09795Z" fill="#4FC053"/>
<path d="M8.98235 13.8914C10.9728 15.7031 12.5037 20.3268 12.1041 20.8503C11.7046 21.3738 7.52148 20.9616 4.63447 19.5879C2.68465 18.0745 1.87273 16.577 3.27794 13.9993C5.13364 12.3045 6.99187 12.0797 8.98235 13.8914Z" fill="#4FC053"/>
<path d="M21.0814 44.9902C23.6775 44.314 27.1574 40.9308 27.0437 40.2803C26.9299 39.6297 23.0331 38.0416 19.8435 37.9109C17.4204 38.3417 16.0131 39.2899 16.075 42.2307C16.9415 44.5994 18.4852 45.6664 21.0814 44.9902Z" fill="#4FC053"/>
<path d="M29.1089 43.7774C26.4287 43.8546 22.2899 46.3728 22.2574 47.0326C22.2249 47.6924 25.674 50.1145 28.7549 50.9572C31.2124 51.0804 32.7935 50.4716 33.3816 47.5904C33.059 45.0868 31.7891 43.7003 29.1089 43.7774Z" fill="#4FC053"/>
<path d="M29.1089 43.7774C26.4287 43.8546 22.2899 46.3728 22.2574 47.0326C22.2249 47.6924 25.674 50.1145 28.7549 50.9572C31.2124 51.0804 32.7935 50.4716 33.3816 47.5904C33.059 45.0868 31.7891 43.7003 29.1089 43.7774Z" fill="#4FC053"/>
<path d="M40.4238 41.4798C38.9091 39.2486 34.5696 37.1013 34.0019 37.4307C33.4341 37.7601 33.2806 41.9959 34.2451 45.0646C35.4721 47.2154 36.8353 48.2268 39.5561 47.1666C41.4694 45.5382 41.9384 43.711 40.4238 41.4798Z" fill="#4FC053"/>
<path d="M51.2452 32.089C51.9152 29.4708 50.6641 24.7622 50.0446 24.5477C49.4251 24.3331 46.1607 27.003 44.5033 29.7543C43.7042 32.1012 43.8457 33.8019 46.4273 35.171C48.9021 35.5529 50.5752 34.7072 51.2452 32.089Z" fill="#4FC053"/>
<path d="M51.2452 32.089C51.9152 29.4708 50.6641 24.7622 50.0446 24.5477C49.4251 24.3331 46.1607 27.003 44.5033 29.7543C43.7042 32.1012 43.8457 33.8019 46.4273 35.171C48.9021 35.5529 50.5752 34.7072 51.2452 32.089Z" fill="#4FC053"/>
<path d="M56.648 30.7345C55.874 29.1824 53.2942 27.4385 52.9046 27.599C52.515 27.7594 52.0558 30.4431 52.408 32.4808C53.0057 33.9567 53.7874 34.719 55.6103 34.2801C56.9674 33.4093 57.422 32.2866 56.648 30.7345Z" fill="#4FC053"/>
<path d="M19.4472 15.8726C17.9326 13.6414 13.5931 11.4941 13.0253 11.8235C12.4575 12.1529 12.304 16.3887 13.2685 19.4575C14.4955 21.6082 15.8588 22.6196 18.5796 21.5594C20.4928 19.931 20.9619 18.1039 19.4472 15.8726Z" fill="#4FC053"/>
<path d="M36.0073 14.7594C34.4926 12.5281 30.1531 10.3808 29.5853 10.7102C29.0176 11.0397 28.8641 15.2754 29.8286 18.3442C31.0556 20.495 32.4188 21.5064 35.1396 20.4461C37.0529 18.8177 37.5219 16.9906 36.0073 14.7594Z" fill="#4FC053"/>
<path d="M53.8482 11.7475C51.6485 13.2937 46.8363 13.7533 46.4209 13.2426C46.0054 12.7318 47.3484 8.71543 49.3274 6.18948C51.2298 4.6158 52.8597 4.1564 55.0324 6.11908C56.2503 8.32489 56.0478 10.2012 53.8482 11.7475Z" fill="#418944"/>
<path d="M34.3296 5.25512C36.9258 5.93132 40.4057 9.31452 40.292 9.96508C40.1782 10.6156 36.2814 12.2038 33.0918 12.3345C30.6687 11.9036 29.2614 10.9555 29.3233 8.01463C30.1898 5.64597 31.7335 4.57892 34.3296 5.25512Z" fill="#418944"/>
<path d="M5.74959 52.8324C7.38404 53.2581 9.57496 55.3881 9.50335 55.7977C9.43173 56.2072 6.97838 57.2071 4.97028 57.2894C3.44472 57.0181 2.55874 56.4212 2.59766 54.5697C3.14322 53.0784 4.11513 52.4066 5.74959 52.8324Z" fill="#418944"/>
<path d="M47.0478 5.85261C45.5331 3.62137 41.1937 1.47407 40.6259 1.80349C40.0581 2.13292 39.9046 6.36866 40.8691 9.43743C42.0961 11.5882 43.4594 12.5996 46.1802 11.5394C48.0934 9.91101 48.5624 8.08385 47.0478 5.85261Z" fill="#4FC053"/>
<path d="M18.8591 30.1391C16.1902 29.8791 11.7727 31.858 11.659 32.5085C11.5452 33.1591 14.6684 35.9955 17.6213 37.2185C20.0444 37.6494 21.6884 37.2438 22.6277 34.459C22.6167 31.9343 21.528 30.3991 18.8591 30.1391Z" fill="#4FC053"/>
<path d="M53.512 15.6901C55.0984 17.87 55.6712 22.7103 55.175 23.1416C54.6788 23.5728 50.6646 22.3167 48.1124 20.3831C46.506 18.5035 46.0109 16.8714 47.9037 14.6332C50.0607 13.3516 51.9256 13.5101 53.512 15.6901Z" fill="#418944"/>
<path d="M44.2657 27.1766C46.8618 26.5004 50.3418 23.1172 50.228 22.4667C50.1143 21.8161 46.2175 20.228 43.0279 20.0973C40.6047 20.5281 39.1975 21.4763 39.2593 24.4171C40.1258 26.7858 41.6696 27.8528 44.2657 27.1766Z" fill="#4FC053"/>
<path d="M42.0434 12.3254C39.3746 12.0654 34.957 14.0442 34.8433 14.6948C34.7295 15.3454 37.8527 18.1818 40.8056 19.4048C43.2288 19.8356 44.8727 19.4301 45.812 16.6452C45.8011 14.1206 44.7123 12.5854 42.0434 12.3254Z" fill="#4FC053"/>
<path d="M40.9394 49.0661C38.2706 48.8061 33.853 50.785 33.7393 51.4355C33.6255 52.0861 36.7487 54.9225 39.7016 56.1455C42.1248 56.5764 43.7687 56.1708 44.708 53.386C44.6971 50.8613 43.6083 49.3261 40.9394 49.0661Z" fill="#4FC053"/>
</svg>
