<svg width="160" height="160" viewBox="0 0 160 160" fill="none" xmlns="http://www.w3.org/2000/svg">
<path d="M100.166 3.0769L160 30.2333V123.02L94.8149 157.949L100.166 3.0769Z" fill="#BCAB97"/>
<path d="M58.7613 80H38.5185L76.7079 160H99.7529L58.7613 80Z" fill="#87704D"/>
<path d="M116.706 80H96.7901L134.364 160H157.037L116.706 80Z" fill="#87704D"/>
<path d="M78.1878 80H58.2715L95.845 160H118.518L78.1878 80Z" fill="#87704D"/>
<path d="M97.941 80H78.0247L115.598 160H138.271L97.941 80Z" fill="#87704D"/>
<path d="M38.6817 80H18.7654L56.3389 160H79.0122L38.6817 80Z" fill="#87704D"/>
<path d="M19.9163 80H1.27256e-05L37.5735 160H60.2468L19.9163 80Z" fill="#87704D"/>
<path d="M59.2785 80H38.5185L76.7079 -4.52995e-06H99.7529L59.2785 80Z" fill="#87704D"/>
<path d="M116.706 80H96.7901L134.364 -3.26726e-06H157.037L116.706 80Z" fill="#87704D"/>
<path d="M78.1878 80H58.2715L95.845 -3.26726e-06H118.518L78.1878 80Z" fill="#87704D"/>
<path d="M97.941 80H78.0247L115.598 -3.26726e-06H138.271L97.941 80Z" fill="#87704D"/>
<path d="M38.6817 80H18.7654L56.3389 -3.26726e-06H79.0122L38.6817 80Z" fill="#87704D"/>
<path d="M19.9163 80H1.27256e-05L37.5735 -3.26726e-06H60.2468L19.9163 80Z" fill="#87704D"/>
<path d="M155.062 74.2562L137.284 68.7178V93.3332L155.062 87.1793V74.2562Z" fill="#7C7A49"/>
<path d="M146.173 70.7693V91.2821" stroke="#BDA88F"/>
<path d="M137.284 81.0256L155.062 80" stroke="#BDA88F"/>
<path d="M140 105L145 107V115L140 117V105Z" fill="#C4C4C4"/>
<path d="M147.5 39.5L152.5 41.5V49.5L147.5 51.5V39.5Z" fill="#C4C4C4"/>
<path d="M152.5 45.5L157.5 47.5V55.5L152.5 57.5V45.5Z" fill="#C4C4C4"/>
<path d="M150 105L155 107V115L150 117V105Z" fill="#C4C4C4"/>
<path d="M142 44L147 46V54L142 56V44Z" fill="#AA9393"/>
<path d="M150 105L155 107V115L150 117V105Z" fill="#AA9393"/>
<path d="M145 99L150 101V109L145 111V99Z" fill="#C4C4C4"/>
<path d="M116 85.2166C116 89.0826 113.761 92.2166 111 92.2166C108.239 92.2166 106 89.0826 106 85.2166C106 81.3507 108.239 83.7166 111 83.7166C113.761 83.7166 116 81.3507 116 85.2166Z" fill="#C4C4C4"/>
<path d="M104 85.2166C104 89.0826 101.761 92.2166 99 92.2166C96.2386 92.2166 94 89.0826 94 85.2166C94 81.3507 96.2386 83.7166 99 83.7166C101.761 83.7166 104 81.3507 104 85.2166Z" fill="#C4C4C4"/>
<path d="M111 95.2166C111 99.0826 108.761 102.217 106 102.217C103.239 102.217 101 99.0826 101 95.2166C101 91.3507 103.239 93.7166 106 93.7166C108.761 93.7166 111 91.3507 111 95.2166Z" fill="#C4C4C4"/>
<path d="M122 95.2166C122 99.0826 119.761 102.217 117 102.217C114.239 102.217 112 99.0826 112 95.2166C112 91.3507 114.239 93.7166 117 93.7166C119.761 93.7166 122 91.3507 122 95.2166Z" fill="#C4C4C4"/>
<path d="M19 86.2166C19 90.0826 16.7614 93.2166 14 93.2166C11.2386 93.2166 9 90.0826 9 86.2166C9 82.3507 11.2386 84.7166 14 84.7166C16.7614 84.7166 19 82.3507 19 86.2166Z" fill="#C4C4C4"/>
<path d="M25 96.2166C25 100.083 22.7614 103.217 20 103.217C17.2386 103.217 15 100.083 15 96.2166C15 92.3507 17.2386 94.7166 20 94.7166C22.7614 94.7166 25 92.3507 25 96.2166Z" fill="#C4C4C4"/>
<path d="M44 86.2166C44 90.0826 41.7614 93.2166 39 93.2166C36.2386 93.2166 34 90.0826 34 86.2166C34 82.3507 36.2386 84.7166 39 84.7166C41.7614 84.7166 44 82.3507 44 86.2166Z" fill="#C4C4C4"/>
<path d="M32 86.2166C32 90.0826 29.7614 93.2166 27 93.2166C24.2386 93.2166 22 90.0826 22 86.2166C22 82.3507 24.2386 84.7166 27 84.7166C29.7614 84.7166 32 82.3507 32 86.2166Z" fill="#C4C4C4"/>
<path d="M39 96.2166C39 100.083 36.7614 103.217 34 103.217C31.2386 103.217 29 100.083 29 96.2166C29 92.3507 31.2386 94.7166 34 94.7166C36.7614 94.7166 39 92.3507 39 96.2166Z" fill="#C4C4C4"/>
<path d="M50 96.2166C50 100.083 47.7614 103.217 45 103.217C42.2386 103.217 40 100.083 40 96.2166C40 92.3507 42.2386 94.7166 45 94.7166C47.7614 94.7166 50 92.3507 50 96.2166Z" fill="#C4C4C4"/>
<path d="M68 86.2166C68 90.0826 65.7614 93.2166 63 93.2166C60.2386 93.2166 58 90.0826 58 86.2166C58 82.3507 60.2386 84.7166 63 84.7166C65.7614 84.7166 68 82.3507 68 86.2166Z" fill="#C4C4C4"/>
<path d="M56 86.2166C56 90.0826 53.7614 93.2166 51 93.2166C48.2386 93.2166 46 90.0826 46 86.2166C46 82.3507 48.2386 84.7166 51 84.7166C53.7614 84.7166 56 82.3507 56 86.2166Z" fill="#C4C4C4"/>
<path d="M63 96.2166C63 100.083 60.7614 103.217 58 103.217C55.2386 103.217 53 100.083 53 96.2166C53 92.3507 55.2386 94.7166 58 94.7166C60.7614 94.7166 63 92.3507 63 96.2166Z" fill="#C4C4C4"/>
<path d="M74 96.2166C74 100.083 71.7614 103.217 69 103.217C66.2386 103.217 64 100.083 64 96.2166C64 92.3507 66.2386 94.7166 69 94.7166C71.7614 94.7166 74 92.3507 74 96.2166Z" fill="#C4C4C4"/>
<path d="M93 86.2166C93 90.0826 90.7614 93.2166 88 93.2166C85.2386 93.2166 83 90.0826 83 86.2166C83 82.3507 85.2386 84.7166 88 84.7166C90.7614 84.7166 93 82.3507 93 86.2166Z" fill="#C4C4C4"/>
<path d="M81 86.2166C81 90.0826 78.7614 93.2166 76 93.2166C73.2386 93.2166 71 90.0826 71 86.2166C71 82.3507 73.2386 84.7166 76 84.7166C78.7614 84.7166 81 82.3507 81 86.2166Z" fill="#C4C4C4"/>
<path d="M124 106.217C124 110.083 121.761 113.217 119 113.217C116.239 113.217 114 110.083 114 106.217C114 102.351 116.239 104.717 119 104.717C121.761 104.717 124 102.351 124 106.217Z" fill="#C4C4C4"/>
<path d="M112 106.217C112 110.083 109.761 113.217 107 113.217C104.239 113.217 102 110.083 102 106.217C102 102.351 104.239 104.717 107 104.717C109.761 104.717 112 102.351 112 106.217Z" fill="#C4C4C4"/>
<path d="M27 107.217C27 111.083 24.7614 114.217 22 114.217C19.2386 114.217 17 111.083 17 107.217C17 103.351 19.2386 105.717 22 105.717C24.7614 105.717 27 103.351 27 107.217Z" fill="#C4C4C4"/>
<path d="M52 107.217C52 111.083 49.7614 114.217 47 114.217C44.2386 114.217 42 111.083 42 107.217C42 103.351 44.2386 105.717 47 105.717C49.7614 105.717 52 103.351 52 107.217Z" fill="#C4C4C4"/>
<path d="M40 107.217C40 111.083 37.7614 114.217 35 114.217C32.2386 114.217 30 111.083 30 107.217C30 103.351 32.2386 105.717 35 105.717C37.7614 105.717 40 103.351 40 107.217Z" fill="#C4C4C4"/>
<path d="M76 107.217C76 111.083 73.7614 114.217 71 114.217C68.2386 114.217 66 111.083 66 107.217C66 103.351 68.2386 105.717 71 105.717C73.7614 105.717 76 103.351 76 107.217Z" fill="#C4C4C4"/>
<path d="M64 107.217C64 111.083 61.7614 114.217 59 114.217C56.2386 114.217 54 111.083 54 107.217C54 103.351 56.2386 105.717 59 105.717C61.7614 105.717 64 103.351 64 107.217Z" fill="#C4C4C4"/>
<path d="M101 107.217C101 111.083 98.7614 114.217 96 114.217C93.2386 114.217 91 111.083 91 107.217C91 103.351 93.2386 105.717 96 105.717C98.7614 105.717 101 103.351 101 107.217Z" fill="#C4C4C4"/>
<path d="M89 107.217C89 111.083 86.7614 114.217 84 114.217C81.2386 114.217 79 111.083 79 107.217C79 103.351 81.2386 105.717 84 105.717C86.7614 105.717 89 103.351 89 107.217Z" fill="#C4C4C4"/>
<path d="M145 151.217C145 155.083 142.761 158.217 140 158.217C137.239 158.217 135 155.083 135 151.217C135 147.351 137.239 149.717 140 149.717C142.761 149.717 145 147.351 145 151.217Z" fill="#C4C4C4"/>
<path d="M133 151.217C133 155.083 130.761 158.217 128 158.217C125.239 158.217 123 155.083 123 151.217C123 147.351 125.239 149.717 128 149.717C130.761 149.717 133 147.351 133 151.217Z" fill="#C4C4C4"/>
<path d="M48 152.217C48 156.083 45.7614 159.217 43 159.217C40.2386 159.217 38 156.083 38 152.217C38 148.351 40.2386 150.717 43 150.717C45.7614 150.717 48 148.351 48 152.217Z" fill="#C4C4C4"/>
<path d="M73 152.217C73 156.083 70.7614 159.217 68 159.217C65.2386 159.217 63 156.083 63 152.217C63 148.351 65.2386 150.717 68 150.717C70.7614 150.717 73 148.351 73 152.217Z" fill="#C4C4C4"/>
<path d="M61 152.217C61 156.083 58.7614 159.217 56 159.217C53.2386 159.217 51 156.083 51 152.217C51 148.351 53.2386 150.717 56 150.717C58.7614 150.717 61 148.351 61 152.217Z" fill="#C4C4C4"/>
<path d="M97 152.217C97 156.083 94.7614 159.217 92 159.217C89.2386 159.217 87 156.083 87 152.217C87 148.351 89.2386 150.717 92 150.717C94.7614 150.717 97 148.351 97 152.217Z" fill="#C4C4C4"/>
<path d="M85 152.217C85 156.083 82.7614 159.217 80 159.217C77.2386 159.217 75 156.083 75 152.217C75 148.351 77.2386 150.717 80 150.717C82.7614 150.717 85 148.351 85 152.217Z" fill="#C4C4C4"/>
<path d="M122 152.217C122 156.083 119.761 159.217 117 159.217C114.239 159.217 112 156.083 112 152.217C112 148.351 114.239 150.717 117 150.717C119.761 150.717 122 148.351 122 152.217Z" fill="#C4C4C4"/>
<path d="M110 152.217C110 156.083 107.761 159.217 105 159.217C102.239 159.217 100 156.083 100 152.217C100 148.351 102.239 150.717 105 150.717C107.761 150.717 110 148.351 110 152.217Z" fill="#C4C4C4"/>
<path d="M144 139.217C144 143.083 141.761 146.217 139 146.217C136.239 146.217 134 143.083 134 139.217C134 135.351 136.239 137.717 139 137.717C141.761 137.717 144 135.351 144 139.217Z" fill="#C4C4C4"/>
<path d="M132 139.217C132 143.083 129.761 146.217 127 146.217C124.239 146.217 122 143.083 122 139.217C122 135.351 124.239 137.717 127 137.717C129.761 137.717 132 135.351 132 139.217Z" fill="#C4C4C4"/>
<path d="M47 140.217C47 144.083 44.7614 147.217 42 147.217C39.2386 147.217 37 144.083 37 140.217C37 136.351 39.2386 138.717 42 138.717C44.7614 138.717 47 136.351 47 140.217Z" fill="#C4C4C4"/>
<path d="M72 140.217C72 144.083 69.7614 147.217 67 147.217C64.2386 147.217 62 144.083 62 140.217C62 136.351 64.2386 138.717 67 138.717C69.7614 138.717 72 136.351 72 140.217Z" fill="#C4C4C4"/>
<path d="M60 140.217C60 144.083 57.7614 147.217 55 147.217C52.2386 147.217 50 144.083 50 140.217C50 136.351 52.2386 138.717 55 138.717C57.7614 138.717 60 136.351 60 140.217Z" fill="#C4C4C4"/>
<path d="M96 140.217C96 144.083 93.7614 147.217 91 147.217C88.2386 147.217 86 144.083 86 140.217C86 136.351 88.2386 138.717 91 138.717C93.7614 138.717 96 136.351 96 140.217Z" fill="#C4C4C4"/>
<path d="M84 140.217C84 144.083 81.7614 147.217 79 147.217C76.2386 147.217 74 144.083 74 140.217C74 136.351 76.2386 138.717 79 138.717C81.7614 138.717 84 136.351 84 140.217Z" fill="#C4C4C4"/>
<path d="M121 140.217C121 144.083 118.761 147.217 116 147.217C113.239 147.217 111 144.083 111 140.217C111 136.351 113.239 138.717 116 138.717C118.761 138.717 121 136.351 121 140.217Z" fill="#C4C4C4"/>
<path d="M109 140.217C109 144.083 106.761 147.217 104 147.217C101.239 147.217 99 144.083 99 140.217C99 136.351 101.239 138.717 104 138.717C106.761 138.717 109 136.351 109 140.217Z" fill="#C4C4C4"/>
<path d="M134 128.217C134 132.083 131.761 135.217 129 135.217C126.239 135.217 124 132.083 124 128.217C124 124.351 126.239 126.717 129 126.717C131.761 126.717 134 124.351 134 128.217Z" fill="#C4C4C4"/>
<path d="M122 128.217C122 132.083 119.761 135.217 117 135.217C114.239 135.217 112 132.083 112 128.217C112 124.351 114.239 126.717 117 126.717C119.761 126.717 122 124.351 122 128.217Z" fill="#C4C4C4"/>
<path d="M37 129.217C37 133.083 34.7614 136.217 32 136.217C29.2386 136.217 27 133.083 27 129.217C27 125.351 29.2386 127.717 32 127.717C34.7614 127.717 37 125.351 37 129.217Z" fill="#C4C4C4"/>
<path d="M62 129.217C62 133.083 59.7614 136.217 57 136.217C54.2386 136.217 52 133.083 52 129.217C52 125.351 54.2386 127.717 57 127.717C59.7614 127.717 62 125.351 62 129.217Z" fill="#C4C4C4"/>
<path d="M50 129.217C50 133.083 47.7614 136.217 45 136.217C42.2386 136.217 40 133.083 40 129.217C40 125.351 42.2386 127.717 45 127.717C47.7614 127.717 50 125.351 50 129.217Z" fill="#C4C4C4"/>
<path d="M86 129.217C86 133.083 83.7614 136.217 81 136.217C78.2386 136.217 76 133.083 76 129.217C76 125.351 78.2386 127.717 81 127.717C83.7614 127.717 86 125.351 86 129.217Z" fill="#C4C4C4"/>
<path d="M74 129.217C74 133.083 71.7614 136.217 69 136.217C66.2386 136.217 64 133.083 64 129.217C64 125.351 66.2386 127.717 69 127.717C71.7614 127.717 74 125.351 74 129.217Z" fill="#C4C4C4"/>
<path d="M111 129.217C111 133.083 108.761 136.217 106 136.217C103.239 136.217 101 133.083 101 129.217C101 125.351 103.239 127.717 106 127.717C108.761 127.717 111 125.351 111 129.217Z" fill="#C4C4C4"/>
<path d="M99 129.217C99 133.083 96.7614 136.217 94 136.217C91.2386 136.217 89 133.083 89 129.217C89 125.351 91.2386 127.717 94 127.717C96.7614 127.717 99 125.351 99 129.217Z" fill="#C4C4C4"/>
<path d="M132 117.217C132 121.083 129.761 124.217 127 124.217C124.239 124.217 122 121.083 122 117.217C122 113.351 124.239 115.717 127 115.717C129.761 115.717 132 113.351 132 117.217Z" fill="#C4C4C4"/>
<path d="M120 117.217C120 121.083 117.761 124.217 115 124.217C112.239 124.217 110 121.083 110 117.217C110 113.351 112.239 115.717 115 115.717C117.761 115.717 120 113.351 120 117.217Z" fill="#C4C4C4"/>
<path d="M35 118.217C35 122.083 32.7614 125.217 30 125.217C27.2386 125.217 25 122.083 25 118.217C25 114.351 27.2386 116.717 30 116.717C32.7614 116.717 35 114.351 35 118.217Z" fill="#C4C4C4"/>
<path d="M60 118.217C60 122.083 57.7614 125.217 55 125.217C52.2386 125.217 50 122.083 50 118.217C50 114.351 52.2386 116.717 55 116.717C57.7614 116.717 60 114.351 60 118.217Z" fill="#C4C4C4"/>
<path d="M48 118.217C48 122.083 45.7614 125.217 43 125.217C40.2386 125.217 38 122.083 38 118.217C38 114.351 40.2386 116.717 43 116.717C45.7614 116.717 48 114.351 48 118.217Z" fill="#C4C4C4"/>
<path d="M84 118.217C84 122.083 81.7614 125.217 79 125.217C76.2386 125.217 74 122.083 74 118.217C74 114.351 76.2386 116.717 79 116.717C81.7614 116.717 84 114.351 84 118.217Z" fill="#C4C4C4"/>
<path d="M72 118.217C72 122.083 69.7614 125.217 67 125.217C64.2386 125.217 62 122.083 62 118.217C62 114.351 64.2386 116.717 67 116.717C69.7614 116.717 72 114.351 72 118.217Z" fill="#C4C4C4"/>
<path d="M109 118.217C109 122.083 106.761 125.217 104 125.217C101.239 125.217 99 122.083 99 118.217C99 114.351 101.239 116.717 104 116.717C106.761 116.717 109 114.351 109 118.217Z" fill="#C4C4C4"/>
<path d="M97 118.217C97 122.083 94.7614 125.217 92 125.217C89.2386 125.217 87 122.083 87 118.217C87 114.351 89.2386 116.717 92 116.717C94.7614 116.717 97 114.351 97 118.217Z" fill="#C4C4C4"/>
<path d="M88 96.2166C88 100.083 85.7614 103.217 83 103.217C80.2386 103.217 78 100.083 78 96.2166C78 92.3507 80.2386 94.7166 83 94.7166C85.7614 94.7166 88 92.3507 88 96.2166Z" fill="#C4C4C4"/>
<path d="M99 96.2166C99 100.083 96.7614 103.217 94 103.217C91.2386 103.217 89 100.083 89 96.2166C89 92.3507 91.2386 94.7166 94 94.7166C96.7614 94.7166 99 92.3507 99 96.2166Z" fill="#C4C4C4"/>
<path d="M113 78.0001C113 74.1342 110.761 71.0001 108 71.0001C105.239 71.0001 103 74.1342 103 78.0001C103 81.8661 105.239 79.5002 108 79.5002C110.761 79.5002 113 81.8661 113 78.0001Z" fill="#C4C4C4"/>
<path d="M101 78.0001C101 74.1342 98.7614 71.0001 96 71.0001C93.2386 71.0001 91 74.1342 91 78.0001C91 81.8661 93.2386 79.5002 96 79.5002C98.7614 79.5002 101 81.8661 101 78.0001Z" fill="#C4C4C4"/>
<path d="M108 68.0001C108 64.1342 105.761 61.0001 103 61.0001C100.239 61.0001 98 64.1342 98 68.0001C98 71.8661 100.239 69.5002 103 69.5002C105.761 69.5002 108 71.8661 108 68.0001Z" fill="#C4C4C4"/>
<path d="M119 68.0001C119 64.1342 116.761 61.0001 114 61.0001C111.239 61.0001 109 64.1342 109 68.0001C109 71.8661 111.239 69.5002 114 69.5002C116.761 69.5002 119 71.8661 119 68.0001Z" fill="#C4C4C4"/>
<path d="M122 56.9999C122 53.1339 119.761 49.9999 117 49.9999C114.239 49.9999 112 53.1339 112 56.9999C112 60.8659 114.239 58.5 117 58.5C119.761 58.5 122 60.8659 122 56.9999Z" fill="#C4C4C4"/>
<path d="M139 24.9999C139 21.1339 136.761 17.9999 134 17.9999C131.239 17.9999 129 21.1339 129 24.9999C129 28.8659 131.239 26.5 134 26.5C136.761 26.5 139 28.8659 139 24.9999Z" fill="#C4C4C4"/>
<path d="M16 77.0001C16 73.1342 13.7614 70.0001 11 70.0001C8.23858 70.0001 6 73.1342 6 77.0001C6 80.8661 8.23858 78.5002 11 78.5002C13.7614 78.5002 16 80.8661 16 77.0001Z" fill="#C4C4C4"/>
<path d="M22 67.0001C22 63.1342 19.7614 60.0001 17 60.0001C14.2386 60.0001 12 63.1342 12 67.0001C12 70.8661 14.2386 68.5002 17 68.5002C19.7614 68.5002 22 70.8661 22 67.0001Z" fill="#C4C4C4"/>
<path d="M41 77.0001C41 73.1342 38.7614 70.0001 36 70.0001C33.2386 70.0001 31 73.1342 31 77.0001C31 80.8661 33.2386 78.5002 36 78.5002C38.7614 78.5002 41 80.8661 41 77.0001Z" fill="#C4C4C4"/>
<path d="M29 77.0001C29 73.1342 26.7614 70.0001 24 70.0001C21.2386 70.0001 19 73.1342 19 77.0001C19 80.8661 21.2386 78.5002 24 78.5002C26.7614 78.5002 29 80.8661 29 77.0001Z" fill="#C4C4C4"/>
<path d="M36 67.0001C36 63.1342 33.7614 60.0001 31 60.0001C28.2386 60.0001 26 63.1342 26 67.0001C26 70.8661 28.2386 68.5002 31 68.5002C33.7614 68.5002 36 70.8661 36 67.0001Z" fill="#C4C4C4"/>
<path d="M47 67.0001C47 63.1342 44.7614 60.0001 42 60.0001C39.2386 60.0001 37 63.1342 37 67.0001C37 70.8661 39.2386 68.5002 42 68.5002C44.7614 68.5002 47 70.8661 47 67.0001Z" fill="#C4C4C4"/>
<path d="M65 77.0001C65 73.1342 62.7614 70.0001 60 70.0001C57.2386 70.0001 55 73.1342 55 77.0001C55 80.8661 57.2386 78.5002 60 78.5002C62.7614 78.5002 65 80.8661 65 77.0001Z" fill="#C4C4C4"/>
<path d="M53 77.0001C53 73.1342 50.7614 70.0001 48 70.0001C45.2386 70.0001 43 73.1342 43 77.0001C43 80.8661 45.2386 78.5002 48 78.5002C50.7614 78.5002 53 80.8661 53 77.0001Z" fill="#C4C4C4"/>
<path d="M60 67.0001C60 63.1342 57.7614 60.0001 55 60.0001C52.2386 60.0001 50 63.1342 50 67.0001C50 70.8661 52.2386 68.5002 55 68.5002C57.7614 68.5002 60 70.8661 60 67.0001Z" fill="#C4C4C4"/>
<path d="M71 67.0001C71 63.1342 68.7614 60.0001 66 60.0001C63.2386 60.0001 61 63.1342 61 67.0001C61 70.8661 63.2386 68.5002 66 68.5002C68.7614 68.5002 71 70.8661 71 67.0001Z" fill="#C4C4C4"/>
<path d="M90 77.0001C90 73.1342 87.7614 70.0001 85 70.0001C82.2386 70.0001 80 73.1342 80 77.0001C80 80.8661 82.2386 78.5002 85 78.5002C87.7614 78.5002 90 80.8661 90 77.0001Z" fill="#C4C4C4"/>
<path d="M78 77.0001C78 73.1342 75.7614 70.0001 73 70.0001C70.2386 70.0001 68 73.1342 68 77.0001C68 80.8661 70.2386 78.5002 73 78.5002C75.7614 78.5002 78 80.8661 78 77.0001Z" fill="#C4C4C4"/>
<path d="M109 56.9999C109 53.1339 106.761 49.9999 104 49.9999C101.239 49.9999 99 53.1339 99 56.9999C99 60.8659 101.239 58.5 104 58.5C106.761 58.5 109 60.8659 109 56.9999Z" fill="#C4C4C4"/>
<path d="M24 55.9999C24 52.1339 21.7614 48.9999 19 48.9999C16.2386 48.9999 14 52.1339 14 55.9999C14 59.8659 16.2386 57.5 19 57.5C21.7614 57.5 24 59.8659 24 55.9999Z" fill="#C4C4C4"/>
<path d="M49 55.9999C49 52.1339 46.7614 48.9999 44 48.9999C41.2386 48.9999 39 52.1339 39 55.9999C39 59.8659 41.2386 57.5 44 57.5C46.7614 57.5 49 59.8659 49 55.9999Z" fill="#C4C4C4"/>
<path d="M37 55.9999C37 52.1339 34.7614 48.9999 32 48.9999C29.2386 48.9999 27 52.1339 27 55.9999C27 59.8659 29.2386 57.5 32 57.5C34.7614 57.5 37 59.8659 37 55.9999Z" fill="#C4C4C4"/>
<path d="M73 55.9999C73 52.1339 70.7614 48.9999 68 48.9999C65.2386 48.9999 63 52.1339 63 55.9999C63 59.8659 65.2386 57.5 68 57.5C70.7614 57.5 73 59.8659 73 55.9999Z" fill="#C4C4C4"/>
<path d="M61 55.9999C61 52.1339 58.7614 48.9999 56 48.9999C53.2386 48.9999 51 52.1339 51 55.9999C51 59.8659 53.2386 57.5 56 57.5C58.7614 57.5 61 59.8659 61 55.9999Z" fill="#C4C4C4"/>
<path d="M98 55.9999C98 52.1339 95.7614 48.9999 93 48.9999C90.2386 48.9999 88 52.1339 88 55.9999C88 59.8659 90.2386 57.5 93 57.5C95.7614 57.5 98 59.8659 98 55.9999Z" fill="#C4C4C4"/>
<path d="M86 55.9999C86 52.1339 83.7614 48.9999 81 48.9999C78.2386 48.9999 76 52.1339 76 55.9999C76 59.8659 78.2386 57.5 81 57.5C83.7614 57.5 86 59.8659 86 55.9999Z" fill="#C4C4C4"/>
<path d="M85 67.0001C85 63.1342 82.7614 60.0001 80 60.0001C77.2386 60.0001 75 63.1342 75 67.0001C75 70.8661 77.2386 68.5002 80 68.5002C82.7614 68.5002 85 70.8661 85 67.0001Z" fill="#C4C4C4"/>
<path d="M96 67.0001C96 63.1342 93.7614 60.0001 91 60.0001C88.2386 60.0001 86 63.1342 86 67.0001C86 70.8661 88.2386 68.5002 91 68.5002C93.7614 68.5002 96 70.8661 96 67.0001Z" fill="#C4C4C4"/>
<path d="M130 46.0001C130 42.1342 127.761 39.0001 125 39.0001C122.239 39.0001 120 42.1342 120 46.0001C120 49.8661 122.239 47.5002 125 47.5002C127.761 47.5002 130 49.8661 130 46.0001Z" fill="#C4C4C4"/>
<path d="M118 46.0001C118 42.1342 115.761 39.0001 113 39.0001C110.239 39.0001 108 42.1342 108 46.0001C108 49.8661 110.239 47.5002 113 47.5002C115.761 47.5002 118 49.8661 118 46.0001Z" fill="#C4C4C4"/>
<path d="M125 36.0001C125 32.1342 122.761 29.0001 120 29.0001C117.239 29.0001 115 32.1342 115 36.0001C115 39.8661 117.239 37.5002 120 37.5002C122.761 37.5002 125 39.8661 125 36.0001Z" fill="#C4C4C4"/>
<path d="M136 36.0001C136 32.1342 133.761 29.0001 131 29.0001C128.239 29.0001 126 32.1342 126 36.0001C126 39.8661 128.239 37.5002 131 37.5002C133.761 37.5002 136 39.8661 136 36.0001Z" fill="#C4C4C4"/>
<path d="M33 45.0001C33 41.1342 30.7614 38.0001 28 38.0001C25.2386 38.0001 23 41.1342 23 45.0001C23 48.8661 25.2386 46.5002 28 46.5002C30.7614 46.5002 33 48.8661 33 45.0001Z" fill="#C4C4C4"/>
<path d="M39 35.0001C39 31.1342 36.7614 28.0001 34 28.0001C31.2386 28.0001 29 31.1342 29 35.0001C29 38.8661 31.2386 36.5002 34 36.5002C36.7614 36.5002 39 38.8661 39 35.0001Z" fill="#C4C4C4"/>
<path d="M58 45.0001C58 41.1342 55.7614 38.0001 53 38.0001C50.2386 38.0001 48 41.1342 48 45.0001C48 48.8661 50.2386 46.5002 53 46.5002C55.7614 46.5002 58 48.8661 58 45.0001Z" fill="#C4C4C4"/>
<path d="M46 45.0001C46 41.1342 43.7614 38.0001 41 38.0001C38.2386 38.0001 36 41.1342 36 45.0001C36 48.8661 38.2386 46.5002 41 46.5002C43.7614 46.5002 46 48.8661 46 45.0001Z" fill="#C4C4C4"/>
<path d="M53 35.0001C53 31.1342 50.7614 28.0001 48 28.0001C45.2386 28.0001 43 31.1342 43 35.0001C43 38.8661 45.2386 36.5002 48 36.5002C50.7614 36.5002 53 38.8661 53 35.0001Z" fill="#C4C4C4"/>
<path d="M64 35.0001C64 31.1342 61.7614 28.0001 59 28.0001C56.2386 28.0001 54 31.1342 54 35.0001C54 38.8661 56.2386 36.5002 59 36.5002C61.7614 36.5002 64 38.8661 64 35.0001Z" fill="#C4C4C4"/>
<path d="M82 45.0001C82 41.1342 79.7614 38.0001 77 38.0001C74.2386 38.0001 72 41.1342 72 45.0001C72 48.8661 74.2386 46.5002 77 46.5002C79.7614 46.5002 82 48.8661 82 45.0001Z" fill="#C4C4C4"/>
<path d="M70 45.0001C70 41.1342 67.7614 38.0001 65 38.0001C62.2386 38.0001 60 41.1342 60 45.0001C60 48.8661 62.2386 46.5002 65 46.5002C67.7614 46.5002 70 48.8661 70 45.0001Z" fill="#C4C4C4"/>
<path d="M77 35.0001C77 31.1342 74.7614 28.0001 72 28.0001C69.2386 28.0001 67 31.1342 67 35.0001C67 38.8661 69.2386 36.5002 72 36.5002C74.7614 36.5002 77 38.8661 77 35.0001Z" fill="#C4C4C4"/>
<path d="M88 35.0001C88 31.1342 85.7614 28.0001 83 28.0001C80.2386 28.0001 78 31.1342 78 35.0001C78 38.8661 80.2386 36.5002 83 36.5002C85.7614 36.5002 88 38.8661 88 35.0001Z" fill="#C4C4C4"/>
<path d="M107 45.0001C107 41.1342 104.761 38.0001 102 38.0001C99.2386 38.0001 97 41.1342 97 45.0001C97 48.8661 99.2386 46.5002 102 46.5002C104.761 46.5002 107 48.8661 107 45.0001Z" fill="#C4C4C4"/>
<path d="M95 45.0001C95 41.1342 92.7614 38.0001 90 38.0001C87.2386 38.0001 85 41.1342 85 45.0001C85 48.8661 87.2386 46.5002 90 46.5002C92.7614 46.5002 95 48.8661 95 45.0001Z" fill="#C4C4C4"/>
<path d="M126 24.9999C126 21.1339 123.761 17.9999 121 17.9999C118.239 17.9999 116 21.1339 116 24.9999C116 28.8659 118.239 26.5 121 26.5C123.761 26.5 126 28.8659 126 24.9999Z" fill="#C4C4C4"/>
<path d="M41 23.9999C41 20.1339 38.7614 16.9999 36 16.9999C33.2386 16.9999 31 20.1339 31 23.9999C31 27.8659 33.2386 25.5 36 25.5C38.7614 25.5 41 27.8659 41 23.9999Z" fill="#C4C4C4"/>
<path d="M66 23.9999C66 20.1339 63.7614 16.9999 61 16.9999C58.2386 16.9999 56 20.1339 56 23.9999C56 27.8659 58.2386 25.5 61 25.5C63.7614 25.5 66 27.8659 66 23.9999Z" fill="#C4C4C4"/>
<path d="M54 23.9999C54 20.1339 51.7614 16.9999 49 16.9999C46.2386 16.9999 44 20.1339 44 23.9999C44 27.8659 46.2386 25.5 49 25.5C51.7614 25.5 54 27.8659 54 23.9999Z" fill="#C4C4C4"/>
<path d="M90 23.9999C90 20.1339 87.7614 16.9999 85 16.9999C82.2386 16.9999 80 20.1339 80 23.9999C80 27.8659 82.2386 25.5 85 25.5C87.7614 25.5 90 27.8659 90 23.9999Z" fill="#C4C4C4"/>
<path d="M78 23.9999C78 20.1339 75.7614 16.9999 73 16.9999C70.2386 16.9999 68 20.1339 68 23.9999C68 27.8659 70.2386 25.5 73 25.5C75.7614 25.5 78 27.8659 78 23.9999Z" fill="#C4C4C4"/>
<path d="M115 23.9999C115 20.1339 112.761 16.9999 110 16.9999C107.239 16.9999 105 20.1339 105 23.9999C105 27.8659 107.239 25.5 110 25.5C112.761 25.5 115 27.8659 115 23.9999Z" fill="#C4C4C4"/>
<path d="M103 23.9999C103 20.1339 100.761 16.9999 98 16.9999C95.2386 16.9999 93 20.1339 93 23.9999C93 27.8659 95.2386 25.5 98 25.5C100.761 25.5 103 27.8659 103 23.9999Z" fill="#C4C4C4"/>
<path d="M145 13.9999C145 10.1339 142.761 6.99991 140 6.99991C137.239 6.99991 135 10.1339 135 13.9999C135 17.8659 137.239 15.5 140 15.5C142.761 15.5 145 17.8659 145 13.9999Z" fill="#C4C4C4"/>
<path d="M132 13.9999C132 10.1339 129.761 6.99991 127 6.99991C124.239 6.99991 122 10.1339 122 13.9999C122 17.8659 124.239 15.5 127 15.5C129.761 15.5 132 17.8659 132 13.9999Z" fill="#C4C4C4"/>
<path d="M47 12.9999C47 9.13391 44.7614 5.99991 42 5.99991C39.2386 5.99991 37 9.13391 37 12.9999C37 16.8659 39.2386 14.5 42 14.5C44.7614 14.5 47 16.8659 47 12.9999Z" fill="#C4C4C4"/>
<path d="M72 12.9999C72 9.13391 69.7614 5.99991 67 5.99991C64.2386 5.99991 62 9.13391 62 12.9999C62 16.8659 64.2386 14.5 67 14.5C69.7614 14.5 72 16.8659 72 12.9999Z" fill="#C4C4C4"/>
<path d="M60 12.9999C60 9.13391 57.7614 5.99991 55 5.99991C52.2386 5.99991 50 9.13391 50 12.9999C50 16.8659 52.2386 14.5 55 14.5C57.7614 14.5 60 16.8659 60 12.9999Z" fill="#C4C4C4"/>
<path d="M96 12.9999C96 9.13391 93.7614 5.99991 91 5.99991C88.2386 5.99991 86 9.13391 86 12.9999C86 16.8659 88.2386 14.5 91 14.5C93.7614 14.5 96 16.8659 96 12.9999Z" fill="#C4C4C4"/>
<path d="M84 12.9999C84 9.13391 81.7614 5.99991 79 5.99991C76.2386 5.99991 74 9.13391 74 12.9999C74 16.8659 76.2386 14.5 79 14.5C81.7614 14.5 84 16.8659 84 12.9999Z" fill="#C4C4C4"/>
<path d="M121 12.9999C121 9.13391 118.761 5.99991 116 5.99991C113.239 5.99991 111 9.13391 111 12.9999C111 16.8659 113.239 14.5 116 14.5C118.761 14.5 121 16.8659 121 12.9999Z" fill="#C4C4C4"/>
<path d="M109 12.9999C109 9.13391 106.761 5.99991 104 5.99991C101.239 5.99991 99 9.13391 99 12.9999C99 16.8659 101.239 14.5 104 14.5C106.761 14.5 109 16.8659 109 12.9999Z" fill="#C4C4C4"/>
<path d="M102 35.0001C102 31.1342 99.7614 28.0001 97 28.0001C94.2386 28.0001 92 31.1342 92 35.0001C92 38.8661 94.2386 36.5002 97 36.5002C99.7614 36.5002 102 38.8661 102 35.0001Z" fill="#C4C4C4"/>
<path d="M113 35.0001C113 31.1342 110.761 28.0001 108 28.0001C105.239 28.0001 103 31.1342 103 35.0001C103 38.8661 105.239 36.5002 108 36.5002C110.761 36.5002 113 38.8661 113 35.0001Z" fill="#C4C4C4"/>
<path d="M106.037 19.6243L117.765 19L107.889 33.359L97 25.9358L106.037 19.6243Z" fill="#5E5546"/>
<path d="M97 26.0296L111 24.4358L116.753 35.5303L103.173 36.7178L97 26.0296Z" fill="#A68872"/>
<path d="M110.852 24.4701L117.551 19L121 28.4358L116.657 35.4103L110.852 24.4701Z" fill="#856156"/>
<path d="M63.3799 119.242C64.5832 124.608 60.8901 126.971 55.9302 128.083C50.9703 129.196 46.6217 128.636 45.4184 123.27C44.2151 117.904 48.751 112.594 49.4326 103.615C54.8451 111.227 62.1765 113.876 63.3799 119.242Z" fill="#FFB522"/>
<path d="M63.3799 119.242C64.5832 124.608 60.8901 126.971 55.9302 128.083C50.9703 129.196 46.6217 128.636 45.4184 123.27C44.2151 117.904 48.751 112.594 49.4326 103.615C54.8451 111.227 62.1765 113.876 63.3799 119.242Z" fill="#FFB522"/>
<path d="M72.1154 121.212C71.3291 128.571 67.0176 130.137 61.9633 129.597C56.9089 129.057 53.0257 126.615 53.812 119.256C54.5983 111.898 60.7536 106.886 64.5996 95.6424C66.9636 107.55 72.9016 113.853 72.1154 121.212Z" fill="#FFB522"/>
<path d="M80.1466 134.509C78.2327 142.077 73.7165 143.127 68.7886 141.881C63.8606 140.634 60.3871 137.563 62.301 129.996C64.215 122.428 71.0903 118.034 76.637 106.829C77.1451 119.566 82.0606 126.942 80.1466 134.509Z" fill="#FFB522"/>
<path d="M66.944 126.176C70.894 131.449 67.7976 136.011 62.6509 139.866C57.5042 143.721 52.2562 145.409 48.3063 140.136C44.3564 134.862 47.0055 126.607 43.4825 116.355C53.329 121.871 62.9941 120.902 66.944 126.176Z" fill="#FFB522"/>
<path d="M71.979 139.053C71.549 143.943 67.3876 144.919 62.3986 144.48C57.4097 144.041 53.4824 142.354 53.9124 137.465C54.3424 132.575 60.1544 129.333 63.4087 121.904C66.2841 129.872 72.409 134.164 71.979 139.053Z" fill="#FFE68E"/>
<path d="M62.183 128.77C64.1645 132.068 61.794 134.715 58.2042 136.871C54.6144 139.028 51.1646 139.878 49.1831 136.58C47.2016 133.281 49.6387 128.398 48.3929 122.117C54.0494 125.748 60.2015 125.472 62.183 128.77Z" fill="#FFE68E"/>
<path d="M65.8973 115.528C64.9532 118.246 63.2176 118.473 61.3939 117.839C59.5701 117.206 58.3489 115.952 59.293 113.234C60.2371 110.516 62.9612 109.143 65.3832 105.214C65.202 109.921 66.8415 112.811 65.8973 115.528Z" fill="#FFE68E"/>
<path d="M77.4056 130.652C77.3341 132.777 75.7504 133.304 73.8209 133.239C71.8913 133.174 70.3466 132.543 70.418 130.417C70.4895 128.291 72.6651 126.743 73.7752 123.448C75.0359 126.823 77.477 128.526 77.4056 130.652Z" fill="#FFE68E"/>
<path d="M62.4415 115.851C64.0034 118.344 63.1025 119.854 61.4664 120.879C59.8303 121.904 58.0786 122.056 56.5168 119.563C54.9549 117.07 55.5638 114.044 53.9643 109.61C57.574 112.785 60.8797 113.358 62.4415 115.851Z" fill="#FFE68E"/>
<path d="M58.2303 34.1562C59.0961 38.0169 56.5724 39.6872 53.1683 40.4506C49.7643 41.2139 46.769 40.7813 45.9033 36.9206C45.0375 33.0598 48.1201 29.2799 48.5253 22.8391C52.3025 28.3419 57.3645 30.2955 58.2303 34.1562Z" fill="#FFB522"/>
<path d="M58.2303 34.1562C59.0961 38.0169 56.5724 39.6872 53.1683 40.4506C49.7643 41.2139 46.769 40.7813 45.9033 36.9206C45.0375 33.0598 48.1201 29.2799 48.5253 22.8391C52.3025 28.3419 57.3645 30.2955 58.2303 34.1562Z" fill="#FFB522"/>
<path d="M64.3616 34.9367C63.755 40.614 60.7777 41.8598 57.3089 41.4892C53.8401 41.1185 51.1933 39.2718 51.7999 33.5945C52.4066 27.9171 56.682 24 59.4265 15.3012C60.944 24.4554 64.9682 29.2594 64.3616 34.9367Z" fill="#FFB522"/>
<path d="M69.784 44.8771C68.4738 50.0575 65.3752 50.775 61.9932 49.9196C58.6111 49.0642 56.2263 46.9599 57.5365 41.7794C58.8468 36.5989 63.5629 33.5932 67.3644 25.9232C67.7183 34.6442 71.0943 39.6966 69.784 44.8771Z" fill="#FFB522"/>
<path d="M59.2507 37.1702C63.1221 42.3388 61.3131 45.8912 57.7809 48.5368C54.2487 51.1825 50.3309 51.9195 46.4596 46.7509C42.5882 41.5823 43.5224 34.7368 39.2872 25.2742C47.8622 31.4862 55.3794 32.0015 59.2507 37.1702Z" fill="#FFB522"/>
<path d="M64.1607 48.2296C63.8829 51.3886 61.0316 52.0049 57.6077 51.7038C54.1837 51.4027 51.4838 50.2982 51.7616 47.1392C52.0394 43.9802 56.015 41.9049 58.2214 37.1137C60.2219 42.2749 64.4385 45.0706 64.1607 48.2296Z" fill="#FFE68E"/>
<path d="M57.3962 40.8152C58.8063 43.1624 57.1931 45.0015 54.7294 46.4816C52.2657 47.9617 49.8844 48.5223 48.4743 46.1752C47.0642 43.828 48.6986 40.413 47.765 35.9717C51.7256 38.5944 55.9861 38.4681 57.3962 40.8152Z" fill="#FFE68E"/>
<path d="M60.0716 31.6545C59.3746 33.6609 58.1701 33.8549 56.9184 33.4201C55.6668 32.9853 54.842 32.0864 55.539 30.08C56.236 28.0735 58.1429 27.0232 59.8819 24.1061C59.6807 27.5574 60.7686 29.6481 60.0716 31.6545Z" fill="#FFE68E"/>
<path d="M67.9201 41.8332C67.861 43.5907 66.7714 44.0333 65.4471 43.9888C64.1229 43.9442 63.0654 43.4295 63.1245 41.672C63.1836 39.9146 64.6843 38.6248 65.4619 35.8957C66.3114 38.6795 67.9791 40.0758 67.9201 41.8332Z" fill="#FFE68E"/>
<path d="M57.5527 31.9201C58.6911 33.7373 58.0909 34.8025 56.9681 35.506C55.8452 36.2094 54.6249 36.2848 53.4865 34.4676C52.348 32.6504 52.7152 30.4929 51.5133 27.2833C54.0948 29.6286 56.4142 30.1029 57.5527 31.9201Z" fill="#FFE68E"/>
</svg>
