<svg width="160" height="160" viewBox="0 0 160 160" fill="none" xmlns="http://www.w3.org/2000/svg">
<path d="M82.7722 16.678L66.8975 21.9682L111.094 60.8833L129.166 54.8608L82.7722 16.678Z" fill="#C4C4C4"/>
<path d="M136.117 67.6987L129.825 58.3415L112.631 93.7132L119.793 104.366L136.117 67.6987Z" fill="#C4C4C4"/>
<path d="M136.117 67.6987L129.825 58.3415L112.631 93.7132L119.793 104.366L136.117 67.6987Z" fill="#C4C4C4"/>
<path d="M84.7868 39.0426L78.591 29.8271L55.6216 68.3429L62.675 78.8341L84.7868 39.0426Z" fill="#C4C4C4"/>
<path d="M139.599 86.6422L129.524 81.5274L131.834 120.757L143.303 126.58L139.599 86.6422Z" fill="#C4C4C4"/>
<path d="M23.1921 73.4226L11.9153 72.5793L29.2622 107.877L42.1 108.837L23.1921 73.4226Z" fill="#C4C4C4"/>
<path d="M107.803 109.386L96.7535 115.844L137.374 140.557L149.953 133.205L107.803 109.386Z" fill="#C4C4C4"/>
<path d="M107.803 109.386L96.7535 115.844L137.374 140.557L149.953 133.205L107.803 109.386Z" fill="#C4C4C4"/>
<path d="M52.7472 21.887L41.8147 28.2766L98.3108 83.153L110.757 75.8789L52.7472 21.887Z" fill="#C4C4C4"/>
<path d="M57.24 82.5328L51.9206 88.9211L90.0769 102.218L96.1328 94.9451L57.24 82.5328Z" fill="#C4C4C4"/>
<path d="M73.7665 69.2769L62.9038 75.9928L108.43 107.155L120.796 99.5093L73.7665 69.2769Z" fill="#C9BA87"/>
<path d="M37.0644 131.48L37.1241 145.347L107.98 121.61L107.912 105.824L37.0644 131.48Z" fill="#C9BA87"/>
<path d="M64.45 32.3982L54.916 42.5056L122.749 73.7973L133.603 62.2908L64.45 32.3982Z" fill="#C9BA87"/>
<path d="M87.0044 80.5939L87.0721 96.3353L134.792 68.2717L134.715 50.3512L87.0044 80.5939Z" fill="#C9BA87"/>
<path d="M45.3594 92.8037L33.7124 104.401L98.8093 124.952L112.069 111.749L45.3594 92.8037Z" fill="#AA9393"/>
<path d="M41.9358 79.4148L41.9358 92.9539L91.9794 67.1134L91.9794 51.7002L41.9358 79.4148Z" fill="#AA9393"/>
<path d="M72.2863 83.4057L62.9038 92.7484L117.123 111.054L127.804 100.418L72.2863 83.4057Z" fill="#AA9393"/>
<path d="M46.4055 114.811L47.1335 125.882L86.6642 102.085L85.8355 89.4814L46.4055 114.811Z" fill="#AA9393"/>
<path d="M14.6522 115.279L20.9017 124.464L42.9231 84.0297L35.8084 73.5735L14.6522 115.279Z" fill="#AA9393"/>
<path d="M8.46339 125.748L9.19136 136.819L48.7221 113.021L47.8933 100.418L8.46339 125.748Z" fill="#AA9393"/>
<path d="M23.4404 71.0649L24.1684 82.1356L63.6991 58.3382L62.8704 45.735L23.4404 71.0649Z" fill="#AA9393"/>
<path d="M107.312 142.65L108.04 153.721L147.571 129.923L146.742 117.32L107.312 142.65Z" fill="#AA9393"/>
<path d="M62.3811 138.673L63.1091 149.743L102.64 125.946L101.811 113.343L62.3811 138.673Z" fill="#AA9393"/>
<path d="M62.3811 138.673L63.1091 149.743L102.64 125.946L101.811 113.343L62.3811 138.673Z" fill="#AA9393"/>
<path d="M62.3811 138.673L63.1091 149.743L102.64 125.946L101.811 113.343L62.3811 138.673Z" fill="#AA9393"/>
<path d="M71.7901 6.64442L61.548 2.98261L68.2478 45.5677L79.9077 49.7364L71.7901 6.64442Z" fill="#AA9393"/>
<path d="M107.964 95.3741L117.396 101.28L121.224 55.4408L110.486 48.7174L107.964 95.3741Z" fill="#AA9393"/>
<path d="M112.868 103.133C114.336 109.649 110.721 112.32 105.769 113.426C100.816 114.532 96.4019 113.654 94.9343 107.137C93.4668 100.621 97.7932 94.4415 98.057 83.6648C103.878 93.0827 111.401 96.6162 112.868 103.133Z" fill="#FFB522"/>
<path d="M112.868 103.133C114.336 109.649 110.721 112.32 105.769 113.426C100.816 114.532 96.4019 113.654 94.9343 107.137C93.4668 100.621 97.7932 94.4415 98.057 83.6648C103.878 93.0827 111.401 96.6162 112.868 103.133Z" fill="#FFB522"/>
<path d="M121.837 107.454C121.124 114.094 116.839 115.468 111.792 114.931C106.746 114.394 102.849 112.15 103.561 105.509C104.274 98.8689 110.364 94.401 114.091 84.28C116.565 95.0608 122.549 100.813 121.837 107.454Z" fill="#FFB522"/>
<path d="M129.609 121.15C127.964 127.624 123.527 128.383 118.607 127.144C113.687 125.905 110.146 123.137 111.79 116.662C113.435 110.188 120.097 106.619 125.217 97.1209C126.142 108.141 131.253 114.676 129.609 121.15Z" fill="#FFB522"/>
<path d="M115.702 110.116C120.482 116.47 117.618 121.308 112.479 125.14C107.34 128.973 101.872 130.349 97.0927 123.995C92.3129 117.641 94.3213 108.587 89.4947 96.6533C100.635 103.878 110.922 103.761 115.702 110.116Z" fill="#FFB522"/>
<path d="M121.827 123.94C121.371 129.11 117.208 130.164 112.227 129.728C107.246 129.292 103.332 127.53 103.788 122.36C104.245 117.19 110.069 113.731 113.361 105.861C116.189 114.267 122.284 118.77 121.827 123.94Z" fill="#FFE68E"/>
<path d="M111.114 112.62C113.798 117.069 111.624 120.019 108.039 122.163C104.455 124.307 100.818 124.834 98.134 120.385C95.4498 115.936 97.3456 110.19 94.9966 102.114C101.75 107.555 108.43 108.171 111.114 112.62Z" fill="#FFE68E"/>
<path d="M115.524 101.506C114.736 103.766 113.045 103.871 111.224 103.241C109.403 102.611 108.142 101.485 108.93 99.2248C109.719 96.9646 112.321 95.9354 114.498 92.7218C114.558 96.7093 116.313 99.2456 115.524 101.506Z" fill="#FFE68E"/>
<path d="M127.241 115.088C127.146 117.902 125.558 118.616 123.632 118.552C121.705 118.487 120.169 117.669 120.264 114.855C120.359 112.041 122.55 109.968 123.695 105.595C124.917 110.047 127.336 112.274 127.241 115.088Z" fill="#FFE68E"/>
<path d="M112.631 101.838C113.907 103.865 112.93 105.244 111.296 106.263C109.663 107.282 107.991 107.556 106.715 105.528C105.44 103.501 106.264 100.836 105.111 97.1334C108.271 99.5837 111.355 99.8102 112.631 101.838Z" fill="#FFE68E"/>
<path d="M54.9645 89.8245C55.9717 94.2967 53.4907 96.13 50.0919 96.889C46.6931 97.6479 43.6635 97.0451 42.6563 92.5729C41.6491 88.1007 44.6183 83.8597 44.7994 76.4637C48.7943 82.9272 53.9573 85.3522 54.9645 89.8245Z" fill="#FFB522"/>
<path d="M54.9645 89.8245C55.9717 94.2967 53.4907 96.13 50.0919 96.889C46.6931 97.6479 43.6635 97.0451 42.6563 92.5729C41.6491 88.1007 44.6183 83.8597 44.7994 76.4637C48.7943 82.9272 53.9573 85.3522 54.9645 89.8245Z" fill="#FFB522"/>
<path d="M61.1197 92.7902C60.6307 97.3475 57.6898 98.29 54.2263 97.9215C50.7627 97.553 48.0882 96.013 48.5772 91.4557C49.0663 86.8983 53.2463 83.832 55.8039 76.8859C57.5018 84.2848 61.6088 88.2328 61.1197 92.7902Z" fill="#FFB522"/>
<path d="M66.4535 102.19C65.3249 106.633 62.28 107.154 58.9031 106.304C55.5262 105.453 53.0961 103.553 54.2247 99.1101C55.3534 94.6667 59.9254 92.217 63.4398 85.6988C64.0744 93.262 67.5822 97.7465 66.4535 102.19Z" fill="#FFB522"/>
<path d="M56.9219 94.6187C60.2046 98.978 58.2385 102.296 54.7103 104.925C51.1822 107.553 47.428 108.497 44.1453 104.138C40.8627 99.7782 42.2408 93.5679 38.9255 85.3815C46.5757 90.3383 53.6393 90.2593 56.9219 94.6187Z" fill="#FFB522"/>
<path d="M61.1131 104.105C60.7997 107.653 57.9429 108.377 54.5242 108.077C51.1055 107.778 48.4195 106.569 48.7328 103.02C49.0462 99.4722 53.0432 97.0985 55.3025 91.6969C57.2436 97.4663 61.4264 100.556 61.1131 104.105Z" fill="#FFE68E"/>
<path d="M53.7605 96.3357C55.6027 99.389 54.1102 101.414 51.6503 102.885C49.1903 104.357 46.6944 104.718 44.8523 101.665C43.0101 98.6114 44.3112 94.6679 42.6991 89.1251C47.3337 92.8598 51.9184 93.2824 53.7605 96.3357Z" fill="#FFE68E"/>
<path d="M56.7871 88.7081C56.246 90.2593 55.0855 90.3313 53.8357 89.899C52.586 89.4667 51.7203 88.6938 52.2614 87.1426C52.8026 85.5914 54.5887 84.8851 56.0826 82.6796C56.1242 85.4162 57.3283 87.1569 56.7871 88.7081Z" fill="#FFE68E"/>
<path d="M64.8289 98.0296C64.7637 99.9609 63.6741 100.451 62.3518 100.407C61.0296 100.363 59.9755 99.8006 60.0407 97.8694C60.1058 95.9381 61.6091 94.5157 62.3952 91.5143C63.2337 94.5701 64.8941 96.0984 64.8289 98.0296Z" fill="#FFE68E"/>
<path d="M54.8016 88.9359C55.6772 90.3274 55.0068 91.2734 53.8856 91.9728C52.7645 92.6722 51.6172 92.8602 50.7416 91.4686C49.8661 90.0771 50.4317 88.2482 49.6406 85.7072C51.8092 87.3889 53.9261 87.5443 54.8016 88.9359Z" fill="#FFE68E"/>
<path d="M102.37 34.9761C100.691 41.2014 96.3981 41.8711 91.667 40.6057C86.9359 39.3404 83.5579 36.6191 85.2371 30.3939C86.9163 24.1686 93.3964 20.8177 98.4735 11.7236C99.2093 22.3724 104.049 28.7508 102.37 34.9761Z" fill="#FFB522"/>
<path d="M102.37 34.9761C100.691 41.2014 96.3981 41.8711 91.667 40.6057C86.9359 39.3404 83.5579 36.6191 85.2371 30.3939C86.9163 24.1686 93.3964 20.8177 98.4735 11.7236C99.2093 22.3724 104.049 28.7508 102.37 34.9761Z" fill="#FFB522"/>
<path d="M108.09 42.6732C104.492 48.0314 100.211 47.2924 96.1386 44.5807C92.0665 41.869 89.7455 38.2114 93.3441 32.8533C96.9426 27.4951 104.16 26.3947 111.902 19.4069C109.164 29.7265 111.689 37.3151 108.09 42.6732Z" fill="#FFB522"/>
<path d="M108.568 57.8497C104.248 62.6498 100.114 61.318 96.4657 58.0623C92.8177 54.8067 91.037 50.8601 95.3575 46.0599C99.6779 41.2597 106.979 41.1823 115.632 35.3496C111.462 45.1824 112.889 53.0495 108.568 57.8497Z" fill="#FFB522"/>
<path d="M101.648 42.2102C102.873 49.7755 98.2474 52.6323 92.1293 53.6146C86.0112 54.5968 80.7178 53.3327 79.4928 45.7674C78.2678 38.2021 84.0604 31.3595 85.3072 19.0043C91.5775 30.1526 100.423 34.6449 101.648 42.2102Z" fill="#FFB522"/>
<path d="M100.661 56.7612C97.943 60.9768 93.9101 60.0201 89.8485 57.4236C85.7868 54.8272 83.2344 51.5742 85.9523 47.3586C88.6702 43.1431 95.2055 42.7863 101.563 37.528C100.196 45.9764 103.379 52.5456 100.661 56.7612Z" fill="#FFE68E"/>
<path d="M96.5989 42.3027C96.8904 47.3038 93.7035 48.8547 89.6743 49.0875C85.6451 49.3204 82.2994 48.1471 82.0079 43.146C81.7164 38.1449 85.9237 34.0794 87.5517 26.1273C90.8743 33.7933 96.3074 37.3016 96.5989 42.3027Z" fill="#FFE68E"/>
<path d="M105.372 34.771C103.681 36.3511 102.188 35.686 100.915 34.3347C99.6423 32.9834 99.0711 31.4577 100.763 29.8776C102.454 28.2976 105.142 28.5795 108.45 26.8043C106.706 30.2398 107.064 33.191 105.372 34.771Z" fill="#FFE68E"/>
<path d="M109.273 51.6116C107.925 53.9746 106.247 53.8763 104.629 52.9612C103.011 52.0461 102.067 50.6607 103.415 48.2977C104.763 45.9347 107.568 45.1407 110.516 41.9138C109.556 46.2651 110.622 49.2486 109.273 51.6116Z" fill="#FFE68E"/>
<path d="M102.75 33.7635C102.928 36.0661 101.472 36.8083 99.617 36.9502C97.7618 37.0922 96.2095 36.5801 96.0318 34.2774C95.8542 31.9747 97.7583 30.0647 98.4399 26.3853C100.038 29.8903 102.572 31.4608 102.75 33.7635Z" fill="#FFE68E"/>
<path d="M71.0789 116.723C71.9244 120.477 69.8417 122.016 66.9885 122.654C64.1354 123.291 61.5921 122.785 60.7466 119.03C59.9012 115.276 62.3937 111.716 62.5457 105.507C65.8993 110.933 70.2334 112.969 71.0789 116.723Z" fill="#FFB522"/>
<path d="M71.0789 116.723C71.9244 120.477 69.8417 122.016 66.9885 122.654C64.1354 123.291 61.5921 122.785 60.7466 119.03C59.9012 115.276 62.3937 111.716 62.5457 105.507C65.8993 110.933 70.2334 112.969 71.0789 116.723Z" fill="#FFB522"/>
<path d="M76.2458 119.213C75.8353 123.038 73.3665 123.83 70.459 123.52C67.5516 123.211 65.3064 121.918 65.7169 118.092C66.1274 114.267 69.6364 111.693 71.7834 105.862C73.2087 112.073 76.6563 115.387 76.2458 119.213Z" fill="#FFB522"/>
<path d="M80.7234 127.104C79.7759 130.834 77.2199 131.271 74.3851 130.557C71.5504 129.843 69.5104 128.248 70.4578 124.518C71.4052 120.788 75.2433 118.732 78.1934 113.26C78.7262 119.609 81.6708 123.374 80.7234 127.104Z" fill="#FFB522"/>
<path d="M55.4041 56.7558C54.4566 60.4858 51.9005 60.9229 49.0658 60.209C46.231 59.4951 44.191 57.9004 45.1385 54.1704C46.0859 50.4403 49.9239 48.3839 52.8741 42.9121C53.4069 49.2611 56.3515 53.0257 55.4041 56.7558Z" fill="#FFB522"/>
<path d="M72.7113 120.746C75.4651 124.407 73.815 127.194 70.8544 129.402C67.8938 131.61 64.7438 132.403 61.9901 128.742C59.2363 125.082 60.3934 119.866 57.6127 112.99C64.031 117.153 69.9576 117.085 72.7113 120.746Z" fill="#FFB522"/>
<path d="M76.2404 128.711C75.9774 131.689 73.5793 132.297 70.7094 132.046C67.8395 131.794 65.5847 130.779 65.8478 127.801C66.1108 124.822 69.4661 122.829 71.3627 118.295C72.9922 123.138 76.5035 125.732 76.2404 128.711Z" fill="#FFE68E"/>
<path d="M70.0679 122.189C71.6143 124.752 70.3615 126.452 68.2965 127.687C66.2314 128.922 64.1362 129.226 62.5898 126.663C61.0434 124.099 62.1356 120.789 60.7823 116.136C64.6728 119.271 68.5215 119.626 70.0679 122.189Z" fill="#FFE68E"/>
<path d="M51.5645 54.2643C53.1109 56.8274 51.8581 58.5269 49.793 59.7623C47.728 60.9976 45.6328 61.3009 44.0864 58.7378C42.54 56.1746 43.6322 52.8642 42.2789 48.2113C46.1694 51.3464 50.0181 51.7011 51.5645 54.2643Z" fill="#FFE68E"/>
<path d="M144.268 137.289C143.321 141.019 140.765 141.456 137.93 140.742C135.095 140.028 133.055 138.433 134.002 134.703C134.95 130.973 138.788 128.917 141.738 123.445C142.271 129.794 145.216 133.559 144.268 137.289Z" fill="#FFB522"/>
<path d="M140.429 134.797C141.975 137.36 140.722 139.06 138.657 140.295C136.592 141.531 134.497 141.834 132.951 139.271C131.404 136.708 132.496 133.397 131.143 128.744C135.034 131.879 138.882 132.234 140.429 134.797Z" fill="#FFE68E"/>
<path d="M72.6092 115.786C72.1549 117.088 71.1807 117.149 70.1316 116.786C69.0825 116.423 68.3558 115.774 68.8101 114.472C69.2644 113.17 70.7637 112.577 72.0178 110.725C72.0527 113.023 73.0635 114.484 72.6092 115.786Z" fill="#FFE68E"/>
<path d="M79.3597 123.611C79.3049 125.232 78.3902 125.644 77.2803 125.607C76.1703 125.569 75.2854 125.098 75.3401 123.477C75.3948 121.855 76.6567 120.661 77.3167 118.142C78.0205 120.707 79.4144 121.99 79.3597 123.611Z" fill="#FFE68E"/>
<path d="M70.9421 115.977C71.6771 117.145 71.1143 117.939 70.1732 118.527C69.232 119.114 68.2689 119.271 67.5339 118.103C66.7989 116.935 67.2737 115.4 66.6097 113.267C68.4301 114.678 70.2071 114.809 70.9421 115.977Z" fill="#FFE68E"/>
<path d="M82.7722 16.678L66.8975 21.9682L111.094 60.8833L129.166 54.8608L82.7722 16.678Z" fill="#C4C4C4"/>
<path d="M136.117 67.6987L129.825 58.3415L112.631 93.7132L119.793 104.366L136.117 67.6987Z" fill="#C4C4C4"/>
<path d="M136.117 67.6987L129.825 58.3415L112.631 93.7132L119.793 104.366L136.117 67.6987Z" fill="#C4C4C4"/>
<path d="M84.7868 39.0426L78.591 29.8271L55.6216 68.3429L62.675 78.8341L84.7868 39.0426Z" fill="#C4C4C4"/>
<path d="M139.599 86.6422L129.524 81.5274L131.834 120.757L143.303 126.58L139.599 86.6422Z" fill="#C4C4C4"/>
<path d="M23.1921 73.4226L11.9153 72.5793L29.2622 107.877L42.1 108.837L23.1921 73.4226Z" fill="#C4C4C4"/>
<path d="M107.803 109.386L96.7535 115.844L137.374 140.557L149.953 133.205L107.803 109.386Z" fill="#C4C4C4"/>
<path d="M107.803 109.386L96.7535 115.844L137.374 140.557L149.953 133.205L107.803 109.386Z" fill="#C4C4C4"/>
<path d="M52.7472 21.887L41.8147 28.2766L98.3108 83.153L110.757 75.8789L52.7472 21.887Z" fill="#C4C4C4"/>
<path d="M57.24 82.5328L51.9206 88.9211L90.0769 102.218L96.1328 94.9451L57.24 82.5328Z" fill="#C4C4C4"/>
<path d="M73.7665 69.2769L62.9038 75.9928L108.43 107.155L120.796 99.5093L73.7665 69.2769Z" fill="#C9BA87"/>
<path d="M37.0644 131.48L37.1241 145.347L107.98 121.61L107.912 105.824L37.0644 131.48Z" fill="#C9BA87"/>
<path d="M64.45 32.3982L54.916 42.5056L122.749 73.7973L133.603 62.2908L64.45 32.3982Z" fill="#C9BA87"/>
<path d="M87.0044 80.5939L87.0721 96.3353L134.792 68.2717L134.715 50.3512L87.0044 80.5939Z" fill="#C9BA87"/>
<path d="M45.3594 92.8037L33.7124 104.401L98.8093 124.952L112.069 111.749L45.3594 92.8037Z" fill="#AA9393"/>
<path d="M41.9358 79.4148L41.9358 92.9539L91.9794 67.1134L91.9794 51.7002L41.9358 79.4148Z" fill="#AA9393"/>
<path d="M72.2863 83.4057L62.9038 92.7484L117.123 111.054L127.804 100.418L72.2863 83.4057Z" fill="#AA9393"/>
<path d="M46.4055 114.811L47.1335 125.882L86.6642 102.085L85.8355 89.4814L46.4055 114.811Z" fill="#AA9393"/>
<path d="M14.6522 115.279L20.9017 124.464L42.9231 84.0297L35.8084 73.5735L14.6522 115.279Z" fill="#AA9393"/>
<path d="M8.46339 125.748L9.19136 136.819L48.7221 113.021L47.8933 100.418L8.46339 125.748Z" fill="#AA9393"/>
<path d="M23.4404 71.0649L24.1684 82.1356L63.6991 58.3382L62.8704 45.735L23.4404 71.0649Z" fill="#AA9393"/>
<path d="M107.312 142.65L108.04 153.721L147.571 129.923L146.742 117.32L107.312 142.65Z" fill="#AA9393"/>
<path d="M62.3811 138.673L63.1091 149.743L102.64 125.946L101.811 113.343L62.3811 138.673Z" fill="#AA9393"/>
<path d="M62.3811 138.673L63.1091 149.743L102.64 125.946L101.811 113.343L62.3811 138.673Z" fill="#AA9393"/>
<path d="M62.3811 138.673L63.1091 149.743L102.64 125.946L101.811 113.343L62.3811 138.673Z" fill="#AA9393"/>
<path d="M71.7901 6.64442L61.548 2.98261L68.2478 45.5677L79.9077 49.7364L71.7901 6.64442Z" fill="#AA9393"/>
<path d="M107.964 95.3741L117.396 101.28L121.224 55.4408L110.486 48.7174L107.964 95.3741Z" fill="#AA9393"/>
<path d="M113.249 104.824C114.418 110.011 110.721 112.32 105.769 113.426C100.816 114.532 96.4836 114.016 95.3154 108.828C94.1472 103.641 98.7016 98.4744 99.4342 89.7793C104.786 97.1157 112.081 99.6366 113.249 104.824Z" fill="#FFB522"/>
<path d="M113.249 104.824C114.418 110.011 110.721 112.32 105.769 113.426C100.816 114.532 96.4836 114.016 95.3154 108.828C94.1472 103.641 98.7016 98.4744 99.4342 89.7793C104.786 97.1157 112.081 99.6366 113.249 104.824Z" fill="#FFB522"/>
<path d="M121.884 107.011C121.134 114 116.839 115.468 111.792 114.931C106.746 114.394 102.859 112.055 103.609 105.067C104.358 98.0782 110.478 93.3453 114.263 82.6793C116.678 94.005 122.634 100.023 121.884 107.011Z" fill="#FFB522"/>
<path d="M129.911 119.96C128.029 127.369 123.528 128.383 118.607 127.144C113.687 125.904 110.211 122.882 112.093 115.472C113.975 108.063 120.817 103.781 126.31 92.8188C126.863 105.303 131.793 112.55 129.911 119.96Z" fill="#FFB522"/>
<path d="M115.702 110.115C120.482 116.47 117.618 121.307 112.479 125.14C107.34 128.973 101.872 130.349 97.0927 123.995C92.3129 117.64 94.3213 108.587 89.4947 96.6532C100.635 103.878 110.922 103.761 115.702 110.115Z" fill="#FFB522"/>
<path d="M121.774 124.543C121.359 129.239 117.208 130.164 112.227 129.728C107.246 129.292 103.32 127.659 103.735 122.964C104.15 118.268 109.942 115.171 113.168 108.043C116.062 115.707 122.189 119.848 121.774 124.543Z" fill="#FFE68E"/>
<path d="M111.609 113.44C113.904 117.244 111.623 120.019 108.039 122.163C104.455 124.307 100.924 125.009 98.6287 121.205C96.3335 117.401 98.5256 112.146 96.7856 105.079C102.93 109.511 109.314 109.636 111.609 113.44Z" fill="#FFE68E"/>
<path d="M115.462 101.685C114.722 103.804 113.045 103.871 111.224 103.241C109.403 102.611 108.128 101.523 108.867 99.4036C109.607 97.284 112.172 96.362 114.272 93.3687C114.409 97.1359 116.201 99.5651 115.462 101.685Z" fill="#FFE68E"/>
<path d="M127.244 114.987C127.147 117.88 125.558 118.616 123.632 118.552C121.705 118.487 120.17 117.647 120.268 114.753C120.365 111.86 122.558 109.727 123.707 105.229C124.925 109.806 127.342 112.093 127.244 114.987Z" fill="#FFE68E"/>
<path d="M112.196 101.146C113.814 103.717 112.93 105.244 111.296 106.263C109.663 107.282 107.898 107.408 106.28 104.837C104.663 102.265 105.226 99.1867 103.538 94.6331C107.233 97.9345 110.578 98.575 112.196 101.146Z" fill="#FFE68E"/>
<path d="M54.8873 89.4819C55.9551 94.2232 53.4907 96.1297 50.0918 96.8887C46.693 97.6477 43.6469 96.9716 42.5791 92.2303C41.5114 87.489 44.4344 83.0431 44.5206 75.2257C48.6104 82.1106 53.8196 84.7405 54.8873 89.4819Z" fill="#FFB522"/>
<path d="M54.8873 89.4819C55.9551 94.2232 53.4907 96.1297 50.0918 96.8887C46.693 97.6477 43.6469 96.9716 42.5791 92.2303C41.5114 87.489 44.4344 83.0431 44.5206 75.2257C48.6104 82.1106 53.8196 84.7405 54.8873 89.4819Z" fill="#FFB522"/>
<path d="M61.0838 93.125C60.6231 97.4191 57.6898 98.2899 54.2263 97.9214C50.7628 97.5529 48.0806 96.0846 48.5414 91.7905C49.0021 87.4964 53.1607 84.6306 55.674 78.0969C57.4162 85.0834 61.5446 88.8309 61.0838 93.125Z" fill="#FFB522"/>
<path d="M66.6854 101.276C65.3744 106.438 62.2798 107.154 58.9029 106.303C55.5261 105.453 53.1456 103.358 54.4566 98.1963C55.7677 93.0349 60.4786 90.0382 64.2786 82.3954C64.6277 91.0831 67.9965 96.1147 66.6854 101.276Z" fill="#FFB522"/>
<path d="M57.3816 95.2293C60.3028 99.1087 58.2383 102.296 54.7102 104.925C51.182 107.553 47.5263 108.628 44.605 104.748C41.6838 100.869 43.3372 95.0241 40.5879 87.5892C47.6721 91.7945 54.4604 91.3499 57.3816 95.2293Z" fill="#FFB522"/>
<path d="M61.0366 104.968C60.7832 107.838 57.9427 108.376 54.524 108.077C51.1053 107.778 48.403 106.753 48.6564 103.884C48.9098 101.014 52.8612 99.1574 55.0266 94.8185C57.0616 99.5252 61.2901 102.098 61.0366 104.968Z" fill="#FFE68E"/>
<path d="M54.1863 97.0413C55.6938 99.54 54.1102 101.413 51.6503 102.885C49.1903 104.357 46.7855 104.869 45.278 102.37C43.7705 99.8716 45.3265 96.3506 44.2384 91.6764C48.3489 94.5425 52.6788 94.5426 54.1863 97.0413Z" fill="#FFE68E"/>
<path d="M56.8265 88.5949C56.2544 90.2349 55.0855 90.3312 53.8357 89.8989C52.586 89.4666 51.7287 88.6694 52.3009 87.0294C52.873 85.3894 54.6827 84.6154 56.2252 82.2708C56.2182 85.1465 57.3987 86.9549 56.8265 88.5949Z" fill="#FFE68E"/>
<path d="M64.8024 98.8159C64.758 100.129 63.6741 100.451 62.3518 100.407C61.0296 100.362 59.9698 99.9689 60.0141 98.6556C60.0584 97.3424 61.5458 96.3907 62.2992 94.3571C63.1704 96.4451 64.8467 97.5026 64.8024 98.8159Z" fill="#FFE68E"/>
<path d="M54.8733 89.0497C55.6925 90.3517 55.0068 91.2733 53.8856 91.9727C52.7645 92.6721 51.6325 92.8845 50.8133 91.5825C49.9942 90.2805 50.6027 88.5199 49.8999 86.1192C51.9802 87.6605 54.0542 87.7477 54.8733 89.0497Z" fill="#FFE68E"/>
<path d="M102.483 34.5573C100.715 41.1117 96.3981 41.8711 91.667 40.6058C86.9359 39.3404 83.5821 36.5295 85.3501 29.9751C87.1181 23.4207 93.6658 19.819 98.882 10.2096C99.4788 21.3737 104.251 28.0029 102.483 34.5573Z" fill="#FFB522"/>
<path d="M102.483 34.5573C100.715 41.1117 96.3981 41.8711 91.667 40.6058C86.9359 39.3404 83.5821 36.5295 85.3501 29.9751C87.1181 23.4207 93.6658 19.819 98.882 10.2096C99.4788 21.3737 104.251 28.0029 102.483 34.5573Z" fill="#FFB522"/>
<path d="M108.433 42.163C104.565 47.9222 100.211 47.2925 96.1385 44.5808C92.0664 41.8691 89.8188 38.1022 93.6867 32.343C97.5547 26.5838 104.978 25.1779 113.141 17.562C109.981 28.5097 112.301 36.4038 108.433 42.163Z" fill="#FFB522"/>
<path d="M108.878 57.5052C104.314 62.5761 100.114 61.3179 96.4656 58.0623C92.8175 54.8066 91.1032 50.7863 95.6673 45.7154C100.231 40.6445 107.718 40.361 116.753 34.1043C112.201 44.3611 113.442 52.4343 108.878 57.5052Z" fill="#FFB522"/>
<path d="M101.743 42.7931C102.894 49.9002 98.2474 52.6322 92.1293 53.6145C86.0112 54.5968 80.7381 53.4574 79.5872 46.3503C78.4364 39.2431 84.2856 32.7495 85.6485 21.1117C91.8027 31.5426 100.592 35.6859 101.743 42.7931Z" fill="#FFB522"/>
<path d="M100.251 57.3971C97.8552 61.1129 93.9101 60.0201 89.8485 57.4236C85.7868 54.8272 83.1467 51.7103 85.5424 47.9945C87.938 44.2787 94.2279 44.3026 100.081 39.827C99.2183 47.4928 102.647 53.6813 100.251 57.3971Z" fill="#FFE68E"/>
<path d="M96.6626 43.3964C96.904 47.5379 93.7035 48.8547 89.6743 49.0875C85.6451 49.3204 82.313 48.3812 82.0716 44.2397C81.8302 40.0982 86.0758 36.6875 87.7821 30.0815C91.0263 36.4014 96.4212 39.2549 96.6626 43.3964Z" fill="#FFE68E"/>
<path d="M106.113 34.0796C103.839 36.2031 102.188 35.686 100.915 34.3347C99.6423 32.9834 99.2295 31.3097 101.503 29.1863C103.776 27.0628 106.907 26.9309 111.126 24.3047C108.471 28.5911 108.386 31.9562 106.113 34.0796Z" fill="#FFE68E"/>
<path d="M109.035 52.0297C107.874 54.0641 106.247 53.8763 104.629 52.9612C103.011 52.0461 102.016 50.7501 103.176 48.7157C104.337 46.6813 106.999 46.1377 109.654 43.4252C108.987 47.262 110.196 49.9952 109.035 52.0297Z" fill="#FFE68E"/>
<path d="M102.683 32.8924C102.913 35.8797 101.472 36.8083 99.617 36.9502C97.7618 37.0922 96.1951 36.3936 95.9647 33.4063C95.7342 30.4191 97.5981 27.9876 98.1969 23.2361C99.8775 27.8132 102.452 29.9051 102.683 32.8924Z" fill="#FFE68E"/>
<path d="M71.3183 117.787C71.9755 120.705 69.8415 122.016 66.9884 122.654C64.1352 123.291 61.6433 123.012 60.9861 120.094C60.329 117.177 62.965 114.253 63.4119 109.354C66.4705 113.471 70.6612 114.869 71.3183 117.787Z" fill="#FFB522"/>
<path d="M71.3183 117.787C71.9755 120.705 69.8415 122.016 66.9884 122.654C64.1352 123.291 61.6433 123.012 60.9861 120.094C60.329 117.177 62.965 114.253 63.4119 109.354C66.4705 113.471 70.6612 114.869 71.3183 117.787Z" fill="#FFB522"/>
<path d="M76.3285 118.442C75.853 122.873 73.3665 123.83 70.459 123.52C67.5515 123.211 65.3241 121.753 65.7996 117.321C66.2752 112.89 69.8337 109.854 72.0825 103.074C73.406 110.234 76.8041 114.01 76.3285 118.442Z" fill="#FFB522"/>
<path d="M81.0633 125.765C79.8486 130.547 77.2197 131.271 74.385 130.557C71.5502 129.843 69.583 127.962 70.7978 123.179C72.0125 118.397 76.0542 115.539 79.4229 108.419C79.5371 116.416 82.2781 120.982 81.0633 125.765Z" fill="#FFB522"/>
<path d="M55.5792 56.0664C54.4941 60.3382 51.9006 60.9229 49.0658 60.209C46.2311 59.4951 44.2285 57.7529 45.3136 53.481C46.3986 49.2092 50.3415 46.7402 53.5072 40.4199C53.8245 47.6173 56.6642 51.7946 55.5792 56.0664Z" fill="#FFB522"/>
<path d="M73.2925 121.519C75.5894 124.573 73.815 127.194 70.8544 129.402C67.8938 131.611 64.8682 132.569 62.5712 129.515C60.2742 126.461 61.7792 121.708 59.7138 115.784C65.4168 118.995 70.9955 118.465 73.2925 121.519Z" fill="#FFB522"/>
<path d="M76.1888 129.295C75.9662 131.814 73.5792 132.297 70.7093 132.046C67.8394 131.794 65.5736 130.904 65.7961 128.385C66.0186 125.865 69.3431 124.222 71.1762 120.406C72.8692 124.531 76.4113 126.775 76.1888 129.295Z" fill="#FFE68E"/>
<path d="M70.576 123.031C71.7229 124.933 70.3613 126.452 68.2963 127.687C66.2313 128.922 64.2448 129.406 63.0978 127.505C61.9509 125.604 63.3473 122.798 62.6195 119.181C65.8845 121.28 69.429 121.13 70.576 123.031Z" fill="#FFE68E"/>
<path d="M51.353 53.9138C53.0656 56.7525 51.858 58.527 49.793 59.7623C47.728 60.9977 45.5875 61.226 43.8749 58.3873C42.1622 55.5487 43.1278 52.0284 41.5142 46.9441C45.6651 50.5106 49.6404 51.0752 51.353 53.9138Z" fill="#FFE68E"/>
<path d="M144.391 136.803C143.347 140.915 140.764 141.456 137.93 140.742C135.095 140.028 133.081 138.329 134.126 134.217C135.17 130.105 139.082 127.758 142.184 121.688C142.565 128.635 145.436 132.691 144.391 136.803Z" fill="#FFB522"/>
<path d="M140.169 134.366C141.919 137.268 140.722 139.06 138.657 140.295C136.592 141.531 134.441 141.742 132.69 138.84C130.939 135.937 131.876 132.369 130.202 127.185C134.413 130.851 138.418 131.464 140.169 134.366Z" fill="#FFE68E"/>
<path d="M72.8645 115.054C72.2095 116.932 71.1807 117.149 70.1316 116.786C69.0825 116.423 68.4104 115.617 69.0654 113.74C69.7204 111.862 71.3727 110.831 72.9411 108.079C72.6617 111.277 73.5195 113.176 72.8645 115.054Z" fill="#FFE68E"/>
<path d="M79.3865 122.811C79.3106 125.061 78.3901 125.644 77.2801 125.607C76.1701 125.569 75.291 124.927 75.3669 122.677C75.4429 120.427 76.7209 118.754 77.4141 115.251C78.0847 118.8 79.4624 120.562 79.3865 122.811Z" fill="#FFE68E"/>
<path d="M70.9421 115.977C71.6771 117.145 71.1143 117.94 70.1732 118.527C69.232 119.114 68.2689 119.272 67.5339 118.103C66.7989 116.935 67.2737 115.4 66.6097 113.267C68.4301 114.679 70.2071 114.809 70.9421 115.977Z" fill="#FFE68E"/>
<path d="M105 134.217C105 138.083 102.761 141.217 100 141.217C97.2386 141.217 95 138.083 95 134.217C95 130.351 97.2386 132.717 100 132.717C102.761 132.717 105 130.351 105 134.217Z" fill="#C4C4C4"/>
<path d="M132.982 145.815C129.605 147.696 125.777 147.266 124.433 144.853C123.089 142.441 124.738 138.96 128.115 137.079C131.492 135.197 130.515 138.304 131.859 140.717C133.203 143.129 136.359 143.933 132.982 145.815Z" fill="#C4C4C4"/>
<path d="M42.6512 118.041C46.0648 119.855 47.7814 123.303 46.4852 125.741C45.189 128.18 41.3709 128.685 37.9573 126.87C34.5436 125.056 37.6835 124.19 38.9797 121.751C40.2758 119.313 39.2376 116.226 42.6512 118.041Z" fill="#C4C4C4"/>
</svg>
