<svg width="50" height="50" viewBox="0 0 50 50" fill="none" xmlns="http://www.w3.org/2000/svg">
<rect width="50" height="50" fill="#AAF27E"/>
<path d="M6 33.3479C6 37.8009 6.61991 36.9314 7.38461 36.9314C8.14932 36.9314 8.76924 37.8009 8.76924 33.3479C8.53846 29.4657 8.07692 29.1671 9 22C6.6923 27.3753 6 28.8948 6 33.3479Z" fill="#6BCC6F"/>
<path d="M6 33.3479C6 37.8009 6.61991 36.9314 7.38461 36.9314C8.14932 36.9314 8.76924 37.8009 8.76924 33.3479C8.53846 29.4657 8.07692 29.1671 9 22C6.6923 27.3753 6 28.8948 6 33.3479Z" fill="#6BCC6F"/>
<path d="M6 33.3479C6 37.8009 6.61991 36.9314 7.38461 36.9314C8.14932 36.9314 8.76924 37.8009 8.76924 33.3479C8.53846 29.4657 8.07692 29.1671 9 22C6.6923 27.3753 6 28.8948 6 33.3479Z" fill="#4CD152"/>
<path d="M6 33.3479C6 37.8009 6.61991 36.9314 7.38461 36.9314C8.14932 36.9314 8.76924 37.8009 8.76924 33.3479C8.53846 29.4657 8.07692 29.1671 9 22C6.6923 27.3753 6 28.8948 6 33.3479Z" fill="#4CD152"/>
<path d="M9 7.56525C9 10.534 9.41327 9.95428 9.92307 9.95428C10.4329 9.95428 10.8462 10.534 10.8462 7.56525C10.6923 4.97714 10.3846 4.77805 11 0C9.46154 3.58354 9 4.59655 9 7.56525Z" fill="#6BCC6F"/>
<path d="M9 7.56525C9 10.534 9.41327 9.95428 9.92307 9.95428C10.4329 9.95428 10.8462 10.534 10.8462 7.56525C10.6923 4.97714 10.3846 4.77805 11 0C9.46154 3.58354 9 4.59655 9 7.56525Z" fill="#6BCC6F"/>
<path d="M9 7.56525C9 10.534 9.41327 9.95428 9.92307 9.95428C10.4329 9.95428 10.8462 10.534 10.8462 7.56525C10.6923 4.97714 10.3846 4.77805 11 0C9.46154 3.58354 9 4.59655 9 7.56525Z" fill="#4CD152"/>
<path d="M9 7.56525C9 10.534 9.41327 9.95428 9.92307 9.95428C10.4329 9.95428 10.8462 10.534 10.8462 7.56525C10.6923 4.97714 10.3846 4.77805 11 0C9.46154 3.58354 9 4.59655 9 7.56525Z" fill="#4CD152"/>
<path d="M21 28.5653C21 31.534 21.4133 30.9543 21.9231 30.9543C22.4329 30.9543 22.8462 31.534 22.8462 28.5653C22.6923 25.9771 22.3846 25.7781 23 21C21.4615 24.5835 21 25.5965 21 28.5653Z" fill="#6BCC6F"/>
<path d="M21 28.5653C21 31.534 21.4133 30.9543 21.9231 30.9543C22.4329 30.9543 22.8462 31.534 22.8462 28.5653C22.6923 25.9771 22.3846 25.7781 23 21C21.4615 24.5835 21 25.5965 21 28.5653Z" fill="#6BCC6F"/>
<path d="M21 28.5653C21 31.534 21.4133 30.9543 21.9231 30.9543C22.4329 30.9543 22.8462 31.534 22.8462 28.5653C22.6923 25.9771 22.3846 25.7781 23 21C21.4615 24.5835 21 25.5965 21 28.5653Z" fill="#4CD152"/>
<path d="M21 28.5653C21 31.534 21.4133 30.9543 21.9231 30.9543C22.4329 30.9543 22.8462 31.534 22.8462 28.5653C22.6923 25.9771 22.3846 25.7781 23 21C21.4615 24.5835 21 25.5965 21 28.5653Z" fill="#4EEC54"/>
<path d="M21 28.5653C21 31.534 21.4133 30.9543 21.9231 30.9543C22.4329 30.9543 22.8462 31.534 22.8462 28.5653C22.6923 25.9771 22.3846 25.7781 23 21C21.4615 24.5835 21 25.5965 21 28.5653Z" fill="#4EEC54"/>
<path d="M21 28.5653C21 31.534 21.4133 30.9543 21.9231 30.9543C22.4329 30.9543 22.8462 31.534 22.8462 28.5653C22.6923 25.9771 22.3846 25.7781 23 21C21.4615 24.5835 21 25.5965 21 28.5653Z" fill="#4EEC54"/>
<path d="M28 42.5653C28 45.534 28.4133 44.9543 28.9231 44.9543C29.4329 44.9543 29.8462 45.534 29.8462 42.5653C29.6923 39.9771 29.3846 39.7781 30 35C28.4615 38.5835 28 39.5965 28 42.5653Z" fill="#6BCC6F"/>
<path d="M28 42.5653C28 45.534 28.4133 44.9543 28.9231 44.9543C29.4329 44.9543 29.8462 45.534 29.8462 42.5653C29.6923 39.9771 29.3846 39.7781 30 35C28.4615 38.5835 28 39.5965 28 42.5653Z" fill="#6BCC6F"/>
<path d="M28 42.5653C28 45.534 28.4133 44.9543 28.9231 44.9543C29.4329 44.9543 29.8462 45.534 29.8462 42.5653C29.6923 39.9771 29.3846 39.7781 30 35C28.4615 38.5835 28 39.5965 28 42.5653Z" fill="#4CD152"/>
<path d="M28 42.5653C28 45.534 28.4133 44.9543 28.9231 44.9543C29.4329 44.9543 29.8462 45.534 29.8462 42.5653C29.6923 39.9771 29.3846 39.7781 30 35C28.4615 38.5835 28 39.5965 28 42.5653Z" fill="#4EEC54"/>
<path d="M28 42.5653C28 45.534 28.4133 44.9543 28.9231 44.9543C29.4329 44.9543 29.8462 45.534 29.8462 42.5653C29.6923 39.9771 29.3846 39.7781 30 35C28.4615 38.5835 28 39.5965 28 42.5653Z" fill="#4EEC54"/>
<path d="M28 42.5653C28 45.534 28.4133 44.9543 28.9231 44.9543C29.4329 44.9543 29.8462 45.534 29.8462 42.5653C29.6923 39.9771 29.3846 39.7781 30 35C28.4615 38.5835 28 39.5965 28 42.5653Z" fill="#4EEC54"/>
<path d="M17 46.5653C17 49.534 17.4133 48.9543 17.9231 48.9543C18.4329 48.9543 18.8462 49.534 18.8462 46.5653C18.6923 43.9771 18.3846 43.7781 19 39C17.4615 42.5835 17 43.5965 17 46.5653Z" fill="#6BCC6F"/>
<path d="M17 46.5653C17 49.534 17.4133 48.9543 17.9231 48.9543C18.4329 48.9543 18.8462 49.534 18.8462 46.5653C18.6923 43.9771 18.3846 43.7781 19 39C17.4615 42.5835 17 43.5965 17 46.5653Z" fill="#6BCC6F"/>
<path d="M17 46.5653C17 49.534 17.4133 48.9543 17.9231 48.9543C18.4329 48.9543 18.8462 49.534 18.8462 46.5653C18.6923 43.9771 18.3846 43.7781 19 39C17.4615 42.5835 17 43.5965 17 46.5653Z" fill="#4CD152"/>
<path d="M17 46.5653C17 49.534 17.4133 48.9543 17.9231 48.9543C18.4329 48.9543 18.8462 49.534 18.8462 46.5653C18.6923 43.9771 18.3846 43.7781 19 39C17.4615 42.5835 17 43.5965 17 46.5653Z" fill="#4EEC54"/>
<path d="M17 46.5653C17 49.534 17.4133 48.9543 17.9231 48.9543C18.4329 48.9543 18.8462 49.534 18.8462 46.5653C18.6923 43.9771 18.3846 43.7781 19 39C17.4615 42.5835 17 43.5965 17 46.5653Z" fill="#4EEC54"/>
<path d="M17 46.5653C17 49.534 17.4133 48.9543 17.9231 48.9543C18.4329 48.9543 18.8462 49.534 18.8462 46.5653C18.6923 43.9771 18.3846 43.7781 19 39C17.4615 42.5835 17 43.5965 17 46.5653Z" fill="#4EEC54"/>
<path d="M1 31.5653C1 34.534 1.41327 33.9543 1.92307 33.9543C2.43288 33.9543 2.84616 34.534 2.84616 31.5653C2.69231 28.9771 2.38461 28.7781 3 24C1.46154 27.5835 1 28.5965 1 31.5653Z" fill="#6BCC6F"/>
<path d="M1 31.5653C1 34.534 1.41327 33.9543 1.92307 33.9543C2.43288 33.9543 2.84616 34.534 2.84616 31.5653C2.69231 28.9771 2.38461 28.7781 3 24C1.46154 27.5835 1 28.5965 1 31.5653Z" fill="#6BCC6F"/>
<path d="M1 31.5653C1 34.534 1.41327 33.9543 1.92307 33.9543C2.43288 33.9543 2.84616 34.534 2.84616 31.5653C2.69231 28.9771 2.38461 28.7781 3 24C1.46154 27.5835 1 28.5965 1 31.5653Z" fill="#4CD152"/>
<path d="M1 31.5653C1 34.534 1.41327 33.9543 1.92307 33.9543C2.43288 33.9543 2.84616 34.534 2.84616 31.5653C2.69231 28.9771 2.38461 28.7781 3 24C1.46154 27.5835 1 28.5965 1 31.5653Z" fill="#4EEC54"/>
<path d="M1 31.5653C1 34.534 1.41327 33.9543 1.92307 33.9543C2.43288 33.9543 2.84616 34.534 2.84616 31.5653C2.69231 28.9771 2.38461 28.7781 3 24C1.46154 27.5835 1 28.5965 1 31.5653Z" fill="#4EEC54"/>
<path d="M1 31.5653C1 34.534 1.41327 33.9543 1.92307 33.9543C2.43288 33.9543 2.84616 34.534 2.84616 31.5653C2.69231 28.9771 2.38461 28.7781 3 24C1.46154 27.5835 1 28.5965 1 31.5653Z" fill="#4EEC54"/>
<path d="M36 35.5653C36 38.534 36.4133 37.9543 36.9231 37.9543C37.4329 37.9543 37.8462 38.534 37.8462 35.5653C37.6923 32.9771 37.3846 32.7781 38 28C36.4615 31.5835 36 32.5965 36 35.5653Z" fill="#6BCC6F"/>
<path d="M36 35.5653C36 38.534 36.4133 37.9543 36.9231 37.9543C37.4329 37.9543 37.8462 38.534 37.8462 35.5653C37.6923 32.9771 37.3846 32.7781 38 28C36.4615 31.5835 36 32.5965 36 35.5653Z" fill="#6BCC6F"/>
<path d="M36 35.5653C36 38.534 36.4133 37.9543 36.9231 37.9543C37.4329 37.9543 37.8462 38.534 37.8462 35.5653C37.6923 32.9771 37.3846 32.7781 38 28C36.4615 31.5835 36 32.5965 36 35.5653Z" fill="#4CD152"/>
<path d="M36 35.5653C36 38.534 36.4133 37.9543 36.9231 37.9543C37.4329 37.9543 37.8462 38.534 37.8462 35.5653C37.6923 32.9771 37.3846 32.7781 38 28C36.4615 31.5835 36 32.5965 36 35.5653Z" fill="#4EEC54"/>
<path d="M36 35.5653C36 38.534 36.4133 37.9543 36.9231 37.9543C37.4329 37.9543 37.8462 38.534 37.8462 35.5653C37.6923 32.9771 37.3846 32.7781 38 28C36.4615 31.5835 36 32.5965 36 35.5653Z" fill="#4EEC54"/>
<path d="M36 35.5653C36 38.534 36.4133 37.9543 36.9231 37.9543C37.4329 37.9543 37.8462 38.534 37.8462 35.5653C37.6923 32.9771 37.3846 32.7781 38 28C36.4615 31.5835 36 32.5965 36 35.5653Z" fill="#4EEC54"/>
<path d="M46 34.5653C46 37.534 46.4133 36.9543 46.9231 36.9543C47.4329 36.9543 47.8462 37.534 47.8462 34.5653C47.6923 31.9771 47.3846 31.7781 48 27C46.4615 30.5835 46 31.5965 46 34.5653Z" fill="#6BCC6F"/>
<path d="M46 34.5653C46 37.534 46.4133 36.9543 46.9231 36.9543C47.4329 36.9543 47.8462 37.534 47.8462 34.5653C47.6923 31.9771 47.3846 31.7781 48 27C46.4615 30.5835 46 31.5965 46 34.5653Z" fill="#6BCC6F"/>
<path d="M46 34.5653C46 37.534 46.4133 36.9543 46.9231 36.9543C47.4329 36.9543 47.8462 37.534 47.8462 34.5653C47.6923 31.9771 47.3846 31.7781 48 27C46.4615 30.5835 46 31.5965 46 34.5653Z" fill="#4CD152"/>
<path d="M46 34.5653C46 37.534 46.4133 36.9543 46.9231 36.9543C47.4329 36.9543 47.8462 37.534 47.8462 34.5653C47.6923 31.9771 47.3846 31.7781 48 27C46.4615 30.5835 46 31.5965 46 34.5653Z" fill="#4EEC54"/>
<path d="M46 34.5653C46 37.534 46.4133 36.9543 46.9231 36.9543C47.4329 36.9543 47.8462 37.534 47.8462 34.5653C47.6923 31.9771 47.3846 31.7781 48 27C46.4615 30.5835 46 31.5965 46 34.5653Z" fill="#4EEC54"/>
<path d="M46 34.5653C46 37.534 46.4133 36.9543 46.9231 36.9543C47.4329 36.9543 47.8462 37.534 47.8462 34.5653C47.6923 31.9771 47.3846 31.7781 48 27C46.4615 30.5835 46 31.5965 46 34.5653Z" fill="#4EEC54"/>
<path d="M46 15.5653C46 18.534 46.4133 17.9543 46.9231 17.9543C47.4329 17.9543 47.8462 18.534 47.8462 15.5653C47.6923 12.9771 47.3846 12.7781 48 8C46.4615 11.5835 46 12.5965 46 15.5653Z" fill="#6BCC6F"/>
<path d="M46 15.5653C46 18.534 46.4133 17.9543 46.9231 17.9543C47.4329 17.9543 47.8462 18.534 47.8462 15.5653C47.6923 12.9771 47.3846 12.7781 48 8C46.4615 11.5835 46 12.5965 46 15.5653Z" fill="#6BCC6F"/>
<path d="M46 15.5653C46 18.534 46.4133 17.9543 46.9231 17.9543C47.4329 17.9543 47.8462 18.534 47.8462 15.5653C47.6923 12.9771 47.3846 12.7781 48 8C46.4615 11.5835 46 12.5965 46 15.5653Z" fill="#4CD152"/>
<path d="M46 15.5653C46 18.534 46.4133 17.9543 46.9231 17.9543C47.4329 17.9543 47.8462 18.534 47.8462 15.5653C47.6923 12.9771 47.3846 12.7781 48 8C46.4615 11.5835 46 12.5965 46 15.5653Z" fill="#4EEC54"/>
<path d="M46 15.5653C46 18.534 46.4133 17.9543 46.9231 17.9543C47.4329 17.9543 47.8462 18.534 47.8462 15.5653C47.6923 12.9771 47.3846 12.7781 48 8C46.4615 11.5835 46 12.5965 46 15.5653Z" fill="#4EEC54"/>
<path d="M46 15.5653C46 18.534 46.4133 17.9543 46.9231 17.9543C47.4329 17.9543 47.8462 18.534 47.8462 15.5653C47.6923 12.9771 47.3846 12.7781 48 8C46.4615 11.5835 46 12.5965 46 15.5653Z" fill="#4EEC54"/>
<path d="M11 31.5653C11 34.534 11.4133 33.9543 11.9231 33.9543C12.4329 33.9543 12.8462 34.534 12.8462 31.5653C12.6923 28.9771 12.3846 28.7781 13 24C11.4615 27.5835 11 28.5965 11 31.5653Z" fill="#6BCC6F"/>
<path d="M11 31.5653C11 34.534 11.4133 33.9543 11.9231 33.9543C12.4329 33.9543 12.8462 34.534 12.8462 31.5653C12.6923 28.9771 12.3846 28.7781 13 24C11.4615 27.5835 11 28.5965 11 31.5653Z" fill="#6BCC6F"/>
<path d="M11 31.5653C11 34.534 11.4133 33.9543 11.9231 33.9543C12.4329 33.9543 12.8462 34.534 12.8462 31.5653C12.6923 28.9771 12.3846 28.7781 13 24C11.4615 27.5835 11 28.5965 11 31.5653Z" fill="#4CD152"/>
<path d="M11 31.5653C11 34.534 11.4133 33.9543 11.9231 33.9543C12.4329 33.9543 12.8462 34.534 12.8462 31.5653C12.6923 28.9771 12.3846 28.7781 13 24C11.4615 27.5835 11 28.5965 11 31.5653Z" fill="#4EEC54"/>
<path d="M11 31.5653C11 34.534 11.4133 33.9543 11.9231 33.9543C12.4329 33.9543 12.8462 34.534 12.8462 31.5653C12.6923 28.9771 12.3846 28.7781 13 24C11.4615 27.5835 11 28.5965 11 31.5653Z" fill="#4EEC54"/>
<path d="M11 31.5653C11 34.534 11.4133 33.9543 11.9231 33.9543C12.4329 33.9543 12.8462 34.534 12.8462 31.5653C12.6923 28.9771 12.3846 28.7781 13 24C11.4615 27.5835 11 28.5965 11 31.5653Z" fill="#4EEC54"/>
<path d="M20 8.56525C20 11.534 20.4133 10.9543 20.9231 10.9543C21.4329 10.9543 21.8462 11.534 21.8462 8.56525C21.6923 5.97714 21.3846 5.77805 22 1C20.4615 4.58354 20 5.59655 20 8.56525Z" fill="#6BCC6F"/>
<path d="M20 8.56525C20 11.534 20.4133 10.9543 20.9231 10.9543C21.4329 10.9543 21.8462 11.534 21.8462 8.56525C21.6923 5.97714 21.3846 5.77805 22 1C20.4615 4.58354 20 5.59655 20 8.56525Z" fill="#6BCC6F"/>
<path d="M20 8.56525C20 11.534 20.4133 10.9543 20.9231 10.9543C21.4329 10.9543 21.8462 11.534 21.8462 8.56525C21.6923 5.97714 21.3846 5.77805 22 1C20.4615 4.58354 20 5.59655 20 8.56525Z" fill="#4CD152"/>
<path d="M20 8.56525C20 11.534 20.4133 10.9543 20.9231 10.9543C21.4329 10.9543 21.8462 11.534 21.8462 8.56525C21.6923 5.97714 21.3846 5.77805 22 1C20.4615 4.58354 20 5.59655 20 8.56525Z" fill="#4EEC54"/>
<path d="M20 8.56525C20 11.534 20.4133 10.9543 20.9231 10.9543C21.4329 10.9543 21.8462 11.534 21.8462 8.56525C21.6923 5.97714 21.3846 5.77805 22 1C20.4615 4.58354 20 5.59655 20 8.56525Z" fill="#4EEC54"/>
<path d="M20 8.56525C20 11.534 20.4133 10.9543 20.9231 10.9543C21.4329 10.9543 21.8462 11.534 21.8462 8.56525C21.6923 5.97714 21.3846 5.77805 22 1C20.4615 4.58354 20 5.59655 20 8.56525Z" fill="#4EEC54"/>
<path d="M37 23.5653C37 26.534 37.4133 25.9543 37.9231 25.9543C38.4329 25.9543 38.8462 26.534 38.8462 23.5653C38.6923 20.9771 38.3846 20.7781 39 16C37.4615 19.5835 37 20.5965 37 23.5653Z" fill="#6BCC6F"/>
<path d="M37 23.5653C37 26.534 37.4133 25.9543 37.9231 25.9543C38.4329 25.9543 38.8462 26.534 38.8462 23.5653C38.6923 20.9771 38.3846 20.7781 39 16C37.4615 19.5835 37 20.5965 37 23.5653Z" fill="#6BCC6F"/>
<path d="M37 23.5653C37 26.534 37.4133 25.9543 37.9231 25.9543C38.4329 25.9543 38.8462 26.534 38.8462 23.5653C38.6923 20.9771 38.3846 20.7781 39 16C37.4615 19.5835 37 20.5965 37 23.5653Z" fill="#4CD152"/>
<path d="M37 23.5653C37 26.534 37.4133 25.9543 37.9231 25.9543C38.4329 25.9543 38.8462 26.534 38.8462 23.5653C38.6923 20.9771 38.3846 20.7781 39 16C37.4615 19.5835 37 20.5965 37 23.5653Z" fill="#4EEC54"/>
<path d="M37 23.5653C37 26.534 37.4133 25.9543 37.9231 25.9543C38.4329 25.9543 38.8462 26.534 38.8462 23.5653C38.6923 20.9771 38.3846 20.7781 39 16C37.4615 19.5835 37 20.5965 37 23.5653Z" fill="#4EEC54"/>
<path d="M37 23.5653C37 26.534 37.4133 25.9543 37.9231 25.9543C38.4329 25.9543 38.8462 26.534 38.8462 23.5653C38.6923 20.9771 38.3846 20.7781 39 16C37.4615 19.5835 37 20.5965 37 23.5653Z" fill="#4EEC54"/>
<path d="M43 44.5653C43 47.534 43.4133 46.9543 43.9231 46.9543C44.4329 46.9543 44.8462 47.534 44.8462 44.5653C44.6923 41.9771 44.3846 41.7781 45 37C43.4615 40.5835 43 41.5965 43 44.5653Z" fill="#6BCC6F"/>
<path d="M43 44.5653C43 47.534 43.4133 46.9543 43.9231 46.9543C44.4329 46.9543 44.8462 47.534 44.8462 44.5653C44.6923 41.9771 44.3846 41.7781 45 37C43.4615 40.5835 43 41.5965 43 44.5653Z" fill="#6BCC6F"/>
<path d="M43 44.5653C43 47.534 43.4133 46.9543 43.9231 46.9543C44.4329 46.9543 44.8462 47.534 44.8462 44.5653C44.6923 41.9771 44.3846 41.7781 45 37C43.4615 40.5835 43 41.5965 43 44.5653Z" fill="#4CD152"/>
<path d="M43 44.5653C43 47.534 43.4133 46.9543 43.9231 46.9543C44.4329 46.9543 44.8462 47.534 44.8462 44.5653C44.6923 41.9771 44.3846 41.7781 45 37C43.4615 40.5835 43 41.5965 43 44.5653Z" fill="#4CD152"/>
<path d="M11 46.5653C11 49.534 11.4133 48.9543 11.9231 48.9543C12.4329 48.9543 12.8462 49.534 12.8462 46.5653C12.6923 43.9771 12.3846 43.7781 13 39C11.4615 42.5835 11 43.5965 11 46.5653Z" fill="#6BCC6F"/>
<path d="M11 46.5653C11 49.534 11.4133 48.9543 11.9231 48.9543C12.4329 48.9543 12.8462 49.534 12.8462 46.5653C12.6923 43.9771 12.3846 43.7781 13 39C11.4615 42.5835 11 43.5965 11 46.5653Z" fill="#6BCC6F"/>
<path d="M11 46.5653C11 49.534 11.4133 48.9543 11.9231 48.9543C12.4329 48.9543 12.8462 49.534 12.8462 46.5653C12.6923 43.9771 12.3846 43.7781 13 39C11.4615 42.5835 11 43.5965 11 46.5653Z" fill="#4CD152"/>
<path d="M11 46.5653C11 49.534 11.4133 48.9543 11.9231 48.9543C12.4329 48.9543 12.8462 49.534 12.8462 46.5653C12.6923 43.9771 12.3846 43.7781 13 39C11.4615 42.5835 11 43.5965 11 46.5653Z" fill="#4CD152"/>
<path d="M33 11.3479C33 15.8009 33.6199 14.9314 34.3846 14.9314C35.1493 14.9314 35.7692 15.8009 35.7692 11.3479C35.5385 7.46571 35.0769 7.16708 36 0C33.6923 5.37531 33 6.89482 33 11.3479Z" fill="#6BCC6F"/>
<path d="M33 11.3479C33 15.8009 33.6199 14.9314 34.3846 14.9314C35.1493 14.9314 35.7692 15.8009 35.7692 11.3479C35.5385 7.46571 35.0769 7.16708 36 0C33.6923 5.37531 33 6.89482 33 11.3479Z" fill="#6BCC6F"/>
<path d="M33 11.3479C33 15.8009 33.6199 14.9314 34.3846 14.9314C35.1493 14.9314 35.7692 15.8009 35.7692 11.3479C35.5385 7.46571 35.0769 7.16708 36 0C33.6923 5.37531 33 6.89482 33 11.3479Z" fill="#4CD152"/>
<path d="M33 11.3479C33 15.8009 33.6199 14.9314 34.3846 14.9314C35.1493 14.9314 35.7692 15.8009 35.7692 11.3479C35.5385 7.46571 35.0769 7.16708 36 0C33.6923 5.37531 33 6.89482 33 11.3479Z" fill="#4CD152"/>
<path d="M15 18.3479C15 22.8009 15.6199 21.9314 16.3846 21.9314C17.1493 21.9314 17.7692 22.8009 17.7692 18.3479C17.5385 14.4657 17.0769 14.1671 18 7C15.6923 12.3753 15 13.8948 15 18.3479Z" fill="#6BCC6F"/>
<path d="M15 18.3479C15 22.8009 15.6199 21.9314 16.3846 21.9314C17.1493 21.9314 17.7692 22.8009 17.7692 18.3479C17.5385 14.4657 17.0769 14.1671 18 7C15.6923 12.3753 15 13.8948 15 18.3479Z" fill="#6BCC6F"/>
<path d="M15 18.3479C15 22.8009 15.6199 21.9314 16.3846 21.9314C17.1493 21.9314 17.7692 22.8009 17.7692 18.3479C17.5385 14.4657 17.0769 14.1671 18 7C15.6923 12.3753 15 13.8948 15 18.3479Z" fill="#4CD152"/>
<path d="M15 18.3479C15 22.8009 15.6199 21.9314 16.3846 21.9314C17.1493 21.9314 17.7692 22.8009 17.7692 18.3479C17.5385 14.4657 17.0769 14.1671 18 7C15.6923 12.3753 15 13.8948 15 18.3479Z" fill="#4CD152"/>
<path d="M30 29.3479C30 33.8009 30.6199 32.9314 31.3846 32.9314C32.1493 32.9314 32.7692 33.8009 32.7692 29.3479C32.5385 25.4657 32.0769 25.1671 33 18C30.6923 23.3753 30 24.8948 30 29.3479Z" fill="#6BCC6F"/>
<path d="M30 29.3479C30 33.8009 30.6199 32.9314 31.3846 32.9314C32.1493 32.9314 32.7692 33.8009 32.7692 29.3479C32.5385 25.4657 32.0769 25.1671 33 18C30.6923 23.3753 30 24.8948 30 29.3479Z" fill="#6BCC6F"/>
<path d="M30 29.3479C30 33.8009 30.6199 32.9314 31.3846 32.9314C32.1493 32.9314 32.7692 33.8009 32.7692 29.3479C32.5385 25.4657 32.0769 25.1671 33 18C30.6923 23.3753 30 24.8948 30 29.3479Z" fill="#4CD152"/>
<path d="M30 29.3479C30 33.8009 30.6199 32.9314 31.3846 32.9314C32.1493 32.9314 32.7692 33.8009 32.7692 29.3479C32.5385 25.4657 32.0769 25.1671 33 18C30.6923 23.3753 30 24.8948 30 29.3479Z" fill="#4CD152"/>
<path d="M23 44.3479C23 48.8009 23.6199 47.9314 24.3846 47.9314C25.1493 47.9314 25.7692 48.8009 25.7692 44.3479C25.5385 40.4657 25.0769 40.1671 26 33C23.6923 38.3753 23 39.8948 23 44.3479Z" fill="#6BCC6F"/>
<path d="M23 44.3479C23 48.8009 23.6199 47.9314 24.3846 47.9314C25.1493 47.9314 25.7692 48.8009 25.7692 44.3479C25.5385 40.4657 25.0769 40.1671 26 33C23.6923 38.3753 23 39.8948 23 44.3479Z" fill="#6BCC6F"/>
<path d="M23 44.3479C23 48.8009 23.6199 47.9314 24.3846 47.9314C25.1493 47.9314 25.7692 48.8009 25.7692 44.3479C25.5385 40.4657 25.0769 40.1671 26 33C23.6923 38.3753 23 39.8948 23 44.3479Z" fill="#4CD152"/>
<path d="M23 44.3479C23 48.8009 23.6199 47.9314 24.3846 47.9314C25.1493 47.9314 25.7692 48.8009 25.7692 44.3479C25.5385 40.4657 25.0769 40.1671 26 33C23.6923 38.3753 23 39.8948 23 44.3479Z" fill="#4CD152"/>
<path d="M44 11.0783C44 14.6407 43.3801 13.9451 42.6154 13.9451C41.8507 13.9451 41.2308 14.6407 41.2308 11.0783C41.4615 7.97257 41.9231 7.73366 41 2C43.3077 6.30025 44 7.51586 44 11.0783Z" fill="#6BCC6F"/>
<path d="M44 11.0783C44 14.6407 43.3801 13.9451 42.6154 13.9451C41.8507 13.9451 41.2308 14.6407 41.2308 11.0783C41.4615 7.97257 41.9231 7.73366 41 2C43.3077 6.30025 44 7.51586 44 11.0783Z" fill="#6BCC6F"/>
<path d="M44 11.0783C44 14.6407 43.3801 13.9451 42.6154 13.9451C41.8507 13.9451 41.2308 14.6407 41.2308 11.0783C41.4615 7.97257 41.9231 7.73366 41 2C43.3077 6.30025 44 7.51586 44 11.0783Z" fill="#6BCC6F"/>
<path d="M27 17.0783C27 20.6407 26.3801 19.9451 25.6154 19.9451C24.8507 19.9451 24.2308 20.6407 24.2308 17.0783C24.4615 13.9726 24.9231 13.7337 24 8C26.3077 12.3002 27 13.5159 27 17.0783Z" fill="#6BCC6F"/>
<path d="M27 17.0783C27 20.6407 26.3801 19.9451 25.6154 19.9451C24.8507 19.9451 24.2308 20.6407 24.2308 17.0783C24.4615 13.9726 24.9231 13.7337 24 8C26.3077 12.3002 27 13.5159 27 17.0783Z" fill="#6BCC6F"/>
<path d="M27 17.0783C27 20.6407 26.3801 19.9451 25.6154 19.9451C24.8507 19.9451 24.2308 20.6407 24.2308 17.0783C24.4615 13.9726 24.9231 13.7337 24 8C26.3077 12.3002 27 13.5159 27 17.0783Z" fill="#6BCC6F"/>
<path d="M7 19.0783C7 22.6407 6.38009 21.9451 5.61539 21.9451C4.85068 21.9451 4.23076 22.6407 4.23076 19.0783C4.46154 15.9726 4.92308 15.7337 4 10C6.3077 14.3002 7 15.5159 7 19.0783Z" fill="#6BCC6F"/>
<path d="M7 19.0783C7 22.6407 6.38009 21.9451 5.61539 21.9451C4.85068 21.9451 4.23076 22.6407 4.23076 19.0783C4.46154 15.9726 4.92308 15.7337 4 10C6.3077 14.3002 7 15.5159 7 19.0783Z" fill="#6BCC6F"/>
<path d="M7 19.0783C7 22.6407 6.38009 21.9451 5.61539 21.9451C4.85068 21.9451 4.23076 22.6407 4.23076 19.0783C4.46154 15.9726 4.92308 15.7337 4 10C6.3077 14.3002 7 15.5159 7 19.0783Z" fill="#6BCC6F"/>
<path d="M44 30.0783C44 33.6407 43.3801 32.9451 42.6154 32.9451C41.8507 32.9451 41.2308 33.6407 41.2308 30.0783C41.4615 26.9726 41.9231 26.7337 41 21C43.3077 25.3002 44 26.5159 44 30.0783Z" fill="#6BCC6F"/>
<path d="M44 30.0783C44 33.6407 43.3801 32.9451 42.6154 32.9451C41.8507 32.9451 41.2308 33.6407 41.2308 30.0783C41.4615 26.9726 41.9231 26.7337 41 21C43.3077 25.3002 44 26.5159 44 30.0783Z" fill="#6BCC6F"/>
<path d="M44 30.0783C44 33.6407 43.3801 32.9451 42.6154 32.9451C41.8507 32.9451 41.2308 33.6407 41.2308 30.0783C41.4615 26.9726 41.9231 26.7337 41 21C43.3077 25.3002 44 26.5159 44 30.0783Z" fill="#6BCC6F"/>
<path d="M37 46.0783C37 49.6407 36.3801 48.9451 35.6154 48.9451C34.8507 48.9451 34.2308 49.6407 34.2308 46.0783C34.4615 42.9726 34.9231 42.7337 34 37C36.3077 41.3002 37 42.5159 37 46.0783Z" fill="#6BCC6F"/>
<path d="M37 46.0783C37 49.6407 36.3801 48.9451 35.6154 48.9451C34.8507 48.9451 34.2308 49.6407 34.2308 46.0783C34.4615 42.9726 34.9231 42.7337 34 37C36.3077 41.3002 37 42.5159 37 46.0783Z" fill="#6BCC6F"/>
<path d="M37 46.0783C37 49.6407 36.3801 48.9451 35.6154 48.9451C34.8507 48.9451 34.2308 49.6407 34.2308 46.0783C34.4615 42.9726 34.9231 42.7337 34 37C36.3077 41.3002 37 42.5159 37 46.0783Z" fill="#6BCC6F"/>
<path d="M18 37.0783C18 40.6407 17.3801 39.9451 16.6154 39.9451C15.8507 39.9451 15.2308 40.6407 15.2308 37.0783C15.4615 33.9726 15.9231 33.7337 15 28C17.3077 32.3002 18 33.5159 18 37.0783Z" fill="#6BCC6F"/>
<path d="M18 37.0783C18 40.6407 17.3801 39.9451 16.6154 39.9451C15.8507 39.9451 15.2308 40.6407 15.2308 37.0783C15.4615 33.9726 15.9231 33.7337 15 28C17.3077 32.3002 18 33.5159 18 37.0783Z" fill="#6BCC6F"/>
<path d="M18 37.0783C18 40.6407 17.3801 39.9451 16.6154 39.9451C15.8507 39.9451 15.2308 40.6407 15.2308 37.0783C15.4615 33.9726 15.9231 33.7337 15 28C17.3077 32.3002 18 33.5159 18 37.0783Z" fill="#6BCC6F"/>
<path d="M6 46.0783C6 49.6407 5.38009 48.9451 4.61539 48.9451C3.85068 48.9451 3.23076 49.6407 3.23076 46.0783C3.46154 42.9726 3.92308 42.7337 3 37C5.3077 41.3002 6 42.5159 6 46.0783Z" fill="#6BCC6F"/>
<path d="M6 46.0783C6 49.6407 5.38009 48.9451 4.61539 48.9451C3.85068 48.9451 3.23076 49.6407 3.23076 46.0783C3.46154 42.9726 3.92308 42.7337 3 37C5.3077 41.3002 6 42.5159 6 46.0783Z" fill="#6BCC6F"/>
<path d="M6 46.0783C6 49.6407 5.38009 48.9451 4.61539 48.9451C3.85068 48.9451 3.23076 49.6407 3.23076 46.0783C3.46154 42.9726 3.92308 42.7337 3 37C5.3077 41.3002 6 42.5159 6 46.0783Z" fill="#6BCC6F"/>
</svg>
