<svg width="50" height="50" viewBox="0 0 50 50" fill="none" xmlns="http://www.w3.org/2000/svg">
<path d="M27 4.50001C26 6.50001 25.433 8.00001 23.5 8.00001C21.567 8.00001 21 5.50001 20 4.50001C20 2.56702 21.5 2.50001 23.5 1.00001C26 0.5 28 2.50001 27 4.50001Z" fill="#DB5C14"/>
<path d="M17.1425 15.2158C15.8023 14.7812 16.7217 13.5558 17.3987 13.0203C18.0757 12.4848 19.1734 12.1147 19.5942 13.2765C20.1297 13.9535 19.4661 14.3743 19.3379 15.472C18.6609 16.0075 18.661 16.5057 17.1425 15.2158Z" fill="#E7BB67"/>
<path d="M13.3884 9.55209C11.9572 9.43487 12.5822 8.004 13.1284 7.31424C13.6745 6.62447 14.6768 6.0003 15.3662 7.05421C16.056 7.60037 15.4962 8.17314 15.6262 9.29206C15.0801 9.98183 15.1968 10.476 13.3884 9.55209Z" fill="#E7BB67"/>
<path d="M28.2509 5.78024C29.2631 5.79524 28.8909 6.83121 28.5393 7.34216C28.1876 7.85311 27.512 8.33941 26.9773 7.63055C26.4664 7.27887 26.8331 6.84958 26.689 6.06863C27.0406 5.55768 26.9352 5.21557 28.2509 5.78024Z" fill="#E7BB67"/>
<path d="M27.6178 9.56083C28.3454 9.57161 28.0779 10.3162 27.8251 10.6835C27.5723 11.0507 27.0868 11.4002 26.7025 10.8907C26.3352 10.638 26.5988 10.3294 26.4952 9.76811C26.748 9.40086 26.6722 9.15497 27.6178 9.56083Z" fill="#E7D267"/>
<path d="M32.6178 9.56083C33.3454 9.57161 33.0779 10.3162 32.8251 10.6835C32.5723 11.0507 32.0868 11.4002 31.7025 10.8907C31.3352 10.638 31.5988 10.3294 31.4952 9.76811C31.748 9.40086 31.6722 9.15497 32.6178 9.56083Z" fill="#E7D267"/>
<path d="M17.6178 3.56083C18.3454 3.57161 18.0779 4.31621 17.8251 4.68345C17.5723 5.0507 17.0868 5.40022 16.7025 4.89073C16.3352 4.63797 16.5988 4.32942 16.4952 3.76811C16.748 3.40086 16.6722 3.15497 17.6178 3.56083Z" fill="#E7D267"/>
<path d="M21.6178 8.56083C22.3454 8.57161 22.0779 9.31621 21.8251 9.68345C21.5723 10.0507 21.0868 10.4002 20.7025 9.89073C20.3352 9.63797 20.5988 9.32942 20.4952 8.76811C20.748 8.40086 20.6722 8.15497 21.6178 8.56083Z" fill="#E7D267"/>
<path d="M37.6178 6.56083C38.3454 6.57161 38.0779 7.31621 37.8251 7.68345C37.5723 8.0507 37.0868 8.40022 36.7025 7.89073C36.3352 7.63797 36.5988 7.32942 36.4952 6.76811C36.748 6.40086 36.6722 6.15497 37.6178 6.56083Z" fill="#E7D267"/>
<path d="M27.6178 13.5608C28.3454 13.5716 28.0779 14.3162 27.8251 14.6835C27.5723 15.0507 27.0868 15.4002 26.7025 14.8907C26.3352 14.638 26.5988 14.3294 26.4952 13.7681C26.748 13.4009 26.6722 13.155 27.6178 13.5608Z" fill="#E7D267"/>
<path d="M31.6178 5.56083C32.3454 5.57161 32.0779 6.31621 31.8251 6.68345C31.5723 7.0507 31.0868 7.40022 30.7025 6.89073C30.3352 6.63797 30.5988 6.32942 30.4952 5.76811C30.748 5.40086 30.6722 5.15497 31.6178 5.56083Z" fill="#E7D267"/>
<path d="M24.5686 12.4097C25.0321 13.7688 23.4707 13.7665 22.6203 13.5409C21.7699 13.3153 20.7977 12.6452 21.4891 11.5926C21.7147 10.7422 22.4632 11.027 23.4374 10.4614C24.2878 10.687 24.6944 10.3828 24.5686 12.4097Z" fill="#E7BB67"/>
<path d="M19.63 8.31614C19.3896 9.51787 18.2382 8.8471 17.7072 8.31614C17.1763 7.78518 16.7458 6.87405 17.7072 6.39336C18.2382 5.8624 18.6686 6.39336 19.63 6.39336C20.1609 6.92432 20.5914 6.87405 19.63 8.31614Z" fill="#E7BB67"/>
<path d="M29.8129 3.40958C30.4318 1.71639 31.9554 2.94981 32.6083 3.8408C33.2611 4.7318 33.6825 6.15295 32.177 6.63617C31.2861 7.28901 30.7794 6.42056 29.3817 6.20495C28.7288 5.31395 28.0918 5.29051 29.8129 3.40958Z" fill="#E7BB67"/>
<circle cx="14.5" cy="5.5" r="0.5" fill="#862121"/>
<circle cx="30.5" cy="9.5" r="0.5" fill="#862121"/>
<circle cx="11.5" cy="14.5" r="0.5" fill="#862121"/>
<circle cx="24.5" cy="5.5" r="0.5" fill="#862121"/>
<circle cx="34.5" cy="9.5" r="0.5" fill="#862121"/>
<circle cx="22.5" cy="14.5" r="0.5" fill="#862121"/>
<circle cx="16.5" cy="9.5" r="0.5" fill="#862121"/>
</svg>
