<svg width="50" height="50" viewBox="0 0 50 50" fill="none" xmlns="http://www.w3.org/2000/svg">
<ellipse cx="23.4973" cy="14.4185" rx="11.7368" ry="14.4185" fill="#346F1F"/>
<ellipse cx="17.9275" cy="31.1911" rx="14.5217" ry="17.0669" fill="#346F1F"/>
<ellipse cx="32.2115" cy="40" rx="9.13461" ry="10" fill="#346F1F"/>
<ellipse cx="35.831" cy="14.4598" rx="12.246" ry="10.1754" fill="#346F1F"/>
<ellipse cx="9.97823" cy="18.7441" rx="9.97823" ry="10.1754" fill="#346F1F"/>
<ellipse cx="35.0962" cy="28" rx="14.9038" ry="16" fill="#346F1F"/>
<path d="M14.6237 38.2543C13.5752 38.2986 11.956 39.7437 11.9433 40.1223C11.9305 40.5009 13.2799 41.8909 14.4852 42.3744C15.4467 42.4451 16.0652 42.0957 16.2953 40.4424C16.1691 39.0057 15.6723 38.21 14.6237 38.2543Z" fill="#4FC053"/>
<path d="M8.20366 19.9974C8.46577 18.495 7.97634 15.793 7.73396 15.6699C7.49158 15.5468 6.21448 17.0789 5.56607 18.6577C5.25344 20.0045 5.30878 20.9804 6.3188 21.7661C7.28697 21.9852 7.94155 21.4999 8.20366 19.9974Z" fill="#4FC053"/>
<path d="M20.2037 33.9974C20.4658 32.495 19.9763 29.793 19.734 29.6699C19.4916 29.5468 18.2145 31.0789 17.5661 32.6577C17.2534 34.0045 17.3088 34.9804 18.3188 35.7661C19.287 35.9852 19.9416 35.4999 20.2037 33.9974Z" fill="#4FC053"/>
<path d="M26.253 26.5471C26.5151 25.0447 26.0257 22.3427 25.7833 22.2196C25.5409 22.0964 24.2638 23.6286 23.6154 25.2074C23.3028 26.5541 23.3581 27.5301 24.3681 28.3157C25.3363 28.5349 25.9909 28.0496 26.253 26.5471Z" fill="#4FC053"/>
<path d="M17.6056 22.3303C17.1829 21.4867 15.74 20.9096 15.5179 21.0986C15.2957 21.2877 15.0092 23.136 15.1883 24.3875C15.512 25.2197 15.9469 25.5469 16.983 24.8657C17.7599 24.0041 18.0283 23.1739 17.6056 22.3303Z" fill="#4FC053"/>
<path d="M10.6135 30.4279C9.56933 30.2787 7.84109 31.4143 7.79659 31.7876C7.75209 32.1609 8.97395 33.7886 10.1292 34.4904C11.0772 34.7377 11.7204 34.5049 12.0878 32.9069C12.0835 31.4581 11.6576 30.5771 10.6135 30.4279Z" fill="#4FC053"/>
<path d="M23.7741 13.5368C22.7256 13.5811 21.1064 15.0262 21.0936 15.4048C21.0809 15.7834 22.4303 17.1733 23.6356 17.6569C24.5971 17.7276 25.2156 17.3782 25.4457 15.7249C25.3195 14.2881 24.8227 13.4925 23.7741 13.5368Z" fill="#4FC053"/>
<path d="M24.9107 40.8966C25.1728 39.3942 24.6834 36.6922 24.441 36.569C24.1986 36.4459 22.9215 37.978 22.2731 39.5569C21.9605 40.9036 22.0158 41.8796 23.0258 42.6652C23.994 42.8844 24.6486 42.3991 24.9107 40.8966Z" fill="#4FC053"/>
<path d="M31.396 12.7747C30.8034 11.4943 29.1057 10.2621 28.8836 10.4511C28.6614 10.6402 28.6014 13.0709 28.9787 14.8319C29.4587 16.0661 29.9921 16.6465 31.0565 16.0381C31.805 15.1036 31.9885 14.0551 31.396 12.7747Z" fill="#4FC053"/>
<path d="M19.7643 5.71038C18.7202 5.56117 16.992 6.69675 16.9475 7.07007C16.903 7.44339 18.1248 9.07108 19.2801 9.77288C20.2281 10.0201 20.8712 9.78741 21.2387 8.18933C21.2344 6.74054 20.8085 5.85959 19.7643 5.71038Z" fill="#4FC053"/>
<path d="M33.3227 36.4888C32.2742 36.5331 30.655 37.9782 30.6422 38.3568C30.6295 38.7354 31.9789 40.1254 33.1842 40.6089C34.1457 40.6796 34.7642 40.3302 34.9943 38.6769C34.8681 37.2402 34.3713 36.4445 33.3227 36.4888Z" fill="#4FC053"/>
<path d="M41.983 29.7815C42.2451 28.279 41.7556 25.577 41.5133 25.4539C41.2709 25.3308 39.9938 26.8629 39.3454 28.4418C39.0327 29.7885 39.0881 30.7645 40.0981 31.5501C41.0663 31.7693 41.7208 31.284 41.983 29.7815Z" fill="#4FC053"/>
<path d="M36.0217 19.8369C35.4291 18.5565 33.7314 17.3242 33.5093 17.5133C33.2872 17.7023 33.2271 20.133 33.6044 21.894C34.0845 23.1282 34.6178 23.7086 35.6823 23.1002C36.4308 22.1658 36.6143 21.1173 36.0217 19.8369Z" fill="#4FC053"/>
<path d="M28.2817 28.6624C27.2375 28.5132 25.5093 29.6488 25.4648 30.0221C25.4203 30.3954 26.6422 32.0231 27.7974 32.7249C28.7454 32.9722 29.3886 32.7394 29.756 31.1414C29.7518 29.6926 29.3258 28.8116 28.2817 28.6624Z" fill="#4FC053"/>
</svg>
