<svg width="70" height="70" viewBox="0 0 70 70" fill="none" xmlns="http://www.w3.org/2000/svg">
<path d="M67.5864 63.4117H54.3105" stroke="#CD6464"/>
<path d="M14.4827 64.0105H2.41362" stroke="#CD6464"/>
<path d="M70.0005 67.0053L67.5867 9.65515H56.1211L51.8969 14.0804H39.7897H32.5864L16.8967 14.0804L15.0863 9.65515H2.41381L0 70L16.8967 69.401V67.0053L53.1038 66.4063V70L67.5867 69.401L70.0005 67.0053Z" fill="#7C7A38"/>
<path d="M33.9317 53.9416C21.2672 53.9416 11.0005 55.1395 11.0005 39.5671C11.0005 30.583 23.681 21 36.3455 21C49.0101 21 59.6003 28.1873 59.6003 38.9681C62.0141 53.3426 49.945 53.3426 33.9317 53.9416Z" fill="#4D4419"/>
<path d="M53.0351 57.5883L47.0005 54.5936V53.9947L59.0696 51L61.4834 56.9894V61.7809L60.2765 68.3692L55.4489 69.5671V62.3798L53.0351 57.5883Z" fill="#684A1C"/>
<path d="M17.4488 57.5883L23.4833 54.5936V53.9947L11.4143 51L9.00049 56.9894V61.7809L10.2074 68.3692L15.035 69.5671L15.035 62.3798L17.4488 57.5883Z" fill="#684A1C"/>
<path d="M38.3179 15.1148L38.0383 21.6602L33.2293 21.9329L32.2491 15.0509L31.3755 0.40903L38.5889 0L38.3179 15.1148Z" fill="#9B9D2D"/>
<path d="M41.2764 65.1819H28.0004L28.6039 60.091M41.2764 65.1819V60.091M41.2764 65.1819V55V60.091M29.2073 55L28.6039 60.091M28.6039 60.091H40.0695H41.2764" stroke="#9B9D2D"/>
<rect x="67.8281" y="56" width="8.38513" height="4.82762" transform="rotate(90 67.8281 56)" fill="#6D4E10"/>
<rect x="7.82812" y="57" width="8.38513" height="4.82762" transform="rotate(90 7.82812 57)" fill="#6D4E10"/>
<rect x="65.6558" y="13" width="4.7915" height="9.65524" transform="rotate(90 65.6558 13)" fill="#6D4E10"/>
<rect x="13.6558" y="12" width="4.7915" height="9.65524" transform="rotate(90 13.6558 12)" fill="#6D4E10"/>
<rect x="67.0696" y="21" width="5.98938" height="12.069" transform="rotate(90 67.0696 21)" fill="#C4CD62"/>
<rect x="15.0696" y="21" width="5.98938" height="12.069" transform="rotate(90 15.0696 21)" fill="#C4CD62"/>
<path d="M35.1607 50.1766C29.8283 50.1766 23.0917 47.1819 25.5055 43.5883C25.5055 39.9497 29.8283 37 35.1607 37C40.4932 37 44.816 39.9497 44.816 43.5883C47.2298 48.3798 40.4932 50.1766 35.1607 50.1766Z" fill="#8A6F2B"/>
<path d="M32.5869 3.21838L37.4146 3.21838" stroke="#153600"/>
<path d="M32.5869 5.6322L37.4146 5.6322" stroke="#153600"/>
</svg>
