<svg width="160" height="161" viewBox="0 0 160 161" fill="none" xmlns="http://www.w3.org/2000/svg">
<path d="M100.166 4.0769L160 31.2333V124.02L94.8149 158.949L100.166 4.0769Z" fill="#BD8F58"/>
<path d="M58.7613 81H38.5185L76.7079 161H99.7529L58.7613 81Z" fill="#B18D57"/>
<path d="M116.706 81H96.7901L134.364 161H157.037L116.706 81Z" fill="#C2AF6A"/>
<path d="M78.1878 81H58.2715L95.845 161H118.518L78.1878 81Z" fill="#C2AF6A"/>
<path d="M97.941 81H78.0247L115.598 161H138.271L97.941 81Z" fill="#B18D57"/>
<path d="M38.6817 81H18.7654L56.3389 161H79.0122L38.6817 81Z" fill="#C2AF6A"/>
<path d="M19.9163 81H1.27256e-05L37.5735 161H60.2468L19.9163 81Z" fill="#B18D57"/>
<path d="M59.2785 81H38.5185L76.7079 0.999995H99.7529L59.2785 81Z" fill="#B18D57"/>
<path d="M116.706 81H96.7901L134.364 0.999997H157.037L116.706 81Z" fill="#C2AF6A"/>
<path d="M78.1878 81H58.2715L95.845 0.999997H118.518L78.1878 81Z" fill="#C2AF6A"/>
<path d="M97.941 81H78.0247L115.598 0.999997H138.271L97.941 81Z" fill="#B18D57"/>
<path d="M38.6817 81H18.7654L56.3389 0.999997H79.0122L38.6817 81Z" fill="#C2AF6A"/>
<path d="M19.9163 81H1.27256e-05L37.5735 0.999997H60.2468L19.9163 81Z" fill="#B18D57"/>
<path d="M155.062 75.2562L137.284 69.7178V94.3332L155.062 88.1793V75.2562Z" fill="#B5B398"/>
<path d="M146.173 71.7693V92.2821" stroke="#A78C6D"/>
<path d="M137.284 82.0256L155.062 81" stroke="#A78C6D"/>
<path d="M88.037 23.6243L99.7654 23L89.8889 37.359L79 29.9358L88.037 23.6243Z" fill="#8A7751"/>
<path d="M79 30.0296L93 28.4358L98.7531 39.5303L85.1728 40.7178L79 30.0296Z" fill="#633B1D"/>
<path d="M92.8518 28.4701L99.5507 23L103 32.4358L98.6575 39.4103L92.8518 28.4701Z" fill="#7A4C3D"/>
<path d="M58.3352 115.98C59.8049 122.534 56.1844 125.221 51.2245 126.333C46.2646 127.445 41.8435 126.562 40.3737 120.008C38.9039 113.453 43.2369 107.238 43.5012 96.3991C49.331 105.872 56.8654 109.426 58.3352 115.98Z" fill="#ECCB8A"/>
<path d="M58.3352 115.98C59.8049 122.534 56.1844 125.221 51.2245 126.333C46.2646 127.445 41.8435 126.562 40.3737 120.008C38.9039 113.453 43.2369 107.238 43.5012 96.3991C49.331 105.872 56.8654 109.426 58.3352 115.98Z" fill="#ECCB8A"/>
<path d="M67.3172 120.326C66.6036 127.005 62.3119 128.386 57.2575 127.846C52.2032 127.306 48.3002 125.049 49.0139 118.37C49.7275 111.691 55.8275 107.198 59.5598 97.0179C62.0376 107.861 68.0309 113.647 67.3172 120.326Z" fill="#ECCB8A"/>
<path d="M75.1011 134.101C73.4541 140.613 69.0107 141.377 64.0828 140.13C59.1548 138.884 55.6085 136.1 57.2555 129.588C58.9026 123.076 65.5746 119.486 70.7031 109.933C71.6293 121.017 76.7482 127.59 75.1011 134.101Z" fill="#ECCB8A"/>
<path d="M61.1732 123.003C65.9603 129.395 63.0919 134.26 57.9452 138.115C52.7986 141.97 47.3226 143.354 42.5355 136.963C37.7484 130.572 39.7598 121.466 34.9259 109.463C46.0834 116.729 56.3861 116.612 61.1732 123.003Z" fill="#ECCB8A"/>
<path d="M67.308 136.908C66.8507 142.108 62.6818 143.168 57.6928 142.73C52.7039 142.291 48.7841 140.519 49.2414 135.319C49.6987 130.119 55.5315 126.64 58.8286 118.724C61.6613 127.179 67.7653 131.707 67.308 136.908Z" fill="#FFE68E"/>
<path d="M56.5782 125.522C59.2665 129.997 57.0885 132.964 53.4987 135.121C49.9088 137.277 46.2666 137.807 43.5783 133.332C40.89 128.857 42.7887 123.078 40.4361 114.955C47.1994 120.428 53.8899 121.048 56.5782 125.522Z" fill="#FFE68E"/>
<path d="M60.9952 114.344C60.2055 116.617 58.512 116.722 56.6882 116.089C54.8645 115.455 53.6011 114.323 54.3909 112.049C55.1806 109.776 57.787 108.741 59.9672 105.509C60.0278 109.519 61.7849 112.07 60.9952 114.344Z" fill="#FFE68E"/>
<path d="M72.7301 128.005C72.635 130.835 71.0448 131.553 69.1153 131.488C67.1857 131.423 65.6474 130.6 65.7425 127.77C65.8377 124.939 68.0313 122.855 69.1785 118.456C70.4021 122.934 72.8252 125.174 72.7301 128.005Z" fill="#FFE68E"/>
<path d="M58.0976 114.677C59.3753 116.717 58.397 118.103 56.7609 119.128C55.1248 120.153 53.4505 120.429 52.1729 118.389C50.8952 116.35 51.7205 113.67 50.5661 109.946C53.7307 112.41 56.82 112.638 58.0976 114.677Z" fill="#FFE68E"/>
<path d="M131.048 18.3453C132.057 22.8434 129.572 24.6873 126.168 25.4507C122.764 26.2141 119.73 25.6078 118.721 21.1096C117.713 16.6115 120.687 12.3459 120.868 4.90702C124.869 11.408 130.04 13.8471 131.048 18.3453Z" fill="#ECCB8A"/>
<path d="M131.048 18.3453C132.057 22.8434 129.572 24.6873 126.168 25.4507C122.764 26.2141 119.73 25.6078 118.721 21.1096C117.713 16.6115 120.687 12.3459 120.868 4.90702C124.869 11.408 130.04 13.8471 131.048 18.3453Z" fill="#ECCB8A"/>
<path d="M137.213 21.3281C136.723 25.9119 133.778 26.8598 130.309 26.4892C126.84 26.1185 124.162 24.5697 124.651 19.9859C125.141 15.4021 129.328 12.318 131.889 5.33163C133.59 12.7734 137.703 16.7443 137.213 21.3281Z" fill="#ECCB8A"/>
<path d="M142.555 30.7824C141.425 35.2515 138.375 35.7753 134.993 34.9199C131.611 34.0645 129.177 32.1539 130.308 27.6847C131.438 23.2156 136.017 20.7517 139.537 14.1956C140.172 21.8027 143.685 26.3133 142.555 30.7824Z" fill="#ECCB8A"/>
<path d="M132.996 23.1656C136.282 27.5519 134.313 30.8912 130.781 33.5369C127.249 36.1825 123.49 37.1326 120.205 32.7463C116.92 28.3599 118.3 22.1103 114.983 13.8728C122.64 18.8598 129.711 18.7792 132.996 23.1656Z" fill="#ECCB8A"/>
<path d="M137.207 32.7081C136.893 36.277 134.032 37.0049 130.608 36.7038C127.184 36.4027 124.494 35.1866 124.807 31.6177C125.121 28.0489 129.124 25.6614 131.387 20.2285C133.331 26.0314 137.52 29.1393 137.207 32.7081Z" fill="#FFE68E"/>
<path d="M129.843 24.8942C131.688 27.9653 130.193 30.0015 127.729 31.4816C125.265 32.9618 122.766 33.3252 120.921 30.2542C119.076 27.1831 120.379 23.2167 118.764 17.6418C123.406 21.3982 127.998 21.8232 129.843 24.8942Z" fill="#FFE68E"/>
<path d="M132.874 17.2224C132.332 18.7826 131.17 18.855 129.918 18.4202C128.667 17.9854 127.799 17.208 128.341 15.6479C128.883 14.0877 130.672 13.3772 132.168 11.159C132.21 13.9115 133.416 15.6622 132.874 17.2224Z" fill="#FFE68E"/>
<path d="M140.928 26.598C140.863 28.5404 139.771 29.0334 138.447 28.9889C137.123 28.9444 136.067 28.3792 136.132 26.4368C136.198 24.4943 137.703 23.0637 138.49 20.0449C139.33 23.1183 140.993 24.6555 140.928 26.598Z" fill="#FFE68E"/>
<path d="M130.886 17.4514C131.762 18.8511 131.091 19.8026 129.968 20.506C128.845 21.2095 127.696 21.3985 126.819 19.9989C125.942 18.5993 126.509 16.7598 125.717 14.204C127.889 15.8955 130.009 16.0518 130.886 17.4514Z" fill="#FFE68E"/>
</svg>
