<svg width="160" height="160" viewBox="0 0 160 160" fill="none" xmlns="http://www.w3.org/2000/svg">
<path d="M98.3527 3.0769L160 30.7728V125.403L93.3334 155.897L98.3527 3.0769Z" fill="#BD8F58"/>
<path d="M58.7613 80H38.5185L76.708 160H99.7531L58.7613 80Z" fill="#B18D57"/>
<path d="M116.706 80H96.7901L134.364 160H157.037L116.706 80Z" fill="#C2AF6A"/>
<path d="M78.188 80H58.2716L95.8452 160H118.519L78.188 80Z" fill="#C2AF6A"/>
<path d="M97.941 80H78.0247L115.598 160H138.272L97.941 80Z" fill="#B18D57"/>
<path d="M38.6818 80H18.7654L56.339 160H79.0123L38.6818 80Z" fill="#C2AF6A"/>
<path d="M19.9164 80H3.38256e-05L37.5736 160H60.2469L19.9164 80Z" fill="#B18D57"/>
<path d="M59.2785 80H38.5185L76.708 -4.52995e-06H99.7531L59.2785 80Z" fill="#B18D57"/>
<path d="M116.706 80H96.7901L134.364 -3.26726e-06H157.037L116.706 80Z" fill="#C2AF6A"/>
<path d="M78.188 80H58.2716L95.8452 -3.26726e-06H118.519L78.188 80Z" fill="#C2AF6A"/>
<path d="M97.941 80H78.0247L115.598 0H138.272L97.941 80Z" fill="#B18D57"/>
<path d="M38.6818 80H18.7654L56.339 -3.26726e-06H79.0123L38.6818 80Z" fill="#C2AF6A"/>
<path d="M19.9164 80H3.38256e-05L37.5736 -3.26726e-06H60.2469L19.9164 80Z" fill="#B18D57"/>
<path d="M155.062 74.2565L137.284 68.718V93.3334L155.062 87.1796V74.2565Z" fill="#DBDAC1"/>
<path d="M146.173 70.7693V91.2821" stroke="#A78C6D"/>
<path d="M137.284 81.0256L155.062 80" stroke="#A78C6D"/>
<path d="M87.037 23.1885L98.7654 22.5642L88.8889 36.9232L78 29.5L87.037 23.1885Z" fill="#8A7751"/>
<path d="M78 29.5938L92 28L97.7531 39.0945L84.1728 40.2821L78 29.5938Z" fill="#633B1D"/>
<path d="M91.8518 28.0343L98.5507 22.5642L102 32L97.6575 38.9745L91.8518 28.0343Z" fill="#7A4C3D"/>
</svg>
