<svg width="160" height="160" viewBox="0 0 160 160" fill="none" xmlns="http://www.w3.org/2000/svg">
<path d="M11.8221 119.025L2.85696 125.279L34.9608 137.252L45.167 130.132L11.8221 119.025Z" fill="#D1BA68"/>
<path d="M116.12 128.644L112.171 133.406L147.45 149.614L151.945 144.193L116.12 128.644Z" fill="#D1BA68"/>
<path d="M98.3527 3.0769L160 30.7728V125.403L93.3334 155.897L98.3527 3.0769Z" fill="#E0D19B"/>
<path d="M58.7613 80H38.5185L76.708 160H99.7531L58.7613 80Z" fill="#ECDB85"/>
<path d="M78.188 80H58.2716L95.8452 160H118.519L78.188 80Z" fill="#D1BA68"/>
<path d="M97.941 80H78.0247L115.598 160H138.272L97.941 80Z" fill="#ECDB85"/>
<path d="M38.6818 80H18.7654L56.339 160H79.0123L38.6818 80Z" fill="#D1BA68"/>
<path d="M19.9164 80H3.38256e-05L37.5736 160H60.2469L19.9164 80Z" fill="#ECDB85"/>
<path d="M38 158H48.5" stroke="#D1BA68"/>
<path d="M44 153H54.5" stroke="#D1BA68"/>
<path d="M34 149H44.5" stroke="#D1BA68"/>
<path d="M40 143H50.5" stroke="#D1BA68"/>
<path d="M29 139H39.5" stroke="#D1BA68"/>
<path d="M35 134H45.5" stroke="#D1BA68"/>
<path d="M25 130H35.5" stroke="#D1BA68"/>
<path d="M31 124H41.5" stroke="#D1BA68"/>
<path d="M19 120H29.5" stroke="#D1BA68"/>
<path d="M25 115H35.5" stroke="#D1BA68"/>
<path d="M15 111H25.5" stroke="#D1BA68"/>
<path d="M21 105H31.5" stroke="#D1BA68"/>
<path d="M10 101H20.5" stroke="#D1BA68"/>
<path d="M16 96H26.5" stroke="#D1BA68"/>
<path d="M6 92H16.5" stroke="#D1BA68"/>
<path d="M12 86H22.5" stroke="#D1BA68"/>
<path d="M59.2785 80H38.5185L76.708 -4.52995e-06H99.7531L59.2785 80Z" fill="#ECDB85"/>
<path d="M116.706 80H96.7901L134.364 -3.26726e-06H157.037L116.706 80Z" fill="#D1BA68"/>
<path d="M78.188 80H58.2716L95.8452 -3.26726e-06H118.519L78.188 80Z" fill="#D1BA68"/>
<path d="M97.941 80H78.0247L115.598 0H138.272L97.941 80Z" fill="#ECDB85"/>
<path d="M38.6818 80H18.7654L56.339 -3.26726e-06H79.0123L38.6818 80Z" fill="#D1BA68"/>
<path d="M19.9164 80H3.38256e-05L37.5736 -3.26726e-06H60.2469L19.9164 80Z" fill="#ECDB85"/>
<path d="M155.062 74.2564L137.284 68.7179V93.3333L155.062 87.1794V74.2564Z" fill="#BCB970"/>
<path d="M146.173 70.7693V91.2821" stroke="#E9D2B9"/>
<path d="M137.284 81.0256L155.062 80" stroke="#E9D2B9"/>
<path d="M87.037 23.1884L98.7654 22.5641L88.8889 36.9231L78 29.4999L87.037 23.1884Z" fill="#8A7751"/>
<path d="M78 29.5938L92 28L97.7531 39.0945L84.1728 40.2821L78 29.5938Z" fill="#96765F"/>
<path d="M91.8518 28.0342L98.5507 22.5641L102 31.9999L97.6575 38.9743L91.8518 28.0342Z" fill="#AF9654"/>
<path d="M38 158H48.5" stroke="#D1BA68"/>
<path d="M44 153H54.5" stroke="#D1BA68"/>
<path d="M34 149H44.5" stroke="#D1BA68"/>
<path d="M40 143H50.5" stroke="#D1BA68"/>
<path d="M44 153H54.5" stroke="#D1BA68"/>
<path d="M34 149H44.5" stroke="#D1BA68"/>
<path d="M40 143H50.5" stroke="#D1BA68"/>
<path d="M51 101H61.5" stroke="#D1BA68"/>
<path d="M57 95.9999H67.5" stroke="#D1BA68"/>
<path d="M47 91.9999H57.5" stroke="#D1BA68"/>
<path d="M53 85.9999H63.5" stroke="#D1BA68"/>
<path d="M60 118H70.5" stroke="#D1BA68"/>
<path d="M66 113H76.5" stroke="#D1BA68"/>
<path d="M56 109H66.5" stroke="#D1BA68"/>
<path d="M62 103H72.5" stroke="#D1BA68"/>
<path d="M69 137H79.5" stroke="#D1BA68"/>
<path d="M75 132H85.5" stroke="#D1BA68"/>
<path d="M65 128H75.5" stroke="#D1BA68"/>
<path d="M71 122H81.5" stroke="#D1BA68"/>
<path d="M79 157H89.5" stroke="#D1BA68"/>
<path d="M85 152H95.5" stroke="#D1BA68"/>
<path d="M75 148H85.5" stroke="#D1BA68"/>
<path d="M81 142H91.5" stroke="#D1BA68"/>
<path d="M60 159H70.5" stroke="#ECDB85"/>
<path d="M66 154H75" stroke="#ECDB85"/>
<path d="M56 150H66.5" stroke="#ECDB85"/>
<path d="M62 144H71" stroke="#ECDB85"/>
<path d="M41 120H51.5" stroke="#ECDB85"/>
<path d="M47 115H56" stroke="#ECDB85"/>
<path d="M37 111H47.5" stroke="#ECDB85"/>
<path d="M43 105H52" stroke="#ECDB85"/>
<path d="M31 101H41.5" stroke="#ECDB85"/>
<path d="M37 95.9999H46" stroke="#ECDB85"/>
<path d="M27 91.9999H37.5" stroke="#ECDB85"/>
<path d="M33 85.9999H42" stroke="#ECDB85"/>
<path d="M51 140H61.5" stroke="#ECDB85"/>
<path d="M57 135H66" stroke="#ECDB85"/>
<path d="M47 131H57.5" stroke="#ECDB85"/>
<path d="M53 125H62" stroke="#ECDB85"/>
<path d="M98.3527 3.0769L160 30.7728V125.403L93.3334 155.897L98.3527 3.0769Z" fill="#E0D19B"/>
<path d="M58.7613 80H38.5185L76.708 160H99.7531L58.7613 80Z" fill="#ECDB85"/>
<path d="M78.188 80H58.2716L95.8452 160H118.519L78.188 80Z" fill="#D1BA68"/>
<path d="M97.941 80H78.0247L115.598 160H138.272L97.941 80Z" fill="#ECDB85"/>
<path d="M38.6818 80H18.7654L56.339 160H79.0123L38.6818 80Z" fill="#D1BA68"/>
<path d="M19.9164 80H3.38256e-05L37.5736 160H60.2469L19.9164 80Z" fill="#ECDB85"/>
<path d="M38 158H48.5" stroke="#D1BA68"/>
<path d="M44 153H54.5" stroke="#D1BA68"/>
<path d="M34 149H44.5" stroke="#D1BA68"/>
<path d="M40 143H50.5" stroke="#D1BA68"/>
<path d="M29 139H39.5" stroke="#D1BA68"/>
<path d="M35 134H45.5" stroke="#D1BA68"/>
<path d="M25 130H35.5" stroke="#D1BA68"/>
<path d="M31 124H41.5" stroke="#D1BA68"/>
<path d="M19 120H29.5" stroke="#D1BA68"/>
<path d="M25 115H35.5" stroke="#D1BA68"/>
<path d="M15 111H25.5" stroke="#D1BA68"/>
<path d="M21 105H31.5" stroke="#D1BA68"/>
<path d="M10 101H20.5" stroke="#D1BA68"/>
<path d="M16 96H26.5" stroke="#D1BA68"/>
<path d="M6 92H16.5" stroke="#D1BA68"/>
<path d="M12 86H22.5" stroke="#D1BA68"/>
<path d="M59.2785 80H38.5185L76.708 -4.52995e-06H99.7531L59.2785 80Z" fill="#ECDB85"/>
<path d="M116.706 80H96.7901L134.364 -3.26726e-06H157.037L116.706 80Z" fill="#D1BA68"/>
<path d="M78.188 80H58.2716L95.8452 -3.26726e-06H118.519L78.188 80Z" fill="#D1BA68"/>
<path d="M97.941 80H78.0247L115.598 0H138.272L97.941 80Z" fill="#ECDB85"/>
<path d="M38.6818 80H18.7654L56.339 -3.26726e-06H79.0123L38.6818 80Z" fill="#D1BA68"/>
<path d="M19.9164 80H3.38256e-05L37.5736 -3.26726e-06H60.2469L19.9164 80Z" fill="#ECDB85"/>
<path d="M155.062 74.2564L137.284 68.7179V93.3333L155.062 87.1794V74.2564Z" fill="#BCB970"/>
<path d="M146.173 70.7693V91.2821" stroke="#E9D2B9"/>
<path d="M137.284 81.0256L155.062 80" stroke="#E9D2B9"/>
<path d="M87.037 23.1884L98.7654 22.5641L88.8889 36.9231L78 29.4999L87.037 23.1884Z" fill="#8A7751"/>
<path d="M78 29.5938L92 28L97.7531 39.0945L84.1728 40.2821L78 29.5938Z" fill="#96765F"/>
<path d="M91.8518 28.0342L98.5507 22.5641L102 31.9999L97.6575 38.9743L91.8518 28.0342Z" fill="#AF9654"/>
<path d="M60 159H70.5" stroke="#ECDB85"/>
<path d="M66 154H75" stroke="#ECDB85"/>
<path d="M56 150H66.5" stroke="#ECDB85"/>
<path d="M62 144H71" stroke="#ECDB85"/>
<path d="M41 120H51.5" stroke="#ECDB85"/>
<path d="M47 115H56" stroke="#ECDB85"/>
<path d="M37 111H47.5" stroke="#ECDB85"/>
<path d="M43 105H52" stroke="#ECDB85"/>
<path d="M31 101H41.5" stroke="#ECDB85"/>
<path d="M37 95.9999H46" stroke="#ECDB85"/>
<path d="M27 91.9999H37.5" stroke="#ECDB85"/>
<path d="M33 85.9999H42" stroke="#ECDB85"/>
<path d="M51 140H61.5" stroke="#ECDB85"/>
<path d="M57 135H66" stroke="#ECDB85"/>
<path d="M47 131H57.5" stroke="#ECDB85"/>
<path d="M53 125H62" stroke="#ECDB85"/>
<path d="M98.3527 3.0769L160 30.7728V125.403L93.3334 155.897L98.3527 3.0769Z" fill="#E0D19B"/>
<path d="M58.7613 80H38.5185L76.708 160H99.7531L58.7613 80Z" fill="#ECDB85"/>
<path d="M78.188 80H58.2716L95.8452 160H118.519L78.188 80Z" fill="#D1BA68"/>
<path d="M97.941 80H78.0247L115.598 160H138.272L97.941 80Z" fill="#ECDB85"/>
<path d="M38.6818 80H18.7654L56.339 160H79.0123L38.6818 80Z" fill="#D1BA68"/>
<path d="M19.9164 80H3.38256e-05L37.5736 160H60.2469L19.9164 80Z" fill="#ECDB85"/>
<path d="M38 158H48.5" stroke="#D1BA68"/>
<path d="M44 153H54.5" stroke="#D1BA68"/>
<path d="M34 149H44.5" stroke="#D1BA68"/>
<path d="M40 143H50.5" stroke="#D1BA68"/>
<path d="M29 139H39.5" stroke="#D1BA68"/>
<path d="M35 134H45.5" stroke="#D1BA68"/>
<path d="M25 130H35.5" stroke="#D1BA68"/>
<path d="M31 124H41.5" stroke="#D1BA68"/>
<path d="M19 120H29.5" stroke="#D1BA68"/>
<path d="M25 115H35.5" stroke="#D1BA68"/>
<path d="M15 111H25.5" stroke="#D1BA68"/>
<path d="M21 105H31.5" stroke="#D1BA68"/>
<path d="M10 101H20.5" stroke="#D1BA68"/>
<path d="M16 96H26.5" stroke="#D1BA68"/>
<path d="M6 92H16.5" stroke="#D1BA68"/>
<path d="M12 86H22.5" stroke="#D1BA68"/>
<path d="M77 157H87.5" stroke="#D1BA68"/>
<path d="M83 152H93.5" stroke="#D1BA68"/>
<path d="M73 148H83.5" stroke="#D1BA68"/>
<path d="M79 142H89.5" stroke="#D1BA68"/>
<path d="M68 138H78.5" stroke="#D1BA68"/>
<path d="M74 133H84.5" stroke="#D1BA68"/>
<path d="M64 129H74.5" stroke="#D1BA68"/>
<path d="M70 123H80.5" stroke="#D1BA68"/>
<path d="M58 119H68.5" stroke="#D1BA68"/>
<path d="M64 114H74.5" stroke="#D1BA68"/>
<path d="M54 110H64.5" stroke="#D1BA68"/>
<path d="M60 104H70.5" stroke="#D1BA68"/>
<path d="M49 100H59.5" stroke="#D1BA68"/>
<path d="M55 95H65.5" stroke="#D1BA68"/>
<path d="M45 91H55.5" stroke="#D1BA68"/>
<path d="M51 85H61.5" stroke="#D1BA68"/>
<path d="M117 156H127.5" stroke="#D1BA68"/>
<path d="M123 151H133.5" stroke="#D1BA68"/>
<path d="M113 147H123.5" stroke="#D1BA68"/>
<path d="M108 137H118.5" stroke="#D1BA68"/>
<path d="M114 132H124.5" stroke="#D1BA68"/>
<path d="M104 128H114.5" stroke="#D1BA68"/>
<path d="M110 122H120.5" stroke="#D1BA68"/>
<path d="M98 118H108.5" stroke="#D1BA68"/>
<path d="M104 113H114.5" stroke="#D1BA68"/>
<path d="M94 109H104.5" stroke="#D1BA68"/>
<path d="M100 103H110.5" stroke="#D1BA68"/>
<path d="M89 99H99.5" stroke="#D1BA68"/>
<path d="M95 94H105.5" stroke="#D1BA68"/>
<path d="M85 90H95.5" stroke="#D1BA68"/>
<path d="M91 84H101.5" stroke="#D1BA68"/>
<path d="M59.2785 80H38.5185L76.708 -4.52995e-06H99.7531L59.2785 80Z" fill="#ECDB85"/>
<path d="M116.706 80H96.7901L134.364 -3.26726e-06H157.037L116.706 80Z" fill="#D1BA68"/>
<path d="M78.188 80H58.2716L95.8452 -3.26726e-06H118.519L78.188 80Z" fill="#D1BA68"/>
<path d="M97.941 80H78.0247L115.598 0H138.272L97.941 80Z" fill="#ECDB85"/>
<path d="M38.6818 80H18.7654L56.339 -3.26726e-06H79.0123L38.6818 80Z" fill="#D1BA68"/>
<path d="M19.9164 80H3.38256e-05L37.5736 -3.26726e-06H60.2469L19.9164 80Z" fill="#ECDB85"/>
<path d="M155.062 74.2564L137.284 68.7179V93.3333L155.062 87.1794V74.2564Z" fill="#BCB970"/>
<path d="M146.173 70.7693V91.2821" stroke="#E9D2B9"/>
<path d="M137.284 81.0256L155.062 80" stroke="#E9D2B9"/>
<path d="M87.037 23.1884L98.7654 22.5641L88.8889 36.9231L78 29.4999L87.037 23.1884Z" fill="#8A7751"/>
<path d="M78 29.5938L92 28L97.7531 39.0945L84.1728 40.2821L78 29.5938Z" fill="#96765F"/>
<path d="M91.8518 28.0342L98.5507 22.5641L102 31.9999L97.6575 38.9743L91.8518 28.0342Z" fill="#AF9654"/>
<path d="M99.5 76H89" stroke="#D1BA68"/>
<path d="M93.5 71H83" stroke="#D1BA68"/>
<path d="M103.5 67H93" stroke="#D1BA68"/>
<path d="M97.5 61H87" stroke="#D1BA68"/>
<path d="M108.5 57H98" stroke="#D1BA68"/>
<path d="M102.5 52H92" stroke="#D1BA68"/>
<path d="M112.5 48H102" stroke="#D1BA68"/>
<path d="M106.5 42H96" stroke="#D1BA68"/>
<path d="M118.5 38H108" stroke="#D1BA68"/>
<path d="M112.5 33H102" stroke="#D1BA68"/>
<path d="M122.5 29H112" stroke="#D1BA68"/>
<path d="M116.5 23H106" stroke="#D1BA68"/>
<path d="M127.5 19H117" stroke="#D1BA68"/>
<path d="M121.5 14H111" stroke="#D1BA68"/>
<path d="M131.5 10H121" stroke="#D1BA68"/>
<path d="M125.5 4H115" stroke="#D1BA68"/>
<path d="M58.5 76H48" stroke="#D1BA68"/>
<path d="M52.5 71H42" stroke="#D1BA68"/>
<path d="M62.5 67H52" stroke="#D1BA68"/>
<path d="M56.5 61H46" stroke="#D1BA68"/>
<path d="M67.5 57H57" stroke="#D1BA68"/>
<path d="M61.5 52H51" stroke="#D1BA68"/>
<path d="M71.5 48H61" stroke="#D1BA68"/>
<path d="M65.5 42H55" stroke="#D1BA68"/>
<path d="M77.5 38H67" stroke="#D1BA68"/>
<path d="M71.5 33H61" stroke="#D1BA68"/>
<path d="M77 29H71" stroke="#D1BA68"/>
<path d="M75.5 23H65" stroke="#D1BA68"/>
<path d="M86.5 19H76" stroke="#D1BA68"/>
<path d="M80.5 14H70" stroke="#D1BA68"/>
<path d="M90.5 10H80" stroke="#D1BA68"/>
<path d="M84.5 4H74" stroke="#D1BA68"/>
<path d="M21.5 76H11" stroke="#D1BA68"/>
<path d="M15.5 71H5" stroke="#D1BA68"/>
<path d="M25.5 67H15" stroke="#D1BA68"/>
<path d="M19.5 61H9" stroke="#D1BA68"/>
<path d="M30.5 57H20" stroke="#D1BA68"/>
<path d="M24.5 52H14" stroke="#D1BA68"/>
<path d="M34.5 48H24" stroke="#D1BA68"/>
<path d="M28.5 42H18" stroke="#D1BA68"/>
<path d="M40.5 38H30" stroke="#D1BA68"/>
<path d="M34.5 33H24" stroke="#D1BA68"/>
<path d="M44.5 29H34" stroke="#D1BA68"/>
<path d="M38.5 23H28" stroke="#D1BA68"/>
<path d="M49.5 19H39" stroke="#D1BA68"/>
<path d="M43.5 14H33" stroke="#D1BA68"/>
<path d="M53.5 10H43" stroke="#D1BA68"/>
<path d="M47.5 4H37" stroke="#D1BA68"/>
<path d="M98.3527 3.0769L160 30.7728V125.403L93.3334 155.897L98.3527 3.0769Z" fill="#E0D19B"/>
<path d="M58.7613 80H38.5185L76.708 160H99.7531L58.7613 80Z" fill="#ECDB85"/>
<path d="M78.188 80H58.2716L95.8452 160H118.519L78.188 80Z" fill="#D1BA68"/>
<path d="M97.941 80H78.0247L115.598 160H138.272L97.941 80Z" fill="#ECDB85"/>
<path d="M38.6818 80H18.7654L56.339 160H79.0123L38.6818 80Z" fill="#D1BA68"/>
<path d="M19.9164 80H3.38256e-05L37.5736 160H60.2469L19.9164 80Z" fill="#ECDB85"/>
<path d="M38 158H48.5" stroke="#D1BA68"/>
<path d="M44 153H54.5" stroke="#D1BA68"/>
<path d="M34 149H44.5" stroke="#D1BA68"/>
<path d="M40 143H50.5" stroke="#D1BA68"/>
<path d="M29 139H39.5" stroke="#D1BA68"/>
<path d="M35 134H45.5" stroke="#D1BA68"/>
<path d="M25 130H35.5" stroke="#D1BA68"/>
<path d="M31 124H41.5" stroke="#D1BA68"/>
<path d="M19 120H29.5" stroke="#D1BA68"/>
<path d="M25 115H35.5" stroke="#D1BA68"/>
<path d="M15 111H25.5" stroke="#D1BA68"/>
<path d="M21 105H31.5" stroke="#D1BA68"/>
<path d="M10 101H20.5" stroke="#D1BA68"/>
<path d="M16 96H26.5" stroke="#D1BA68"/>
<path d="M6 92H16.5" stroke="#D1BA68"/>
<path d="M12 86H22.5" stroke="#D1BA68"/>
<path d="M77 157H87.5" stroke="#D1BA68"/>
<path d="M83 152H93.5" stroke="#D1BA68"/>
<path d="M73 148H83.5" stroke="#D1BA68"/>
<path d="M79 142H89.5" stroke="#D1BA68"/>
<path d="M68 138H78.5" stroke="#D1BA68"/>
<path d="M74 133H84.5" stroke="#D1BA68"/>
<path d="M64 129H74.5" stroke="#D1BA68"/>
<path d="M70 123H80.5" stroke="#D1BA68"/>
<path d="M58 119H68.5" stroke="#D1BA68"/>
<path d="M64 114H74.5" stroke="#D1BA68"/>
<path d="M54 110H64.5" stroke="#D1BA68"/>
<path d="M60 104H70.5" stroke="#D1BA68"/>
<path d="M49 100H59.5" stroke="#D1BA68"/>
<path d="M55 95H65.5" stroke="#D1BA68"/>
<path d="M45 91H55.5" stroke="#D1BA68"/>
<path d="M51 85H61.5" stroke="#D1BA68"/>
<path d="M117 156H127.5" stroke="#D1BA68"/>
<path d="M123 151H133.5" stroke="#D1BA68"/>
<path d="M113 147H123.5" stroke="#D1BA68"/>
<path d="M108 137H118.5" stroke="#D1BA68"/>
<path d="M114 132H124.5" stroke="#D1BA68"/>
<path d="M104 128H114.5" stroke="#D1BA68"/>
<path d="M110 122H120.5" stroke="#D1BA68"/>
<path d="M98 118H108.5" stroke="#D1BA68"/>
<path d="M104 113H114.5" stroke="#D1BA68"/>
<path d="M94 109H104.5" stroke="#D1BA68"/>
<path d="M100 103H110.5" stroke="#D1BA68"/>
<path d="M89 99H99.5" stroke="#D1BA68"/>
<path d="M95 94H105.5" stroke="#D1BA68"/>
<path d="M85 90H95.5" stroke="#D1BA68"/>
<path d="M91 84H101.5" stroke="#D1BA68"/>
<path d="M59.2785 80H38.5185L76.708 -4.52995e-06H99.7531L59.2785 80Z" fill="#ECDB85"/>
<path d="M116.706 80H96.7901L134.364 -3.26726e-06H157.037L116.706 80Z" fill="#D1BA68"/>
<path d="M78.188 80H58.2716L95.8452 -3.26726e-06H118.519L78.188 80Z" fill="#D1BA68"/>
<path d="M97.941 80H78.0247L115.598 0H138.272L97.941 80Z" fill="#ECDB85"/>
<path d="M38.6818 80H18.7654L56.339 -3.26726e-06H79.0123L38.6818 80Z" fill="#D1BA68"/>
<path d="M19.9164 80H3.38256e-05L37.5736 -3.26726e-06H60.2469L19.9164 80Z" fill="#ECDB85"/>
<path d="M155.062 74.2564L137.284 68.7179V93.3333L155.062 87.1794V74.2564Z" fill="#BCB970"/>
<path d="M146.173 70.7693V91.2821" stroke="#E9D2B9"/>
<path d="M137.284 81.0256L155.062 80" stroke="#E9D2B9"/>
<path d="M87.037 23.1884L98.7654 22.5641L88.8889 36.9231L78 29.4999L87.037 23.1884Z" fill="#8A7751"/>
<path d="M78 29.5938L92 28L97.7531 39.0945L84.1728 40.2821L78 29.5938Z" fill="#96765F"/>
<path d="M91.8518 28.0342L98.5507 22.5641L102 31.9999L97.6575 38.9743L91.8518 28.0342Z" fill="#AF9654"/>
<path d="M99.5 76H89" stroke="#D1BA68"/>
<path d="M93.5 71H83" stroke="#D1BA68"/>
<path d="M103.5 67H93" stroke="#D1BA68"/>
<path d="M97.5 61H87" stroke="#D1BA68"/>
<path d="M108.5 57H98" stroke="#D1BA68"/>
<path d="M102.5 52H92" stroke="#D1BA68"/>
<path d="M112.5 48H102" stroke="#D1BA68"/>
<path d="M106.5 42H96" stroke="#D1BA68"/>
<path d="M118.5 38H108" stroke="#D1BA68"/>
<path d="M112.5 33H102" stroke="#D1BA68"/>
<path d="M122.5 29H112" stroke="#D1BA68"/>
<path d="M116.5 23H106" stroke="#D1BA68"/>
<path d="M127.5 19H117" stroke="#D1BA68"/>
<path d="M121.5 14H111" stroke="#D1BA68"/>
<path d="M131.5 10H121" stroke="#D1BA68"/>
<path d="M125.5 4H115" stroke="#D1BA68"/>
<path d="M58.5 76H48" stroke="#D1BA68"/>
<path d="M52.5 71H42" stroke="#D1BA68"/>
<path d="M62.5 67H52" stroke="#D1BA68"/>
<path d="M56.5 61H46" stroke="#D1BA68"/>
<path d="M67.5 57H57" stroke="#D1BA68"/>
<path d="M61.5 52H51" stroke="#D1BA68"/>
<path d="M71.5 48H61" stroke="#D1BA68"/>
<path d="M65.5 42H55" stroke="#D1BA68"/>
<path d="M77.5 38H67" stroke="#D1BA68"/>
<path d="M71.5 33H61" stroke="#D1BA68"/>
<path d="M77 29H71" stroke="#D1BA68"/>
<path d="M75.5 23H65" stroke="#D1BA68"/>
<path d="M86.5 19H76" stroke="#D1BA68"/>
<path d="M80.5 14H70" stroke="#D1BA68"/>
<path d="M90.5 10H80" stroke="#D1BA68"/>
<path d="M84.5 4H74" stroke="#D1BA68"/>
<path d="M21.5 76H11" stroke="#D1BA68"/>
<path d="M15.5 71H5" stroke="#D1BA68"/>
<path d="M25.5 67H15" stroke="#D1BA68"/>
<path d="M19.5 61H9" stroke="#D1BA68"/>
<path d="M30.5 57H20" stroke="#D1BA68"/>
<path d="M24.5 52H14" stroke="#D1BA68"/>
<path d="M34.5 48H24" stroke="#D1BA68"/>
<path d="M28.5 42H18" stroke="#D1BA68"/>
<path d="M40.5 38H30" stroke="#D1BA68"/>
<path d="M34.5 33H24" stroke="#D1BA68"/>
<path d="M44.5 29H34" stroke="#D1BA68"/>
<path d="M38.5 23H28" stroke="#D1BA68"/>
<path d="M49.5 19H39" stroke="#D1BA68"/>
<path d="M43.5 14H33" stroke="#D1BA68"/>
<path d="M53.5 10H43" stroke="#D1BA68"/>
<path d="M47.5 4H37" stroke="#D1BA68"/>
<path d="M98.3527 3.0769L160 30.7728V125.403L93.3334 155.897L98.3527 3.0769Z" fill="#E0D19B"/>
<path d="M58.7613 80H38.5185L76.708 160H99.7531L58.7613 80Z" fill="#ECDB85"/>
<path d="M78.188 80H58.2716L95.8452 160H118.519L78.188 80Z" fill="#D1BA68"/>
<path d="M97.941 80H78.0247L115.598 160H138.272L97.941 80Z" fill="#ECDB85"/>
<path d="M38.6818 80H18.7654L56.339 160H79.0123L38.6818 80Z" fill="#D1BA68"/>
<path d="M19.9164 80H3.38256e-05L37.5736 160H60.2469L19.9164 80Z" fill="#ECDB85"/>
<path d="M38 158H48.5" stroke="#D1BA68"/>
<path d="M44 153H54.5" stroke="#D1BA68"/>
<path d="M34 149H44.5" stroke="#D1BA68"/>
<path d="M40 143H50.5" stroke="#D1BA68"/>
<path d="M29 139H39.5" stroke="#D1BA68"/>
<path d="M35 134H45.5" stroke="#D1BA68"/>
<path d="M25 130H35.5" stroke="#D1BA68"/>
<path d="M31 124H41.5" stroke="#D1BA68"/>
<path d="M19 120H29.5" stroke="#D1BA68"/>
<path d="M25 115H35.5" stroke="#D1BA68"/>
<path d="M15 111H25.5" stroke="#D1BA68"/>
<path d="M21 105H31.5" stroke="#D1BA68"/>
<path d="M10 101H20.5" stroke="#D1BA68"/>
<path d="M16 96H26.5" stroke="#D1BA68"/>
<path d="M6 92H16.5" stroke="#D1BA68"/>
<path d="M12 86H22.5" stroke="#D1BA68"/>
<path d="M77 157H87.5" stroke="#D1BA68"/>
<path d="M83 152H93.5" stroke="#D1BA68"/>
<path d="M73 148H83.5" stroke="#D1BA68"/>
<path d="M79 142H89.5" stroke="#D1BA68"/>
<path d="M68 138H78.5" stroke="#D1BA68"/>
<path d="M74 133H84.5" stroke="#D1BA68"/>
<path d="M64 129H74.5" stroke="#D1BA68"/>
<path d="M70 123H80.5" stroke="#D1BA68"/>
<path d="M58 119H68.5" stroke="#D1BA68"/>
<path d="M64 114H74.5" stroke="#D1BA68"/>
<path d="M54 110H64.5" stroke="#D1BA68"/>
<path d="M60 104H70.5" stroke="#D1BA68"/>
<path d="M49 100H59.5" stroke="#D1BA68"/>
<path d="M55 95H65.5" stroke="#D1BA68"/>
<path d="M45 91H55.5" stroke="#D1BA68"/>
<path d="M51 85H61.5" stroke="#D1BA68"/>
<path d="M117 156H127.5" stroke="#D1BA68"/>
<path d="M123 151H133.5" stroke="#D1BA68"/>
<path d="M113 147H123.5" stroke="#D1BA68"/>
<path d="M119 141H127" stroke="#D1BA68"/>
<path d="M108 137H118.5" stroke="#D1BA68"/>
<path d="M114 132H124.5" stroke="#D1BA68"/>
<path d="M104 128H114.5" stroke="#D1BA68"/>
<path d="M110 122H120.5" stroke="#D1BA68"/>
<path d="M98 118H108.5" stroke="#D1BA68"/>
<path d="M104 113H114.5" stroke="#D1BA68"/>
<path d="M94 109H104.5" stroke="#D1BA68"/>
<path d="M100 103H110.5" stroke="#D1BA68"/>
<path d="M89 99H99.5" stroke="#D1BA68"/>
<path d="M95 94H105.5" stroke="#D1BA68"/>
<path d="M85 90H95.5" stroke="#D1BA68"/>
<path d="M91 84H101.5" stroke="#D1BA68"/>
<path d="M59.2785 80H38.5185L76.708 -4.52995e-06H99.7531L59.2785 80Z" fill="#ECDB85"/>
<path d="M116.706 80H96.7901L134.364 -3.26726e-06H157.037L116.706 80Z" fill="#D1BA68"/>
<path d="M78.188 80H58.2716L95.8452 -3.26726e-06H118.519L78.188 80Z" fill="#D1BA68"/>
<path d="M97.941 80H78.0247L115.598 0H138.272L97.941 80Z" fill="#ECDB85"/>
<path d="M38.6818 80H18.7654L56.339 -3.26726e-06H79.0123L38.6818 80Z" fill="#D1BA68"/>
<path d="M19.9164 80H3.38256e-05L37.5736 -3.26726e-06H60.2469L19.9164 80Z" fill="#ECDB85"/>
<path d="M155.062 74.2564L137.284 68.7179V93.3333L155.062 87.1794V74.2564Z" fill="#686754"/>
<path d="M146.173 70.7693V91.2821" stroke="#E9D2B9"/>
<path d="M137.284 81.0256L155.062 80" stroke="#E9D2B9"/>
<path d="M87.037 23.1884L98.7654 22.5641L88.8889 36.9231L78 29.4999L87.037 23.1884Z" fill="#8A7751"/>
<path d="M78 29.5938L92 28L97.7531 39.0945L84.1728 40.2821L78 29.5938Z" fill="#96765F"/>
<path d="M91.8518 28.0342L98.5507 22.5641L102 31.9999L97.6575 38.9743L91.8518 28.0342Z" fill="#AF9654"/>
<path d="M99.5 76H89" stroke="#D1BA68"/>
<path d="M93.5 71H83" stroke="#D1BA68"/>
<path d="M103.5 67H93" stroke="#D1BA68"/>
<path d="M97.5 61H87" stroke="#D1BA68"/>
<path d="M108.5 57H98" stroke="#D1BA68"/>
<path d="M102.5 52H92" stroke="#D1BA68"/>
<path d="M112.5 48H102" stroke="#D1BA68"/>
<path d="M106.5 42H96" stroke="#D1BA68"/>
<path d="M118.5 38H108" stroke="#D1BA68"/>
<path d="M112.5 33H102" stroke="#D1BA68"/>
<path d="M122.5 29H112" stroke="#D1BA68"/>
<path d="M116.5 23H106" stroke="#D1BA68"/>
<path d="M127.5 19H117" stroke="#D1BA68"/>
<path d="M121.5 14H111" stroke="#D1BA68"/>
<path d="M131.5 10H121" stroke="#D1BA68"/>
<path d="M125.5 4H115" stroke="#D1BA68"/>
<path d="M58.5 76H48" stroke="#D1BA68"/>
<path d="M52.5 71H42" stroke="#D1BA68"/>
<path d="M62.5 67H52" stroke="#D1BA68"/>
<path d="M56.5 61H46" stroke="#D1BA68"/>
<path d="M67.5 57H57" stroke="#D1BA68"/>
<path d="M61.5 52H51" stroke="#D1BA68"/>
<path d="M71.5 48H61" stroke="#D1BA68"/>
<path d="M65.5 42H55" stroke="#D1BA68"/>
<path d="M77.5 38H67" stroke="#D1BA68"/>
<path d="M71.5 33H61" stroke="#D1BA68"/>
<path d="M77 29H71" stroke="#D1BA68"/>
<path d="M75.5 23H65" stroke="#D1BA68"/>
<path d="M86.5 19H76" stroke="#D1BA68"/>
<path d="M80.5 14H70" stroke="#D1BA68"/>
<path d="M90.5 10H80" stroke="#D1BA68"/>
<path d="M84.5 4H74" stroke="#D1BA68"/>
<path d="M21.5 76H11" stroke="#D1BA68"/>
<path d="M15.5 71H5" stroke="#D1BA68"/>
<path d="M25.5 67H15" stroke="#D1BA68"/>
<path d="M19.5 61H9" stroke="#D1BA68"/>
<path d="M30.5 57H20" stroke="#D1BA68"/>
<path d="M24.5 52H14" stroke="#D1BA68"/>
<path d="M34.5 48H24" stroke="#D1BA68"/>
<path d="M28.5 42H18" stroke="#D1BA68"/>
<path d="M40.5 38H30" stroke="#D1BA68"/>
<path d="M34.5 33H24" stroke="#D1BA68"/>
<path d="M44.5 29H34" stroke="#D1BA68"/>
<path d="M38.5 23H28" stroke="#D1BA68"/>
<path d="M49.5 19H39" stroke="#D1BA68"/>
<path d="M43.5 14H33" stroke="#D1BA68"/>
<path d="M53.5 10H43" stroke="#D1BA68"/>
<path d="M47.5 4H37" stroke="#D1BA68"/>
<path d="M60 159H70.5" stroke="#ECDB85"/>
<path d="M66 154H75" stroke="#ECDB85"/>
<path d="M56 150H66.5" stroke="#ECDB85"/>
<path d="M62 144H71" stroke="#ECDB85"/>
<path d="M41 120H51.5" stroke="#ECDB85"/>
<path d="M47 115H56" stroke="#ECDB85"/>
<path d="M37 111H47.5" stroke="#ECDB85"/>
<path d="M43 105H52" stroke="#ECDB85"/>
<path d="M31 101H41.5" stroke="#ECDB85"/>
<path d="M37 95.9999H46" stroke="#ECDB85"/>
<path d="M27 91.9999H37.5" stroke="#ECDB85"/>
<path d="M33 85.9999H42" stroke="#ECDB85"/>
<path d="M51 140H61.5" stroke="#ECDB85"/>
<path d="M57 135H66" stroke="#ECDB85"/>
<path d="M47 131H57.5" stroke="#ECDB85"/>
<path d="M53 125H62" stroke="#ECDB85"/>
<path d="M117 74.9999H106.5" stroke="#ECDB85"/>
<path d="M111 69.9999H102" stroke="#ECDB85"/>
<path d="M121 65.9999H110.5" stroke="#ECDB85"/>
<path d="M115 59.9999H106" stroke="#ECDB85"/>
<path d="M136 36H125.5" stroke="#ECDB85"/>
<path d="M130 31H121" stroke="#ECDB85"/>
<path d="M140 27H129.5" stroke="#ECDB85"/>
<path d="M134 21H125" stroke="#ECDB85"/>
<path d="M146 17H135.5" stroke="#ECDB85"/>
<path d="M140 12H131" stroke="#ECDB85"/>
<path d="M150 8H139.5" stroke="#ECDB85"/>
<path d="M144 2H135" stroke="#ECDB85"/>
<path d="M126 56H115.5" stroke="#ECDB85"/>
<path d="M120 51H111" stroke="#ECDB85"/>
<path d="M130 47H119.5" stroke="#ECDB85"/>
<path d="M124 41H115" stroke="#ECDB85"/>
<path d="M40 75.9999H29.5" stroke="#ECDB85"/>
<path d="M34 70.9999H25" stroke="#ECDB85"/>
<path d="M44 66.9999H33.5" stroke="#ECDB85"/>
<path d="M38 60.9999H29" stroke="#ECDB85"/>
<path d="M59 37H48.5" stroke="#ECDB85"/>
<path d="M53 32H44" stroke="#ECDB85"/>
<path d="M63 28H52.5" stroke="#ECDB85"/>
<path d="M57 22H48" stroke="#ECDB85"/>
<path d="M69 18H58.5" stroke="#ECDB85"/>
<path d="M63 13H54" stroke="#ECDB85"/>
<path d="M73 9H62.5" stroke="#ECDB85"/>
<path d="M67 3H58" stroke="#ECDB85"/>
<path d="M49 57H38.5" stroke="#ECDB85"/>
<path d="M43 52H34" stroke="#ECDB85"/>
<path d="M53 48H42.5" stroke="#ECDB85"/>
<path d="M47 42H38" stroke="#ECDB85"/>
<path d="M78 73.9999H67.5" stroke="#ECDB85"/>
<path d="M72 68.9999H63" stroke="#ECDB85"/>
<path d="M82 64.9999H71.5" stroke="#ECDB85"/>
<path d="M76 59H67" stroke="#ECDB85"/>
<path d="M95 20H86" stroke="#ECDB85"/>
<path d="M107 16H96.5" stroke="#ECDB85"/>
<path d="M101 11H92" stroke="#ECDB85"/>
<path d="M111 7H100.5" stroke="#ECDB85"/>
<path d="M105 1H96" stroke="#ECDB85"/>
<path d="M87 55H76.5" stroke="#ECDB85"/>
<path d="M81 50H72" stroke="#ECDB85"/>
<path d="M91 46H80.5" stroke="#ECDB85"/>
<path d="M85 41H76" stroke="#ECDB85"/>
<path d="M97 157H107.5" stroke="#ECDB85"/>
<path d="M103 152H112" stroke="#ECDB85"/>
<path d="M93 148H103.5" stroke="#ECDB85"/>
<path d="M99 142H108" stroke="#ECDB85"/>
<path d="M78 118H88.5" stroke="#ECDB85"/>
<path d="M84 113H93" stroke="#ECDB85"/>
<path d="M74 109H84.5" stroke="#ECDB85"/>
<path d="M80 103H89" stroke="#ECDB85"/>
<path d="M68 98.9999H78.5" stroke="#ECDB85"/>
<path d="M74 93.9999H83" stroke="#ECDB85"/>
<path d="M64 89.9999H74.5" stroke="#ECDB85"/>
<path d="M70 83.9999H79" stroke="#ECDB85"/>
<path d="M88 138H98.5" stroke="#ECDB85"/>
<path d="M94 133H103" stroke="#ECDB85"/>
<path d="M84 129H94.5" stroke="#ECDB85"/>
<path d="M90 123H99" stroke="#ECDB85"/>
<path d="M57.8309 124.254C58.6796 128.039 54.89 129.971 49.9301 131.084C44.9702 132.196 40.7182 132.067 39.8694 128.282C39.0207 124.497 43.8268 120.391 45.0636 113.889C49.9208 119.025 56.9821 120.469 57.8309 124.254Z" fill="#FFB522"/>
<path d="M57.8309 124.254C58.6796 128.039 54.89 129.971 49.9301 131.084C44.9702 132.196 40.7182 132.067 39.8694 128.282C39.0207 124.497 43.8268 120.391 45.0636 113.889C49.9208 119.025 56.9821 120.469 57.8309 124.254Z" fill="#FFB522"/>
<path d="M66.1103 124.258C65.3279 131.58 61.0174 133.137 55.9631 132.597C50.9087 132.057 47.0245 129.625 47.8069 122.302C48.5894 114.979 54.7417 109.995 58.5818 98.8074C60.9518 110.659 66.8927 116.935 66.1103 124.258Z" fill="#FFB522"/>
<path d="M74.2892 136.944C72.2629 144.956 67.7162 146.127 62.7883 144.881C57.8603 143.635 54.4173 140.442 56.4436 132.431C58.4699 124.419 65.4308 119.687 71.1533 107.786C71.4856 121.218 76.3155 128.933 74.2892 136.944Z" fill="#FFB522"/>
<path d="M61.1786 129.489C64.9442 134.517 61.7975 139.011 56.6509 142.866C51.5042 146.721 46.3064 148.477 42.5409 143.449C38.7753 138.422 41.5649 130.355 38.3307 120.488C47.8884 125.618 57.4131 124.462 61.1786 129.489Z" fill="#FFB522"/>
<path d="M65.8918 143.045C65.5303 147.155 61.3875 147.919 56.3985 147.48C51.4096 147.042 47.4637 145.566 47.8252 141.456C48.1867 137.346 53.9465 134.697 57.0935 128.487C60.0762 135.236 66.2532 138.934 65.8918 143.045Z" fill="#FFE68E"/>
<path d="M56.4866 132.275C58.2295 135.176 55.7941 137.715 52.2043 139.871C48.6145 142.028 45.2296 142.986 43.4867 140.085C41.7437 137.184 44.3625 132.603 43.4902 126.944C48.7731 129.953 54.7436 129.374 56.4866 132.275Z" fill="#FFE68E"/>
<path d="M59.7042 119.085C58.9118 121.366 57.2175 121.473 55.3938 120.84C53.5701 120.206 52.3075 119.071 53.0998 116.79C53.8922 114.509 56.5007 113.468 58.6851 110.224C58.7415 114.247 60.4966 116.803 59.7042 119.085Z" fill="#FFE68E"/>
<path d="M71.4336 132.817C71.3401 135.599 69.7504 136.304 67.8208 136.239C65.8913 136.174 64.3525 135.364 64.446 132.582C64.5395 129.8 66.732 127.752 67.8766 123.428C69.1028 127.831 71.5271 130.034 71.4336 132.817Z" fill="#FFE68E"/>
<path d="M57.4229 120.417C58.2135 121.679 57.1026 122.854 55.4665 123.879C53.8304 124.904 52.2888 125.391 51.4981 124.129C50.7075 122.867 51.9038 120.779 51.5121 118.272C53.914 119.52 56.6322 119.155 57.4229 120.417Z" fill="#FFE68E"/>
<path d="M51.7888 35.6295C52.1663 40.5906 49.4492 42.1563 45.9707 42.421C42.4922 42.6857 39.5695 41.5491 39.192 36.588C38.8145 31.6269 42.351 27.557 43.5593 19.6511C46.6249 27.2317 51.4113 30.6684 51.7888 35.6295Z" fill="#FFB522"/>
<path d="M51.7888 35.6295C52.1663 40.5906 49.4492 42.1563 45.9707 42.421C42.4922 42.6857 39.5695 41.5491 39.192 36.588C38.8145 31.6269 42.351 27.557 43.5593 19.6511C46.6249 27.2317 51.4113 30.6684 51.7888 35.6295Z" fill="#FFB522"/>
<path d="M58.1056 38.6217C56.4273 43.4252 53.2462 44.2336 49.8861 43.6171C46.526 43.0005 44.2592 41.1924 45.9376 36.3889C47.616 31.5854 52.5883 28.6042 56.9549 21.401C56.7167 29.3617 59.784 33.8181 58.1056 38.6217Z" fill="#FFB522"/>
<path d="M61.8833 46.9764C59.5676 51.1979 56.3455 51.5513 53.1488 50.5689C49.9522 49.5865 47.9915 47.6404 50.3071 43.4189C52.6228 39.1974 57.9009 37.0617 63.1809 30.9591C61.8285 38.2687 64.1989 42.7549 61.8833 46.9764Z" fill="#FFB522"/>
<path d="M53.3032 41.6491C55.6534 45.079 53.126 47.3954 49.2186 49.1004C45.3112 50.8053 41.5035 51.2534 39.1533 47.8234C36.803 44.3935 39.3083 39.9065 37.6493 33.6533C44.1092 37.8116 50.953 38.2192 53.3032 41.6491Z" fill="#FFB522"/>
<path d="M55.8358 48.6127C54.8354 51.6988 51.8659 52.0865 48.5388 51.5278C45.2118 50.9692 42.7871 49.6758 43.7875 46.5898C44.7879 43.5037 49.2074 41.767 52.4952 37.2233C53.2952 42.4534 56.8362 45.5266 55.8358 48.6127Z" fill="#FFE68E"/>
<path d="M49.7252 42.4236C51.017 44.9051 49.207 46.3165 46.5403 47.2239C43.8736 48.1313 41.3599 48.191 40.0681 45.7095C38.7763 43.2281 40.7239 40.3404 40.0806 35.9851C44.0004 39.2255 48.4334 39.9422 49.7252 42.4236Z" fill="#FFE68E"/>
<path d="M53.9365 36.663C53.1261 37.8526 51.9618 37.8078 50.7977 37.353C49.6337 36.8982 48.9108 36.2056 49.7212 35.0161C50.5317 33.8266 52.4286 33.4205 54.2999 31.793C53.8588 33.9792 54.747 35.4735 53.9365 36.663Z" fill="#FFE68E"/>
<path d="M60.1785 45.3417C59.9266 46.3402 58.8055 46.482 57.5072 46.3214C56.2088 46.1609 55.2249 45.7588 55.4768 44.7604C55.7286 43.7619 57.3478 43.1779 58.4139 41.6974C58.9431 43.3751 60.4304 44.3433 60.1785 45.3417Z" fill="#FFE68E"/>
<path d="M51.5324 36.0156C52.4664 37.7153 51.7318 38.5315 50.5118 38.9673C49.2918 39.4032 48.0484 39.2936 47.1143 37.5939C46.1802 35.8943 46.8099 34.1205 45.9783 31.2334C48.3089 33.585 50.5983 34.3159 51.5324 36.0156Z" fill="#FFE68E"/>
<path d="M109.879 106.678L99 113.433L144.596 144.776L156.981 137.086L109.879 106.678Z" fill="#C9BA87"/>
<path d="M142.939 130.264C141.935 132.709 140.019 132.7 137.993 131.868C135.967 131.036 134.598 129.695 135.602 127.25C136.606 124.806 139.599 123.858 142.22 120.461C142.088 124.881 143.944 127.82 142.939 130.264Z" fill="#FFB522"/>
<path d="M142.939 130.264C141.935 132.709 140.019 132.7 137.993 131.868C135.967 131.036 134.598 129.695 135.602 127.25C136.606 124.806 139.599 123.858 142.22 120.461C142.088 124.881 143.944 127.82 142.939 130.264Z" fill="#FFB522"/>
<path d="M144.949 133.963C143.212 135.955 141.401 135.331 139.749 133.892C138.098 132.453 137.232 130.744 138.968 128.752C140.705 126.759 143.843 126.824 147.416 124.448C145.871 128.592 146.685 131.971 144.949 133.963Z" fill="#FFB522"/>
<path d="M145.376 139.589C142.437 142.129 140.494 141.499 139.084 139.868C137.675 138.237 137.333 136.223 140.272 133.683C143.212 131.142 147 131 152.333 127.866C148.732 133.004 148.316 137.048 145.376 139.589Z" fill="#FFB522"/>
<path d="M142.309 132.548C142.436 136.46 140.225 137.598 137.456 137.688C134.686 137.778 132.407 136.786 132.28 132.875C132.152 128.963 135.1 125.884 136.334 119.712C138.503 125.774 142.181 128.637 142.309 132.548Z" fill="#FFB522"/>
<path d="M141.425 139.14C139.692 141.205 137.88 140.643 136.227 139.256C134.574 137.868 133.705 136.182 135.438 134.117C137.17 132.052 140.307 132.004 143.876 129.488C142.339 133.708 143.157 137.075 141.425 139.14Z" fill="#FFE68E"/>
<path d="M140.041 133.519C139.918 135.28 138.426 135.658 136.625 135.533C134.825 135.408 133.399 134.827 133.522 133.066C133.644 131.305 135.716 130.102 136.839 127.409C137.928 130.255 140.163 131.758 140.041 133.519Z" fill="#FFE68E"/>
<path d="M144.404 130.048C143.564 130.656 142.94 130.275 142.452 129.6C141.965 128.926 141.799 128.214 142.639 127.607C143.479 126.999 144.655 127.277 146.223 126.674C145.254 128.105 145.245 129.44 144.404 130.048Z" fill="#FFE68E"/>
<path d="M145.594 137.211C144.531 138.626 143.702 138.607 143.037 138.107C142.372 137.608 142.122 136.817 143.184 135.402C144.247 133.987 145.787 133.458 147.795 131.501C146.605 134.072 146.656 135.796 145.594 137.211Z" fill="#FFE68E"/>
<path d="M143.299 129.45C143.246 130.486 142.558 130.733 141.727 130.691C140.896 130.649 140.237 130.333 140.29 129.297C140.342 128.262 141.296 127.519 141.808 125.919C142.317 127.571 143.351 128.414 143.299 129.45Z" fill="#FFE68E"/>
<path d="M5.87324 142.277L6.60232 153.412L37.6679 130.086L36.8379 117.41L5.87324 142.277Z" fill="#C7A067"/>
</svg>
