<svg width="160" height="161" viewBox="0 0 160 161" fill="none" xmlns="http://www.w3.org/2000/svg">
<path d="M98.3527 3.47754L160 31.1734V125.803L93.3334 156.298L98.3527 3.47754Z" fill="#E0D19B"/>
<path d="M58.7613 80.4006H38.5185L76.708 160.401H99.7531L58.7613 80.4006Z" fill="#ECDB85"/>
<path d="M78.188 80.4006H58.2716L95.8452 160.401H118.519L78.188 80.4006Z" fill="#D1BA68"/>
<path d="M97.941 80.4006H78.0247L115.598 160.401H138.272L97.941 80.4006Z" fill="#ECDB85"/>
<path d="M38.6818 80.4006H18.7654L56.339 160.401H79.0123L38.6818 80.4006Z" fill="#D1BA68"/>
<path d="M19.9164 80.4006H3.43323e-05L37.5736 160.401H60.2469L19.9164 80.4006Z" fill="#ECDB85"/>
<path d="M38 158.401H48.5" stroke="#D1BA68"/>
<path d="M44 153.401H54.5" stroke="#D1BA68"/>
<path d="M34 149.401H44.5" stroke="#D1BA68"/>
<path d="M40 143.401H50.5" stroke="#D1BA68"/>
<path d="M29 139.401H39.5" stroke="#D1BA68"/>
<path d="M35 134.401H45.5" stroke="#D1BA68"/>
<path d="M25 130.401H35.5" stroke="#D1BA68"/>
<path d="M31 124.401H41.5" stroke="#D1BA68"/>
<path d="M19 120.401H29.5" stroke="#D1BA68"/>
<path d="M25 115.401H35.5" stroke="#D1BA68"/>
<path d="M15 111.401H25.5" stroke="#D1BA68"/>
<path d="M21 105.401H31.5" stroke="#D1BA68"/>
<path d="M10 101.401H20.5" stroke="#D1BA68"/>
<path d="M16 96.4006H26.5" stroke="#D1BA68"/>
<path d="M6 92.4006H16.5" stroke="#D1BA68"/>
<path d="M12 86.4006H22.5" stroke="#D1BA68"/>
<path d="M59.2785 80.4006H38.5185L76.708 0.400627H99.7531L59.2785 80.4006Z" fill="#ECDB85"/>
<path d="M116.706 80.4006H96.7901L134.364 0.400635H157.037L116.706 80.4006Z" fill="#D1BA68"/>
<path d="M78.188 80.4006H58.2716L95.8452 0.400635H118.519L78.188 80.4006Z" fill="#D1BA68"/>
<path d="M97.941 80.4006H78.0247L115.598 0.400635H138.272L97.941 80.4006Z" fill="#ECDB85"/>
<path d="M38.6818 80.4006H18.7654L56.339 0.400635H79.0123L38.6818 80.4006Z" fill="#D1BA68"/>
<path d="M19.9164 80.4006H3.43323e-05L37.5736 0.400635H60.2469L19.9164 80.4006Z" fill="#ECDB85"/>
<path d="M155.062 74.657L137.284 69.1185V93.7339L155.062 87.5801V74.657Z" fill="#BCB970"/>
<path d="M146.173 71.1699V91.6827" stroke="#E9D2B9"/>
<path d="M137.284 81.4263L155.062 80.4006" stroke="#E9D2B9"/>
<path d="M87.037 23.589L98.7654 22.9647L88.8889 37.3237L78 29.9005L87.037 23.589Z" fill="#8A7751"/>
<path d="M78 29.9944L92 28.4006L97.7531 39.4951L84.1728 40.6827L78 29.9944Z" fill="#96765F"/>
<path d="M91.8518 28.4348L98.5507 22.9647L102 32.4005L97.6575 39.375L91.8518 28.4348Z" fill="#AF9654"/>
<path d="M38 158.401H48.5" stroke="#D1BA68"/>
<path d="M44 153.401H54.5" stroke="#D1BA68"/>
<path d="M34 149.401H44.5" stroke="#D1BA68"/>
<path d="M40 143.401H50.5" stroke="#D1BA68"/>
<path d="M44 153.401H54.5" stroke="#D1BA68"/>
<path d="M34 149.401H44.5" stroke="#D1BA68"/>
<path d="M40 143.401H50.5" stroke="#D1BA68"/>
<path d="M51 101.401H61.5" stroke="#D1BA68"/>
<path d="M57 96.4006H67.5" stroke="#D1BA68"/>
<path d="M47 92.4006H57.5" stroke="#D1BA68"/>
<path d="M53 86.4006H63.5" stroke="#D1BA68"/>
<path d="M60 118.401H70.5" stroke="#D1BA68"/>
<path d="M66 113.401H76.5" stroke="#D1BA68"/>
<path d="M56 109.401H66.5" stroke="#D1BA68"/>
<path d="M62 103.401H72.5" stroke="#D1BA68"/>
<path d="M69 137.401H79.5" stroke="#D1BA68"/>
<path d="M75 132.401H85.5" stroke="#D1BA68"/>
<path d="M65 128.401H75.5" stroke="#D1BA68"/>
<path d="M71 122.401H81.5" stroke="#D1BA68"/>
<path d="M79 157.401H89.5" stroke="#D1BA68"/>
<path d="M85 152.401H95.5" stroke="#D1BA68"/>
<path d="M75 148.401H85.5" stroke="#D1BA68"/>
<path d="M81 142.401H91.5" stroke="#D1BA68"/>
<path d="M60 159.401H70.5" stroke="#ECDB85"/>
<path d="M66 154.401H75" stroke="#ECDB85"/>
<path d="M56 150.401H66.5" stroke="#ECDB85"/>
<path d="M62 144.401H71" stroke="#ECDB85"/>
<path d="M41 120.401H51.5" stroke="#ECDB85"/>
<path d="M47 115.401H56" stroke="#ECDB85"/>
<path d="M37 111.401H47.5" stroke="#ECDB85"/>
<path d="M43 105.401H52" stroke="#ECDB85"/>
<path d="M31 101.401H41.5" stroke="#ECDB85"/>
<path d="M37 96.4006H46" stroke="#ECDB85"/>
<path d="M27 92.4006H37.5" stroke="#ECDB85"/>
<path d="M33 86.4006H42" stroke="#ECDB85"/>
<path d="M51 140.401H61.5" stroke="#ECDB85"/>
<path d="M57 135.401H66" stroke="#ECDB85"/>
<path d="M47 131.401H57.5" stroke="#ECDB85"/>
<path d="M53 125.401H62" stroke="#ECDB85"/>
<path d="M98.3527 3.47754L160 31.1734V125.803L93.3334 156.298L98.3527 3.47754Z" fill="#E0D19B"/>
<path d="M58.7613 80.4006H38.5185L76.708 160.401H99.7531L58.7613 80.4006Z" fill="#ECDB85"/>
<path d="M78.188 80.4006H58.2716L95.8452 160.401H118.519L78.188 80.4006Z" fill="#D1BA68"/>
<path d="M97.941 80.4006H78.0247L115.598 160.401H138.272L97.941 80.4006Z" fill="#ECDB85"/>
<path d="M38.6818 80.4006H18.7654L56.339 160.401H79.0123L38.6818 80.4006Z" fill="#D1BA68"/>
<path d="M19.9164 80.4006H3.43323e-05L37.5736 160.401H60.2469L19.9164 80.4006Z" fill="#ECDB85"/>
<path d="M38 158.401H48.5" stroke="#D1BA68"/>
<path d="M44 153.401H54.5" stroke="#D1BA68"/>
<path d="M34 149.401H44.5" stroke="#D1BA68"/>
<path d="M40 143.401H50.5" stroke="#D1BA68"/>
<path d="M29 139.401H39.5" stroke="#D1BA68"/>
<path d="M35 134.401H45.5" stroke="#D1BA68"/>
<path d="M25 130.401H35.5" stroke="#D1BA68"/>
<path d="M31 124.401H41.5" stroke="#D1BA68"/>
<path d="M19 120.401H29.5" stroke="#D1BA68"/>
<path d="M25 115.401H35.5" stroke="#D1BA68"/>
<path d="M15 111.401H25.5" stroke="#D1BA68"/>
<path d="M21 105.401H31.5" stroke="#D1BA68"/>
<path d="M10 101.401H20.5" stroke="#D1BA68"/>
<path d="M16 96.4006H26.5" stroke="#D1BA68"/>
<path d="M6 92.4006H16.5" stroke="#D1BA68"/>
<path d="M12 86.4006H22.5" stroke="#D1BA68"/>
<path d="M59.2785 80.4006H38.5185L76.708 0.400627H99.7531L59.2785 80.4006Z" fill="#ECDB85"/>
<path d="M116.706 80.4006H96.7901L134.364 0.400635H157.037L116.706 80.4006Z" fill="#D1BA68"/>
<path d="M78.188 80.4006H58.2716L95.8452 0.400635H118.519L78.188 80.4006Z" fill="#D1BA68"/>
<path d="M97.941 80.4006H78.0247L115.598 0.400635H138.272L97.941 80.4006Z" fill="#ECDB85"/>
<path d="M38.6818 80.4006H18.7654L56.339 0.400635H79.0123L38.6818 80.4006Z" fill="#D1BA68"/>
<path d="M19.9164 80.4006H3.43323e-05L37.5736 0.400635H60.2469L19.9164 80.4006Z" fill="#ECDB85"/>
<path d="M155.062 74.657L137.284 69.1185V93.7339L155.062 87.5801V74.657Z" fill="#BCB970"/>
<path d="M146.173 71.1699V91.6827" stroke="#E9D2B9"/>
<path d="M137.284 81.4263L155.062 80.4006" stroke="#E9D2B9"/>
<path d="M87.037 23.589L98.7654 22.9647L88.8889 37.3237L78 29.9005L87.037 23.589Z" fill="#8A7751"/>
<path d="M78 29.9944L92 28.4006L97.7531 39.4951L84.1728 40.6827L78 29.9944Z" fill="#96765F"/>
<path d="M91.8518 28.4348L98.5507 22.9647L102 32.4005L97.6575 39.375L91.8518 28.4348Z" fill="#AF9654"/>
<path d="M60 159.401H70.5" stroke="#ECDB85"/>
<path d="M66 154.401H75" stroke="#ECDB85"/>
<path d="M56 150.401H66.5" stroke="#ECDB85"/>
<path d="M62 144.401H71" stroke="#ECDB85"/>
<path d="M41 120.401H51.5" stroke="#ECDB85"/>
<path d="M47 115.401H56" stroke="#ECDB85"/>
<path d="M37 111.401H47.5" stroke="#ECDB85"/>
<path d="M43 105.401H52" stroke="#ECDB85"/>
<path d="M31 101.401H41.5" stroke="#ECDB85"/>
<path d="M37 96.4006H46" stroke="#ECDB85"/>
<path d="M27 92.4006H37.5" stroke="#ECDB85"/>
<path d="M33 86.4006H42" stroke="#ECDB85"/>
<path d="M51 140.401H61.5" stroke="#ECDB85"/>
<path d="M57 135.401H66" stroke="#ECDB85"/>
<path d="M47 131.401H57.5" stroke="#ECDB85"/>
<path d="M53 125.401H62" stroke="#ECDB85"/>
<path d="M98.3527 3.47754L160 31.1734V125.803L93.3334 156.298L98.3527 3.47754Z" fill="#E0D19B"/>
<path d="M58.7613 80.4006H38.5185L76.708 160.401H99.7531L58.7613 80.4006Z" fill="#ECDB85"/>
<path d="M78.188 80.4006H58.2716L95.8452 160.401H118.519L78.188 80.4006Z" fill="#D1BA68"/>
<path d="M97.941 80.4006H78.0247L115.598 160.401H138.272L97.941 80.4006Z" fill="#ECDB85"/>
<path d="M38.6818 80.4006H18.7654L56.339 160.401H79.0123L38.6818 80.4006Z" fill="#D1BA68"/>
<path d="M19.9164 80.4006H3.43323e-05L37.5736 160.401H60.2469L19.9164 80.4006Z" fill="#ECDB85"/>
<path d="M38 158.401H48.5" stroke="#D1BA68"/>
<path d="M44 153.401H54.5" stroke="#D1BA68"/>
<path d="M34 149.401H44.5" stroke="#D1BA68"/>
<path d="M40 143.401H50.5" stroke="#D1BA68"/>
<path d="M29 139.401H39.5" stroke="#D1BA68"/>
<path d="M35 134.401H45.5" stroke="#D1BA68"/>
<path d="M25 130.401H35.5" stroke="#D1BA68"/>
<path d="M31 124.401H41.5" stroke="#D1BA68"/>
<path d="M19 120.401H29.5" stroke="#D1BA68"/>
<path d="M25 115.401H35.5" stroke="#D1BA68"/>
<path d="M15 111.401H25.5" stroke="#D1BA68"/>
<path d="M21 105.401H31.5" stroke="#D1BA68"/>
<path d="M10 101.401H20.5" stroke="#D1BA68"/>
<path d="M16 96.4006H26.5" stroke="#D1BA68"/>
<path d="M6 92.4006H16.5" stroke="#D1BA68"/>
<path d="M12 86.4006H22.5" stroke="#D1BA68"/>
<path d="M77 157.401H87.5" stroke="#D1BA68"/>
<path d="M83 152.401H93.5" stroke="#D1BA68"/>
<path d="M73 148.401H83.5" stroke="#D1BA68"/>
<path d="M79 142.401H89.5" stroke="#D1BA68"/>
<path d="M68 138.401H78.5" stroke="#D1BA68"/>
<path d="M74 133.401H84.5" stroke="#D1BA68"/>
<path d="M64 129.401H74.5" stroke="#D1BA68"/>
<path d="M70 123.401H80.5" stroke="#D1BA68"/>
<path d="M58 119.401H68.5" stroke="#D1BA68"/>
<path d="M64 114.401H74.5" stroke="#D1BA68"/>
<path d="M54 110.401H64.5" stroke="#D1BA68"/>
<path d="M60 104.401H70.5" stroke="#D1BA68"/>
<path d="M49 100.401H59.5" stroke="#D1BA68"/>
<path d="M55 95.4006H65.5" stroke="#D1BA68"/>
<path d="M45 91.4006H55.5" stroke="#D1BA68"/>
<path d="M51 85.4006H61.5" stroke="#D1BA68"/>
<path d="M117 156.401H127.5" stroke="#D1BA68"/>
<path d="M123 151.401H133.5" stroke="#D1BA68"/>
<path d="M113 147.401H123.5" stroke="#D1BA68"/>
<path d="M108 137.401H118.5" stroke="#D1BA68"/>
<path d="M114 132.401H124.5" stroke="#D1BA68"/>
<path d="M104 128.401H114.5" stroke="#D1BA68"/>
<path d="M110 122.401H120.5" stroke="#D1BA68"/>
<path d="M98 118.401H108.5" stroke="#D1BA68"/>
<path d="M104 113.401H114.5" stroke="#D1BA68"/>
<path d="M94 109.401H104.5" stroke="#D1BA68"/>
<path d="M100 103.401H110.5" stroke="#D1BA68"/>
<path d="M89 99.4006H99.5" stroke="#D1BA68"/>
<path d="M95 94.4006H105.5" stroke="#D1BA68"/>
<path d="M85 90.4006H95.5" stroke="#D1BA68"/>
<path d="M91 84.4006H101.5" stroke="#D1BA68"/>
<path d="M59.2785 80.4006H38.5185L76.708 0.400627H99.7531L59.2785 80.4006Z" fill="#ECDB85"/>
<path d="M116.706 80.4006H96.7901L134.364 0.400635H157.037L116.706 80.4006Z" fill="#D1BA68"/>
<path d="M78.188 80.4006H58.2716L95.8452 0.400635H118.519L78.188 80.4006Z" fill="#D1BA68"/>
<path d="M97.941 80.4006H78.0247L115.598 0.400635H138.272L97.941 80.4006Z" fill="#ECDB85"/>
<path d="M38.6818 80.4006H18.7654L56.339 0.400635H79.0123L38.6818 80.4006Z" fill="#D1BA68"/>
<path d="M19.9164 80.4006H3.43323e-05L37.5736 0.400635H60.2469L19.9164 80.4006Z" fill="#ECDB85"/>
<path d="M155.062 74.657L137.284 69.1185V93.7339L155.062 87.5801V74.657Z" fill="#BCB970"/>
<path d="M146.173 71.1699V91.6827" stroke="#E9D2B9"/>
<path d="M137.284 81.4263L155.062 80.4006" stroke="#E9D2B9"/>
<path d="M87.037 23.589L98.7654 22.9647L88.8889 37.3237L78 29.9005L87.037 23.589Z" fill="#8A7751"/>
<path d="M78 29.9944L92 28.4006L97.7531 39.4951L84.1728 40.6827L78 29.9944Z" fill="#96765F"/>
<path d="M91.8518 28.4348L98.5507 22.9647L102 32.4005L97.6575 39.375L91.8518 28.4348Z" fill="#AF9654"/>
<path d="M99.5 76.4006H89" stroke="#D1BA68"/>
<path d="M93.5 71.4006H83" stroke="#D1BA68"/>
<path d="M103.5 67.4006H93" stroke="#D1BA68"/>
<path d="M97.5 61.4006H87" stroke="#D1BA68"/>
<path d="M108.5 57.4006H98" stroke="#D1BA68"/>
<path d="M102.5 52.4006H92" stroke="#D1BA68"/>
<path d="M112.5 48.4006H102" stroke="#D1BA68"/>
<path d="M106.5 42.4006H96" stroke="#D1BA68"/>
<path d="M118.5 38.4006H108" stroke="#D1BA68"/>
<path d="M112.5 33.4006H102" stroke="#D1BA68"/>
<path d="M122.5 29.4006H112" stroke="#D1BA68"/>
<path d="M116.5 23.4006H106" stroke="#D1BA68"/>
<path d="M127.5 19.4006H117" stroke="#D1BA68"/>
<path d="M121.5 14.4006H111" stroke="#D1BA68"/>
<path d="M131.5 10.4006H121" stroke="#D1BA68"/>
<path d="M125.5 4.40063H115" stroke="#D1BA68"/>
<path d="M58.5 76.4006H48" stroke="#D1BA68"/>
<path d="M52.5 71.4006H42" stroke="#D1BA68"/>
<path d="M62.5 67.4006H52" stroke="#D1BA68"/>
<path d="M56.5 61.4006H46" stroke="#D1BA68"/>
<path d="M67.5 57.4006H57" stroke="#D1BA68"/>
<path d="M61.5 52.4006H51" stroke="#D1BA68"/>
<path d="M71.5 48.4006H61" stroke="#D1BA68"/>
<path d="M65.5 42.4006H55" stroke="#D1BA68"/>
<path d="M77.5 38.4006H67" stroke="#D1BA68"/>
<path d="M71.5 33.4006H61" stroke="#D1BA68"/>
<path d="M77 29.4006H71" stroke="#D1BA68"/>
<path d="M75.5 23.4006H65" stroke="#D1BA68"/>
<path d="M86.5 19.4006H76" stroke="#D1BA68"/>
<path d="M80.5 14.4006H70" stroke="#D1BA68"/>
<path d="M90.5 10.4006H80" stroke="#D1BA68"/>
<path d="M84.5 4.40063H74" stroke="#D1BA68"/>
<path d="M21.5 76.4006H11" stroke="#D1BA68"/>
<path d="M15.5 71.4006H5" stroke="#D1BA68"/>
<path d="M25.5 67.4006H15" stroke="#D1BA68"/>
<path d="M19.5 61.4006H9" stroke="#D1BA68"/>
<path d="M30.5 57.4006H20" stroke="#D1BA68"/>
<path d="M24.5 52.4006H14" stroke="#D1BA68"/>
<path d="M34.5 48.4006H24" stroke="#D1BA68"/>
<path d="M28.5 42.4006H18" stroke="#D1BA68"/>
<path d="M40.5 38.4006H30" stroke="#D1BA68"/>
<path d="M34.5 33.4006H24" stroke="#D1BA68"/>
<path d="M44.5 29.4006H34" stroke="#D1BA68"/>
<path d="M38.5 23.4006H28" stroke="#D1BA68"/>
<path d="M49.5 19.4006H39" stroke="#D1BA68"/>
<path d="M43.5 14.4006H33" stroke="#D1BA68"/>
<path d="M53.5 10.4006H43" stroke="#D1BA68"/>
<path d="M47.5 4.40063H37" stroke="#D1BA68"/>
<path d="M98.3527 3.47754L160 31.1734V125.803L93.3334 156.298L98.3527 3.47754Z" fill="#E0D19B"/>
<path d="M58.7613 80.4006H38.5185L76.708 160.401H99.7531L58.7613 80.4006Z" fill="#ECDB85"/>
<path d="M78.188 80.4006H58.2716L95.8452 160.401H118.519L78.188 80.4006Z" fill="#D1BA68"/>
<path d="M97.941 80.4006H78.0247L115.598 160.401H138.272L97.941 80.4006Z" fill="#ECDB85"/>
<path d="M38.6818 80.4006H18.7654L56.339 160.401H79.0123L38.6818 80.4006Z" fill="#D1BA68"/>
<path d="M19.9164 80.4006H3.43323e-05L37.5736 160.401H60.2469L19.9164 80.4006Z" fill="#ECDB85"/>
<path d="M38 158.401H48.5" stroke="#D1BA68"/>
<path d="M44 153.401H54.5" stroke="#D1BA68"/>
<path d="M34 149.401H44.5" stroke="#D1BA68"/>
<path d="M40 143.401H50.5" stroke="#D1BA68"/>
<path d="M29 139.401H39.5" stroke="#D1BA68"/>
<path d="M35 134.401H45.5" stroke="#D1BA68"/>
<path d="M25 130.401H35.5" stroke="#D1BA68"/>
<path d="M31 124.401H41.5" stroke="#D1BA68"/>
<path d="M19 120.401H29.5" stroke="#D1BA68"/>
<path d="M25 115.401H35.5" stroke="#D1BA68"/>
<path d="M15 111.401H25.5" stroke="#D1BA68"/>
<path d="M21 105.401H31.5" stroke="#D1BA68"/>
<path d="M10 101.401H20.5" stroke="#D1BA68"/>
<path d="M16 96.4006H26.5" stroke="#D1BA68"/>
<path d="M6 92.4006H16.5" stroke="#D1BA68"/>
<path d="M12 86.4006H22.5" stroke="#D1BA68"/>
<path d="M77 157.401H87.5" stroke="#D1BA68"/>
<path d="M83 152.401H93.5" stroke="#D1BA68"/>
<path d="M73 148.401H83.5" stroke="#D1BA68"/>
<path d="M79 142.401H89.5" stroke="#D1BA68"/>
<path d="M68 138.401H78.5" stroke="#D1BA68"/>
<path d="M74 133.401H84.5" stroke="#D1BA68"/>
<path d="M64 129.401H74.5" stroke="#D1BA68"/>
<path d="M70 123.401H80.5" stroke="#D1BA68"/>
<path d="M58 119.401H68.5" stroke="#D1BA68"/>
<path d="M64 114.401H74.5" stroke="#D1BA68"/>
<path d="M54 110.401H64.5" stroke="#D1BA68"/>
<path d="M60 104.401H70.5" stroke="#D1BA68"/>
<path d="M49 100.401H59.5" stroke="#D1BA68"/>
<path d="M55 95.4006H65.5" stroke="#D1BA68"/>
<path d="M45 91.4006H55.5" stroke="#D1BA68"/>
<path d="M51 85.4006H61.5" stroke="#D1BA68"/>
<path d="M117 156.401H127.5" stroke="#D1BA68"/>
<path d="M123 151.401H133.5" stroke="#D1BA68"/>
<path d="M113 147.401H123.5" stroke="#D1BA68"/>
<path d="M108 137.401H118.5" stroke="#D1BA68"/>
<path d="M114 132.401H124.5" stroke="#D1BA68"/>
<path d="M104 128.401H114.5" stroke="#D1BA68"/>
<path d="M110 122.401H120.5" stroke="#D1BA68"/>
<path d="M98 118.401H108.5" stroke="#D1BA68"/>
<path d="M104 113.401H114.5" stroke="#D1BA68"/>
<path d="M94 109.401H104.5" stroke="#D1BA68"/>
<path d="M100 103.401H110.5" stroke="#D1BA68"/>
<path d="M89 99.4006H99.5" stroke="#D1BA68"/>
<path d="M95 94.4006H105.5" stroke="#D1BA68"/>
<path d="M85 90.4006H95.5" stroke="#D1BA68"/>
<path d="M91 84.4006H101.5" stroke="#D1BA68"/>
<path d="M59.2785 80.4006H38.5185L76.708 0.400627H99.7531L59.2785 80.4006Z" fill="#ECDB85"/>
<path d="M116.706 80.4006H96.7901L134.364 0.400635H157.037L116.706 80.4006Z" fill="#D1BA68"/>
<path d="M78.188 80.4006H58.2716L95.8452 0.400635H118.519L78.188 80.4006Z" fill="#D1BA68"/>
<path d="M97.941 80.4006H78.0247L115.598 0.400635H138.272L97.941 80.4006Z" fill="#ECDB85"/>
<path d="M38.6818 80.4006H18.7654L56.339 0.400635H79.0123L38.6818 80.4006Z" fill="#D1BA68"/>
<path d="M19.9164 80.4006H3.43323e-05L37.5736 0.400635H60.2469L19.9164 80.4006Z" fill="#ECDB85"/>
<path d="M155.062 74.657L137.284 69.1185V93.7339L155.062 87.5801V74.657Z" fill="#BCB970"/>
<path d="M146.173 71.1699V91.6827" stroke="#E9D2B9"/>
<path d="M137.284 81.4263L155.062 80.4006" stroke="#E9D2B9"/>
<path d="M87.037 23.589L98.7654 22.9647L88.8889 37.3237L78 29.9005L87.037 23.589Z" fill="#8A7751"/>
<path d="M78 29.9944L92 28.4006L97.7531 39.4951L84.1728 40.6827L78 29.9944Z" fill="#96765F"/>
<path d="M91.8518 28.4348L98.5507 22.9647L102 32.4005L97.6575 39.375L91.8518 28.4348Z" fill="#AF9654"/>
<path d="M99.5 76.4006H89" stroke="#D1BA68"/>
<path d="M93.5 71.4006H83" stroke="#D1BA68"/>
<path d="M103.5 67.4006H93" stroke="#D1BA68"/>
<path d="M97.5 61.4006H87" stroke="#D1BA68"/>
<path d="M108.5 57.4006H98" stroke="#D1BA68"/>
<path d="M102.5 52.4006H92" stroke="#D1BA68"/>
<path d="M112.5 48.4006H102" stroke="#D1BA68"/>
<path d="M106.5 42.4006H96" stroke="#D1BA68"/>
<path d="M118.5 38.4006H108" stroke="#D1BA68"/>
<path d="M112.5 33.4006H102" stroke="#D1BA68"/>
<path d="M122.5 29.4006H112" stroke="#D1BA68"/>
<path d="M116.5 23.4006H106" stroke="#D1BA68"/>
<path d="M127.5 19.4006H117" stroke="#D1BA68"/>
<path d="M121.5 14.4006H111" stroke="#D1BA68"/>
<path d="M131.5 10.4006H121" stroke="#D1BA68"/>
<path d="M125.5 4.40063H115" stroke="#D1BA68"/>
<path d="M58.5 76.4006H48" stroke="#D1BA68"/>
<path d="M52.5 71.4006H42" stroke="#D1BA68"/>
<path d="M62.5 67.4006H52" stroke="#D1BA68"/>
<path d="M56.5 61.4006H46" stroke="#D1BA68"/>
<path d="M67.5 57.4006H57" stroke="#D1BA68"/>
<path d="M61.5 52.4006H51" stroke="#D1BA68"/>
<path d="M71.5 48.4006H61" stroke="#D1BA68"/>
<path d="M65.5 42.4006H55" stroke="#D1BA68"/>
<path d="M77.5 38.4006H67" stroke="#D1BA68"/>
<path d="M71.5 33.4006H61" stroke="#D1BA68"/>
<path d="M77 29.4006H71" stroke="#D1BA68"/>
<path d="M75.5 23.4006H65" stroke="#D1BA68"/>
<path d="M86.5 19.4006H76" stroke="#D1BA68"/>
<path d="M80.5 14.4006H70" stroke="#D1BA68"/>
<path d="M90.5 10.4006H80" stroke="#D1BA68"/>
<path d="M84.5 4.40063H74" stroke="#D1BA68"/>
<path d="M21.5 76.4006H11" stroke="#D1BA68"/>
<path d="M15.5 71.4006H5" stroke="#D1BA68"/>
<path d="M25.5 67.4006H15" stroke="#D1BA68"/>
<path d="M19.5 61.4006H9" stroke="#D1BA68"/>
<path d="M30.5 57.4006H20" stroke="#D1BA68"/>
<path d="M24.5 52.4006H14" stroke="#D1BA68"/>
<path d="M34.5 48.4006H24" stroke="#D1BA68"/>
<path d="M28.5 42.4006H18" stroke="#D1BA68"/>
<path d="M40.5 38.4006H30" stroke="#D1BA68"/>
<path d="M34.5 33.4006H24" stroke="#D1BA68"/>
<path d="M44.5 29.4006H34" stroke="#D1BA68"/>
<path d="M38.5 23.4006H28" stroke="#D1BA68"/>
<path d="M49.5 19.4006H39" stroke="#D1BA68"/>
<path d="M43.5 14.4006H33" stroke="#D1BA68"/>
<path d="M53.5 10.4006H43" stroke="#D1BA68"/>
<path d="M47.5 4.40063H37" stroke="#D1BA68"/>
<path d="M98.3527 3.47754L160 31.1734V125.803L93.3334 156.298L98.3527 3.47754Z" fill="#E0D19B"/>
<path d="M58.7613 80.4006H38.5185L76.708 160.401H99.7531L58.7613 80.4006Z" fill="#ECDB85"/>
<path d="M78.188 80.4006H58.2716L95.8452 160.401H118.519L78.188 80.4006Z" fill="#D1BA68"/>
<path d="M97.941 80.4006H78.0247L115.598 160.401H138.272L97.941 80.4006Z" fill="#ECDB85"/>
<path d="M38.6818 80.4006H18.7654L56.339 160.401H79.0123L38.6818 80.4006Z" fill="#D1BA68"/>
<path d="M19.9164 80.4006H3.43323e-05L37.5736 160.401H60.2469L19.9164 80.4006Z" fill="#ECDB85"/>
<path d="M38 158.401H48.5" stroke="#D1BA68"/>
<path d="M44 153.401H54.5" stroke="#D1BA68"/>
<path d="M34 149.401H44.5" stroke="#D1BA68"/>
<path d="M40 143.401H50.5" stroke="#D1BA68"/>
<path d="M29 139.401H39.5" stroke="#D1BA68"/>
<path d="M35 134.401H45.5" stroke="#D1BA68"/>
<path d="M25 130.401H35.5" stroke="#D1BA68"/>
<path d="M31 124.401H41.5" stroke="#D1BA68"/>
<path d="M19 120.401H29.5" stroke="#D1BA68"/>
<path d="M25 115.401H35.5" stroke="#D1BA68"/>
<path d="M15 111.401H25.5" stroke="#D1BA68"/>
<path d="M21 105.401H31.5" stroke="#D1BA68"/>
<path d="M10 101.401H20.5" stroke="#D1BA68"/>
<path d="M16 96.4006H26.5" stroke="#D1BA68"/>
<path d="M6 92.4006H16.5" stroke="#D1BA68"/>
<path d="M12 86.4006H22.5" stroke="#D1BA68"/>
<path d="M77 157.401H87.5" stroke="#D1BA68"/>
<path d="M83 152.401H93.5" stroke="#D1BA68"/>
<path d="M73 148.401H83.5" stroke="#D1BA68"/>
<path d="M79 142.401H89.5" stroke="#D1BA68"/>
<path d="M68 138.401H78.5" stroke="#D1BA68"/>
<path d="M74 133.401H84.5" stroke="#D1BA68"/>
<path d="M64 129.401H74.5" stroke="#D1BA68"/>
<path d="M70 123.401H80.5" stroke="#D1BA68"/>
<path d="M58 119.401H68.5" stroke="#D1BA68"/>
<path d="M64 114.401H74.5" stroke="#D1BA68"/>
<path d="M54 110.401H64.5" stroke="#D1BA68"/>
<path d="M60 104.401H70.5" stroke="#D1BA68"/>
<path d="M49 100.401H59.5" stroke="#D1BA68"/>
<path d="M55 95.4006H65.5" stroke="#D1BA68"/>
<path d="M45 91.4006H55.5" stroke="#D1BA68"/>
<path d="M51 85.4006H61.5" stroke="#D1BA68"/>
<path d="M117 156.401H127.5" stroke="#D1BA68"/>
<path d="M123 151.401H133.5" stroke="#D1BA68"/>
<path d="M113 147.401H123.5" stroke="#D1BA68"/>
<path d="M119 141.401H127" stroke="#D1BA68"/>
<path d="M108 137.401H118.5" stroke="#D1BA68"/>
<path d="M114 132.401H124.5" stroke="#D1BA68"/>
<path d="M104 128.401H114.5" stroke="#D1BA68"/>
<path d="M110 122.401H120.5" stroke="#D1BA68"/>
<path d="M98 118.401H108.5" stroke="#D1BA68"/>
<path d="M104 113.401H114.5" stroke="#D1BA68"/>
<path d="M94 109.401H104.5" stroke="#D1BA68"/>
<path d="M100 103.401H110.5" stroke="#D1BA68"/>
<path d="M89 99.4006H99.5" stroke="#D1BA68"/>
<path d="M95 94.4006H105.5" stroke="#D1BA68"/>
<path d="M85 90.4006H95.5" stroke="#D1BA68"/>
<path d="M91 84.4006H101.5" stroke="#D1BA68"/>
<path d="M59.2785 80.4006H38.5185L76.708 0.400627H99.7531L59.2785 80.4006Z" fill="#ECDB85"/>
<path d="M116.706 80.4006H96.7901L134.364 0.400635H157.037L116.706 80.4006Z" fill="#D1BA68"/>
<path d="M117.174 80.0001H98L134.172 160H156L117.174 80.0001Z" fill="#D1BA68"/>
<path d="M78.188 80.4006H58.2716L95.8452 0.400635H118.519L78.188 80.4006Z" fill="#D1BA68"/>
<path d="M97.941 80.4006H78.0247L115.598 0.400635H138.272L97.941 80.4006Z" fill="#ECDB85"/>
<path d="M38.6818 80.4006H18.7654L56.339 0.400635H79.0123L38.6818 80.4006Z" fill="#D1BA68"/>
<path d="M19.9164 80.4006H3.43323e-05L37.5736 0.400635H60.2469L19.9164 80.4006Z" fill="#ECDB85"/>
<path d="M155.062 74.657L137.284 69.1185V93.7339L155.062 87.5801V74.657Z" fill="#B5B398"/>
<path d="M146.173 71.1699V91.6827" stroke="#E9D2B9"/>
<path d="M137.284 81.4263L155.062 80.4006" stroke="#E9D2B9"/>
<path d="M87.037 23.589L98.7654 22.9647L88.8889 37.3237L78 29.9005L87.037 23.589Z" fill="#8A7751"/>
<path d="M78 29.9944L92 28.4006L97.7531 39.4951L84.1728 40.6827L78 29.9944Z" fill="#96765F"/>
<path d="M91.8518 28.4348L98.5507 22.9647L102 32.4005L97.6575 39.375L91.8518 28.4348Z" fill="#AF9654"/>
<path d="M99.5 76.4006H89" stroke="#D1BA68"/>
<path d="M93.5 71.4006H83" stroke="#D1BA68"/>
<path d="M103.5 67.4006H93" stroke="#D1BA68"/>
<path d="M97.5 61.4006H87" stroke="#D1BA68"/>
<path d="M108.5 57.4006H98" stroke="#D1BA68"/>
<path d="M102.5 52.4006H92" stroke="#D1BA68"/>
<path d="M112.5 48.4006H102" stroke="#D1BA68"/>
<path d="M106.5 42.4006H96" stroke="#D1BA68"/>
<path d="M118.5 38.4006H108" stroke="#D1BA68"/>
<path d="M112.5 33.4006H102" stroke="#D1BA68"/>
<path d="M122.5 29.4006H112" stroke="#D1BA68"/>
<path d="M116.5 23.4006H106" stroke="#D1BA68"/>
<path d="M127.5 19.4006H117" stroke="#D1BA68"/>
<path d="M121.5 14.4006H111" stroke="#D1BA68"/>
<path d="M131.5 10.4006H121" stroke="#D1BA68"/>
<path d="M125.5 4.40063H115" stroke="#D1BA68"/>
<path d="M58.5 76.4006H48" stroke="#D1BA68"/>
<path d="M52.5 71.4006H42" stroke="#D1BA68"/>
<path d="M62.5 67.4006H52" stroke="#D1BA68"/>
<path d="M56.5 61.4006H46" stroke="#D1BA68"/>
<path d="M67.5 57.4006H57" stroke="#D1BA68"/>
<path d="M61.5 52.4006H51" stroke="#D1BA68"/>
<path d="M71.5 48.4006H61" stroke="#D1BA68"/>
<path d="M65.5 42.4006H55" stroke="#D1BA68"/>
<path d="M77.5 38.4006H67" stroke="#D1BA68"/>
<path d="M71.5 33.4006H61" stroke="#D1BA68"/>
<path d="M77 29.4006H71" stroke="#D1BA68"/>
<path d="M75.5 23.4006H65" stroke="#D1BA68"/>
<path d="M86.5 19.4006H76" stroke="#D1BA68"/>
<path d="M80.5 14.4006H70" stroke="#D1BA68"/>
<path d="M90.5 10.4006H80" stroke="#D1BA68"/>
<path d="M84.5 4.40063H74" stroke="#D1BA68"/>
<path d="M21.5 76.4006H11" stroke="#D1BA68"/>
<path d="M15.5 71.4006H5" stroke="#D1BA68"/>
<path d="M25.5 67.4006H15" stroke="#D1BA68"/>
<path d="M19.5 61.4006H9" stroke="#D1BA68"/>
<path d="M30.5 57.4006H20" stroke="#D1BA68"/>
<path d="M24.5 52.4006H14" stroke="#D1BA68"/>
<path d="M34.5 48.4006H24" stroke="#D1BA68"/>
<path d="M28.5 42.4006H18" stroke="#D1BA68"/>
<path d="M40.5 38.4006H30" stroke="#D1BA68"/>
<path d="M34.5 33.4006H24" stroke="#D1BA68"/>
<path d="M44.5 29.4006H34" stroke="#D1BA68"/>
<path d="M38.5 23.4006H28" stroke="#D1BA68"/>
<path d="M49.5 19.4006H39" stroke="#D1BA68"/>
<path d="M43.5 14.4006H33" stroke="#D1BA68"/>
<path d="M53.5 10.4006H43" stroke="#D1BA68"/>
<path d="M47.5 4.40063H37" stroke="#D1BA68"/>
<path d="M60 159.401H70.5" stroke="#ECDB85"/>
<path d="M66 154.401H75" stroke="#ECDB85"/>
<path d="M56 150.401H66.5" stroke="#ECDB85"/>
<path d="M62 144.401H71" stroke="#ECDB85"/>
<path d="M41 120.401H51.5" stroke="#ECDB85"/>
<path d="M47 115.401H56" stroke="#ECDB85"/>
<path d="M37 111.401H47.5" stroke="#ECDB85"/>
<path d="M43 105.401H52" stroke="#ECDB85"/>
<path d="M31 101.401H41.5" stroke="#ECDB85"/>
<path d="M37 96.4006H46" stroke="#ECDB85"/>
<path d="M27 92.4006H37.5" stroke="#ECDB85"/>
<path d="M33 86.4006H42" stroke="#ECDB85"/>
<path d="M51 140.401H61.5" stroke="#ECDB85"/>
<path d="M57 135.401H66" stroke="#ECDB85"/>
<path d="M47 131.401H57.5" stroke="#ECDB85"/>
<path d="M53 125.401H62" stroke="#ECDB85"/>
<path d="M117 75.0001H106.5" stroke="#ECDB85"/>
<path d="M111 70.0001H102" stroke="#ECDB85"/>
<path d="M121 66.0001H110.5" stroke="#ECDB85"/>
<path d="M115 60.0001H106" stroke="#ECDB85"/>
<path d="M136 36.0002H125.5" stroke="#ECDB85"/>
<path d="M130 31.0002H121" stroke="#ECDB85"/>
<path d="M140 27.0002H129.5" stroke="#ECDB85"/>
<path d="M134 21.4006H125" stroke="#ECDB85"/>
<path d="M146 17.0001H135.5" stroke="#ECDB85"/>
<path d="M140 12.4006H131" stroke="#ECDB85"/>
<path d="M150 8.40063H139.5" stroke="#ECDB85"/>
<path d="M144 2.40063H135" stroke="#ECDB85"/>
<path d="M126 56.0001H115.5" stroke="#ECDB85"/>
<path d="M120 51.0002H111" stroke="#ECDB85"/>
<path d="M130 47.0002H119.5" stroke="#ECDB85"/>
<path d="M124 41.0002H115" stroke="#ECDB85"/>
<path d="M117 83H106.5" stroke="#ECDB85"/>
<path d="M111 88H102" stroke="#ECDB85"/>
<path d="M121 92H110.5" stroke="#ECDB85"/>
<path d="M115 98H106" stroke="#ECDB85"/>
<path d="M136 122H125.5" stroke="#ECDB85"/>
<path d="M130 127H121" stroke="#ECDB85"/>
<path d="M140 131H129.5" stroke="#ECDB85"/>
<path d="M146 141H135.5" stroke="#ECDB85"/>
<path d="M140 145.6H131" stroke="#ECDB85"/>
<path d="M150 149.6H139.5" stroke="#ECDB85"/>
<path d="M144 155.6H135" stroke="#ECDB85"/>
<path d="M126 102H115.5" stroke="#ECDB85"/>
<path d="M120 107H111" stroke="#ECDB85"/>
<path d="M130 111H119.5" stroke="#ECDB85"/>
<path d="M124 117H115" stroke="#ECDB85"/>
<path d="M40 76.4006H29.5" stroke="#ECDB85"/>
<path d="M34 71.4006H25" stroke="#ECDB85"/>
<path d="M44 67.4006H33.5" stroke="#ECDB85"/>
<path d="M38 61.4006H29" stroke="#ECDB85"/>
<path d="M59 37.4006H48.5" stroke="#ECDB85"/>
<path d="M53 32.4006H44" stroke="#ECDB85"/>
<path d="M63 28.4006H52.5" stroke="#ECDB85"/>
<path d="M57 22.4006H48" stroke="#ECDB85"/>
<path d="M69 18.4006H58.5" stroke="#ECDB85"/>
<path d="M63 13.4006H54" stroke="#ECDB85"/>
<path d="M73 9.40063H62.5" stroke="#ECDB85"/>
<path d="M67 3.40063H58" stroke="#ECDB85"/>
<path d="M49 57.4006H38.5" stroke="#ECDB85"/>
<path d="M43 52.4006H34" stroke="#ECDB85"/>
<path d="M53 48.4006H42.5" stroke="#ECDB85"/>
<path d="M47 42.4006H38" stroke="#ECDB85"/>
<path d="M78 74.4006H67.5" stroke="#ECDB85"/>
<path d="M72 69.4006H63" stroke="#ECDB85"/>
<path d="M82 65.4006H71.5" stroke="#ECDB85"/>
<path d="M76 59.4006H67" stroke="#ECDB85"/>
<path d="M95 20.4006H86" stroke="#ECDB85"/>
<path d="M107 16.4006H96.5" stroke="#ECDB85"/>
<path d="M101 11.4006H92" stroke="#ECDB85"/>
<path d="M111 7.40063H100.5" stroke="#ECDB85"/>
<path d="M105 1.40063H96" stroke="#ECDB85"/>
<path d="M87 55.4006H76.5" stroke="#ECDB85"/>
<path d="M81 50.4006H72" stroke="#ECDB85"/>
<path d="M91 46.4006H80.5" stroke="#ECDB85"/>
<path d="M85 41.4006H76" stroke="#ECDB85"/>
<path d="M97 157.401H107.5" stroke="#ECDB85"/>
<path d="M103 152.401H112" stroke="#ECDB85"/>
<path d="M93 148.401H103.5" stroke="#ECDB85"/>
<path d="M99 142.401H108" stroke="#ECDB85"/>
<path d="M78 118.401H88.5" stroke="#ECDB85"/>
<path d="M84 113.401H93" stroke="#ECDB85"/>
<path d="M74 109.401H84.5" stroke="#ECDB85"/>
<path d="M80 103.401H89" stroke="#ECDB85"/>
<path d="M68 99.4006H78.5" stroke="#ECDB85"/>
<path d="M74 94.4006H83" stroke="#ECDB85"/>
<path d="M64 90.4006H74.5" stroke="#ECDB85"/>
<path d="M70 84.4006H79" stroke="#ECDB85"/>
<path d="M88 138.401H98.5" stroke="#ECDB85"/>
<path d="M94 133.401H103" stroke="#ECDB85"/>
<path d="M84 129.401H94.5" stroke="#ECDB85"/>
<path d="M90 123.401H99" stroke="#ECDB85"/>
<path d="M57.445 122.934C58.5971 128.071 54.89 130.372 49.9301 131.484C44.9702 132.597 40.6356 132.099 39.4836 126.962C38.3316 121.825 42.9066 116.689 43.6685 108.069C49.0007 115.322 56.293 117.797 57.445 122.934Z" fill="#FFB522"/>
<path d="M57.445 122.934C58.5971 128.071 54.89 130.372 49.9301 131.484C44.9702 132.597 40.6356 132.099 39.4836 126.962C38.3316 121.825 42.9066 116.689 43.6685 108.069C49.0007 115.322 56.293 117.797 57.445 122.934Z" fill="#FFB522"/>
<path d="M66.2512 123.34C65.358 131.699 61.0174 133.538 55.9631 132.998C50.9087 132.458 47.0546 129.743 47.9478 121.384C48.8409 113.026 55.0777 107.252 59.0911 94.4419C61.2877 107.916 67.1443 114.981 66.2512 123.34Z" fill="#FFB522"/>
<path d="M74.0622 138.243C72.2144 145.549 67.7163 146.528 62.7883 145.282C57.8604 144.035 54.3688 141.035 56.2166 133.729C58.0644 126.424 64.8893 122.229 70.3323 111.433C70.9441 123.76 75.91 130.937 74.0622 138.243Z" fill="#FFB522"/>
<path d="M59.8788 128.155C64.6659 134.546 61.7975 139.412 56.6508 143.267C51.5041 147.122 46.0281 148.506 41.241 142.115C36.4539 135.723 38.4654 126.617 33.6315 114.614C44.7889 121.881 55.0917 121.764 59.8788 128.155Z" fill="#FFB522"/>
<path d="M65.9651 142.612C65.546 147.377 61.3875 148.32 56.3985 147.881C51.4096 147.442 47.4794 145.789 47.8985 141.023C48.3176 136.258 54.1213 133.11 57.3585 125.874C60.251 133.649 66.3841 137.846 65.9651 142.612Z" fill="#FFE68E"/>
<path d="M55.9347 131.757C58.1114 135.38 55.7941 138.116 52.2043 140.272C48.6145 142.429 45.1115 143.19 42.9348 139.567C40.7582 135.944 43.0465 130.813 41.4951 124.024C47.4572 128.163 53.7581 128.134 55.9347 131.757Z" fill="#FFE68E"/>
<path d="M59.8452 119.079C58.942 121.679 57.2176 121.874 55.3938 121.24C53.5701 120.607 52.3377 119.385 53.2409 116.785C54.1441 114.185 56.837 112.901 59.1948 109.157C59.0777 113.679 60.7484 116.479 59.8452 119.079Z" fill="#FFE68E"/>
<path d="M71.4541 132.601C71.3444 135.868 69.7502 136.705 67.8207 136.64C65.8911 136.575 64.3568 135.633 64.4666 132.366C64.5764 129.1 66.7812 126.683 67.9513 121.602C69.152 126.763 71.5639 129.335 71.4541 132.601Z" fill="#FFE68E"/>
<path d="M56.4241 119.224C57.9997 121.739 57.1026 123.255 55.4665 124.28C53.8304 125.305 52.075 125.451 50.4993 122.936C48.9237 120.421 49.5221 117.378 47.9011 112.909C51.5323 116.119 54.8485 116.709 56.4241 119.224Z" fill="#FFE68E"/>
<path d="M50.2718 32.7642C51.4535 38.0337 49.0159 40.0877 45.6118 40.8511C42.2078 41.6144 39.1265 40.7981 37.9448 35.5286C36.7631 30.2591 39.6051 25.406 39.5156 16.7592C43.7875 24.4681 49.0901 27.4947 50.2718 32.7642Z" fill="#FFB522"/>
<path d="M50.2718 32.7642C51.4535 38.0337 49.0159 40.0877 45.6118 40.8511C42.2078 41.6144 39.1265 40.7981 37.9448 35.5286C36.7631 30.2591 39.6051 25.406 39.5156 16.7592C43.7875 24.4681 49.0901 27.4947 50.2718 32.7642Z" fill="#FFB522"/>
<path d="M56.7744 35.6249C56.1919 41.0761 53.2212 42.2603 49.7524 41.8897C46.2836 41.519 43.6302 39.7339 44.2127 34.2827C44.7952 28.8314 49.0522 25.0865 51.7589 16.7418C53.3142 25.5419 57.3569 30.1736 56.7744 35.6249Z" fill="#FFB522"/>
<path d="M61.8972 46.5832C60.8465 50.7374 57.8186 51.1754 54.4365 50.32C51.0545 49.4646 48.599 47.6398 49.6497 43.4855C50.7004 39.3312 55.2187 37.1072 58.6138 31.0443C59.3741 38.1582 62.9479 42.4289 61.8972 46.5832Z" fill="#FFB522"/>
<path d="M52.1712 38.2072C55.6678 42.8754 53.7567 46.2915 50.2245 48.9372C46.6923 51.5828 42.8766 52.4561 39.3801 47.788C35.8836 43.1198 37.1032 36.6555 33.4551 27.9766C41.4431 33.4049 48.6747 33.5391 52.1712 38.2072Z" fill="#FFB522"/>
<path d="M56.5248 49.5326C56.3094 51.9823 53.475 52.4054 50.0511 52.1043C46.6272 51.8032 43.9102 50.8919 44.1256 48.4422C44.3411 45.9925 48.2692 44.4575 50.3779 40.7771C52.4761 44.8274 56.7402 47.0829 56.5248 49.5326Z" fill="#FFE68E"/>
<path d="M49.6046 40.825C51.1992 43.4793 49.6363 45.4021 47.1726 46.8822C44.7089 48.3623 42.2774 48.8393 40.6827 46.1849C39.0881 43.5305 40.5818 39.8815 39.3592 34.9591C43.6089 38.0629 48.01 38.1706 49.6046 40.825Z" fill="#FFE68E"/>
<path d="M52.4032 32.3763C51.7939 34.1302 50.6133 34.2554 49.3617 33.8206C48.11 33.3858 47.2613 32.5556 47.8706 30.8018C48.4799 29.0479 50.3199 28.1899 51.9215 25.6683C51.8578 28.7241 53.0124 30.6224 52.4032 32.3763Z" fill="#FFE68E"/>
<path d="M60.3564 42.4391C60.3028 44.0352 59.2147 44.4339 57.8904 44.3894C56.5661 44.3449 55.5072 43.8741 55.5609 42.2779C55.6145 40.6818 57.1112 39.5149 57.8803 37.0384C58.7382 39.5696 60.4101 40.8429 60.3564 42.4391Z" fill="#FFE68E"/>
<path d="M50.0442 32.3973C51.1449 34.1542 50.5344 35.2029 49.4116 35.9064C48.2887 36.6099 47.0787 36.7016 45.978 34.9448C44.8774 33.1879 45.2733 31.0763 44.1306 27.9611C46.6529 30.212 48.9436 30.6404 50.0442 32.3973Z" fill="#FFE68E"/>
</svg>
