<svg width="160" height="160" viewBox="0 0 160 160" fill="none" xmlns="http://www.w3.org/2000/svg">
<path d="M98.3527 3.0769L160 30.7728V125.403L93.3334 155.897L98.3527 3.0769Z" fill="#E0D19B"/>
<path d="M58.7613 80H38.5185L76.708 160H99.7531L58.7613 80Z" fill="#ECDB85"/>
<path d="M78.188 80H58.2716L95.8452 160H118.519L78.188 80Z" fill="#D1BA68"/>
<path d="M97.941 80H78.0247L115.598 160H138.272L97.941 80Z" fill="#ECDB85"/>
<path d="M38.6818 80H18.7654L56.339 160H79.0123L38.6818 80Z" fill="#D1BA68"/>
<path d="M19.9164 80H3.38256e-05L37.5736 160H60.2469L19.9164 80Z" fill="#ECDB85"/>
<path d="M38 158H48.5" stroke="#D1BA68"/>
<path d="M44 153H54.5" stroke="#D1BA68"/>
<path d="M34 149H44.5" stroke="#D1BA68"/>
<path d="M40 143H50.5" stroke="#D1BA68"/>
<path d="M29 139H39.5" stroke="#D1BA68"/>
<path d="M35 134H45.5" stroke="#D1BA68"/>
<path d="M25 130H35.5" stroke="#D1BA68"/>
<path d="M31 124H41.5" stroke="#D1BA68"/>
<path d="M19 120H29.5" stroke="#D1BA68"/>
<path d="M25 115H35.5" stroke="#D1BA68"/>
<path d="M15 111H25.5" stroke="#D1BA68"/>
<path d="M21 105H31.5" stroke="#D1BA68"/>
<path d="M10 101H20.5" stroke="#D1BA68"/>
<path d="M16 96H26.5" stroke="#D1BA68"/>
<path d="M6 92H16.5" stroke="#D1BA68"/>
<path d="M12 86H22.5" stroke="#D1BA68"/>
<path d="M59.2785 80H38.5185L76.708 -4.52995e-06H99.7531L59.2785 80Z" fill="#ECDB85"/>
<path d="M116.706 80H96.7901L134.364 -3.26726e-06H157.037L116.706 80Z" fill="#D1BA68"/>
<path d="M78.188 80H58.2716L95.8452 -3.26726e-06H118.519L78.188 80Z" fill="#D1BA68"/>
<path d="M97.941 80H78.0247L115.598 0H138.272L97.941 80Z" fill="#ECDB85"/>
<path d="M38.6818 80H18.7654L56.339 -3.26726e-06H79.0123L38.6818 80Z" fill="#D1BA68"/>
<path d="M19.9164 80H3.38256e-05L37.5736 -3.26726e-06H60.2469L19.9164 80Z" fill="#ECDB85"/>
<path d="M155.062 74.2564L137.284 68.7179V93.3333L155.062 87.1794V74.2564Z" fill="#BCB970"/>
<path d="M146.173 70.7693V91.2821" stroke="#E9D2B9"/>
<path d="M137.284 81.0256L155.062 80" stroke="#E9D2B9"/>
<path d="M87.037 23.1884L98.7654 22.5641L88.8889 36.9231L78 29.4999L87.037 23.1884Z" fill="#8A7751"/>
<path d="M78 29.5938L92 28L97.7531 39.0945L84.1728 40.2821L78 29.5938Z" fill="#96765F"/>
<path d="M91.8518 28.0342L98.5507 22.5641L102 31.9999L97.6575 38.9743L91.8518 28.0342Z" fill="#AF9654"/>
<path d="M38 158H48.5" stroke="#D1BA68"/>
<path d="M44 153H54.5" stroke="#D1BA68"/>
<path d="M34 149H44.5" stroke="#D1BA68"/>
<path d="M40 143H50.5" stroke="#D1BA68"/>
<path d="M44 153H54.5" stroke="#D1BA68"/>
<path d="M34 149H44.5" stroke="#D1BA68"/>
<path d="M40 143H50.5" stroke="#D1BA68"/>
<path d="M51 101H61.5" stroke="#D1BA68"/>
<path d="M57 96H67.5" stroke="#D1BA68"/>
<path d="M47 92H57.5" stroke="#D1BA68"/>
<path d="M53 86H63.5" stroke="#D1BA68"/>
<path d="M60 118H70.5" stroke="#D1BA68"/>
<path d="M66 113H76.5" stroke="#D1BA68"/>
<path d="M56 109H66.5" stroke="#D1BA68"/>
<path d="M62 103H72.5" stroke="#D1BA68"/>
<path d="M69 137H79.5" stroke="#D1BA68"/>
<path d="M75 132H85.5" stroke="#D1BA68"/>
<path d="M65 128H75.5" stroke="#D1BA68"/>
<path d="M71 122H81.5" stroke="#D1BA68"/>
<path d="M79 157H89.5" stroke="#D1BA68"/>
<path d="M85 152H95.5" stroke="#D1BA68"/>
<path d="M75 148H85.5" stroke="#D1BA68"/>
<path d="M81 142H91.5" stroke="#D1BA68"/>
<path d="M60 159H70.5" stroke="#ECDB85"/>
<path d="M66 154H75" stroke="#ECDB85"/>
<path d="M56 150H66.5" stroke="#ECDB85"/>
<path d="M62 144H71" stroke="#ECDB85"/>
<path d="M41 120H51.5" stroke="#ECDB85"/>
<path d="M47 115H56" stroke="#ECDB85"/>
<path d="M37 111H47.5" stroke="#ECDB85"/>
<path d="M43 105H52" stroke="#ECDB85"/>
<path d="M31 101H41.5" stroke="#ECDB85"/>
<path d="M37 96H46" stroke="#ECDB85"/>
<path d="M27 92H37.5" stroke="#ECDB85"/>
<path d="M33 86H42" stroke="#ECDB85"/>
<path d="M51 140H61.5" stroke="#ECDB85"/>
<path d="M57 135H66" stroke="#ECDB85"/>
<path d="M47 131H57.5" stroke="#ECDB85"/>
<path d="M53 125H62" stroke="#ECDB85"/>
<path d="M98.3527 3.0769L160 30.7728V125.403L93.3334 155.897L98.3527 3.0769Z" fill="#E0D19B"/>
<path d="M58.7613 80H38.5185L76.708 160H99.7531L58.7613 80Z" fill="#ECDB85"/>
<path d="M78.188 80H58.2716L95.8452 160H118.519L78.188 80Z" fill="#D1BA68"/>
<path d="M97.941 80H78.0247L115.598 160H138.272L97.941 80Z" fill="#ECDB85"/>
<path d="M38.6818 80H18.7654L56.339 160H79.0123L38.6818 80Z" fill="#D1BA68"/>
<path d="M19.9164 80H3.38256e-05L37.5736 160H60.2469L19.9164 80Z" fill="#ECDB85"/>
<path d="M38 158H48.5" stroke="#D1BA68"/>
<path d="M44 153H54.5" stroke="#D1BA68"/>
<path d="M34 149H44.5" stroke="#D1BA68"/>
<path d="M40 143H50.5" stroke="#D1BA68"/>
<path d="M29 139H39.5" stroke="#D1BA68"/>
<path d="M35 134H45.5" stroke="#D1BA68"/>
<path d="M25 130H35.5" stroke="#D1BA68"/>
<path d="M31 124H41.5" stroke="#D1BA68"/>
<path d="M19 120H29.5" stroke="#D1BA68"/>
<path d="M25 115H35.5" stroke="#D1BA68"/>
<path d="M15 111H25.5" stroke="#D1BA68"/>
<path d="M21 105H31.5" stroke="#D1BA68"/>
<path d="M10 101H20.5" stroke="#D1BA68"/>
<path d="M16 96H26.5" stroke="#D1BA68"/>
<path d="M6 92H16.5" stroke="#D1BA68"/>
<path d="M12 86H22.5" stroke="#D1BA68"/>
<path d="M59.2785 80H38.5185L76.708 -4.52995e-06H99.7531L59.2785 80Z" fill="#ECDB85"/>
<path d="M116.706 80H96.7901L134.364 -3.26726e-06H157.037L116.706 80Z" fill="#D1BA68"/>
<path d="M78.188 80H58.2716L95.8452 -3.26726e-06H118.519L78.188 80Z" fill="#D1BA68"/>
<path d="M97.941 80H78.0247L115.598 0H138.272L97.941 80Z" fill="#ECDB85"/>
<path d="M38.6818 80H18.7654L56.339 -3.26726e-06H79.0123L38.6818 80Z" fill="#D1BA68"/>
<path d="M19.9164 80H3.38256e-05L37.5736 -3.26726e-06H60.2469L19.9164 80Z" fill="#ECDB85"/>
<path d="M155.062 74.2564L137.284 68.7179V93.3333L155.062 87.1794V74.2564Z" fill="#BCB970"/>
<path d="M146.173 70.7693V91.2821" stroke="#E9D2B9"/>
<path d="M137.284 81.0256L155.062 80" stroke="#E9D2B9"/>
<path d="M87.037 23.1884L98.7654 22.5641L88.8889 36.9231L78 29.4999L87.037 23.1884Z" fill="#8A7751"/>
<path d="M78 29.5938L92 28L97.7531 39.0945L84.1728 40.2821L78 29.5938Z" fill="#96765F"/>
<path d="M91.8518 28.0342L98.5507 22.5641L102 31.9999L97.6575 38.9743L91.8518 28.0342Z" fill="#AF9654"/>
<path d="M60 159H70.5" stroke="#ECDB85"/>
<path d="M66 154H75" stroke="#ECDB85"/>
<path d="M56 150H66.5" stroke="#ECDB85"/>
<path d="M62 144H71" stroke="#ECDB85"/>
<path d="M41 120H51.5" stroke="#ECDB85"/>
<path d="M47 115H56" stroke="#ECDB85"/>
<path d="M37 111H47.5" stroke="#ECDB85"/>
<path d="M43 105H52" stroke="#ECDB85"/>
<path d="M31 101H41.5" stroke="#ECDB85"/>
<path d="M37 96H46" stroke="#ECDB85"/>
<path d="M27 92H37.5" stroke="#ECDB85"/>
<path d="M33 86H42" stroke="#ECDB85"/>
<path d="M51 140H61.5" stroke="#ECDB85"/>
<path d="M57 135H66" stroke="#ECDB85"/>
<path d="M47 131H57.5" stroke="#ECDB85"/>
<path d="M53 125H62" stroke="#ECDB85"/>
<path d="M98.3527 3.0769L160 30.7728V125.403L93.3334 155.897L98.3527 3.0769Z" fill="#E0D19B"/>
<path d="M58.7613 80H38.5185L76.708 160H99.7531L58.7613 80Z" fill="#ECDB85"/>
<path d="M78.188 80H58.2716L95.8452 160H118.519L78.188 80Z" fill="#D1BA68"/>
<path d="M97.941 80H78.0247L115.598 160H138.272L97.941 80Z" fill="#ECDB85"/>
<path d="M38.6818 80H18.7654L56.339 160H79.0123L38.6818 80Z" fill="#D1BA68"/>
<path d="M19.9164 80H3.38256e-05L37.5736 160H60.2469L19.9164 80Z" fill="#ECDB85"/>
<path d="M38 158H48.5" stroke="#D1BA68"/>
<path d="M44 153H54.5" stroke="#D1BA68"/>
<path d="M34 149H44.5" stroke="#D1BA68"/>
<path d="M40 143H50.5" stroke="#D1BA68"/>
<path d="M29 139H39.5" stroke="#D1BA68"/>
<path d="M35 134H45.5" stroke="#D1BA68"/>
<path d="M25 130H35.5" stroke="#D1BA68"/>
<path d="M31 124H41.5" stroke="#D1BA68"/>
<path d="M19 120H29.5" stroke="#D1BA68"/>
<path d="M25 115H35.5" stroke="#D1BA68"/>
<path d="M15 111H25.5" stroke="#D1BA68"/>
<path d="M21 105H31.5" stroke="#D1BA68"/>
<path d="M10 101H20.5" stroke="#D1BA68"/>
<path d="M16 96H26.5" stroke="#D1BA68"/>
<path d="M6 92H16.5" stroke="#D1BA68"/>
<path d="M12 86H22.5" stroke="#D1BA68"/>
<path d="M77 157H87.5" stroke="#D1BA68"/>
<path d="M83 152H93.5" stroke="#D1BA68"/>
<path d="M73 148H83.5" stroke="#D1BA68"/>
<path d="M79 142H89.5" stroke="#D1BA68"/>
<path d="M68 138H78.5" stroke="#D1BA68"/>
<path d="M74 133H84.5" stroke="#D1BA68"/>
<path d="M64 129H74.5" stroke="#D1BA68"/>
<path d="M70 123H80.5" stroke="#D1BA68"/>
<path d="M58 119H68.5" stroke="#D1BA68"/>
<path d="M64 114H74.5" stroke="#D1BA68"/>
<path d="M54 110H64.5" stroke="#D1BA68"/>
<path d="M60 104H70.5" stroke="#D1BA68"/>
<path d="M49 100H59.5" stroke="#D1BA68"/>
<path d="M55 95H65.5" stroke="#D1BA68"/>
<path d="M45 91H55.5" stroke="#D1BA68"/>
<path d="M51 85H61.5" stroke="#D1BA68"/>
<path d="M117 156H127.5" stroke="#D1BA68"/>
<path d="M123 151H133.5" stroke="#D1BA68"/>
<path d="M113 147H123.5" stroke="#D1BA68"/>
<path d="M108 137H118.5" stroke="#D1BA68"/>
<path d="M114 132H124.5" stroke="#D1BA68"/>
<path d="M104 128H114.5" stroke="#D1BA68"/>
<path d="M110 122H120.5" stroke="#D1BA68"/>
<path d="M98 118H108.5" stroke="#D1BA68"/>
<path d="M104 113H114.5" stroke="#D1BA68"/>
<path d="M94 109H104.5" stroke="#D1BA68"/>
<path d="M100 103H110.5" stroke="#D1BA68"/>
<path d="M89 99H99.5" stroke="#D1BA68"/>
<path d="M95 94H105.5" stroke="#D1BA68"/>
<path d="M85 90H95.5" stroke="#D1BA68"/>
<path d="M91 84H101.5" stroke="#D1BA68"/>
<path d="M59.2785 80H38.5185L76.708 -4.52995e-06H99.7531L59.2785 80Z" fill="#ECDB85"/>
<path d="M116.706 80H96.7901L134.364 -3.26726e-06H157.037L116.706 80Z" fill="#D1BA68"/>
<path d="M78.188 80H58.2716L95.8452 -3.26726e-06H118.519L78.188 80Z" fill="#D1BA68"/>
<path d="M97.941 80H78.0247L115.598 0H138.272L97.941 80Z" fill="#ECDB85"/>
<path d="M38.6818 80H18.7654L56.339 -3.26726e-06H79.0123L38.6818 80Z" fill="#D1BA68"/>
<path d="M19.9164 80H3.38256e-05L37.5736 -3.26726e-06H60.2469L19.9164 80Z" fill="#ECDB85"/>
<path d="M155.062 74.2564L137.284 68.7179V93.3333L155.062 87.1794V74.2564Z" fill="#BCB970"/>
<path d="M146.173 70.7693V91.2821" stroke="#E9D2B9"/>
<path d="M137.284 81.0256L155.062 80" stroke="#E9D2B9"/>
<path d="M87.037 23.1884L98.7654 22.5641L88.8889 36.9231L78 29.4999L87.037 23.1884Z" fill="#8A7751"/>
<path d="M78 29.5938L92 28L97.7531 39.0945L84.1728 40.2821L78 29.5938Z" fill="#96765F"/>
<path d="M91.8518 28.0342L98.5507 22.5641L102 31.9999L97.6575 38.9743L91.8518 28.0342Z" fill="#AF9654"/>
<path d="M99.5 76H89" stroke="#D1BA68"/>
<path d="M93.5 71H83" stroke="#D1BA68"/>
<path d="M103.5 67H93" stroke="#D1BA68"/>
<path d="M97.5 61H87" stroke="#D1BA68"/>
<path d="M108.5 57H98" stroke="#D1BA68"/>
<path d="M102.5 52H92" stroke="#D1BA68"/>
<path d="M112.5 48H102" stroke="#D1BA68"/>
<path d="M106.5 42H96" stroke="#D1BA68"/>
<path d="M118.5 38H108" stroke="#D1BA68"/>
<path d="M112.5 33H102" stroke="#D1BA68"/>
<path d="M122.5 29H112" stroke="#D1BA68"/>
<path d="M116.5 23H106" stroke="#D1BA68"/>
<path d="M127.5 19H117" stroke="#D1BA68"/>
<path d="M121.5 14H111" stroke="#D1BA68"/>
<path d="M131.5 10H121" stroke="#D1BA68"/>
<path d="M125.5 4H115" stroke="#D1BA68"/>
<path d="M58.5 76H48" stroke="#D1BA68"/>
<path d="M52.5 71H42" stroke="#D1BA68"/>
<path d="M62.5 67H52" stroke="#D1BA68"/>
<path d="M56.5 61H46" stroke="#D1BA68"/>
<path d="M67.5 57H57" stroke="#D1BA68"/>
<path d="M61.5 52H51" stroke="#D1BA68"/>
<path d="M71.5 48H61" stroke="#D1BA68"/>
<path d="M65.5 42H55" stroke="#D1BA68"/>
<path d="M77.5 38H67" stroke="#D1BA68"/>
<path d="M71.5 33H61" stroke="#D1BA68"/>
<path d="M77 29H71" stroke="#D1BA68"/>
<path d="M75.5 23H65" stroke="#D1BA68"/>
<path d="M86.5 19H76" stroke="#D1BA68"/>
<path d="M80.5 14H70" stroke="#D1BA68"/>
<path d="M90.5 10H80" stroke="#D1BA68"/>
<path d="M84.5 4H74" stroke="#D1BA68"/>
<path d="M21.5 76H11" stroke="#D1BA68"/>
<path d="M15.5 71H5" stroke="#D1BA68"/>
<path d="M25.5 67H15" stroke="#D1BA68"/>
<path d="M19.5 61H9" stroke="#D1BA68"/>
<path d="M30.5 57H20" stroke="#D1BA68"/>
<path d="M24.5 52H14" stroke="#D1BA68"/>
<path d="M34.5 48H24" stroke="#D1BA68"/>
<path d="M28.5 42H18" stroke="#D1BA68"/>
<path d="M40.5 38H30" stroke="#D1BA68"/>
<path d="M34.5 33H24" stroke="#D1BA68"/>
<path d="M44.5 29H34" stroke="#D1BA68"/>
<path d="M38.5 23H28" stroke="#D1BA68"/>
<path d="M49.5 19H39" stroke="#D1BA68"/>
<path d="M43.5 14H33" stroke="#D1BA68"/>
<path d="M53.5 10H43" stroke="#D1BA68"/>
<path d="M47.5 4H37" stroke="#D1BA68"/>
<path d="M98.3527 3.0769L160 30.7728V125.403L93.3334 155.897L98.3527 3.0769Z" fill="#E0D19B"/>
<path d="M58.7613 80H38.5185L76.708 160H99.7531L58.7613 80Z" fill="#ECDB85"/>
<path d="M78.188 80H58.2716L95.8452 160H118.519L78.188 80Z" fill="#D1BA68"/>
<path d="M97.941 80H78.0247L115.598 160H138.272L97.941 80Z" fill="#ECDB85"/>
<path d="M38.6818 80H18.7654L56.339 160H79.0123L38.6818 80Z" fill="#D1BA68"/>
<path d="M19.9164 80H3.38256e-05L37.5736 160H60.2469L19.9164 80Z" fill="#ECDB85"/>
<path d="M38 158H48.5" stroke="#D1BA68"/>
<path d="M44 153H54.5" stroke="#D1BA68"/>
<path d="M34 149H44.5" stroke="#D1BA68"/>
<path d="M40 143H50.5" stroke="#D1BA68"/>
<path d="M29 139H39.5" stroke="#D1BA68"/>
<path d="M35 134H45.5" stroke="#D1BA68"/>
<path d="M25 130H35.5" stroke="#D1BA68"/>
<path d="M31 124H41.5" stroke="#D1BA68"/>
<path d="M19 120H29.5" stroke="#D1BA68"/>
<path d="M25 115H35.5" stroke="#D1BA68"/>
<path d="M15 111H25.5" stroke="#D1BA68"/>
<path d="M21 105H31.5" stroke="#D1BA68"/>
<path d="M10 101H20.5" stroke="#D1BA68"/>
<path d="M16 96H26.5" stroke="#D1BA68"/>
<path d="M6 92H16.5" stroke="#D1BA68"/>
<path d="M12 86H22.5" stroke="#D1BA68"/>
<path d="M77 157H87.5" stroke="#D1BA68"/>
<path d="M83 152H93.5" stroke="#D1BA68"/>
<path d="M73 148H83.5" stroke="#D1BA68"/>
<path d="M79 142H89.5" stroke="#D1BA68"/>
<path d="M68 138H78.5" stroke="#D1BA68"/>
<path d="M74 133H84.5" stroke="#D1BA68"/>
<path d="M64 129H74.5" stroke="#D1BA68"/>
<path d="M70 123H80.5" stroke="#D1BA68"/>
<path d="M58 119H68.5" stroke="#D1BA68"/>
<path d="M64 114H74.5" stroke="#D1BA68"/>
<path d="M54 110H64.5" stroke="#D1BA68"/>
<path d="M60 104H70.5" stroke="#D1BA68"/>
<path d="M49 100H59.5" stroke="#D1BA68"/>
<path d="M55 95H65.5" stroke="#D1BA68"/>
<path d="M45 91H55.5" stroke="#D1BA68"/>
<path d="M51 85H61.5" stroke="#D1BA68"/>
<path d="M117 156H127.5" stroke="#D1BA68"/>
<path d="M123 151H133.5" stroke="#D1BA68"/>
<path d="M113 147H123.5" stroke="#D1BA68"/>
<path d="M108 137H118.5" stroke="#D1BA68"/>
<path d="M114 132H124.5" stroke="#D1BA68"/>
<path d="M104 128H114.5" stroke="#D1BA68"/>
<path d="M110 122H120.5" stroke="#D1BA68"/>
<path d="M98 118H108.5" stroke="#D1BA68"/>
<path d="M104 113H114.5" stroke="#D1BA68"/>
<path d="M94 109H104.5" stroke="#D1BA68"/>
<path d="M100 103H110.5" stroke="#D1BA68"/>
<path d="M89 99H99.5" stroke="#D1BA68"/>
<path d="M95 94H105.5" stroke="#D1BA68"/>
<path d="M85 90H95.5" stroke="#D1BA68"/>
<path d="M91 84H101.5" stroke="#D1BA68"/>
<path d="M59.2785 80H38.5185L76.708 -4.52995e-06H99.7531L59.2785 80Z" fill="#ECDB85"/>
<path d="M116.706 80H96.7901L134.364 -3.26726e-06H157.037L116.706 80Z" fill="#D1BA68"/>
<path d="M78.188 80H58.2716L95.8452 -3.26726e-06H118.519L78.188 80Z" fill="#D1BA68"/>
<path d="M97.941 80H78.0247L115.598 0H138.272L97.941 80Z" fill="#ECDB85"/>
<path d="M38.6818 80H18.7654L56.339 -3.26726e-06H79.0123L38.6818 80Z" fill="#D1BA68"/>
<path d="M19.9164 80H3.38256e-05L37.5736 -3.26726e-06H60.2469L19.9164 80Z" fill="#ECDB85"/>
<path d="M155.062 74.2564L137.284 68.7179V93.3333L155.062 87.1794V74.2564Z" fill="#BCB970"/>
<path d="M146.173 70.7693V91.2821" stroke="#E9D2B9"/>
<path d="M137.284 81.0256L155.062 80" stroke="#E9D2B9"/>
<path d="M87.037 23.1884L98.7654 22.5641L88.8889 36.9231L78 29.4999L87.037 23.1884Z" fill="#8A7751"/>
<path d="M78 29.5938L92 28L97.7531 39.0945L84.1728 40.2821L78 29.5938Z" fill="#96765F"/>
<path d="M91.8518 28.0342L98.5507 22.5641L102 31.9999L97.6575 38.9743L91.8518 28.0342Z" fill="#AF9654"/>
<path d="M99.5 76H89" stroke="#D1BA68"/>
<path d="M93.5 71H83" stroke="#D1BA68"/>
<path d="M103.5 67H93" stroke="#D1BA68"/>
<path d="M97.5 61H87" stroke="#D1BA68"/>
<path d="M108.5 57H98" stroke="#D1BA68"/>
<path d="M102.5 52H92" stroke="#D1BA68"/>
<path d="M112.5 48H102" stroke="#D1BA68"/>
<path d="M106.5 42H96" stroke="#D1BA68"/>
<path d="M118.5 38H108" stroke="#D1BA68"/>
<path d="M112.5 33H102" stroke="#D1BA68"/>
<path d="M122.5 29H112" stroke="#D1BA68"/>
<path d="M116.5 23H106" stroke="#D1BA68"/>
<path d="M127.5 19H117" stroke="#D1BA68"/>
<path d="M121.5 14H111" stroke="#D1BA68"/>
<path d="M131.5 10H121" stroke="#D1BA68"/>
<path d="M125.5 4H115" stroke="#D1BA68"/>
<path d="M58.5 76H48" stroke="#D1BA68"/>
<path d="M52.5 71H42" stroke="#D1BA68"/>
<path d="M62.5 67H52" stroke="#D1BA68"/>
<path d="M56.5 61H46" stroke="#D1BA68"/>
<path d="M67.5 57H57" stroke="#D1BA68"/>
<path d="M61.5 52H51" stroke="#D1BA68"/>
<path d="M71.5 48H61" stroke="#D1BA68"/>
<path d="M65.5 42H55" stroke="#D1BA68"/>
<path d="M77.5 38H67" stroke="#D1BA68"/>
<path d="M71.5 33H61" stroke="#D1BA68"/>
<path d="M77 29H71" stroke="#D1BA68"/>
<path d="M75.5 23H65" stroke="#D1BA68"/>
<path d="M86.5 19H76" stroke="#D1BA68"/>
<path d="M80.5 14H70" stroke="#D1BA68"/>
<path d="M90.5 10H80" stroke="#D1BA68"/>
<path d="M84.5 4H74" stroke="#D1BA68"/>
<path d="M21.5 76H11" stroke="#D1BA68"/>
<path d="M15.5 71H5" stroke="#D1BA68"/>
<path d="M25.5 67H15" stroke="#D1BA68"/>
<path d="M19.5 61H9" stroke="#D1BA68"/>
<path d="M30.5 57H20" stroke="#D1BA68"/>
<path d="M24.5 52H14" stroke="#D1BA68"/>
<path d="M34.5 48H24" stroke="#D1BA68"/>
<path d="M28.5 42H18" stroke="#D1BA68"/>
<path d="M40.5 38H30" stroke="#D1BA68"/>
<path d="M34.5 33H24" stroke="#D1BA68"/>
<path d="M44.5 29H34" stroke="#D1BA68"/>
<path d="M38.5 23H28" stroke="#D1BA68"/>
<path d="M49.5 19H39" stroke="#D1BA68"/>
<path d="M43.5 14H33" stroke="#D1BA68"/>
<path d="M53.5 10H43" stroke="#D1BA68"/>
<path d="M47.5 4H37" stroke="#D1BA68"/>
<path d="M98.3527 3.0769L160 30.7728V125.403L93.3334 155.897L98.3527 3.0769Z" fill="#E0D19B"/>
<path d="M58.7613 80H38.5185L76.708 160H99.7531L58.7613 80Z" fill="#ECDB85"/>
<path d="M78.188 80H58.2716L95.8452 160H118.519L78.188 80Z" fill="#D1BA68"/>
<path d="M97.941 80H78.0247L115.598 160H138.272L97.941 80Z" fill="#ECDB85"/>
<path d="M38.6818 80H18.7654L56.339 160H79.0123L38.6818 80Z" fill="#D1BA68"/>
<path d="M19.9164 80H3.38256e-05L37.5736 160H60.2469L19.9164 80Z" fill="#ECDB85"/>
<path d="M38 158H48.5" stroke="#D1BA68"/>
<path d="M44 153H54.5" stroke="#D1BA68"/>
<path d="M34 149H44.5" stroke="#D1BA68"/>
<path d="M40 143H50.5" stroke="#D1BA68"/>
<path d="M29 139H39.5" stroke="#D1BA68"/>
<path d="M35 134H45.5" stroke="#D1BA68"/>
<path d="M25 130H35.5" stroke="#D1BA68"/>
<path d="M31 124H41.5" stroke="#D1BA68"/>
<path d="M19 120H29.5" stroke="#D1BA68"/>
<path d="M25 115H35.5" stroke="#D1BA68"/>
<path d="M15 111H25.5" stroke="#D1BA68"/>
<path d="M21 105H31.5" stroke="#D1BA68"/>
<path d="M10 101H20.5" stroke="#D1BA68"/>
<path d="M16 96H26.5" stroke="#D1BA68"/>
<path d="M6 92H16.5" stroke="#D1BA68"/>
<path d="M12 86H22.5" stroke="#D1BA68"/>
<path d="M77 157H87.5" stroke="#D1BA68"/>
<path d="M83 152H93.5" stroke="#D1BA68"/>
<path d="M73 148H83.5" stroke="#D1BA68"/>
<path d="M79 142H89.5" stroke="#D1BA68"/>
<path d="M68 138H78.5" stroke="#D1BA68"/>
<path d="M74 133H84.5" stroke="#D1BA68"/>
<path d="M64 129H74.5" stroke="#D1BA68"/>
<path d="M70 123H80.5" stroke="#D1BA68"/>
<path d="M58 119H68.5" stroke="#D1BA68"/>
<path d="M64 114H74.5" stroke="#D1BA68"/>
<path d="M54 110H64.5" stroke="#D1BA68"/>
<path d="M60 104H70.5" stroke="#D1BA68"/>
<path d="M49 100H59.5" stroke="#D1BA68"/>
<path d="M55 95H65.5" stroke="#D1BA68"/>
<path d="M45 91H55.5" stroke="#D1BA68"/>
<path d="M51 85H61.5" stroke="#D1BA68"/>
<path d="M117 156H127.5" stroke="#D1BA68"/>
<path d="M123 151H133.5" stroke="#D1BA68"/>
<path d="M113 147H123.5" stroke="#D1BA68"/>
<path d="M119 141H127" stroke="#D1BA68"/>
<path d="M108 137H118.5" stroke="#D1BA68"/>
<path d="M114 132H124.5" stroke="#D1BA68"/>
<path d="M104 128H114.5" stroke="#D1BA68"/>
<path d="M110 122H120.5" stroke="#D1BA68"/>
<path d="M98 118H108.5" stroke="#D1BA68"/>
<path d="M104 113H114.5" stroke="#D1BA68"/>
<path d="M94 109H104.5" stroke="#D1BA68"/>
<path d="M100 103H110.5" stroke="#D1BA68"/>
<path d="M89 99H99.5" stroke="#D1BA68"/>
<path d="M95 94H105.5" stroke="#D1BA68"/>
<path d="M85 90H95.5" stroke="#D1BA68"/>
<path d="M91 84H101.5" stroke="#D1BA68"/>
<path d="M59.2785 80H38.5185L76.708 -4.52995e-06H99.7531L59.2785 80Z" fill="#ECDB85"/>
<path d="M116.706 80H96.7901L134.364 -3.26726e-06H157.037L116.706 80Z" fill="#D1BA68"/>
<path d="M117.174 79.5995H98L134.172 159.599H156L117.174 79.5995Z" fill="#D1BA68"/>
<path d="M78.188 80H58.2716L95.8452 -3.26726e-06H118.519L78.188 80Z" fill="#D1BA68"/>
<path d="M97.941 80H78.0247L115.598 0H138.272L97.941 80Z" fill="#ECDB85"/>
<path d="M38.6818 80H18.7654L56.339 -3.26726e-06H79.0123L38.6818 80Z" fill="#D1BA68"/>
<path d="M19.9164 80H3.38256e-05L37.5736 -3.26726e-06H60.2469L19.9164 80Z" fill="#ECDB85"/>
<path d="M155.062 74.2564L137.284 68.7179V93.3333L155.062 87.1794V74.2564Z" fill="#B5B398"/>
<path d="M146.173 70.7693V91.2821" stroke="#E9D2B9"/>
<path d="M137.284 81.0256L155.062 80" stroke="#E9D2B9"/>
<path d="M87.037 23.1884L98.7654 22.5641L88.8889 36.9231L78 29.4999L87.037 23.1884Z" fill="#8A7751"/>
<path d="M78 29.5938L92 28L97.7531 39.0945L84.1728 40.2821L78 29.5938Z" fill="#96765F"/>
<path d="M91.8518 28.0342L98.5507 22.5641L102 31.9999L97.6575 38.9743L91.8518 28.0342Z" fill="#AF9654"/>
<path d="M99.5 76H89" stroke="#D1BA68"/>
<path d="M93.5 71H83" stroke="#D1BA68"/>
<path d="M103.5 67H93" stroke="#D1BA68"/>
<path d="M97.5 61H87" stroke="#D1BA68"/>
<path d="M108.5 57H98" stroke="#D1BA68"/>
<path d="M102.5 52H92" stroke="#D1BA68"/>
<path d="M112.5 48H102" stroke="#D1BA68"/>
<path d="M106.5 42H96" stroke="#D1BA68"/>
<path d="M118.5 38H108" stroke="#D1BA68"/>
<path d="M112.5 33H102" stroke="#D1BA68"/>
<path d="M122.5 29H112" stroke="#D1BA68"/>
<path d="M116.5 23H106" stroke="#D1BA68"/>
<path d="M127.5 19H117" stroke="#D1BA68"/>
<path d="M121.5 14H111" stroke="#D1BA68"/>
<path d="M131.5 10H121" stroke="#D1BA68"/>
<path d="M125.5 4H115" stroke="#D1BA68"/>
<path d="M58.5 76H48" stroke="#D1BA68"/>
<path d="M52.5 71H42" stroke="#D1BA68"/>
<path d="M62.5 67H52" stroke="#D1BA68"/>
<path d="M56.5 61H46" stroke="#D1BA68"/>
<path d="M67.5 57H57" stroke="#D1BA68"/>
<path d="M61.5 52H51" stroke="#D1BA68"/>
<path d="M71.5 48H61" stroke="#D1BA68"/>
<path d="M65.5 42H55" stroke="#D1BA68"/>
<path d="M77.5 38H67" stroke="#D1BA68"/>
<path d="M71.5 33H61" stroke="#D1BA68"/>
<path d="M77 29H71" stroke="#D1BA68"/>
<path d="M75.5 23H65" stroke="#D1BA68"/>
<path d="M86.5 19H76" stroke="#D1BA68"/>
<path d="M80.5 14H70" stroke="#D1BA68"/>
<path d="M90.5 10H80" stroke="#D1BA68"/>
<path d="M84.5 4H74" stroke="#D1BA68"/>
<path d="M21.5 76H11" stroke="#D1BA68"/>
<path d="M15.5 71H5" stroke="#D1BA68"/>
<path d="M25.5 67H15" stroke="#D1BA68"/>
<path d="M19.5 61H9" stroke="#D1BA68"/>
<path d="M30.5 57H20" stroke="#D1BA68"/>
<path d="M24.5 52H14" stroke="#D1BA68"/>
<path d="M34.5 48H24" stroke="#D1BA68"/>
<path d="M28.5 42H18" stroke="#D1BA68"/>
<path d="M40.5 38H30" stroke="#D1BA68"/>
<path d="M34.5 33H24" stroke="#D1BA68"/>
<path d="M44.5 29H34" stroke="#D1BA68"/>
<path d="M38.5 23H28" stroke="#D1BA68"/>
<path d="M49.5 19H39" stroke="#D1BA68"/>
<path d="M43.5 14H33" stroke="#D1BA68"/>
<path d="M53.5 10H43" stroke="#D1BA68"/>
<path d="M47.5 4H37" stroke="#D1BA68"/>
<path d="M60 159H70.5" stroke="#ECDB85"/>
<path d="M66 154H75" stroke="#ECDB85"/>
<path d="M56 150H66.5" stroke="#ECDB85"/>
<path d="M62 144H71" stroke="#ECDB85"/>
<path d="M41 120H51.5" stroke="#ECDB85"/>
<path d="M47 115H56" stroke="#ECDB85"/>
<path d="M37 111H47.5" stroke="#ECDB85"/>
<path d="M43 105H52" stroke="#ECDB85"/>
<path d="M31 101H41.5" stroke="#ECDB85"/>
<path d="M37 96H46" stroke="#ECDB85"/>
<path d="M27 92H37.5" stroke="#ECDB85"/>
<path d="M33 86H42" stroke="#ECDB85"/>
<path d="M51 140H61.5" stroke="#ECDB85"/>
<path d="M57 135H66" stroke="#ECDB85"/>
<path d="M47 131H57.5" stroke="#ECDB85"/>
<path d="M53 125H62" stroke="#ECDB85"/>
<path d="M117 74.5995H106.5" stroke="#ECDB85"/>
<path d="M111 69.5995H102" stroke="#ECDB85"/>
<path d="M121 65.5995H110.5" stroke="#ECDB85"/>
<path d="M115 59.5995H106" stroke="#ECDB85"/>
<path d="M136 35.5996H125.5" stroke="#ECDB85"/>
<path d="M130 30.5996H121" stroke="#ECDB85"/>
<path d="M140 26.5996H129.5" stroke="#ECDB85"/>
<path d="M134 21H125" stroke="#ECDB85"/>
<path d="M146 16.5995H135.5" stroke="#ECDB85"/>
<path d="M140 12H131" stroke="#ECDB85"/>
<path d="M150 8H139.5" stroke="#ECDB85"/>
<path d="M144 2H135" stroke="#ECDB85"/>
<path d="M126 55.5995H115.5" stroke="#ECDB85"/>
<path d="M120 50.5996H111" stroke="#ECDB85"/>
<path d="M130 46.5996H119.5" stroke="#ECDB85"/>
<path d="M124 40.5996H115" stroke="#ECDB85"/>
<path d="M117 82.5994H106.5" stroke="#ECDB85"/>
<path d="M111 87.5994H102" stroke="#ECDB85"/>
<path d="M121 91.5994H110.5" stroke="#ECDB85"/>
<path d="M115 97.5994H106" stroke="#ECDB85"/>
<path d="M136 121.599H125.5" stroke="#ECDB85"/>
<path d="M130 126.599H121" stroke="#ECDB85"/>
<path d="M140 130.599H129.5" stroke="#ECDB85"/>
<path d="M146 140.6H135.5" stroke="#ECDB85"/>
<path d="M140 145.199H131" stroke="#ECDB85"/>
<path d="M150 149.199H139.5" stroke="#ECDB85"/>
<path d="M144 155.199H135" stroke="#ECDB85"/>
<path d="M126 101.599H115.5" stroke="#ECDB85"/>
<path d="M120 106.599H111" stroke="#ECDB85"/>
<path d="M130 110.599H119.5" stroke="#ECDB85"/>
<path d="M124 116.599H115" stroke="#ECDB85"/>
<path d="M40 76H29.5" stroke="#ECDB85"/>
<path d="M34 71H25" stroke="#ECDB85"/>
<path d="M44 67H33.5" stroke="#ECDB85"/>
<path d="M38 61H29" stroke="#ECDB85"/>
<path d="M59 37H48.5" stroke="#ECDB85"/>
<path d="M53 32H44" stroke="#ECDB85"/>
<path d="M63 28H52.5" stroke="#ECDB85"/>
<path d="M57 22H48" stroke="#ECDB85"/>
<path d="M69 18H58.5" stroke="#ECDB85"/>
<path d="M63 13H54" stroke="#ECDB85"/>
<path d="M73 9H62.5" stroke="#ECDB85"/>
<path d="M67 3H58" stroke="#ECDB85"/>
<path d="M49 57H38.5" stroke="#ECDB85"/>
<path d="M43 52H34" stroke="#ECDB85"/>
<path d="M53 48H42.5" stroke="#ECDB85"/>
<path d="M47 42H38" stroke="#ECDB85"/>
<path d="M78 74H67.5" stroke="#ECDB85"/>
<path d="M72 69H63" stroke="#ECDB85"/>
<path d="M82 65H71.5" stroke="#ECDB85"/>
<path d="M76 59H67" stroke="#ECDB85"/>
<path d="M95 20H86" stroke="#ECDB85"/>
<path d="M107 16H96.5" stroke="#ECDB85"/>
<path d="M101 11H92" stroke="#ECDB85"/>
<path d="M111 7H100.5" stroke="#ECDB85"/>
<path d="M105 1H96" stroke="#ECDB85"/>
<path d="M87 55H76.5" stroke="#ECDB85"/>
<path d="M81 50H72" stroke="#ECDB85"/>
<path d="M91 46H80.5" stroke="#ECDB85"/>
<path d="M85 41H76" stroke="#ECDB85"/>
<path d="M97 157H107.5" stroke="#ECDB85"/>
<path d="M103 152H112" stroke="#ECDB85"/>
<path d="M93 148H103.5" stroke="#ECDB85"/>
<path d="M99 142H108" stroke="#ECDB85"/>
<path d="M78 118H88.5" stroke="#ECDB85"/>
<path d="M84 113H93" stroke="#ECDB85"/>
<path d="M74 109H84.5" stroke="#ECDB85"/>
<path d="M80 103H89" stroke="#ECDB85"/>
<path d="M68 99H78.5" stroke="#ECDB85"/>
<path d="M74 94H83" stroke="#ECDB85"/>
<path d="M64 90H74.5" stroke="#ECDB85"/>
<path d="M70 84H79" stroke="#ECDB85"/>
<path d="M88 138H98.5" stroke="#ECDB85"/>
<path d="M94 133H103" stroke="#ECDB85"/>
<path d="M84 129H94.5" stroke="#ECDB85"/>
<path d="M90 123H99" stroke="#ECDB85"/>
<path d="M57.1015 121.001C58.5235 127.342 54.89 129.971 49.9301 131.084C44.9702 132.196 40.5621 131.37 39.14 125.029C37.718 118.688 42.0874 112.635 42.4265 102.13C48.1815 111.268 55.6795 114.66 57.1015 121.001Z" fill="#FFB522"/>
<path d="M57.1015 121.001C58.5235 127.342 54.89 129.971 49.9301 131.084C44.9702 132.196 40.5621 131.37 39.14 125.029C37.718 118.688 42.0874 112.635 42.4265 102.13C48.1815 111.268 55.6795 114.66 57.1015 121.001Z" fill="#FFB522"/>
<path d="M66.0355 124.957C65.3119 131.73 61.0174 133.137 55.9631 132.597C50.9087 132.057 47.0085 129.774 47.7322 123.002C48.4559 116.229 54.5635 111.663 58.3115 101.337C60.7736 112.327 66.7592 118.184 66.0355 124.957Z" fill="#FFB522"/>
<path d="M74.5544 135.896C72.3198 144.731 67.7163 146.127 62.7884 144.881C57.8604 143.635 54.4742 140.218 56.7088 131.383C58.9434 122.548 66.063 117.188 72.1117 103.997C72.1177 118.719 76.789 127.061 74.5544 135.896Z" fill="#FFB522"/>
<path d="M59.3147 127.001C64.5451 133.984 61.7975 139.011 56.6508 142.866C51.5041 146.721 45.9074 147.944 40.6769 140.961C35.4465 133.978 37.1202 124.421 31.592 111.491C43.4438 119.684 54.0843 120.018 59.3147 127.001Z" fill="#FFB522"/>
<path d="M66.0375 141.388C65.5615 146.801 61.3875 147.919 56.3986 147.48C51.4096 147.042 47.4949 145.212 47.9709 139.799C48.4469 134.387 54.2939 130.747 57.6202 122.498C60.4237 131.286 66.5134 135.976 66.0375 141.388Z" fill="#FFE68E"/>
<path d="M55.3475 130.379C57.9857 134.771 55.7941 137.715 52.2042 139.872C48.6144 142.028 44.9858 142.58 42.3476 138.189C39.7095 133.798 41.6464 128.082 39.3723 120.09C46.0571 125.432 52.7094 125.988 55.3475 130.379Z" fill="#FFE68E"/>
<path d="M59.5982 119.39C58.8892 121.431 57.2176 121.473 55.3939 120.84C53.5701 120.206 52.2848 119.137 52.9938 117.096C53.7029 115.055 56.2478 114.196 58.3016 111.328C58.4886 114.975 60.3072 117.349 59.5982 119.39Z" fill="#FFE68E"/>
<path d="M71.4364 132.73C71.3406 135.58 69.7503 136.304 67.8208 136.239C65.8912 136.174 64.3531 135.345 64.4489 132.495C64.5447 129.644 66.7389 127.544 67.8871 123.114C69.1097 127.624 71.5322 129.879 71.4364 132.73Z" fill="#FFE68E"/>
<path d="M56.1031 118.311C57.931 121.228 57.1026 122.854 55.4665 123.879C53.8304 124.904 52.0063 124.94 50.1783 122.023C48.3504 119.105 48.7566 115.756 46.7405 110.656C50.7668 114.496 54.2751 115.393 56.1031 118.311Z" fill="#FFE68E"/>
<path d="M50.4642 33.2214C51.4947 37.8167 49.0159 39.687 45.6118 40.4504C42.2078 41.2137 39.1677 40.581 38.1372 35.9858C37.1067 31.3906 40.0639 27.0511 40.2111 19.4601C44.2462 26.1132 49.4337 28.6262 50.4642 33.2214Z" fill="#FFB522"/>
<path d="M50.4642 33.2214C51.4947 37.8167 49.0159 39.687 45.6118 40.4504C42.2078 41.2137 39.1677 40.581 38.1372 35.9858C37.1067 31.3906 40.0639 27.0511 40.2111 19.4601C44.2462 26.1132 49.4337 28.6262 50.4642 33.2214Z" fill="#FFB522"/>
<path d="M56.6722 36.1801C56.17 40.8801 53.2212 41.8598 49.7524 41.4891C46.2836 41.1185 43.6083 39.5379 44.1106 34.8379C44.6128 30.1378 48.8087 26.9651 51.3896 19.7967C53.0707 27.4205 57.1744 31.48 56.6722 36.1801Z" fill="#FFB522"/>
<path d="M62.2867 44.6423C60.9298 50.0071 57.8185 50.7748 54.4365 49.9194C51.0544 49.064 48.6823 46.9094 50.0392 41.5446C51.3961 36.1797 56.1477 33.0335 60.0222 25.0748C60.3031 34.0845 63.6436 39.2774 62.2867 44.6423Z" fill="#FFB522"/>
<path d="M52.9586 38.8577C55.8363 42.6998 53.7567 45.8909 50.2245 48.5366C46.6923 51.1822 43.0452 52.2805 40.1674 48.4384C37.2896 44.5963 38.9806 38.7613 36.3014 31.376C43.3205 35.5107 50.0808 35.0156 52.9586 38.8577Z" fill="#FFB522"/>
<path d="M56.6569 47.6296C56.3377 51.26 53.4751 52.0046 50.0511 51.7035C46.6272 51.4024 43.9385 50.1696 44.2578 46.5392C44.577 42.9088 48.5843 40.4745 50.8555 34.9452C52.7911 40.8444 56.9762 43.9992 56.6569 47.6296Z" fill="#FFE68E"/>
<path d="M50.3466 41.6591C51.3582 43.3429 49.6364 45.0014 47.1727 46.4815C44.709 47.9616 42.4363 48.7029 41.4247 47.019C40.4131 45.3352 42.351 42.4255 42.0415 39.0229C45.3781 40.6069 49.335 39.9753 50.3466 41.6591Z" fill="#FFE68E"/>
<path d="M52.2754 32.3438C51.7667 33.8082 50.6135 33.8546 49.3618 33.4198C48.1102 32.985 47.2341 32.2337 47.7428 30.7693C48.2515 29.3048 50.015 28.6674 51.4591 26.599C51.5528 29.2016 52.7841 30.8794 52.2754 32.3438Z" fill="#FFE68E"/>
<path d="M60.3933 40.9402C60.3107 43.3994 59.2146 44.0331 57.8904 43.9886C56.5661 43.9441 55.5151 43.2382 55.5978 40.779C55.6804 38.3198 57.1992 36.4955 58.0137 32.6674C58.8262 36.5501 60.476 38.4809 60.3933 40.9402Z" fill="#FFE68E"/>
<path d="M49.5727 31.2441C51.044 33.5924 50.5344 34.8023 49.4116 35.5057C48.2887 36.2092 46.9778 36.1399 45.5065 33.7915C44.0353 31.4432 44.149 28.881 42.426 24.8397C45.5286 28.0167 48.1015 28.8957 49.5727 31.2441Z" fill="#FFE68E"/>
</svg>
