<svg width="160" height="160" viewBox="0 0 160 160" fill="none" xmlns="http://www.w3.org/2000/svg">
<path d="M82.7722 16.678L66.8975 21.9682L111.094 60.8833L129.166 54.8608L82.7722 16.678Z" fill="#C2AF6A"/>
<path d="M136.117 67.6987L129.825 58.3415L112.631 93.7132L119.793 104.366L136.117 67.6987Z" fill="#C2AF6A"/>
<path d="M136.117 67.6987L129.825 58.3415L112.631 93.7132L119.793 104.366L136.117 67.6987Z" fill="#C2AF6A"/>
<path d="M84.7868 39.0426L78.591 29.8271L55.6216 68.3429L62.675 78.8341L84.7868 39.0426Z" fill="#C2AF6A"/>
<path d="M139.599 86.6422L129.524 81.5274L131.834 120.757L143.303 126.58L139.599 86.6422Z" fill="#C2AF6A"/>
<path d="M23.1921 73.4226L11.9153 72.5793L29.2622 107.877L42.1 108.837L23.1921 73.4226Z" fill="#C2AF6A"/>
<path d="M107.803 109.386L96.7535 115.844L137.374 140.557L149.953 133.205L107.803 109.386Z" fill="#C2AF6A"/>
<path d="M107.803 109.386L96.7535 115.844L137.374 140.557L149.953 133.205L107.803 109.386Z" fill="#C2AF6A"/>
<path d="M52.7472 21.887L41.8147 28.2766L98.3108 83.153L110.757 75.8789L52.7472 21.887Z" fill="#C2AF6A"/>
<path d="M57.24 82.5328L51.9206 88.9211L90.0769 102.218L96.1328 94.9451L57.24 82.5328Z" fill="#C2AF6A"/>
<path d="M73.7665 69.2769L62.9038 75.9928L108.43 107.155L120.796 99.5093L73.7665 69.2769Z" fill="#C9BA87"/>
<path d="M37.0644 131.48L37.1241 145.347L107.98 121.61L107.912 105.824L37.0644 131.48Z" fill="#C9BA87"/>
<path d="M64.45 32.3982L54.916 42.5056L122.749 73.7973L133.603 62.2908L64.45 32.3982Z" fill="#C9BA87"/>
<path d="M87.0044 80.5939L87.0721 96.3353L134.792 68.2717L134.715 50.3512L87.0044 80.5939Z" fill="#C9BA87"/>
<path d="M45.3594 92.8037L33.7124 104.401L98.8093 124.952L112.069 111.749L45.3594 92.8037Z" fill="#927750"/>
<path d="M41.9358 79.4148L41.9358 92.9539L91.9794 67.1134L91.9794 51.7002L41.9358 79.4148Z" fill="#927750"/>
<path d="M72.2863 83.4057L62.9038 92.7484L117.123 111.054L127.804 100.418L72.2863 83.4057Z" fill="#927750"/>
<path d="M46.4055 114.811L47.1335 125.882L86.6642 102.085L85.8355 89.4813L46.4055 114.811Z" fill="#927750"/>
<path d="M14.6522 115.279L20.9017 124.464L42.9231 84.0297L35.8084 73.5735L14.6522 115.279Z" fill="#927750"/>
<path d="M8.46339 125.748L9.19136 136.819L48.7221 113.021L47.8933 100.418L8.46339 125.748Z" fill="#927750"/>
<path d="M23.4404 71.0649L24.1684 82.1356L63.6991 58.3382L62.8704 45.735L23.4404 71.0649Z" fill="#927750"/>
<path d="M107.312 142.65L108.04 153.721L147.571 129.923L146.742 117.32L107.312 142.65Z" fill="#927750"/>
<path d="M62.3811 138.673L63.1091 149.743L102.64 125.946L101.811 113.343L62.3811 138.673Z" fill="#927750"/>
<path d="M62.3811 138.673L63.1091 149.743L102.64 125.946L101.811 113.343L62.3811 138.673Z" fill="#927750"/>
<path d="M62.3811 138.673L63.1091 149.743L102.64 125.946L101.811 113.343L62.3811 138.673Z" fill="#927750"/>
<path d="M71.7901 6.64442L61.548 2.98261L68.2478 45.5677L79.9077 49.7364L71.7901 6.64442Z" fill="#927750"/>
<path d="M107.964 95.3741L117.396 101.28L121.224 55.4408L110.486 48.7174L107.964 95.3741Z" fill="#927750"/>
<path d="M113.175 104.495C114.402 109.941 110.721 112.32 105.769 113.426C100.816 114.532 96.4675 113.945 95.2412 108.5C94.0148 103.054 98.5249 97.6906 99.1664 88.591C104.61 96.3318 111.949 99.0496 113.175 104.495Z" fill="#FFB522"/>
<path d="M113.175 104.495C114.402 109.941 110.721 112.32 105.769 113.426C100.816 114.532 96.4675 113.945 95.2412 108.5C94.0148 103.054 98.5249 97.6906 99.1664 88.591C104.61 96.3318 111.949 99.0496 113.175 104.495Z" fill="#FFB522"/>
<path d="M121.937 106.522C121.145 113.895 116.839 115.468 111.792 114.931C106.746 114.394 102.87 111.95 103.661 104.577C104.452 97.2042 110.603 92.1783 114.453 80.9101C116.803 92.838 122.728 99.1487 121.937 106.522Z" fill="#FFB522"/>
<path d="M129.609 121.15C127.964 127.624 123.527 128.383 118.607 127.144C113.687 125.904 110.146 123.137 111.79 116.662C113.435 110.188 120.097 106.618 125.217 97.1208C126.142 108.141 131.253 114.675 129.609 121.15Z" fill="#FFB522"/>
<path d="M115.702 110.115C120.482 116.47 117.618 121.307 112.479 125.14C107.34 128.973 101.872 130.349 97.0927 123.995C92.3129 117.64 94.3213 108.587 89.4947 96.6532C100.635 103.878 110.922 103.761 115.702 110.115Z" fill="#FFB522"/>
<path d="M121.905 123.058C121.387 128.921 117.208 130.164 112.227 129.728C107.246 129.292 103.348 127.341 103.866 121.478C104.384 115.615 110.255 111.629 113.642 102.673C116.375 112.165 122.423 117.195 121.905 123.058Z" fill="#FFE68E"/>
<path d="M110.699 111.932C113.709 116.922 111.624 120.019 108.039 122.163C104.455 124.307 100.729 124.687 97.719 119.697C94.7088 114.708 96.3562 108.55 93.4964 99.6272C100.76 105.915 107.689 106.943 110.699 111.932Z" fill="#FFE68E"/>
<path d="M115.709 100.975C114.775 103.652 113.045 103.871 111.224 103.241C109.403 102.611 108.181 101.371 109.115 98.6942C110.049 96.017 112.762 94.6702 115.167 90.8037C115 95.4442 116.643 98.2981 115.709 100.975Z" fill="#FFE68E"/>
<path d="M127.26 114.529C127.15 117.782 125.558 118.616 123.632 118.552C121.705 118.487 120.173 117.549 120.283 114.295C120.393 111.042 122.595 108.634 123.763 103.573C124.962 108.713 127.37 111.275 127.26 114.529Z" fill="#FFE68E"/>
<path d="M112.398 101.468C113.857 103.786 112.93 105.244 111.296 106.263C109.663 107.282 107.941 107.477 106.482 105.158C105.024 102.84 105.708 99.9531 104.269 95.7951C107.716 98.701 110.939 99.149 112.398 101.468Z" fill="#FFE68E"/>
<path d="M55.1984 90.8632C56.0217 94.519 53.4906 96.1299 50.0918 96.8888C46.693 97.6478 43.7135 97.2674 42.8902 93.6117C42.0669 89.956 45.1762 86.337 45.6452 80.2196C49.3522 85.4045 54.3751 87.2075 55.1984 90.8632Z" fill="#FFB522"/>
<path d="M55.1984 90.8632C56.0217 94.519 53.4906 96.1299 50.0918 96.8888C46.693 97.6478 43.7135 97.2674 42.8902 93.6117C42.0669 89.956 45.1762 86.337 45.6452 80.2196C49.3522 85.4045 54.3751 87.2075 55.1984 90.8632Z" fill="#FFB522"/>
<path d="M61.2483 91.591C60.6582 97.0907 57.6897 98.2898 54.2262 97.9213C50.7627 97.5528 48.1157 95.7562 48.7058 90.2566C49.296 84.7569 53.5531 80.9728 56.269 72.5511C57.8085 81.4256 61.8385 86.0914 61.2483 91.591Z" fill="#FFB522"/>
<path d="M66.737 101.074C65.3857 106.394 62.2801 107.154 58.9032 106.303C55.5263 105.453 53.1569 103.315 54.5082 97.9944C55.8595 92.6742 60.6012 89.5567 64.4643 81.6655C64.7502 90.6016 68.0883 95.7541 66.737 101.074Z" fill="#FFB522"/>
<path d="M56.3512 93.8607C60.0824 98.8157 58.2385 102.296 54.7103 104.925C51.1822 107.553 47.3059 108.335 43.5747 103.38C39.8435 98.4246 40.88 91.7606 36.8623 82.6414C45.2149 88.531 52.6201 88.9057 56.3512 93.8607Z" fill="#FFB522"/>
<path d="M61.0673 104.623C60.7899 107.764 57.943 108.377 54.5243 108.077C51.1055 107.778 48.4097 106.68 48.6871 103.539C48.9644 100.398 52.934 98.3349 55.137 93.5714C57.1344 98.7027 61.3447 101.482 61.0673 104.623Z" fill="#FFE68E"/>
<path d="M54.2042 97.0709C55.6977 99.5464 54.1103 101.413 51.6504 102.885C49.1904 104.357 46.7895 104.875 45.296 102.4C43.8025 99.9245 45.3691 96.4211 44.3029 91.7833C48.3916 94.6131 52.7107 94.5954 54.2042 97.0709Z" fill="#FFE68E"/>
<path d="M56.626 89.1699C56.2115 90.358 55.0855 90.3312 53.8358 89.8989C52.586 89.4666 51.6858 88.7925 52.1003 87.6044C52.5148 86.4163 54.2044 85.9865 55.5 84.3496C55.7399 86.5177 57.0405 87.9818 56.626 89.1699Z" fill="#FFE68E"/>
<path d="M64.7986 98.9274C64.7572 100.153 63.674 100.451 62.3518 100.407C61.0296 100.362 59.9689 99.9927 60.0103 98.7671C60.0517 97.5416 61.5367 96.6567 62.2856 94.7604C63.1613 96.711 64.8399 97.7018 64.7986 98.9274Z" fill="#FFE68E"/>
<path d="M54.8016 88.9357C55.6772 90.3273 55.0068 91.2733 53.8856 91.9727C52.7645 92.6721 51.6172 92.8601 50.7416 91.4685C49.8661 90.0769 50.4317 88.2481 49.6406 85.7071C51.8092 87.3887 53.9261 87.5442 54.8016 88.9357Z" fill="#FFE68E"/>
<path d="M102.671 33.8597C100.755 40.9624 96.398 41.871 91.6669 40.6057C86.9358 39.3403 83.6223 36.3801 85.5381 29.2774C87.454 22.1748 94.1144 18.1555 99.5622 7.68749C99.9273 19.7102 104.587 26.757 102.671 33.8597Z" fill="#FFB522"/>
<path d="M102.671 33.8597C100.755 40.9624 96.398 41.871 91.6669 40.6057C86.9358 39.3403 83.6223 36.3801 85.5381 29.2774C87.454 22.1748 94.1144 18.1555 99.5622 7.68749C99.9273 19.7102 104.587 26.757 102.671 33.8597Z" fill="#FFB522"/>
<path d="M108.38 42.2417C104.554 47.939 100.211 47.2924 96.1385 44.5807C92.0664 41.869 89.8075 38.1191 93.6338 32.4218C97.4602 26.7245 104.851 25.3658 112.95 17.8468C109.855 28.6975 112.207 36.5444 108.38 42.2417Z" fill="#FFB522"/>
<path d="M107.889 58.6039C104.103 62.8114 100.114 61.3181 96.4657 58.0624C92.8176 54.8068 90.8917 51.0216 94.6787 46.8141C98.4657 42.6066 105.361 42.9807 113.178 38.0762C109.843 46.9808 111.676 54.3964 107.889 58.6039Z" fill="#FFB522"/>
<path d="M101.543 41.5559C102.851 49.6354 98.2474 52.6322 92.1293 53.6145C86.0112 54.5968 80.6952 53.1926 79.3869 45.1131C78.0786 37.0337 83.8079 29.7995 84.9242 16.639C91.325 28.5926 100.234 33.4765 101.543 41.5559Z" fill="#FFB522"/>
<path d="M100.661 56.7612C97.943 60.9768 93.9101 60.0201 89.8485 57.4236C85.7868 54.8272 83.2344 51.5742 85.9523 47.3586C88.6702 43.1431 95.2055 42.7863 101.563 37.528C100.196 45.9764 103.379 52.5456 100.661 56.7612Z" fill="#FFE68E"/>
<path d="M96.5155 40.8723C96.8726 46.9976 93.7035 48.8546 89.6743 49.0875C85.6451 49.3204 82.2816 47.8409 81.9245 41.7156C81.5675 35.5903 85.725 30.6686 87.2503 20.9561C90.6755 30.3825 96.1585 34.7471 96.5155 40.8723Z" fill="#FFE68E"/>
<path d="M106.18 34.0161C103.854 36.1893 102.188 35.6858 100.915 34.3345C99.6423 32.9833 99.244 31.2959 101.571 29.1227C103.897 26.9494 107.069 26.7795 111.371 24.0753C108.633 28.4398 108.507 31.8428 106.18 34.0161Z" fill="#FFE68E"/>
<path d="M109.273 51.6115C107.925 53.9745 106.247 53.8762 104.629 52.9611C103.011 52.046 102.067 50.6605 103.415 48.2975C104.763 45.9345 107.568 45.1406 110.516 41.9136C109.556 46.265 110.622 49.2485 109.273 51.6115Z" fill="#FFE68E"/>
<path d="M102.669 32.7092C102.91 35.8405 101.472 36.8084 99.617 36.9503C97.7618 37.0922 96.1921 36.3544 95.9505 33.2231C95.7089 30.0918 97.5644 27.5506 98.1458 22.5736C99.8437 27.3762 102.427 29.5779 102.669 32.7092Z" fill="#FFE68E"/>
<path d="M71.2276 117.383C71.9562 120.619 69.8417 122.016 66.9886 122.653C64.1354 123.291 61.624 122.926 60.8954 119.691C60.1667 116.455 62.7483 113.29 63.0833 107.894C66.2539 112.508 70.499 114.148 71.2276 117.383Z" fill="#FFB522"/>
<path d="M71.2276 117.383C71.9562 120.619 69.8417 122.016 66.9886 122.653C64.1354 123.291 61.624 122.926 60.8954 119.691C60.1667 116.455 62.7483 113.29 63.0833 107.894C66.2539 112.508 70.499 114.148 71.2276 117.383Z" fill="#FFB522"/>
<path d="M76.3145 118.572C75.8499 122.901 73.3664 123.83 70.459 123.52C67.5515 123.211 65.321 121.781 65.7856 117.452C66.2502 113.122 69.8003 110.165 72.0319 103.545C73.3726 110.545 76.7791 114.243 76.3145 118.572Z" fill="#FFB522"/>
<path d="M80.8515 126.599C79.8034 130.725 77.2199 131.271 74.3851 130.557C71.5503 129.843 69.5378 128.14 70.5859 124.014C71.6341 119.887 75.5488 117.529 78.6567 111.436C79.0318 118.406 81.8997 122.472 80.8515 126.599Z" fill="#FFB522"/>
<path d="M55.5858 56.0399C54.4955 60.3326 51.9005 60.9229 49.0657 60.209C46.2309 59.4951 44.2299 57.7472 45.3202 53.4545C46.4106 49.1618 50.3575 46.6768 53.5315 40.3239C53.8404 47.554 56.6762 51.7472 55.5858 56.0399Z" fill="#FFB522"/>
<path d="M72.7113 120.746C75.4651 124.407 73.815 127.194 70.8544 129.402C67.8938 131.61 64.7438 132.403 61.9901 128.742C59.2363 125.082 60.3934 119.866 57.6127 112.99C64.031 117.153 69.9576 117.085 72.7113 120.746Z" fill="#FFB522"/>
<path d="M76.2914 128.133C75.9882 131.566 73.5792 132.297 70.7093 132.046C67.8395 131.794 65.5956 130.656 65.8987 127.223C66.2018 123.791 69.5877 121.452 71.5471 116.207C73.1138 121.761 76.5945 124.701 76.2914 128.133Z" fill="#FFE68E"/>
<path d="M69.839 121.81C71.5653 124.671 70.3615 126.452 68.2964 127.687C66.2314 128.922 64.0872 129.145 62.3609 126.283C60.6345 123.422 61.5896 119.884 59.9545 114.764C64.1269 118.366 68.1126 118.948 69.839 121.81Z" fill="#FFE68E"/>
<path d="M51.8561 54.7477C53.1733 56.9309 51.858 58.5269 49.793 59.7622C47.728 60.9976 45.6952 61.4044 44.378 59.2212C43.0609 57.038 44.3277 54.017 43.3333 49.9591C46.8649 52.4992 50.539 52.5645 51.8561 54.7477Z" fill="#FFE68E"/>
<path d="M144.566 136.117C143.384 140.768 140.765 141.456 137.93 140.742C135.095 140.028 133.119 138.183 134.3 133.532C135.482 128.88 139.498 126.122 142.814 119.208C142.981 127 145.747 131.466 144.566 136.117Z" fill="#FFB522"/>
<path d="M140.17 134.368C141.92 137.269 140.722 139.06 138.657 140.295C136.592 141.531 134.442 141.742 132.692 138.841C130.942 135.941 131.879 132.373 130.206 127.192C134.416 130.855 138.42 131.467 140.17 134.368Z" fill="#FFE68E"/>
<path d="M72.7111 115.494C72.1767 117.026 71.1807 117.149 70.1316 116.786C69.0825 116.423 68.3776 115.712 68.912 114.18C69.4463 112.648 71.0067 111.88 72.3862 109.669C72.2957 112.326 73.2455 113.962 72.7111 115.494Z" fill="#FFE68E"/>
<path d="M79.3471 123.981C79.3022 125.311 78.3902 125.644 77.2802 125.607C76.1703 125.569 75.2827 125.177 75.3276 123.846C75.3725 122.516 76.6269 121.543 77.2715 119.479C77.9907 121.589 79.3921 122.65 79.3471 123.981Z" fill="#FFE68E"/>
<path d="M70.6422 115.5C71.6129 117.043 71.1144 117.939 70.1732 118.526C69.2321 119.114 68.2047 119.169 67.234 117.626C66.2632 116.083 66.5584 114.263 65.5251 111.543C67.7147 113.541 69.6714 113.957 70.6422 115.5Z" fill="#FFE68E"/>
</svg>
