<svg width="161" height="161" viewBox="0 0 161 161" fill="none" xmlns="http://www.w3.org/2000/svg">
<path d="M100.534 4.0769L160 31.2333V124.02L95.2161 158.949L100.534 4.0769Z" fill="#BD8F58"/>
<path d="M59.3842 81H39.2659L77.2205 161H100.124L59.3842 81Z" fill="#B18D57"/>
<path d="M12.4139 113.922L8.45489e-05 122.583L42.0347 135.376L56.1669 125.516L12.4139 113.922Z" fill="#C2AF6A"/>
<path d="M78.6914 81H58.8976L96.2401 161H118.774L78.6914 81Z" fill="#C2AF6A"/>
<path d="M113.301 126.882L107.974 133.308L146.189 146.681L152.254 139.367L113.301 126.882Z" fill="#C2AF6A"/>
<path d="M98.323 81H78.5292L115.872 161H138.406L98.323 81Z" fill="#B18D57"/>
<path d="M39.4283 81H19.6344L56.9769 161H79.5107L39.4283 81Z" fill="#C2AF6A"/>
<path d="M20.7784 81H0.984548L38.327 161H60.8608L20.7784 81Z" fill="#B18D57"/>
<path d="M59.8982 81H39.2659L77.2205 0.999995H100.124L59.8982 81Z" fill="#B18D57"/>
<path d="M116.973 81H97.1791L134.522 0.999997H157.055L116.973 81Z" fill="#C2AF6A"/>
<path d="M78.6914 81H58.8976L96.2401 0.999997H118.774L78.6914 81Z" fill="#C2AF6A"/>
<path d="M98.323 81H78.5292L115.872 0.999997H138.406L98.323 81Z" fill="#B18D57"/>
<path d="M39.4283 81H19.6344L56.9769 0.999997H79.5107L39.4283 81Z" fill="#C2AF6A"/>
<path d="M20.7784 81H0.984548L38.327 0.999997H60.8608L20.7784 81Z" fill="#B18D57"/>
<path d="M155.092 75.2562L137.424 69.7178V94.3332L155.092 88.1793V75.2562Z" fill="#686754"/>
<path d="M146.258 71.7693V92.2821" stroke="#A78C6D"/>
<path d="M137.424 82.0256L155.092 81" stroke="#A78C6D"/>
<path d="M110.018 103.909L99.1389 110.664L144.735 142.007L157.12 134.317L110.018 103.909Z" fill="#C9BA87"/>
<path d="M8.34773 138.271L9.07681 149.406L48.668 125.471L47.8379 112.795L8.34773 138.271Z" fill="#927750"/>
<path d="M59.3352 115.98C60.8049 122.534 57.1844 125.221 52.2245 126.333C47.2646 127.445 42.8435 126.562 41.3737 120.008C39.9039 113.453 44.2369 107.238 44.5012 96.3991C50.331 105.872 57.8654 109.426 59.3352 115.98Z" fill="#ECCB8A"/>
<path d="M59.3352 115.98C60.8049 122.534 57.1844 125.221 52.2245 126.333C47.2646 127.445 42.8435 126.562 41.3737 120.008C39.9039 113.453 44.2369 107.238 44.5012 96.3991C50.331 105.872 57.8654 109.426 59.3352 115.98Z" fill="#ECCB8A"/>
<path d="M68.3172 120.326C67.6036 127.005 63.3119 128.386 58.2575 127.846C53.2032 127.306 49.3002 125.049 50.0139 118.37C50.7275 111.691 56.8275 107.198 60.5598 97.0179C63.0376 107.861 69.0309 113.647 68.3172 120.326Z" fill="#ECCB8A"/>
<path d="M76.1011 134.101C74.4541 140.613 70.0107 141.377 65.0828 140.13C60.1548 138.884 56.6085 136.1 58.2555 129.588C59.9026 123.076 66.5746 119.486 71.7031 109.933C72.6293 121.017 77.7482 127.59 76.1011 134.101Z" fill="#ECCB8A"/>
<path d="M62.1732 123.003C66.9603 129.395 64.0919 134.26 58.9452 138.115C53.7986 141.97 48.3226 143.354 43.5355 136.963C38.7484 130.572 40.7598 121.466 35.9259 109.463C47.0834 116.729 57.3861 116.612 62.1732 123.003Z" fill="#ECCB8A"/>
<path d="M68.308 136.908C67.8507 142.108 63.6818 143.168 58.6928 142.73C53.7039 142.291 49.7841 140.519 50.2414 135.319C50.6987 130.119 56.5315 126.64 59.8286 118.724C62.6613 127.179 68.7653 131.707 68.308 136.908Z" fill="#FFE68E"/>
<path d="M57.5782 125.522C60.2665 129.997 58.0885 132.964 54.4987 135.121C50.9088 137.277 47.2666 137.807 44.5783 133.332C41.89 128.857 43.7887 123.078 41.4361 114.955C48.1994 120.428 54.8899 121.048 57.5782 125.522Z" fill="#FFE68E"/>
<path d="M61.9952 114.344C61.2055 116.617 59.512 116.722 57.6882 116.089C55.8645 115.455 54.6011 114.323 55.3909 112.049C56.1806 109.776 58.787 108.741 60.9672 105.509C61.0278 109.519 62.7849 112.07 61.9952 114.344Z" fill="#FFE68E"/>
<path d="M73.7301 128.005C73.635 130.835 72.0448 131.553 70.1153 131.488C68.1857 131.423 66.6474 130.6 66.7425 127.77C66.8377 124.939 69.0313 122.855 70.1785 118.456C71.4021 122.934 73.8252 125.174 73.7301 128.005Z" fill="#FFE68E"/>
<path d="M59.0976 114.677C60.3753 116.717 59.397 118.103 57.7609 119.128C56.1248 120.153 54.4505 120.429 53.1729 118.389C51.8952 116.35 52.7205 113.67 51.5661 109.946C54.7307 112.41 57.82 112.638 59.0976 114.677Z" fill="#FFE68E"/>
<path d="M59.3352 115.98C60.8049 122.534 57.1844 125.221 52.2245 126.333C47.2646 127.445 42.8435 126.562 41.3737 120.008C39.9039 113.453 44.2369 107.238 44.5012 96.3991C50.331 105.872 57.8654 109.426 59.3352 115.98Z" fill="#ECCB8A"/>
<path d="M59.3352 115.98C60.8049 122.534 57.1844 125.221 52.2245 126.333C47.2646 127.445 42.8435 126.562 41.3737 120.008C39.9039 113.453 44.2369 107.238 44.5012 96.3991C50.331 105.872 57.8654 109.426 59.3352 115.98Z" fill="#ECCB8A"/>
<path d="M68.3172 120.326C67.6036 127.005 63.3119 128.386 58.2575 127.846C53.2032 127.306 49.3002 125.049 50.0139 118.37C50.7275 111.691 56.8275 107.198 60.5598 97.0179C63.0376 107.861 69.0309 113.647 68.3172 120.326Z" fill="#ECCB8A"/>
<path d="M76.1011 134.101C74.4541 140.613 70.0107 141.377 65.0828 140.13C60.1548 138.884 56.6085 136.1 58.2555 129.588C59.9026 123.076 66.5746 119.486 71.7031 109.933C72.6293 121.017 77.7482 127.59 76.1011 134.101Z" fill="#ECCB8A"/>
<path d="M62.1732 123.003C66.9603 129.395 64.0919 134.26 58.9452 138.115C53.7986 141.97 48.3226 143.354 43.5355 136.963C38.7484 130.572 40.7598 121.466 35.9259 109.463C47.0834 116.729 57.3861 116.612 62.1732 123.003Z" fill="#ECCB8A"/>
<path d="M68.308 136.908C67.8507 142.108 63.6818 143.168 58.6928 142.73C53.7039 142.291 49.7841 140.519 50.2414 135.319C50.6987 130.119 56.5315 126.64 59.8286 118.724C62.6613 127.179 68.7653 131.707 68.308 136.908Z" fill="#FFE68E"/>
<path d="M57.5782 125.522C60.2665 129.997 58.0885 132.964 54.4987 135.121C50.9088 137.277 47.2666 137.807 44.5783 133.332C41.89 128.857 43.7887 123.078 41.4361 114.955C48.1994 120.428 54.8899 121.048 57.5782 125.522Z" fill="#FFE68E"/>
<path d="M61.9952 114.344C61.2055 116.617 59.512 116.722 57.6882 116.089C55.8645 115.455 54.6011 114.323 55.3909 112.049C56.1806 109.776 58.787 108.741 60.9672 105.509C61.0278 109.519 62.7849 112.07 61.9952 114.344Z" fill="#FFE68E"/>
<path d="M73.7301 128.005C73.635 130.835 72.0448 131.553 70.1153 131.488C68.1857 131.423 66.6474 130.6 66.7425 127.77C66.8377 124.939 69.0313 122.855 70.1785 118.456C71.4021 122.934 73.8252 125.174 73.7301 128.005Z" fill="#FFE68E"/>
<path d="M59.0976 114.677C60.3753 116.717 59.397 118.103 57.7609 119.128C56.1248 120.153 54.4505 120.429 53.1729 118.389C51.8952 116.35 52.7205 113.67 51.5661 109.946C54.7307 112.41 57.82 112.638 59.0976 114.677Z" fill="#FFE68E"/>
<path d="M132.048 18.3453C133.057 22.8434 130.572 24.6873 127.168 25.4507C123.764 26.2141 120.73 25.6078 119.721 21.1096C118.713 16.6115 121.687 12.3459 121.868 4.90702C125.869 11.408 131.04 13.8471 132.048 18.3453Z" fill="#ECCB8A"/>
<path d="M132.048 18.3453C133.057 22.8434 130.572 24.6873 127.168 25.4507C123.764 26.2141 120.73 25.6078 119.721 21.1096C118.713 16.6115 121.687 12.3459 121.868 4.90702C125.869 11.408 131.04 13.8471 132.048 18.3453Z" fill="#ECCB8A"/>
<path d="M138.213 21.3281C137.723 25.9119 134.778 26.8598 131.309 26.4892C127.84 26.1185 125.162 24.5697 125.651 19.9859C126.141 15.4021 130.328 12.318 132.889 5.33163C134.59 12.7734 138.703 16.7443 138.213 21.3281Z" fill="#ECCB8A"/>
<path d="M143.555 30.7824C142.425 35.2515 139.375 35.7753 135.993 34.9199C132.611 34.0645 130.177 32.1539 131.308 27.6847C132.438 23.2156 137.017 20.7517 140.537 14.1956C141.172 21.8027 144.685 26.3133 143.555 30.7824Z" fill="#ECCB8A"/>
<path d="M133.996 23.1656C137.282 27.5519 135.313 30.8912 131.781 33.5369C128.249 36.1825 124.49 37.1326 121.205 32.7463C117.92 28.3599 119.3 22.1103 115.983 13.8728C123.64 18.8598 130.711 18.7792 133.996 23.1656Z" fill="#ECCB8A"/>
<path d="M138.207 32.7081C137.893 36.277 135.032 37.0049 131.608 36.7038C128.184 36.4027 125.494 35.1866 125.807 31.6177C126.121 28.0489 130.124 25.6614 132.387 20.2285C134.331 26.0314 138.52 29.1393 138.207 32.7081Z" fill="#FFE68E"/>
<path d="M130.843 24.8942C132.688 27.9653 131.193 30.0015 128.729 31.4816C126.265 32.9618 123.766 33.3252 121.921 30.2542C120.076 27.1831 121.379 23.2167 119.764 17.6418C124.406 21.3982 128.998 21.8232 130.843 24.8942Z" fill="#FFE68E"/>
<path d="M133.874 17.2224C133.332 18.7826 132.17 18.855 130.918 18.4202C129.667 17.9854 128.799 17.208 129.341 15.6479C129.883 14.0877 131.672 13.3772 133.168 11.159C133.21 13.9115 134.416 15.6622 133.874 17.2224Z" fill="#FFE68E"/>
<path d="M141.928 26.598C141.863 28.5404 140.771 29.0334 139.447 28.9889C138.123 28.9444 137.067 28.3792 137.132 26.4368C137.198 24.4943 138.703 23.0637 139.49 20.0449C140.33 23.1183 141.993 24.6555 141.928 26.598Z" fill="#FFE68E"/>
<path d="M131.886 17.4514C132.762 18.8511 132.091 19.8026 130.968 20.506C129.845 21.2095 128.696 21.3985 127.819 19.9989C126.942 18.5993 127.509 16.7598 126.717 14.204C128.889 15.8955 131.009 16.0518 131.886 17.4514Z" fill="#FFE68E"/>
<path d="M49.1878 41.687C50.0346 45.463 47.9488 47.0109 45.0912 47.6517C42.2337 48.2926 39.6866 47.7836 38.8398 44.0076C37.993 40.2316 40.4894 36.6508 40.6416 30.4062C44.0003 35.8635 48.341 37.911 49.1878 41.687Z" fill="#ECCB8A"/>
<path d="M49.1878 41.687C50.0346 45.463 47.9488 47.0109 45.0912 47.6517C42.2337 48.2926 39.6866 47.7836 38.8398 44.0076C37.993 40.2316 40.4894 36.6508 40.6416 30.4062C44.0003 35.8635 48.341 37.911 49.1878 41.687Z" fill="#ECCB8A"/>
<path d="M54.3628 44.1909C53.9517 48.0388 51.4791 48.8346 48.5672 48.5234C45.6553 48.2123 43.4067 46.9121 43.8178 43.0642C44.229 39.2163 47.7433 36.6273 49.8936 30.7625C51.3211 37.0096 54.774 40.343 54.3628 44.1909Z" fill="#ECCB8A"/>
<path d="M58.8471 52.1275C57.8982 55.8792 55.3382 56.3188 52.4991 55.6008C49.66 54.8827 47.6169 53.2788 48.5658 49.5271C49.5147 45.7755 53.3586 43.7071 56.3132 38.2036C56.8468 44.5894 59.7959 48.3759 58.8471 52.1275Z" fill="#ECCB8A"/>
<path d="M50.8228 45.7334C53.5807 49.4155 51.9282 52.2188 48.963 54.4397C45.9979 56.6606 42.8431 57.4581 40.0851 53.776C37.3272 50.0939 38.486 44.8476 35.7011 37.9325C42.1291 42.1188 48.0648 42.0512 50.8228 45.7334Z" fill="#ECCB8A"/>
<path d="M54.3573 53.7442C54.0938 56.7401 51.692 57.3511 48.8178 57.0983C45.9435 56.8456 43.6852 55.8247 43.9487 52.8288C44.2122 49.8329 47.5726 47.8288 49.4721 43.268C51.1041 48.1393 54.6208 50.7483 54.3573 53.7442Z" fill="#FFE68E"/>
<path d="M48.1756 47.1846C49.7244 49.7626 48.4696 51.472 46.4014 52.7145C44.3332 53.957 42.2348 54.2621 40.6861 51.6841C39.1373 49.1061 40.2312 45.7764 38.8758 41.0965C42.7723 44.2498 46.6268 44.6066 48.1756 47.1846Z" fill="#FFE68E"/>
<path d="M50.7203 40.7445C50.2654 42.0542 49.2897 42.1151 48.239 41.7501C47.1883 41.3851 46.4605 40.7325 46.9154 39.4228C47.3704 38.1131 48.872 37.5167 50.1281 35.6545C50.163 37.9651 51.1753 39.4348 50.7203 40.7445Z" fill="#FFE68E"/>
<path d="M57.4813 48.6149C57.4265 50.2456 56.5103 50.6594 55.3987 50.622C54.287 50.5846 53.4008 50.1103 53.4556 48.4796C53.5104 46.849 54.7742 45.648 55.4351 43.1139C56.1401 45.6939 57.5361 46.9843 57.4813 48.6149Z" fill="#FFE68E"/>
<path d="M49.0509 40.9367C49.787 42.1116 49.2234 42.9103 48.2808 43.5008C47.3382 44.0914 46.3736 44.2501 45.6375 43.0751C44.9014 41.9002 45.3769 40.356 44.7118 38.2106C46.535 39.6305 48.3148 39.7617 49.0509 40.9367Z" fill="#FFE68E"/>
<path d="M148.061 120.968C146.961 123.646 145.019 123.7 142.993 122.868C140.967 122.036 139.624 120.632 140.724 117.954C141.823 115.277 144.888 114.153 147.659 110.391C147.378 115.175 149.16 118.291 148.061 120.968Z" fill="#ECCB8A"/>
<path d="M148.061 120.968C146.961 123.646 145.019 123.7 142.993 122.868C140.967 122.036 139.624 120.632 140.724 117.954C141.823 115.277 144.888 114.153 147.659 110.391C147.378 115.175 149.16 118.291 148.061 120.968Z" fill="#ECCB8A"/>
<path d="M150.159 124.722C148.257 126.904 146.401 126.332 144.749 124.892C143.098 123.453 142.277 121.693 144.179 119.51C146.08 117.328 149.344 117.248 153.177 114.575C151.373 119.016 152.061 122.54 150.159 124.722Z" fill="#ECCB8A"/>
<path d="M149.505 131.508C147.315 133.401 145.558 132.573 144.125 130.916C142.693 129.259 142.129 127.4 144.319 125.507C146.508 123.614 149.751 123.995 153.921 121.888C151.511 126.031 151.695 129.616 149.505 131.508Z" fill="#ECCB8A"/>
<path d="M147.328 124.15C147.44 127.589 145.225 128.598 142.456 128.688C139.686 128.778 137.411 127.915 137.299 124.476C137.187 121.036 140.147 118.318 141.404 112.886C143.549 118.207 147.216 120.71 147.328 124.15Z" fill="#ECCB8A"/>
<path d="M146.06 130.574C144.614 132.298 142.88 131.643 141.227 130.255C139.574 128.868 138.627 127.275 140.073 125.551C141.519 123.828 144.438 124.04 147.557 122.059C146.469 125.745 147.506 128.851 146.06 130.574Z" fill="#FFE68E"/>
<path d="M145.084 123.904C144.928 126.148 143.426 126.658 141.626 126.533C139.825 126.408 138.408 125.695 138.564 123.451C138.72 121.207 140.818 119.635 141.994 116.186C143.03 119.789 145.24 121.66 145.084 123.904Z" fill="#FFE68E"/>
<path d="M149.404 121.048C148.564 121.655 147.94 121.274 147.452 120.6C146.965 119.926 146.799 119.214 147.639 118.606C148.479 117.999 149.655 118.277 151.223 117.674C150.254 119.105 150.245 120.44 149.404 121.048Z" fill="#FFE68E"/>
<path d="M150.174 128.77C149.441 129.746 148.702 129.607 148.037 129.107C147.372 128.608 147.032 127.937 147.765 126.961C148.497 125.985 149.787 125.791 151.278 124.521C150.604 126.405 150.907 127.794 150.174 128.77Z" fill="#FFE68E"/>
<path d="M148.299 120.45C148.246 121.486 147.558 121.733 146.727 121.691C145.896 121.649 145.237 121.333 145.29 120.297C145.342 119.262 146.296 118.519 146.808 116.919C147.317 118.571 148.351 119.414 148.299 120.45Z" fill="#FFE68E"/>
<path d="M88.037 23.6243L99.7654 23L89.8889 37.359L79 29.9358L88.037 23.6243Z" fill="#8A7751"/>
<path d="M79 30.0296L93 28.4358L98.7531 39.5303L85.1728 40.7178L79 30.0296Z" fill="#633B1D"/>
<path d="M92.8518 28.4701L99.5507 23L103 32.4358L98.6575 39.4103L92.8518 28.4701Z" fill="#7A4C3D"/>
</svg>
