<svg width="160" height="161" viewBox="0 0 160 161" fill="none" xmlns="http://www.w3.org/2000/svg">
<path d="M11.8218 119.426L2.85672 125.68L34.9606 137.653L45.1667 130.533L11.8218 119.426Z" fill="#D1BA68"/>
<path d="M116.119 129.045L112.171 133.807L147.45 150.016L151.945 144.594L116.119 129.045Z" fill="#D1BA68"/>
<path d="M98.3525 3.47803L160 31.1739V125.804L93.3331 156.299L98.3525 3.47803Z" fill="#E0D19B"/>
<path d="M58.7611 80.4011H38.5182L76.7078 160.401H99.7528L58.7611 80.4011Z" fill="#ECDB85"/>
<path d="M78.1877 80.4011H58.2714L95.845 160.401H118.518L78.1877 80.4011Z" fill="#D1BA68"/>
<path d="M97.9408 80.4011H78.0244L115.598 160.401H138.271L97.9408 80.4011Z" fill="#ECDB85"/>
<path d="M38.6815 80.4011H18.7652L56.3388 160.401H79.0121L38.6815 80.4011Z" fill="#D1BA68"/>
<path d="M19.9161 80.4011H-0.000209808L37.5734 160.401H60.2467L19.9161 80.4011Z" fill="#ECDB85"/>
<path d="M37.9998 158.401H48.4998" stroke="#D1BA68"/>
<path d="M43.9998 153.401H54.4998" stroke="#D1BA68"/>
<path d="M33.9998 149.401H44.4998" stroke="#D1BA68"/>
<path d="M39.9998 143.401H50.4998" stroke="#D1BA68"/>
<path d="M28.9998 139.401H39.4998" stroke="#D1BA68"/>
<path d="M34.9998 134.401H45.4998" stroke="#D1BA68"/>
<path d="M24.9998 130.401H35.4998" stroke="#D1BA68"/>
<path d="M30.9998 124.401H41.4998" stroke="#D1BA68"/>
<path d="M18.9998 120.401H29.4998" stroke="#D1BA68"/>
<path d="M24.9998 115.401H35.4998" stroke="#D1BA68"/>
<path d="M14.9998 111.401H25.4998" stroke="#D1BA68"/>
<path d="M20.9998 105.401H31.4998" stroke="#D1BA68"/>
<path d="M9.99976 101.401H20.4998" stroke="#D1BA68"/>
<path d="M15.9998 96.4011H26.4998" stroke="#D1BA68"/>
<path d="M5.99976 92.4011H16.4998" stroke="#D1BA68"/>
<path d="M11.9998 86.4011H22.4998" stroke="#D1BA68"/>
<path d="M59.2783 80.4011H38.5182L76.7078 0.401115H99.7528L59.2783 80.4011Z" fill="#ECDB85"/>
<path d="M116.706 80.4011H96.7898L134.363 0.401123H157.037L116.706 80.4011Z" fill="#D1BA68"/>
<path d="M78.1877 80.4011H58.2714L95.845 0.401123H118.518L78.1877 80.4011Z" fill="#D1BA68"/>
<path d="M97.9408 80.4011H78.0244L115.598 0.401123H138.271L97.9408 80.4011Z" fill="#ECDB85"/>
<path d="M38.6815 80.4011H18.7652L56.3388 0.401123H79.0121L38.6815 80.4011Z" fill="#D1BA68"/>
<path d="M19.9161 80.4011H-0.000209808L37.5734 0.401123H60.2467L19.9161 80.4011Z" fill="#ECDB85"/>
<path d="M155.062 74.6575L137.284 69.119V93.7344L155.062 87.5806V74.6575Z" fill="#BCB970"/>
<path d="M146.173 71.1704V91.6832" stroke="#E9D2B9"/>
<path d="M137.284 81.4268L155.061 80.4011" stroke="#E9D2B9"/>
<path d="M87.0368 23.5895L98.7652 22.9652L88.8886 37.3242L77.9998 29.901L87.0368 23.5895Z" fill="#8A7751"/>
<path d="M77.9998 29.9949L91.9998 28.4011L97.7528 39.4956L84.1726 40.6832L77.9998 29.9949Z" fill="#96765F"/>
<path d="M91.8516 28.4353L98.5504 22.9652L102 32.401L97.6573 39.3755L91.8516 28.4353Z" fill="#AF9654"/>
<path d="M37.9998 158.401H48.4998" stroke="#D1BA68"/>
<path d="M43.9998 153.401H54.4998" stroke="#D1BA68"/>
<path d="M33.9998 149.401H44.4998" stroke="#D1BA68"/>
<path d="M39.9998 143.401H50.4998" stroke="#D1BA68"/>
<path d="M43.9998 153.401H54.4998" stroke="#D1BA68"/>
<path d="M33.9998 149.401H44.4998" stroke="#D1BA68"/>
<path d="M39.9998 143.401H50.4998" stroke="#D1BA68"/>
<path d="M50.9998 101.401H61.4998" stroke="#D1BA68"/>
<path d="M56.9998 96.401H67.4998" stroke="#D1BA68"/>
<path d="M46.9998 92.401H57.4998" stroke="#D1BA68"/>
<path d="M52.9998 86.401H63.4998" stroke="#D1BA68"/>
<path d="M59.9998 118.401H70.4998" stroke="#D1BA68"/>
<path d="M65.9998 113.401H76.4998" stroke="#D1BA68"/>
<path d="M55.9998 109.401H66.4998" stroke="#D1BA68"/>
<path d="M61.9998 103.401H72.4998" stroke="#D1BA68"/>
<path d="M68.9998 137.401H79.4998" stroke="#D1BA68"/>
<path d="M74.9998 132.401H85.4998" stroke="#D1BA68"/>
<path d="M64.9998 128.401H75.4998" stroke="#D1BA68"/>
<path d="M70.9998 122.401H81.4998" stroke="#D1BA68"/>
<path d="M78.9998 157.401H89.4998" stroke="#D1BA68"/>
<path d="M84.9998 152.401H95.4998" stroke="#D1BA68"/>
<path d="M74.9998 148.401H85.4998" stroke="#D1BA68"/>
<path d="M80.9998 142.401H91.4998" stroke="#D1BA68"/>
<path d="M59.9998 159.401H70.4998" stroke="#ECDB85"/>
<path d="M65.9998 154.401H74.9998" stroke="#ECDB85"/>
<path d="M55.9998 150.401H66.4998" stroke="#ECDB85"/>
<path d="M61.9998 144.401H70.9998" stroke="#ECDB85"/>
<path d="M40.9998 120.401H51.4998" stroke="#ECDB85"/>
<path d="M46.9998 115.401H55.9998" stroke="#ECDB85"/>
<path d="M36.9998 111.401H47.4998" stroke="#ECDB85"/>
<path d="M42.9998 105.401H51.9998" stroke="#ECDB85"/>
<path d="M30.9998 101.401H41.4998" stroke="#ECDB85"/>
<path d="M36.9998 96.401H45.9998" stroke="#ECDB85"/>
<path d="M26.9998 92.401H37.4998" stroke="#ECDB85"/>
<path d="M32.9998 86.401H41.9998" stroke="#ECDB85"/>
<path d="M50.9998 140.401H61.4998" stroke="#ECDB85"/>
<path d="M56.9998 135.401H65.9998" stroke="#ECDB85"/>
<path d="M46.9998 131.401H57.4998" stroke="#ECDB85"/>
<path d="M52.9998 125.401H61.9998" stroke="#ECDB85"/>
<path d="M98.3525 3.47803L160 31.1739V125.804L93.3331 156.299L98.3525 3.47803Z" fill="#E0D19B"/>
<path d="M58.7611 80.4011H38.5182L76.7078 160.401H99.7528L58.7611 80.4011Z" fill="#ECDB85"/>
<path d="M78.1877 80.4011H58.2714L95.845 160.401H118.518L78.1877 80.4011Z" fill="#D1BA68"/>
<path d="M97.9408 80.4011H78.0244L115.598 160.401H138.271L97.9408 80.4011Z" fill="#ECDB85"/>
<path d="M38.6815 80.4011H18.7652L56.3388 160.401H79.0121L38.6815 80.4011Z" fill="#D1BA68"/>
<path d="M19.9161 80.4011H-0.000209808L37.5734 160.401H60.2467L19.9161 80.4011Z" fill="#ECDB85"/>
<path d="M37.9998 158.401H48.4998" stroke="#D1BA68"/>
<path d="M43.9998 153.401H54.4998" stroke="#D1BA68"/>
<path d="M33.9998 149.401H44.4998" stroke="#D1BA68"/>
<path d="M39.9998 143.401H50.4998" stroke="#D1BA68"/>
<path d="M28.9998 139.401H39.4998" stroke="#D1BA68"/>
<path d="M34.9998 134.401H45.4998" stroke="#D1BA68"/>
<path d="M24.9998 130.401H35.4998" stroke="#D1BA68"/>
<path d="M30.9998 124.401H41.4998" stroke="#D1BA68"/>
<path d="M18.9998 120.401H29.4998" stroke="#D1BA68"/>
<path d="M24.9998 115.401H35.4998" stroke="#D1BA68"/>
<path d="M14.9998 111.401H25.4998" stroke="#D1BA68"/>
<path d="M20.9998 105.401H31.4998" stroke="#D1BA68"/>
<path d="M9.99976 101.401H20.4998" stroke="#D1BA68"/>
<path d="M15.9998 96.4011H26.4998" stroke="#D1BA68"/>
<path d="M5.99976 92.4011H16.4998" stroke="#D1BA68"/>
<path d="M11.9998 86.4011H22.4998" stroke="#D1BA68"/>
<path d="M59.2783 80.4011H38.5182L76.7078 0.401115H99.7528L59.2783 80.4011Z" fill="#ECDB85"/>
<path d="M116.706 80.4011H96.7898L134.363 0.401123H157.037L116.706 80.4011Z" fill="#D1BA68"/>
<path d="M78.1877 80.4011H58.2714L95.845 0.401123H118.518L78.1877 80.4011Z" fill="#D1BA68"/>
<path d="M97.9408 80.4011H78.0244L115.598 0.401123H138.271L97.9408 80.4011Z" fill="#ECDB85"/>
<path d="M38.6815 80.4011H18.7652L56.3388 0.401123H79.0121L38.6815 80.4011Z" fill="#D1BA68"/>
<path d="M19.9161 80.4011H-0.000209808L37.5734 0.401123H60.2467L19.9161 80.4011Z" fill="#ECDB85"/>
<path d="M155.062 74.6575L137.284 69.119V93.7344L155.062 87.5806V74.6575Z" fill="#BCB970"/>
<path d="M146.173 71.1704V91.6832" stroke="#E9D2B9"/>
<path d="M137.284 81.4268L155.061 80.4011" stroke="#E9D2B9"/>
<path d="M87.0368 23.5895L98.7652 22.9652L88.8886 37.3242L77.9998 29.901L87.0368 23.5895Z" fill="#8A7751"/>
<path d="M77.9998 29.9949L91.9998 28.4011L97.7528 39.4956L84.1726 40.6832L77.9998 29.9949Z" fill="#96765F"/>
<path d="M91.8516 28.4353L98.5504 22.9652L102 32.401L97.6573 39.3755L91.8516 28.4353Z" fill="#AF9654"/>
<path d="M59.9998 159.401H70.4998" stroke="#ECDB85"/>
<path d="M65.9998 154.401H74.9998" stroke="#ECDB85"/>
<path d="M55.9998 150.401H66.4998" stroke="#ECDB85"/>
<path d="M61.9998 144.401H70.9998" stroke="#ECDB85"/>
<path d="M40.9998 120.401H51.4998" stroke="#ECDB85"/>
<path d="M46.9998 115.401H55.9998" stroke="#ECDB85"/>
<path d="M36.9998 111.401H47.4998" stroke="#ECDB85"/>
<path d="M42.9998 105.401H51.9998" stroke="#ECDB85"/>
<path d="M30.9998 101.401H41.4998" stroke="#ECDB85"/>
<path d="M36.9998 96.401H45.9998" stroke="#ECDB85"/>
<path d="M26.9998 92.401H37.4998" stroke="#ECDB85"/>
<path d="M32.9998 86.401H41.9998" stroke="#ECDB85"/>
<path d="M50.9998 140.401H61.4998" stroke="#ECDB85"/>
<path d="M56.9998 135.401H65.9998" stroke="#ECDB85"/>
<path d="M46.9998 131.401H57.4998" stroke="#ECDB85"/>
<path d="M52.9998 125.401H61.9998" stroke="#ECDB85"/>
<path d="M98.3525 3.47803L160 31.1739V125.804L93.3331 156.299L98.3525 3.47803Z" fill="#E0D19B"/>
<path d="M58.7611 80.4011H38.5182L76.7078 160.401H99.7528L58.7611 80.4011Z" fill="#ECDB85"/>
<path d="M78.1877 80.4011H58.2714L95.845 160.401H118.518L78.1877 80.4011Z" fill="#D1BA68"/>
<path d="M97.9408 80.4011H78.0244L115.598 160.401H138.271L97.9408 80.4011Z" fill="#ECDB85"/>
<path d="M38.6815 80.4011H18.7652L56.3388 160.401H79.0121L38.6815 80.4011Z" fill="#D1BA68"/>
<path d="M19.9161 80.4011H-0.000209808L37.5734 160.401H60.2467L19.9161 80.4011Z" fill="#ECDB85"/>
<path d="M37.9998 158.401H48.4998" stroke="#D1BA68"/>
<path d="M43.9998 153.401H54.4998" stroke="#D1BA68"/>
<path d="M33.9998 149.401H44.4998" stroke="#D1BA68"/>
<path d="M39.9998 143.401H50.4998" stroke="#D1BA68"/>
<path d="M28.9998 139.401H39.4998" stroke="#D1BA68"/>
<path d="M34.9998 134.401H45.4998" stroke="#D1BA68"/>
<path d="M24.9998 130.401H35.4998" stroke="#D1BA68"/>
<path d="M30.9998 124.401H41.4998" stroke="#D1BA68"/>
<path d="M18.9998 120.401H29.4998" stroke="#D1BA68"/>
<path d="M24.9998 115.401H35.4998" stroke="#D1BA68"/>
<path d="M14.9998 111.401H25.4998" stroke="#D1BA68"/>
<path d="M20.9998 105.401H31.4998" stroke="#D1BA68"/>
<path d="M9.99976 101.401H20.4998" stroke="#D1BA68"/>
<path d="M15.9998 96.4011H26.4998" stroke="#D1BA68"/>
<path d="M5.99976 92.4011H16.4998" stroke="#D1BA68"/>
<path d="M11.9998 86.4011H22.4998" stroke="#D1BA68"/>
<path d="M76.9998 157.401H87.4998" stroke="#D1BA68"/>
<path d="M82.9998 152.401H93.4998" stroke="#D1BA68"/>
<path d="M72.9998 148.401H83.4998" stroke="#D1BA68"/>
<path d="M78.9998 142.401H89.4998" stroke="#D1BA68"/>
<path d="M67.9998 138.401H78.4998" stroke="#D1BA68"/>
<path d="M73.9998 133.401H84.4998" stroke="#D1BA68"/>
<path d="M63.9998 129.401H74.4998" stroke="#D1BA68"/>
<path d="M69.9998 123.401H80.4998" stroke="#D1BA68"/>
<path d="M57.9998 119.401H68.4998" stroke="#D1BA68"/>
<path d="M63.9998 114.401H74.4998" stroke="#D1BA68"/>
<path d="M53.9998 110.401H64.4998" stroke="#D1BA68"/>
<path d="M59.9998 104.401H70.4998" stroke="#D1BA68"/>
<path d="M48.9998 100.401H59.4998" stroke="#D1BA68"/>
<path d="M54.9998 95.4011H65.4998" stroke="#D1BA68"/>
<path d="M44.9998 91.4011H55.4998" stroke="#D1BA68"/>
<path d="M50.9998 85.4011H61.4998" stroke="#D1BA68"/>
<path d="M117 156.401H127.5" stroke="#D1BA68"/>
<path d="M123 151.401H133.5" stroke="#D1BA68"/>
<path d="M113 147.401H123.5" stroke="#D1BA68"/>
<path d="M108 137.401H118.5" stroke="#D1BA68"/>
<path d="M114 132.401H124.5" stroke="#D1BA68"/>
<path d="M104 128.401H114.5" stroke="#D1BA68"/>
<path d="M110 122.401H120.5" stroke="#D1BA68"/>
<path d="M97.9998 118.401H108.5" stroke="#D1BA68"/>
<path d="M104 113.401H114.5" stroke="#D1BA68"/>
<path d="M93.9998 109.401H104.5" stroke="#D1BA68"/>
<path d="M99.9998 103.401H110.5" stroke="#D1BA68"/>
<path d="M88.9998 99.4011H99.4998" stroke="#D1BA68"/>
<path d="M94.9998 94.4011H105.5" stroke="#D1BA68"/>
<path d="M84.9998 90.4011H95.4998" stroke="#D1BA68"/>
<path d="M90.9998 84.4011H101.5" stroke="#D1BA68"/>
<path d="M59.2783 80.4011H38.5182L76.7078 0.401115H99.7528L59.2783 80.4011Z" fill="#ECDB85"/>
<path d="M116.706 80.4011H96.7898L134.363 0.401123H157.037L116.706 80.4011Z" fill="#D1BA68"/>
<path d="M78.1877 80.4011H58.2714L95.845 0.401123H118.518L78.1877 80.4011Z" fill="#D1BA68"/>
<path d="M97.9408 80.4011H78.0244L115.598 0.401123H138.271L97.9408 80.4011Z" fill="#ECDB85"/>
<path d="M38.6815 80.4011H18.7652L56.3388 0.401123H79.0121L38.6815 80.4011Z" fill="#D1BA68"/>
<path d="M19.9161 80.4011H-0.000209808L37.5734 0.401123H60.2467L19.9161 80.4011Z" fill="#ECDB85"/>
<path d="M155.062 74.6575L137.284 69.119V93.7344L155.062 87.5806V74.6575Z" fill="#BCB970"/>
<path d="M146.173 71.1704V91.6832" stroke="#E9D2B9"/>
<path d="M137.284 81.4268L155.061 80.4011" stroke="#E9D2B9"/>
<path d="M87.0368 23.5895L98.7652 22.9652L88.8886 37.3242L77.9998 29.901L87.0368 23.5895Z" fill="#8A7751"/>
<path d="M77.9998 29.9949L91.9998 28.4011L97.7528 39.4956L84.1726 40.6832L77.9998 29.9949Z" fill="#96765F"/>
<path d="M91.8516 28.4353L98.5504 22.9652L102 32.401L97.6573 39.3755L91.8516 28.4353Z" fill="#AF9654"/>
<path d="M99.4998 76.4011H88.9998" stroke="#D1BA68"/>
<path d="M93.4998 71.4011H82.9998" stroke="#D1BA68"/>
<path d="M103.5 67.4011H92.9998" stroke="#D1BA68"/>
<path d="M97.4998 61.4011H86.9998" stroke="#D1BA68"/>
<path d="M108.5 57.4011H97.9998" stroke="#D1BA68"/>
<path d="M102.5 52.4011H91.9998" stroke="#D1BA68"/>
<path d="M112.5 48.4011H102" stroke="#D1BA68"/>
<path d="M106.5 42.4011H95.9998" stroke="#D1BA68"/>
<path d="M118.5 38.4011H108" stroke="#D1BA68"/>
<path d="M112.5 33.4011H102" stroke="#D1BA68"/>
<path d="M122.5 29.4011H112" stroke="#D1BA68"/>
<path d="M116.5 23.4011H106" stroke="#D1BA68"/>
<path d="M127.5 19.4011H117" stroke="#D1BA68"/>
<path d="M121.5 14.4011H111" stroke="#D1BA68"/>
<path d="M131.5 10.4011H121" stroke="#D1BA68"/>
<path d="M125.5 4.40112H115" stroke="#D1BA68"/>
<path d="M58.4998 76.4011H47.9998" stroke="#D1BA68"/>
<path d="M52.4998 71.4011H41.9998" stroke="#D1BA68"/>
<path d="M62.4998 67.4011H51.9998" stroke="#D1BA68"/>
<path d="M56.4998 61.4011H45.9998" stroke="#D1BA68"/>
<path d="M67.4998 57.4011H56.9998" stroke="#D1BA68"/>
<path d="M61.4998 52.4011H50.9998" stroke="#D1BA68"/>
<path d="M71.4998 48.4011H60.9998" stroke="#D1BA68"/>
<path d="M65.4998 42.4011H54.9998" stroke="#D1BA68"/>
<path d="M77.4998 38.4011H66.9998" stroke="#D1BA68"/>
<path d="M71.4998 33.4011H60.9998" stroke="#D1BA68"/>
<path d="M76.9998 29.4011H70.9998" stroke="#D1BA68"/>
<path d="M75.4998 23.4011H64.9998" stroke="#D1BA68"/>
<path d="M86.4998 19.4011H75.9998" stroke="#D1BA68"/>
<path d="M80.4998 14.4011H69.9998" stroke="#D1BA68"/>
<path d="M90.4998 10.4011H79.9998" stroke="#D1BA68"/>
<path d="M84.4998 4.40112H73.9998" stroke="#D1BA68"/>
<path d="M21.4998 76.4011H10.9998" stroke="#D1BA68"/>
<path d="M15.4998 71.4011H4.99976" stroke="#D1BA68"/>
<path d="M25.4998 67.4011H14.9998" stroke="#D1BA68"/>
<path d="M19.4998 61.4011H8.99976" stroke="#D1BA68"/>
<path d="M30.4998 57.4011H19.9998" stroke="#D1BA68"/>
<path d="M24.4998 52.4011H13.9998" stroke="#D1BA68"/>
<path d="M34.4998 48.4011H23.9998" stroke="#D1BA68"/>
<path d="M28.4998 42.4011H17.9998" stroke="#D1BA68"/>
<path d="M40.4998 38.4011H29.9998" stroke="#D1BA68"/>
<path d="M34.4998 33.4011H23.9998" stroke="#D1BA68"/>
<path d="M44.4998 29.4011H33.9998" stroke="#D1BA68"/>
<path d="M38.4998 23.4011H27.9998" stroke="#D1BA68"/>
<path d="M49.4998 19.4011H38.9998" stroke="#D1BA68"/>
<path d="M43.4998 14.4011H32.9998" stroke="#D1BA68"/>
<path d="M53.4998 10.4011H42.9998" stroke="#D1BA68"/>
<path d="M47.4998 4.40112H36.9998" stroke="#D1BA68"/>
<path d="M98.3525 3.47803L160 31.1739V125.804L93.3331 156.299L98.3525 3.47803Z" fill="#E0D19B"/>
<path d="M58.7611 80.4011H38.5182L76.7078 160.401H99.7528L58.7611 80.4011Z" fill="#ECDB85"/>
<path d="M78.1877 80.4011H58.2714L95.845 160.401H118.518L78.1877 80.4011Z" fill="#D1BA68"/>
<path d="M97.9408 80.4011H78.0244L115.598 160.401H138.271L97.9408 80.4011Z" fill="#ECDB85"/>
<path d="M38.6815 80.4011H18.7652L56.3388 160.401H79.0121L38.6815 80.4011Z" fill="#D1BA68"/>
<path d="M19.9161 80.4011H-0.000209808L37.5734 160.401H60.2467L19.9161 80.4011Z" fill="#ECDB85"/>
<path d="M37.9998 158.401H48.4998" stroke="#D1BA68"/>
<path d="M43.9998 153.401H54.4998" stroke="#D1BA68"/>
<path d="M33.9998 149.401H44.4998" stroke="#D1BA68"/>
<path d="M39.9998 143.401H50.4998" stroke="#D1BA68"/>
<path d="M28.9998 139.401H39.4998" stroke="#D1BA68"/>
<path d="M34.9998 134.401H45.4998" stroke="#D1BA68"/>
<path d="M24.9998 130.401H35.4998" stroke="#D1BA68"/>
<path d="M30.9998 124.401H41.4998" stroke="#D1BA68"/>
<path d="M18.9998 120.401H29.4998" stroke="#D1BA68"/>
<path d="M24.9998 115.401H35.4998" stroke="#D1BA68"/>
<path d="M14.9998 111.401H25.4998" stroke="#D1BA68"/>
<path d="M20.9998 105.401H31.4998" stroke="#D1BA68"/>
<path d="M9.99976 101.401H20.4998" stroke="#D1BA68"/>
<path d="M15.9998 96.4011H26.4998" stroke="#D1BA68"/>
<path d="M5.99976 92.4011H16.4998" stroke="#D1BA68"/>
<path d="M11.9998 86.4011H22.4998" stroke="#D1BA68"/>
<path d="M76.9998 157.401H87.4998" stroke="#D1BA68"/>
<path d="M82.9998 152.401H93.4998" stroke="#D1BA68"/>
<path d="M72.9998 148.401H83.4998" stroke="#D1BA68"/>
<path d="M78.9998 142.401H89.4998" stroke="#D1BA68"/>
<path d="M67.9998 138.401H78.4998" stroke="#D1BA68"/>
<path d="M73.9998 133.401H84.4998" stroke="#D1BA68"/>
<path d="M63.9998 129.401H74.4998" stroke="#D1BA68"/>
<path d="M69.9998 123.401H80.4998" stroke="#D1BA68"/>
<path d="M57.9998 119.401H68.4998" stroke="#D1BA68"/>
<path d="M63.9998 114.401H74.4998" stroke="#D1BA68"/>
<path d="M53.9998 110.401H64.4998" stroke="#D1BA68"/>
<path d="M59.9998 104.401H70.4998" stroke="#D1BA68"/>
<path d="M48.9998 100.401H59.4998" stroke="#D1BA68"/>
<path d="M54.9998 95.4011H65.4998" stroke="#D1BA68"/>
<path d="M44.9998 91.4011H55.4998" stroke="#D1BA68"/>
<path d="M50.9998 85.4011H61.4998" stroke="#D1BA68"/>
<path d="M117 156.401H127.5" stroke="#D1BA68"/>
<path d="M123 151.401H133.5" stroke="#D1BA68"/>
<path d="M113 147.401H123.5" stroke="#D1BA68"/>
<path d="M108 137.401H118.5" stroke="#D1BA68"/>
<path d="M114 132.401H124.5" stroke="#D1BA68"/>
<path d="M104 128.401H114.5" stroke="#D1BA68"/>
<path d="M110 122.401H120.5" stroke="#D1BA68"/>
<path d="M97.9998 118.401H108.5" stroke="#D1BA68"/>
<path d="M104 113.401H114.5" stroke="#D1BA68"/>
<path d="M93.9998 109.401H104.5" stroke="#D1BA68"/>
<path d="M99.9998 103.401H110.5" stroke="#D1BA68"/>
<path d="M88.9998 99.4011H99.4998" stroke="#D1BA68"/>
<path d="M94.9998 94.4011H105.5" stroke="#D1BA68"/>
<path d="M84.9998 90.4011H95.4998" stroke="#D1BA68"/>
<path d="M90.9998 84.4011H101.5" stroke="#D1BA68"/>
<path d="M59.2783 80.4011H38.5182L76.7078 0.401115H99.7528L59.2783 80.4011Z" fill="#ECDB85"/>
<path d="M116.706 80.4011H96.7898L134.363 0.401123H157.037L116.706 80.4011Z" fill="#D1BA68"/>
<path d="M78.1877 80.4011H58.2714L95.845 0.401123H118.518L78.1877 80.4011Z" fill="#D1BA68"/>
<path d="M97.9408 80.4011H78.0244L115.598 0.401123H138.271L97.9408 80.4011Z" fill="#ECDB85"/>
<path d="M38.6815 80.4011H18.7652L56.3388 0.401123H79.0121L38.6815 80.4011Z" fill="#D1BA68"/>
<path d="M19.9161 80.4011H-0.000209808L37.5734 0.401123H60.2467L19.9161 80.4011Z" fill="#ECDB85"/>
<path d="M155.062 74.6575L137.284 69.119V93.7344L155.062 87.5806V74.6575Z" fill="#BCB970"/>
<path d="M146.173 71.1704V91.6832" stroke="#E9D2B9"/>
<path d="M137.284 81.4268L155.061 80.4011" stroke="#E9D2B9"/>
<path d="M87.0368 23.5895L98.7652 22.9652L88.8886 37.3242L77.9998 29.901L87.0368 23.5895Z" fill="#8A7751"/>
<path d="M77.9998 29.9949L91.9998 28.4011L97.7528 39.4956L84.1726 40.6832L77.9998 29.9949Z" fill="#96765F"/>
<path d="M91.8516 28.4353L98.5504 22.9652L102 32.401L97.6573 39.3755L91.8516 28.4353Z" fill="#AF9654"/>
<path d="M99.4998 76.4011H88.9998" stroke="#D1BA68"/>
<path d="M93.4998 71.4011H82.9998" stroke="#D1BA68"/>
<path d="M103.5 67.4011H92.9998" stroke="#D1BA68"/>
<path d="M97.4998 61.4011H86.9998" stroke="#D1BA68"/>
<path d="M108.5 57.4011H97.9998" stroke="#D1BA68"/>
<path d="M102.5 52.4011H91.9998" stroke="#D1BA68"/>
<path d="M112.5 48.4011H102" stroke="#D1BA68"/>
<path d="M106.5 42.4011H95.9998" stroke="#D1BA68"/>
<path d="M118.5 38.4011H108" stroke="#D1BA68"/>
<path d="M112.5 33.4011H102" stroke="#D1BA68"/>
<path d="M122.5 29.4011H112" stroke="#D1BA68"/>
<path d="M116.5 23.4011H106" stroke="#D1BA68"/>
<path d="M127.5 19.4011H117" stroke="#D1BA68"/>
<path d="M121.5 14.4011H111" stroke="#D1BA68"/>
<path d="M131.5 10.4011H121" stroke="#D1BA68"/>
<path d="M125.5 4.40112H115" stroke="#D1BA68"/>
<path d="M58.4998 76.4011H47.9998" stroke="#D1BA68"/>
<path d="M52.4998 71.4011H41.9998" stroke="#D1BA68"/>
<path d="M62.4998 67.4011H51.9998" stroke="#D1BA68"/>
<path d="M56.4998 61.4011H45.9998" stroke="#D1BA68"/>
<path d="M67.4998 57.4011H56.9998" stroke="#D1BA68"/>
<path d="M61.4998 52.4011H50.9998" stroke="#D1BA68"/>
<path d="M71.4998 48.4011H60.9998" stroke="#D1BA68"/>
<path d="M65.4998 42.4011H54.9998" stroke="#D1BA68"/>
<path d="M77.4998 38.4011H66.9998" stroke="#D1BA68"/>
<path d="M71.4998 33.4011H60.9998" stroke="#D1BA68"/>
<path d="M76.9998 29.4011H70.9998" stroke="#D1BA68"/>
<path d="M75.4998 23.4011H64.9998" stroke="#D1BA68"/>
<path d="M86.4998 19.4011H75.9998" stroke="#D1BA68"/>
<path d="M80.4998 14.4011H69.9998" stroke="#D1BA68"/>
<path d="M90.4998 10.4011H79.9998" stroke="#D1BA68"/>
<path d="M84.4998 4.40112H73.9998" stroke="#D1BA68"/>
<path d="M21.4998 76.4011H10.9998" stroke="#D1BA68"/>
<path d="M15.4998 71.4011H4.99976" stroke="#D1BA68"/>
<path d="M25.4998 67.4011H14.9998" stroke="#D1BA68"/>
<path d="M19.4998 61.4011H8.99976" stroke="#D1BA68"/>
<path d="M30.4998 57.4011H19.9998" stroke="#D1BA68"/>
<path d="M24.4998 52.4011H13.9998" stroke="#D1BA68"/>
<path d="M34.4998 48.4011H23.9998" stroke="#D1BA68"/>
<path d="M28.4998 42.4011H17.9998" stroke="#D1BA68"/>
<path d="M40.4998 38.4011H29.9998" stroke="#D1BA68"/>
<path d="M34.4998 33.4011H23.9998" stroke="#D1BA68"/>
<path d="M44.4998 29.4011H33.9998" stroke="#D1BA68"/>
<path d="M38.4998 23.4011H27.9998" stroke="#D1BA68"/>
<path d="M49.4998 19.4011H38.9998" stroke="#D1BA68"/>
<path d="M43.4998 14.4011H32.9998" stroke="#D1BA68"/>
<path d="M53.4998 10.4011H42.9998" stroke="#D1BA68"/>
<path d="M47.4998 4.40112H36.9998" stroke="#D1BA68"/>
<path d="M98.3525 3.47803L160 31.1739V125.804L93.3331 156.299L98.3525 3.47803Z" fill="#E0D19B"/>
<path d="M58.7611 80.4011H38.5182L76.7078 160.401H99.7528L58.7611 80.4011Z" fill="#ECDB85"/>
<path d="M78.1877 80.4011H58.2714L95.845 160.401H118.518L78.1877 80.4011Z" fill="#D1BA68"/>
<path d="M97.9408 80.4011H78.0244L115.598 160.401H138.271L97.9408 80.4011Z" fill="#ECDB85"/>
<path d="M38.6815 80.4011H18.7652L56.3388 160.401H79.0121L38.6815 80.4011Z" fill="#D1BA68"/>
<path d="M19.9161 80.4011H-0.000209808L37.5734 160.401H60.2467L19.9161 80.4011Z" fill="#ECDB85"/>
<path d="M37.9998 158.401H48.4998" stroke="#D1BA68"/>
<path d="M43.9998 153.401H54.4998" stroke="#D1BA68"/>
<path d="M33.9998 149.401H44.4998" stroke="#D1BA68"/>
<path d="M39.9998 143.401H50.4998" stroke="#D1BA68"/>
<path d="M28.9998 139.401H39.4998" stroke="#D1BA68"/>
<path d="M34.9998 134.401H45.4998" stroke="#D1BA68"/>
<path d="M24.9998 130.401H35.4998" stroke="#D1BA68"/>
<path d="M30.9998 124.401H41.4998" stroke="#D1BA68"/>
<path d="M18.9998 120.401H29.4998" stroke="#D1BA68"/>
<path d="M24.9998 115.401H35.4998" stroke="#D1BA68"/>
<path d="M14.9998 111.401H25.4998" stroke="#D1BA68"/>
<path d="M20.9998 105.401H31.4998" stroke="#D1BA68"/>
<path d="M9.99976 101.401H20.4998" stroke="#D1BA68"/>
<path d="M15.9998 96.4011H26.4998" stroke="#D1BA68"/>
<path d="M5.99976 92.4011H16.4998" stroke="#D1BA68"/>
<path d="M11.9998 86.4011H22.4998" stroke="#D1BA68"/>
<path d="M76.9998 157.401H87.4998" stroke="#D1BA68"/>
<path d="M82.9998 152.401H93.4998" stroke="#D1BA68"/>
<path d="M72.9998 148.401H83.4998" stroke="#D1BA68"/>
<path d="M78.9998 142.401H89.4998" stroke="#D1BA68"/>
<path d="M67.9998 138.401H78.4998" stroke="#D1BA68"/>
<path d="M73.9998 133.401H84.4998" stroke="#D1BA68"/>
<path d="M63.9998 129.401H74.4998" stroke="#D1BA68"/>
<path d="M69.9998 123.401H80.4998" stroke="#D1BA68"/>
<path d="M57.9998 119.401H68.4998" stroke="#D1BA68"/>
<path d="M63.9998 114.401H74.4998" stroke="#D1BA68"/>
<path d="M53.9998 110.401H64.4998" stroke="#D1BA68"/>
<path d="M59.9998 104.401H70.4998" stroke="#D1BA68"/>
<path d="M48.9998 100.401H59.4998" stroke="#D1BA68"/>
<path d="M54.9998 95.4011H65.4998" stroke="#D1BA68"/>
<path d="M44.9998 91.4011H55.4998" stroke="#D1BA68"/>
<path d="M50.9998 85.4011H61.4998" stroke="#D1BA68"/>
<path d="M117 156.401H127.5" stroke="#D1BA68"/>
<path d="M123 151.401H133.5" stroke="#D1BA68"/>
<path d="M113 147.401H123.5" stroke="#D1BA68"/>
<path d="M119 141.401H127" stroke="#D1BA68"/>
<path d="M108 137.401H118.5" stroke="#D1BA68"/>
<path d="M114 132.401H124.5" stroke="#D1BA68"/>
<path d="M104 128.401H114.5" stroke="#D1BA68"/>
<path d="M110 122.401H120.5" stroke="#D1BA68"/>
<path d="M97.9998 118.401H108.5" stroke="#D1BA68"/>
<path d="M104 113.401H114.5" stroke="#D1BA68"/>
<path d="M93.9998 109.401H104.5" stroke="#D1BA68"/>
<path d="M99.9998 103.401H110.5" stroke="#D1BA68"/>
<path d="M88.9998 99.4011H99.4998" stroke="#D1BA68"/>
<path d="M94.9998 94.4011H105.5" stroke="#D1BA68"/>
<path d="M84.9998 90.4011H95.4998" stroke="#D1BA68"/>
<path d="M90.9998 84.4011H101.5" stroke="#D1BA68"/>
<path d="M59.2783 80.4011H38.5182L76.7078 0.401115H99.7528L59.2783 80.4011Z" fill="#ECDB85"/>
<path d="M116.706 80.4011H96.7898L134.363 0.401123H157.037L116.706 80.4011Z" fill="#D1BA68"/>
<path d="M78.1877 80.4011H58.2714L95.845 0.401123H118.518L78.1877 80.4011Z" fill="#D1BA68"/>
<path d="M97.9408 80.4011H78.0244L115.598 0.401123H138.271L97.9408 80.4011Z" fill="#ECDB85"/>
<path d="M38.6815 80.4011H18.7652L56.3388 0.401123H79.0121L38.6815 80.4011Z" fill="#D1BA68"/>
<path d="M19.9161 80.4011H-0.000209808L37.5734 0.401123H60.2467L19.9161 80.4011Z" fill="#ECDB85"/>
<path d="M155.062 74.6575L137.284 69.119V93.7344L155.062 87.5806V74.6575Z" fill="#686754"/>
<path d="M146.173 71.1704V91.6832" stroke="#E9D2B9"/>
<path d="M137.284 81.4268L155.061 80.4011" stroke="#E9D2B9"/>
<path d="M87.0368 23.5895L98.7652 22.9652L88.8886 37.3242L77.9998 29.901L87.0368 23.5895Z" fill="#8A7751"/>
<path d="M77.9998 29.9949L91.9998 28.4011L97.7528 39.4956L84.1726 40.6832L77.9998 29.9949Z" fill="#96765F"/>
<path d="M91.8516 28.4353L98.5504 22.9652L102 32.401L97.6573 39.3755L91.8516 28.4353Z" fill="#AF9654"/>
<path d="M99.4998 76.4011H88.9998" stroke="#D1BA68"/>
<path d="M93.4998 71.4011H82.9998" stroke="#D1BA68"/>
<path d="M103.5 67.4011H92.9998" stroke="#D1BA68"/>
<path d="M97.4998 61.4011H86.9998" stroke="#D1BA68"/>
<path d="M108.5 57.4011H97.9998" stroke="#D1BA68"/>
<path d="M102.5 52.4011H91.9998" stroke="#D1BA68"/>
<path d="M112.5 48.4011H102" stroke="#D1BA68"/>
<path d="M106.5 42.4011H95.9998" stroke="#D1BA68"/>
<path d="M118.5 38.4011H108" stroke="#D1BA68"/>
<path d="M112.5 33.4011H102" stroke="#D1BA68"/>
<path d="M122.5 29.4011H112" stroke="#D1BA68"/>
<path d="M116.5 23.4011H106" stroke="#D1BA68"/>
<path d="M127.5 19.4011H117" stroke="#D1BA68"/>
<path d="M121.5 14.4011H111" stroke="#D1BA68"/>
<path d="M131.5 10.4011H121" stroke="#D1BA68"/>
<path d="M125.5 4.40112H115" stroke="#D1BA68"/>
<path d="M58.4998 76.4011H47.9998" stroke="#D1BA68"/>
<path d="M52.4998 71.4011H41.9998" stroke="#D1BA68"/>
<path d="M62.4998 67.4011H51.9998" stroke="#D1BA68"/>
<path d="M56.4998 61.4011H45.9998" stroke="#D1BA68"/>
<path d="M67.4998 57.4011H56.9998" stroke="#D1BA68"/>
<path d="M61.4998 52.4011H50.9998" stroke="#D1BA68"/>
<path d="M71.4998 48.4011H60.9998" stroke="#D1BA68"/>
<path d="M65.4998 42.4011H54.9998" stroke="#D1BA68"/>
<path d="M77.4998 38.4011H66.9998" stroke="#D1BA68"/>
<path d="M71.4998 33.4011H60.9998" stroke="#D1BA68"/>
<path d="M76.9998 29.4011H70.9998" stroke="#D1BA68"/>
<path d="M75.4998 23.4011H64.9998" stroke="#D1BA68"/>
<path d="M86.4998 19.4011H75.9998" stroke="#D1BA68"/>
<path d="M80.4998 14.4011H69.9998" stroke="#D1BA68"/>
<path d="M90.4998 10.4011H79.9998" stroke="#D1BA68"/>
<path d="M84.4998 4.40112H73.9998" stroke="#D1BA68"/>
<path d="M21.4998 76.4011H10.9998" stroke="#D1BA68"/>
<path d="M15.4998 71.4011H4.99976" stroke="#D1BA68"/>
<path d="M25.4998 67.4011H14.9998" stroke="#D1BA68"/>
<path d="M19.4998 61.4011H8.99976" stroke="#D1BA68"/>
<path d="M30.4998 57.4011H19.9998" stroke="#D1BA68"/>
<path d="M24.4998 52.4011H13.9998" stroke="#D1BA68"/>
<path d="M34.4998 48.4011H23.9998" stroke="#D1BA68"/>
<path d="M28.4998 42.4011H17.9998" stroke="#D1BA68"/>
<path d="M40.4998 38.4011H29.9998" stroke="#D1BA68"/>
<path d="M34.4998 33.4011H23.9998" stroke="#D1BA68"/>
<path d="M44.4998 29.4011H33.9998" stroke="#D1BA68"/>
<path d="M38.4998 23.4011H27.9998" stroke="#D1BA68"/>
<path d="M49.4998 19.4011H38.9998" stroke="#D1BA68"/>
<path d="M43.4998 14.4011H32.9998" stroke="#D1BA68"/>
<path d="M53.4998 10.4011H42.9998" stroke="#D1BA68"/>
<path d="M47.4998 4.40112H36.9998" stroke="#D1BA68"/>
<path d="M59.9998 159.401H70.4998" stroke="#ECDB85"/>
<path d="M65.9998 154.401H74.9998" stroke="#ECDB85"/>
<path d="M55.9998 150.401H66.4998" stroke="#ECDB85"/>
<path d="M61.9998 144.401H70.9998" stroke="#ECDB85"/>
<path d="M40.9998 120.401H51.4998" stroke="#ECDB85"/>
<path d="M46.9998 115.401H55.9998" stroke="#ECDB85"/>
<path d="M36.9998 111.401H47.4998" stroke="#ECDB85"/>
<path d="M42.9998 105.401H51.9998" stroke="#ECDB85"/>
<path d="M30.9998 101.401H41.4998" stroke="#ECDB85"/>
<path d="M36.9998 96.401H45.9998" stroke="#ECDB85"/>
<path d="M26.9998 92.401H37.4998" stroke="#ECDB85"/>
<path d="M32.9998 86.401H41.9998" stroke="#ECDB85"/>
<path d="M50.9998 140.401H61.4998" stroke="#ECDB85"/>
<path d="M56.9998 135.401H65.9998" stroke="#ECDB85"/>
<path d="M46.9998 131.401H57.4998" stroke="#ECDB85"/>
<path d="M52.9998 125.401H61.9998" stroke="#ECDB85"/>
<path d="M117 75.401H106.5" stroke="#ECDB85"/>
<path d="M111 70.401H102" stroke="#ECDB85"/>
<path d="M121 66.401H110.5" stroke="#ECDB85"/>
<path d="M115 60.401H106" stroke="#ECDB85"/>
<path d="M136 36.4011H125.5" stroke="#ECDB85"/>
<path d="M130 31.4011H121" stroke="#ECDB85"/>
<path d="M140 27.4011H129.5" stroke="#ECDB85"/>
<path d="M134 21.4011H125" stroke="#ECDB85"/>
<path d="M146 17.4011H135.5" stroke="#ECDB85"/>
<path d="M140 12.4011H131" stroke="#ECDB85"/>
<path d="M150 8.40112H139.5" stroke="#ECDB85"/>
<path d="M144 2.40112H135" stroke="#ECDB85"/>
<path d="M126 56.4011H115.5" stroke="#ECDB85"/>
<path d="M120 51.4011H111" stroke="#ECDB85"/>
<path d="M130 47.4011H119.5" stroke="#ECDB85"/>
<path d="M124 41.4011H115" stroke="#ECDB85"/>
<path d="M39.9998 76.401H29.4998" stroke="#ECDB85"/>
<path d="M33.9998 71.401H24.9998" stroke="#ECDB85"/>
<path d="M43.9998 67.401H33.4998" stroke="#ECDB85"/>
<path d="M37.9998 61.401H28.9998" stroke="#ECDB85"/>
<path d="M58.9998 37.4011H48.4998" stroke="#ECDB85"/>
<path d="M52.9998 32.4011H43.9998" stroke="#ECDB85"/>
<path d="M62.9998 28.4011H52.4998" stroke="#ECDB85"/>
<path d="M56.9998 22.4011H47.9998" stroke="#ECDB85"/>
<path d="M68.9998 18.4011H58.4998" stroke="#ECDB85"/>
<path d="M62.9998 13.4011H53.9998" stroke="#ECDB85"/>
<path d="M72.9998 9.40112H62.4998" stroke="#ECDB85"/>
<path d="M66.9998 3.40112H57.9998" stroke="#ECDB85"/>
<path d="M48.9998 57.4011H38.4998" stroke="#ECDB85"/>
<path d="M42.9998 52.4011H33.9998" stroke="#ECDB85"/>
<path d="M52.9998 48.4011H42.4998" stroke="#ECDB85"/>
<path d="M46.9998 42.4011H37.9998" stroke="#ECDB85"/>
<path d="M77.9998 74.401H67.4998" stroke="#ECDB85"/>
<path d="M71.9998 69.401H62.9998" stroke="#ECDB85"/>
<path d="M81.9998 65.401H71.4998" stroke="#ECDB85"/>
<path d="M75.9998 59.4011H66.9998" stroke="#ECDB85"/>
<path d="M94.9998 20.4011H85.9998" stroke="#ECDB85"/>
<path d="M107 16.4011H96.4998" stroke="#ECDB85"/>
<path d="M101 11.4011H91.9998" stroke="#ECDB85"/>
<path d="M111 7.40112H100.5" stroke="#ECDB85"/>
<path d="M105 1.40112H95.9998" stroke="#ECDB85"/>
<path d="M86.9998 55.4011H76.4998" stroke="#ECDB85"/>
<path d="M80.9998 50.4011H71.9998" stroke="#ECDB85"/>
<path d="M90.9998 46.4011H80.4998" stroke="#ECDB85"/>
<path d="M84.9998 41.4011H75.9998" stroke="#ECDB85"/>
<path d="M96.9998 157.401H107.5" stroke="#ECDB85"/>
<path d="M103 152.401H112" stroke="#ECDB85"/>
<path d="M92.9998 148.401H103.5" stroke="#ECDB85"/>
<path d="M98.9998 142.401H108" stroke="#ECDB85"/>
<path d="M77.9998 118.401H88.4998" stroke="#ECDB85"/>
<path d="M83.9998 113.401H92.9998" stroke="#ECDB85"/>
<path d="M73.9998 109.401H84.4998" stroke="#ECDB85"/>
<path d="M79.9998 103.401H88.9998" stroke="#ECDB85"/>
<path d="M67.9998 99.401H78.4998" stroke="#ECDB85"/>
<path d="M73.9998 94.401H82.9998" stroke="#ECDB85"/>
<path d="M63.9998 90.401H74.4998" stroke="#ECDB85"/>
<path d="M69.9998 84.401H78.9998" stroke="#ECDB85"/>
<path d="M87.9998 138.401H98.4998" stroke="#ECDB85"/>
<path d="M93.9998 133.401H103" stroke="#ECDB85"/>
<path d="M83.9998 129.401H94.4998" stroke="#ECDB85"/>
<path d="M89.9998 123.401H98.9998" stroke="#ECDB85"/>
<path d="M57.4448 122.934C58.5968 128.072 54.8898 130.372 49.9298 131.485C44.9699 132.597 40.6354 132.099 39.4833 126.962C38.3313 121.825 42.9064 116.689 43.6683 108.069C49.0005 115.323 56.2928 117.797 57.4448 122.934Z" fill="#FFB522"/>
<path d="M57.4448 122.934C58.5968 128.072 54.8898 130.372 49.9298 131.485C44.9699 132.597 40.6354 132.099 39.4833 126.962C38.3313 121.825 42.9064 116.689 43.6683 108.069C49.0005 115.323 56.2928 117.797 57.4448 122.934Z" fill="#FFB522"/>
<path d="M66.2509 123.341C65.3578 131.699 61.0172 133.538 55.9628 132.998C50.9085 132.458 47.0544 129.744 47.9476 121.385C48.8407 113.026 55.0774 107.253 59.0908 94.4423C61.2875 107.916 67.1441 114.982 66.2509 123.341Z" fill="#FFB522"/>
<path d="M74.0619 138.243C72.2141 145.549 67.716 146.528 62.7881 145.282C57.8602 144.036 54.3685 141.035 56.2163 133.73C58.0641 126.424 64.8891 122.229 70.332 111.433C70.9438 123.761 75.9097 130.938 74.0619 138.243Z" fill="#FFB522"/>
<path d="M59.8785 128.155C64.6656 134.546 61.7972 139.412 56.6505 143.267C51.5039 147.122 46.0279 148.506 41.2408 142.115C36.4537 135.724 38.4651 126.618 33.6312 114.615C44.7887 121.881 55.0915 121.764 59.8785 128.155Z" fill="#FFB522"/>
<path d="M65.9648 142.612C65.5457 147.378 61.3872 148.32 56.3983 147.881C51.4093 147.443 47.4792 145.789 47.8982 141.023C48.3173 136.258 54.1211 133.11 57.3583 125.874C60.2508 133.649 66.3839 137.847 65.9648 142.612Z" fill="#FFE68E"/>
<path d="M55.9345 131.758C58.1112 135.381 55.7939 138.116 52.204 140.273C48.6142 142.429 45.1113 143.191 42.9346 139.567C40.7579 135.944 43.0463 130.814 41.4948 124.024C47.457 128.164 53.7578 128.134 55.9345 131.758Z" fill="#FFE68E"/>
<path d="M59.845 119.08C58.9418 121.68 57.2173 121.874 55.3936 121.241C53.5699 120.607 52.3374 119.385 53.2406 116.785C54.1438 114.185 56.8367 112.901 59.1946 109.158C59.0775 113.68 60.7482 116.48 59.845 119.08Z" fill="#FFE68E"/>
<path d="M71.4539 132.602C71.3441 135.868 69.75 136.705 67.8204 136.64C65.8909 136.575 64.3566 135.633 64.4664 132.367C64.5761 129.1 66.781 126.684 67.9511 121.602C69.1517 126.763 71.5637 129.335 71.4539 132.602Z" fill="#FFE68E"/>
<path d="M56.4239 119.224C57.9995 121.739 57.1023 123.255 55.4662 124.28C53.8302 125.305 52.0747 125.451 50.4991 122.936C48.9235 120.421 49.5219 117.378 47.9009 112.91C51.5321 116.119 54.8482 116.709 56.4239 119.224Z" fill="#FFE68E"/>
<path d="M51.8643 37.0259C52.1823 41.2048 49.449 42.5576 45.9705 42.8223C42.492 43.087 39.5855 42.1634 39.2675 37.9844C38.9495 33.8055 42.5313 30.3313 43.8329 23.6502C46.8052 30.0061 51.5463 32.8469 51.8643 37.0259Z" fill="#FFB522"/>
<path d="M51.8643 37.0259C52.1823 41.2048 49.449 42.5576 45.9705 42.8223C42.492 43.087 39.5855 42.1634 39.2675 37.9844C38.9495 33.8055 42.5313 30.3313 43.8329 23.6502C46.8052 30.0061 51.5463 32.8469 51.8643 37.0259Z" fill="#FFB522"/>
<path d="M57.8153 39.853C56.3649 44.0041 53.2459 44.6348 49.8858 44.0183C46.5257 43.4017 44.1968 41.7713 45.6472 37.6202C47.0977 33.4691 51.8963 30.985 55.9059 24.8034C56.0248 31.7425 59.2657 35.7019 57.8153 39.853Z" fill="#FFB522"/>
<path d="M61.1042 48.7973C59.4006 51.9029 56.3452 51.9524 53.1486 50.97C49.9519 49.9877 47.8244 48.3455 49.528 45.2398C51.2315 42.1342 56.0434 40.8486 60.3648 36.4934C59.971 42.0556 62.8077 45.6917 61.1042 48.7973Z" fill="#FFB522"/>
<path d="M52.8623 41.4071C55.559 45.3426 53.1258 47.7966 49.2185 49.5016C45.3111 51.2066 41.409 51.5169 38.7124 47.5814C36.0157 43.6459 38.2571 38.7738 36.0556 31.7288C43.0579 36.6789 50.1656 37.4716 52.8623 41.4071Z" fill="#FFB522"/>
<path d="M55.3339 50.5614C54.7278 52.4313 51.8656 52.4877 48.5386 51.9291C45.2115 51.3704 42.6795 50.4083 43.2856 48.5385C43.8917 46.6686 48.011 45.8584 50.6813 43.2193C52.0988 46.5448 55.94 48.6916 55.3339 50.5614Z" fill="#FFE68E"/>
<path d="M49.9112 43.1825C51.0566 45.3828 49.2067 46.7176 46.54 47.625C43.8733 48.5324 41.3995 48.6687 40.2541 46.4684C39.1087 44.2682 41.1678 41.5947 40.7537 37.6797C44.4443 40.4798 48.7657 40.9822 49.9112 43.1825Z" fill="#FFE68E"/>
<path d="M54.0281 36.9295C53.1455 38.2249 51.9615 38.209 50.7975 37.7542C49.6335 37.2994 48.9302 36.5779 49.8128 35.2825C50.6953 33.9872 52.6472 33.5004 54.6315 31.7072C54.0774 34.0592 54.9106 35.6341 54.0281 36.9295Z" fill="#FFE68E"/>
<path d="M60.2514 45.4526C59.942 46.6792 58.8052 46.8832 57.5068 46.7226C56.2085 46.5621 55.2402 46.0979 55.5496 44.8713C55.8591 43.6447 57.5221 42.8868 58.6783 41.0491C59.1173 43.0841 60.5608 44.226 60.2514 45.4526Z" fill="#FFE68E"/>
<path d="M51.6992 36.7209C52.5019 38.1815 51.7315 38.9327 50.5115 39.3685C49.2915 39.8044 48.0839 39.7599 47.2812 38.2992C46.4784 36.8386 47.2082 35.2469 46.5823 32.7341C48.7072 34.7114 50.8965 35.2603 51.6992 36.7209Z" fill="#FFE68E"/>
<path d="M109.879 107.079L98.9998 113.834L144.595 145.177L156.981 137.487L109.879 107.079Z" fill="#C9BA87"/>
<path d="M143.158 130.132C141.982 132.996 140.019 133.101 137.993 132.269C135.967 131.437 134.645 129.982 135.821 127.118C136.998 124.254 140.121 122.987 143.012 118.932C142.611 124.009 144.335 127.268 143.158 130.132Z" fill="#FFB522"/>
<path d="M143.158 130.132C141.982 132.996 140.019 133.101 137.993 132.269C135.967 131.437 134.645 129.982 135.821 127.118C136.998 124.254 140.121 122.987 143.012 118.932C142.611 124.009 144.335 127.268 143.158 130.132Z" fill="#FFB522"/>
<path d="M145.67 133.536C143.366 136.179 141.401 135.732 139.749 134.293C138.098 132.854 137.386 130.968 139.69 128.325C141.993 125.682 145.562 125.251 150.023 121.857C147.591 127.019 147.973 130.894 145.67 133.536Z" fill="#FFB522"/>
<path d="M144.779 140.506C142.309 142.641 140.493 141.9 139.084 140.269C137.674 138.638 137.205 136.735 139.675 134.6C142.145 132.465 145.577 132.631 150.174 130.132C147.308 134.635 147.249 138.371 144.779 140.506Z" fill="#FFB522"/>
<path d="M142.308 132.949C142.436 136.861 140.225 137.999 137.456 138.089C134.686 138.179 132.407 137.187 132.279 133.276C132.152 129.364 135.1 126.285 136.333 120.113C138.503 126.175 142.181 129.038 142.308 132.949Z" fill="#FFB522"/>
<path d="M141.425 139.541C139.692 141.606 137.88 141.044 136.227 139.657C134.574 138.269 133.705 136.583 135.438 134.518C137.17 132.453 140.307 132.405 143.875 129.889C142.339 134.109 143.157 137.476 141.425 139.541Z" fill="#FFE68E"/>
<path d="M140.041 133.92C139.918 135.681 138.425 136.059 136.625 135.934C134.825 135.809 133.399 135.228 133.521 133.467C133.644 131.706 135.716 130.503 136.839 127.81C137.928 130.656 140.163 132.159 140.041 133.92Z" fill="#FFE68E"/>
<path d="M144.404 130.449C143.564 131.057 142.94 130.676 142.452 130.001C141.965 129.327 141.798 128.615 142.639 128.008C143.479 127.4 144.655 127.678 146.223 127.075C145.254 128.506 145.244 129.841 144.404 130.449Z" fill="#FFE68E"/>
<path d="M145.174 138.171C144.441 139.147 143.702 139.008 143.037 138.508C142.372 138.009 142.032 137.338 142.764 136.362C143.497 135.386 144.787 135.192 146.278 133.922C145.604 135.806 145.906 137.195 145.174 138.171Z" fill="#FFE68E"/>
<path d="M143.299 129.851C143.246 130.887 142.558 131.135 141.727 131.092C140.896 131.05 140.237 130.734 140.29 129.698C140.342 128.663 141.296 127.92 141.808 126.32C142.316 127.972 143.351 128.815 143.299 129.851Z" fill="#FFE68E"/>
<path d="M5.87299 142.679L6.60208 153.813L37.6677 130.488L36.8377 117.811L5.87299 142.679Z" fill="#C7A067"/>
</svg>
