<svg width="51" height="50" viewBox="0 0 51 50" fill="none" xmlns="http://www.w3.org/2000/svg">
<path d="M14.7483 43.6813L39.4653 39.3839L40.5 45.7089L15.6751 49.1494L14.7483 43.6813Z" fill="#C5B563"/>
<rect width="17.6305" height="5.68721" transform="matrix(0.949783 0.312909 -0.305785 0.952101 19.1534 35.3417)" fill="#C5B563"/>
<path d="M10.3999 21.8987C9.65733 21.9853 7.90817 20.3451 6.22861 16.7809C4.54904 13.2167 3.01118 12.6976 3.50565 11.1644C4.20002 10.0266 7.99463 4.48194 9.19044 5.16006C10.3862 5.83819 12.2171 1.04757 14.0382 2.00846C15.8592 2.96934 17.9932 2.2043 13.3717 5.59662C8.75031 8.98895 12.3549 10.0658 13.4416 10.3135C14.5451 10.565 16.5708 12.3279 18.7624 13.2483L34.9853 31.2368L29.0527 37.5028C29.0342 37.5326 29.0104 37.5575 28.9818 37.5777L29.0527 37.5028C29.532 36.7337 26.4829 32.7188 10.3999 21.8987Z" fill="#F1F37C"/>
<path d="M50.7659 16.4142C50.2574 23.9468 47.7772 38.1813 41.9254 34.858L23.4742 37.7584L23.6159 32.8402L28.916 31.0278C28.916 31.0278 30.1843 32.542 30.8338 25.1776C31.4834 17.8133 33.8358 27.2353 33.8358 27.2353C33.8358 27.2353 35.2742 22.8476 35.8387 18.4342C36.4032 14.0207 40.0524 23.9734 40.0524 23.9734C40.0524 23.9734 40.7727 14.1499 42.4639 16.1688C44.155 18.1877 42.4473 31.92 44.9013 22.64C47.3554 13.3599 50.7659 16.4142 50.7659 16.4142Z" fill="#F1F37C"/>
<path d="M22.9687 2.23989C18.9214 8.25928 12.5515 20.6549 19.451 22.0821L33.2565 36.6663L36.0593 32.864L32.6754 27.9366C32.6754 27.9366 30.7083 28.2256 34.5371 22.2384C38.3659 16.2512 30.7881 21.7722 30.7881 21.7722C30.7881 21.7722 32.1844 17.4985 34.3315 13.7927C36.4785 10.0868 27.4942 15.1364 27.4942 15.1364C27.4942 15.1364 32.7244 7.24807 30.1016 7.63345C27.4789 8.01883 20.7572 19.5168 24.2055 10.8732C27.6537 2.2295 22.9687 2.23989 22.9687 2.23989Z" fill="#F1F37C"/>
<path d="M48.6174 21.2927C48.1535 26.556 46.1639 36.4793 41.9164 34.0661L30.0563 35.0604L26.2904 34.7658L32.4305 31.1907C32.4305 31.1907 33.3415 32.2693 33.9066 27.1258C34.4716 21.9824 36.0813 28.6107 36.0813 28.6107C36.0813 28.6107 37.1883 25.5621 37.6554 22.4823C38.1224 19.4024 40.6758 26.4215 40.6758 26.4215C40.6758 26.4215 41.3225 19.5584 42.5372 20.9965C43.7519 22.4346 42.3344 32.018 44.2449 25.5612C46.1553 19.1044 48.6174 21.2927 48.6174 21.2927Z" fill="#EFCF5F"/>
<path d="M10.3939 25.7444C11.2513 30.9568 13.9796 40.6983 18.0339 37.9651L30.5503 38.5023L33.2538 37.7224L27.2766 34.368C27.2766 34.368 26.4492 35.5136 25.4998 30.4285C24.5505 25.3434 23.4428 32.0765 23.4428 32.0765C23.4428 32.0765 22.1102 29.1218 21.4135 26.0868C20.7167 23.0519 18.6974 30.2471 18.6974 30.2471C18.6974 30.2471 17.5376 23.4536 16.4343 24.9811C15.331 26.5085 17.4634 35.9552 15.074 29.664C12.6847 23.3729 10.3939 25.7444 10.3939 25.7444Z" fill="#EFCF5F"/>
<path d="M14.117 3.765C11.6102 3.47614 11.8007 4.11886 10.6904 6.20797L10.6904 7.30049L14.117 3.765Z" fill="#EFCF5F"/>
<ellipse rx="0.473163" ry="0.469857" transform="matrix(0.469298 -0.88304 0.878003 0.478656 7.24262 9.18382)" fill="#EFCF5F"/>
</svg>
