<svg width="51" height="39" viewBox="0 0 51 39" fill="none" xmlns="http://www.w3.org/2000/svg">
<path d="M20.2956 11.8842C19.8453 11.4472 19.8127 9.263 20.8901 5.91982C21.9676 2.57664 21.4244 1.2343 22.5467 0.601121C23.5568 0.347849 28.7016 -0.614581 28.971 0.601121C29.2404 1.81682 32.9018 0.027631 33.352 1.83401C33.8023 3.64038 35.3839 4.57283 30.9912 3.64038C26.5985 2.70794 27.9496 5.7667 28.3998 6.64063C28.8571 7.52812 28.971 9.97216 29.6444 11.9983L28.3998 33.9953H21.6955C21.6689 34.0017 21.6421 34.0015 21.6154 33.9953H21.6955C22.3837 33.8306 22.971 29.2993 20.2956 11.8842Z" fill="#F1F37C"/>
<path d="M0.799479 6.86342C8.42707 6.02155 23.1514 6.14009 21.0278 13.3491L27.695 33.5679L22.7537 34.3318L19.8605 28.7078C19.8605 28.7078 21.1137 26.9962 13.6254 27.6479C6.13714 28.2996 15.0672 23.8834 15.0672 23.8834C15.0672 23.8834 10.3908 23.0886 5.86733 23.2819C1.34382 23.4753 10.5389 17.5003 10.5389 17.5003C10.5389 17.5003 0.579939 18.534 2.25086 16.2519C3.92177 13.9698 17.9866 13.3133 8.21622 12.2941C-1.5542 11.2748 0.799479 6.86342 0.799479 6.86342Z" fill="#F1F37C"/>
<path d="M6.32238 8.49447C11.8554 7.86978 22.5252 7.85795 20.9408 12.8082L24.5 25L25 29L19.9979 23.3334C19.9979 23.3334 20.9168 22.1534 15.486 22.647C10.0552 23.1406 16.5546 20.0599 16.5546 20.0599C16.5546 20.0599 13.1707 19.5451 9.89133 19.7061C6.61194 19.8671 13.3133 15.7173 13.3133 15.7173C13.3133 15.7173 6.08957 16.488 7.31489 14.9147C8.54021 13.3413 18.7371 12.8029 11.663 12.1666C4.58882 11.5303 6.32238 8.49447 6.32238 8.49447Z" fill="#EFCF5F"/>
<path d="M50.2491 7.42857C42.6634 6.26827 27.947 5.77057 29.7671 13.0622L22.2597 32.9842L27.1647 33.9542L30.2906 28.4562C30.2906 28.4562 29.1102 26.6937 36.5646 27.6582C44.0191 28.6226 35.2816 23.8367 35.2816 23.8367C35.2816 23.8367 39.9872 23.2382 44.4986 23.6206C49.0101 24.0031 40.0731 17.6486 40.0731 17.6486C40.0731 17.6486 49.9801 19.0981 48.4061 16.7481C46.8322 14.3981 32.8071 13.1537 42.6116 12.5441C52.4161 11.9346 50.2491 7.42857 50.2491 7.42857Z" fill="#F1F37C"/>
<path d="M43.3224 8.49447C37.7894 7.86978 27.1195 7.85795 28.704 12.8082L24.5 25.5L24.5 28.5L29.6469 23.3334C29.6469 23.3334 28.7279 22.1534 34.1588 22.647C39.5896 23.1406 33.0901 20.0599 33.0901 20.0599C33.0901 20.0599 36.4741 19.5451 39.7534 19.7061C43.0328 19.8671 36.3315 15.7173 36.3315 15.7173C36.3315 15.7173 43.5552 16.488 42.3299 14.9147C41.1046 13.3413 30.9077 12.8029 37.9818 12.1666C45.056 11.5303 43.3224 8.49447 43.3224 8.49447Z" fill="#EFCF5F"/>
<path d="M33.5 3.50001C32.5 1 32 1.50001 29.5 1.50001L29 3.00001L33.5 3.50001Z" fill="#EFCF5F"/>
<circle cx="26.5" cy="2.5" r="0.5" fill="#EFCF5F"/>
<rect x="12" y="33" width="28" height="6" fill="#C5B563"/>
</svg>
