<svg width="50" height="55" viewBox="0 0 50 55" fill="none" xmlns="http://www.w3.org/2000/svg">
<path d="M20.6372 38.6411C20.1113 38.8693 18.5341 38.0575 16.6545 35.8221C14.7748 33.5867 13.5576 33.5484 13.6368 32.3165C13.9345 31.3296 15.6849 26.4289 16.6817 26.6596C17.6786 26.8903 18.1348 22.9777 19.6397 23.2764C21.1447 23.5751 22.561 22.5413 19.8123 26.0504C17.0636 29.5595 19.891 29.547 20.7292 29.4869C21.5805 29.4258 23.3819 30.2661 25.1498 30.4529L40.2875 40.0145L37.1099 45.9179C37.1018 45.9438 37.089 45.9673 37.0719 45.9884L37.1099 45.9179C37.3183 45.2486 34.3568 42.9875 20.6372 38.6411Z" fill="#F1F37C"/>
<path d="M48.5522 33.3913C45.4832 40.4248 38.0468 53.1339 32.8532 47.7019L12 43.4132L13.7986 38.7479L20.1164 39.0402C20.1164 39.0402 20.9764 40.9793 24.1409 34.1613C27.3055 27.3433 26.6872 37.2865 26.6872 37.2865C26.6872 37.2865 29.7056 33.6273 31.7909 29.6085C33.8762 25.5897 34.4776 36.539 34.4776 36.539C34.4776 36.539 38.5415 27.3883 39.6881 29.9739C40.8348 32.5594 34.3989 45.0826 40.149 37.1179C45.8991 29.1532 48.5522 33.3913 48.5522 33.3913Z" fill="#F1F37C"/>
<path d="M9.22288 41.0384C13.2372 45.2716 21.9558 52.3418 24.7157 46.7574L39.8742 37.2206L37.3952 34.3402L32.5684 36.489C32.5684 36.489 32.3533 38.1782 28.3151 34.1328C24.2769 30.0874 27.0695 37.2105 27.0695 37.2105C27.0695 37.2105 23.8795 35.4433 21.3288 33.1261C18.7781 30.8089 20.8598 39.0452 20.8598 39.0452C20.8598 39.0452 15.5821 33.5596 15.2953 35.812C15.0085 38.0644 22.9087 45.3042 16.6005 41.2069C10.2922 37.1096 9.22288 41.0384 9.22288 41.0384Z" fill="#F1F37C"/>
<path d="M44.7687 39.0219C41.2742 43.357 33.6966 50.8687 31.3419 46.2349L20.2379 40.0698L17.0696 37.5776L24.6108 38.0887C24.6108 38.0887 24.7872 39.5739 28.3013 35.4039C31.8154 31.2339 29.3608 37.9948 29.3608 37.9948C29.3608 37.9948 32.1287 35.9811 34.3471 33.5605C36.5654 31.14 34.7192 38.8029 34.7192 38.8029C34.7192 38.8029 39.313 33.175 39.5483 35.1553C39.7835 37.1356 32.9124 44.689 38.3894 40.1667C43.8664 35.6445 44.7687 39.0219 44.7687 39.0219Z" fill="#EFCF5F"/>
<path d="M4.76202 40.8335C8.57658 44.8898 16.7044 51.8025 18.6992 47.0028L30.1165 40.0458L32.0576 37.7584L24.7903 38.3676C24.7903 38.3676 24.7275 39.8619 20.906 35.9717C17.0845 32.0815 20.0469 38.6357 20.0469 38.6357C20.0469 38.6357 17.1337 36.8387 14.7374 34.5942C12.3411 32.3496 14.7657 39.8496 14.7657 39.8496C14.7657 39.8496 9.7565 34.588 9.67278 36.5805C9.58907 38.5729 17.0155 45.581 11.21 41.4891C5.40448 37.3971 4.76202 40.8335 4.76202 40.8335Z" fill="#EFCF5F"/>
<path d="M20.9299 23.9673C18.2545 23.6629 18.4578 24.3402 17.2729 26.5415L18.3568 27.6927L20.9299 23.9673Z" fill="#EFCF5F"/>
<circle cx="16.6773" cy="29.6773" r="0.5" transform="rotate(-61.7079 16.6773 29.6773)" fill="#EFCF5F"/>
<rect x="10.6448" y="44" width="28" height="6" fill="#C5B563"/>
</svg>
