<svg width="100" height="100" viewBox="0 0 100 100" fill="none" xmlns="http://www.w3.org/2000/svg">
<rect width="100" height="100" fill="#212F3C"/>
<path d="M38 80C38 85.5228 29.2843 93 21 93C12.7157 93 4.5 91.5228 4.5 86C4.5 80.4772 12.7157 73 21 73C29.2843 73 38 74.4772 38 80Z" fill="#304355"/>
<path d="M78.5 50.5C78.5 54.0899 73.0751 55 67 55C60.9249 55 59 52.0899 59 48.5C59 44.9101 60.9249 42 67 42C73.0751 42 78.5 46.9101 78.5 50.5Z" fill="#3C5368"/>
<path d="M92.1504 96.083C90.3625 99.1959 85.205 97.2832 79.9371 94.2573C74.6691 91.2315 74.4494 87.7493 76.2374 84.6364C78.0254 81.5235 81.144 79.9587 86.412 82.9846C91.6799 86.0104 93.9384 92.9701 92.1504 96.083Z" fill="#344250"/>
<path d="M28.4176 19C28.4176 22.3137 21.2467 26.5 16 26.5C10.7533 26.5 5 25.8137 5 22.5C5 19.1863 10.7533 14.5 16 14.5C21.2467 14.5 28.4176 15.6863 28.4176 19Z" fill="#3D5973"/>
</svg>
