<svg width="50" height="50" viewBox="0 0 50 50" fill="none" xmlns="http://www.w3.org/2000/svg">
<path d="M25.6741 4.54941C24.435 7.0926 23.7324 9 21.3371 9C18.9418 9 18.2392 5.82101 17 4.54941C17 2.09141 18.8587 2.00621 21.3371 0.0988168C24.435 -0.536999 26.9133 2.00621 25.6741 4.54941Z" fill="#DB5C14"/>
<path d="M22.8552 4.52745C22.3044 5.94034 21.9922 7 20.9276 7C19.863 7 19.5507 5.23389 19 4.52745C19 3.1619 19.8261 3.11456 20.9276 2.0549C22.3044 1.70167 23.4059 3.11456 22.8552 4.52745Z" fill="#F1E815"/>
<path d="M10.1425 16.2158C8.80233 15.7812 9.72168 14.5558 10.3987 14.0203C11.0757 13.4848 12.1734 13.1147 12.5942 14.2765C13.1297 14.9535 12.4661 15.3743 12.3379 16.472C11.6609 17.0075 11.661 17.5057 10.1425 16.2158Z" fill="#E7BB67"/>
<path d="M26.1425 13.2158C24.8023 12.7812 25.7217 11.5558 26.3987 11.0203C27.0757 10.4848 28.1734 10.1147 28.5942 11.2765C29.1297 11.9535 28.4661 12.3743 28.3379 13.472C27.6609 14.0075 27.661 14.5057 26.1425 13.2158Z" fill="#E7BB67"/>
<path d="M27.6967 1.96102C26.8795 1.69602 27.4401 0.948771 27.853 0.622214C28.2658 0.295658 28.9352 0.0699974 29.1918 0.778457C29.5183 1.1913 29.1137 1.44787 29.0355 2.11726C28.6227 2.44382 28.6227 2.74761 27.6967 1.96102Z" fill="#E7BB67"/>
<path d="M15.3884 20.5521C13.9572 20.4349 14.5822 19.004 15.1284 18.3142C15.6745 17.6245 16.6768 17.0003 17.3662 18.0542C18.056 18.6004 17.4962 19.1731 17.6262 20.2921C17.0801 20.9818 17.1968 21.476 15.3884 20.5521Z" fill="#E7BB67"/>
<path d="M30.809 21.0441C31.0621 21.8258 31.777 21.29 32.0895 20.8953C32.402 20.5006 32.6182 19.8605 31.9407 19.6148C31.546 19.3023 31.3005 19.6892 30.6602 19.7636C30.3477 20.1583 30.0572 20.1581 30.809 21.0441Z" fill="#E7BB67"/>
<path d="M27.2509 5.78024C28.2631 5.79524 27.8909 6.83121 27.5393 7.34216C27.1876 7.85311 26.512 8.33941 25.9773 7.63055C25.4664 7.27887 25.8331 6.84958 25.689 6.06863C26.0406 5.55768 25.9352 5.21557 27.2509 5.78024Z" fill="#E7BB67"/>
<path d="M24.6178 8.56083C25.3454 8.57161 25.0779 9.31621 24.8251 9.68345C24.5723 10.0507 24.0868 10.4002 23.7025 9.89073C23.3352 9.63797 23.5988 9.32942 23.4952 8.76811C23.748 8.40086 23.6722 8.15497 24.6178 8.56083Z" fill="#E7D267"/>
<path d="M15.6178 12.5608C16.3454 12.5716 16.0779 13.3162 15.8251 13.6835C15.5723 14.0507 15.0868 14.4002 14.7025 13.8907C14.3352 13.638 14.5988 13.3294 14.4952 12.7681C14.748 12.4009 14.6722 12.155 15.6178 12.5608Z" fill="#E7D267"/>
<path d="M29.6178 8.56083C30.3454 8.57161 30.0779 9.31621 29.8251 9.68345C29.5723 10.0507 29.0868 10.4002 28.7025 9.89073C28.3352 9.63797 28.5988 9.32942 28.4952 8.76811C28.748 8.40086 28.6722 8.15497 29.6178 8.56083Z" fill="#E7D267"/>
<path d="M22.6178 21.5608C23.3454 21.5716 23.0779 22.3162 22.8251 22.6835C22.5723 23.0507 22.0868 23.4002 21.7025 22.8907C21.3352 22.638 21.5988 22.3294 21.4952 21.7681C21.748 21.4009 21.6722 21.155 22.6178 21.5608Z" fill="#E7D267"/>
<path d="M16.6178 5.56083C17.3454 5.57161 17.0779 6.31621 16.8251 6.68345C16.5723 7.0507 16.0868 7.40022 15.7025 6.89073C15.3352 6.63797 15.5988 6.32942 15.4952 5.76811C15.748 5.40086 15.6722 5.15497 16.6178 5.56083Z" fill="#E7D267"/>
<path d="M21.6178 19.5608C22.3454 19.5716 22.0779 20.3162 21.8251 20.6835C21.5723 21.0507 21.0868 21.4002 20.7025 20.8907C20.3352 20.638 20.5988 20.3294 20.4952 19.7681C20.748 19.4009 20.6722 19.155 21.6178 19.5608Z" fill="#E7D267"/>
<path d="M31.6178 2.56083C32.3454 2.57161 32.0779 3.31621 31.8251 3.68345C31.5723 4.0507 31.0868 4.40022 30.7025 3.89073C30.3352 3.63797 30.5988 3.32942 30.4952 2.76811C30.748 2.40086 30.6722 2.15497 31.6178 2.56083Z" fill="#E7D267"/>
<path d="M16.6178 8.56083C17.3454 8.57161 17.0779 9.31621 16.8251 9.68345C16.5723 10.0507 16.0868 10.4002 15.7025 9.89073C15.3352 9.63797 15.5988 9.32942 15.4952 8.76811C15.748 8.40086 15.6722 8.15497 16.6178 8.56083Z" fill="#E7D267"/>
<path d="M15.6178 2.56083C16.3454 2.57161 16.0779 3.31621 15.8251 3.68345C15.5723 4.0507 15.0868 4.40022 14.7025 3.89073C14.3352 3.63797 14.5988 3.32942 14.4952 2.76811C14.748 2.40086 14.6722 2.15497 15.6178 2.56083Z" fill="#E7D267"/>
<path d="M10.6178 11.5608C11.3454 11.5716 11.0779 12.3162 10.8251 12.6835C10.5723 13.0507 10.0868 13.4002 9.70247 12.8907C9.33522 12.638 9.59882 12.3294 9.49519 11.7681C9.74795 11.4009 9.6722 11.155 10.6178 11.5608Z" fill="#E7D267"/>
<path d="M28.6178 4.56083C29.3454 4.57161 29.0779 5.31621 28.8251 5.68345C28.5723 6.0507 28.0868 6.40022 27.7025 5.89073C27.3352 5.63797 27.5988 5.32942 27.4952 4.76811C27.748 4.40086 27.6722 4.15497 28.6178 4.56083Z" fill="#E7D267"/>
<path d="M21.5686 15.4097C22.0321 16.7688 20.4707 16.7665 19.6203 16.5409C18.7699 16.3153 17.7977 15.6452 18.4891 14.5926C18.7147 13.7422 19.4632 14.027 20.4374 13.4614C21.2878 13.687 21.6944 13.3828 21.5686 15.4097Z" fill="#E7BB67"/>
<path d="M20.4086 10.6264C20.7214 11.5437 19.6675 11.5421 19.0936 11.3898C18.5196 11.2376 17.8635 10.7853 18.3301 10.0749C18.4824 9.50092 18.9876 9.69312 19.6451 9.31139C20.219 9.46368 20.4934 9.25839 20.4086 10.6264Z" fill="#E7BB67"/>
<path d="M29.4086 19.6264C29.7214 20.5437 28.6675 20.5421 28.0936 20.3898C27.5196 20.2376 26.8635 19.7853 27.3301 19.0749C27.4824 18.5009 27.9876 18.6931 28.6451 18.3114C29.219 18.4637 29.4934 18.2584 29.4086 19.6264Z" fill="#E7BB67"/>
<path d="M12.9344 8.95408C12.6941 10.1558 11.5426 9.48504 11.0117 8.95408C10.4807 8.42312 10.0503 7.51199 11.0117 7.0313C11.5426 6.50034 11.973 7.0313 12.9344 7.0313C13.4654 7.56226 13.8958 7.51199 12.9344 8.95408Z" fill="#E7BB67"/>
<path d="M31.8129 12.4096C32.4318 10.7164 33.9554 11.9498 34.6083 12.8408C35.2611 13.7318 35.6825 15.1529 34.177 15.6362C33.2861 16.289 32.7794 15.4206 31.3817 15.2049C30.7288 14.314 30.0918 14.2905 31.8129 12.4096Z" fill="#E7BB67"/>
<path d="M33.2701 6.98753C33.7037 5.80132 34.7711 6.66542 35.2285 7.28963C35.6859 7.91385 35.9811 8.90947 34.9264 9.248C34.3022 9.70537 33.9472 9.09696 32.968 8.9459C32.5107 8.32169 32.0644 8.30526 33.2701 6.98753Z" fill="#E7BB67"/>
<circle cx="14.5" cy="17.5" r="0.5" fill="#862121"/>
<circle cx="26.5" cy="16.5" r="0.5" fill="#862121"/>
<circle cx="11.5" cy="19.5" r="0.5" fill="#862121"/>
<circle cx="22.5" cy="12.5" r="0.5" fill="#862121"/>
<circle cx="25.5" cy="8.5" r="0.5" fill="#862121"/>
<circle cx="11.5" cy="4.5" r="0.5" fill="#862121"/>
<circle cx="23.5" cy="5.5" r="0.5" fill="#862121"/>
<circle cx="24.5" cy="19.5" r="0.5" fill="#862121"/>
<circle cx="9.5" cy="9.5" r="0.5" fill="#862121"/>
<circle cx="13.5" cy="13.5" r="0.5" fill="#862121"/>
<circle cx="27.5" cy="3.5" r="0.5" fill="#862121"/>
<circle cx="17.5" cy="10.5" r="0.5" fill="#862121"/>
<circle cx="12.5" cy="6.5" r="0.5" fill="#862121"/>
</svg>
