<svg width="50" height="50" viewBox="0 0 50 50" fill="none" xmlns="http://www.w3.org/2000/svg">
<path d="M29.6741 5.54941C28.435 8.0926 27.7324 10 25.3371 10C22.9418 10 22.2392 6.82101 21 5.54941C21 3.09141 22.8587 3.00621 25.3371 1.09882C28.435 0.463001 30.9133 3.00621 29.6741 5.54941Z" fill="#DB5C14"/>
<path d="M26.8552 5.52745C26.3044 6.94034 25.9922 8 24.9276 8C23.863 8 23.5507 6.23389 23 5.52745C23 4.1619 23.8261 4.11456 24.9276 3.0549C26.3044 2.70167 27.4059 4.11456 26.8552 5.52745Z" fill="#F1E815"/>
<path d="M29.1425 25.2158C27.8023 24.7812 28.7217 23.5558 29.3987 23.0203C30.0757 22.4848 31.1734 22.1147 31.5942 23.2765C32.1297 23.9535 31.4661 24.3743 31.3379 25.472C30.6609 26.0075 30.661 26.5057 29.1425 25.2158Z" fill="#E7BB67"/>
<path d="M38.1425 23.2158C36.8023 22.7812 37.7217 21.5558 38.3987 21.0203C39.0757 20.4848 40.1734 20.1147 40.5942 21.2765C41.1297 21.9535 40.4661 22.3743 40.3379 23.472C39.6609 24.0075 39.661 24.5057 38.1425 23.2158Z" fill="#E7BB67"/>
<path d="M11.6967 24.961C10.8795 24.696 11.4401 23.9488 11.853 23.6222C12.2658 23.2957 12.9352 23.07 13.1918 23.7785C13.5183 24.1913 13.1137 24.4479 13.0355 25.1173C12.6227 25.4438 12.6227 25.7476 11.6967 24.961Z" fill="#E7BB67"/>
<path d="M6.3884 11.5521C4.95724 11.4349 5.58221 10.004 6.12837 9.31424C6.67453 8.62447 7.67676 8.0003 8.36622 9.05421C9.05599 9.60037 8.49624 10.1731 8.62624 11.2921C8.08008 11.9818 8.1968 12.476 6.3884 11.5521Z" fill="#E7BB67"/>
<path d="M13.809 4.0441C14.0621 4.82582 14.777 4.29 15.0895 3.89531C15.402 3.50062 15.6182 2.86053 14.9407 2.6148C14.546 2.30228 14.3005 2.68919 13.6602 2.76359C13.3477 3.15828 13.0572 3.1581 13.809 4.0441Z" fill="#E7BB67"/>
<path d="M37.2509 14.7802C38.2631 14.7952 37.8909 15.8312 37.5393 16.3422C37.1876 16.8531 36.512 17.3394 35.9773 16.6305C35.4664 16.2789 35.8331 15.8496 35.689 15.0686C36.0406 14.5577 35.9352 14.2156 37.2509 14.7802Z" fill="#E7BB67"/>
<path d="M30.6178 16.5608C31.3454 16.5716 31.0779 17.3162 30.8251 17.6835C30.5723 18.0507 30.0868 18.4002 29.7025 17.8907C29.3352 17.638 29.5988 17.3294 29.4952 16.7681C29.748 16.4009 29.6722 16.155 30.6178 16.5608Z" fill="#E7D267"/>
<path d="M18.6178 19.5608C19.3454 19.5716 19.0779 20.3162 18.8251 20.6835C18.5723 21.0507 18.0868 21.4002 17.7025 20.8907C17.3352 20.638 17.5988 20.3294 17.4952 19.7681C17.748 19.4009 17.6722 19.155 18.6178 19.5608Z" fill="#E7D267"/>
<path d="M37.6178 11.5608C38.3454 11.5716 38.0779 12.3162 37.8251 12.6835C37.5723 13.0507 37.0868 13.4002 36.7025 12.8907C36.3352 12.638 36.5988 12.3294 36.4952 11.7681C36.748 11.4009 36.6722 11.155 37.6178 11.5608Z" fill="#E7D267"/>
<path d="M30.6178 5.56083C31.3454 5.57161 31.0779 6.31621 30.8251 6.68345C30.5723 7.0507 30.0868 7.40022 29.7025 6.89073C29.3352 6.63797 29.5988 6.32942 29.4952 5.76811C29.748 5.40086 29.6722 5.15497 30.6178 5.56083Z" fill="#E7D267"/>
<path d="M18.6178 3.56083C19.3454 3.57161 19.0779 4.31621 18.8251 4.68345C18.5723 5.0507 18.0868 5.40022 17.7025 4.89073C17.3352 4.63797 17.5988 4.32942 17.4952 3.76811C17.748 3.40086 17.6722 3.15497 18.6178 3.56083Z" fill="#E7D267"/>
<path d="M30.6178 1.56083C31.3454 1.57161 31.0779 2.31621 30.8251 2.68345C30.5723 3.0507 30.0868 3.40022 29.7025 2.89073C29.3352 2.63797 29.5988 2.32942 29.4952 1.76811C29.748 1.40086 29.6722 1.15497 30.6178 1.56083Z" fill="#E7D267"/>
<path d="M15.6178 10.5608C16.3454 10.5716 16.0779 11.3162 15.8251 11.6835C15.5723 12.0507 15.0868 12.4002 14.7025 11.8907C14.3352 11.638 14.5988 11.3294 14.4952 10.7681C14.748 10.4009 14.6722 10.155 15.6178 10.5608Z" fill="#E7D267"/>
<path d="M12.6178 6.56083C13.3454 6.57161 13.0779 7.31621 12.8251 7.68345C12.5723 8.0507 12.0868 8.40022 11.7025 7.89073C11.3352 7.63797 11.5988 7.32942 11.4952 6.76811C11.748 6.40086 11.6722 6.15497 12.6178 6.56083Z" fill="#E7D267"/>
<path d="M7.61781 19.5608C8.34537 19.5716 8.07786 20.3162 7.82509 20.6835C7.57233 21.0507 7.08676 21.4002 6.70247 20.8907C6.33522 20.638 6.59882 20.3294 6.49519 19.7681C6.74795 19.4009 6.6722 19.155 7.61781 19.5608Z" fill="#E7D267"/>
<path d="M41.6178 2.56083C42.3454 2.57161 42.0779 3.31621 41.8251 3.68345C41.5723 4.0507 41.0868 4.40022 40.7025 3.89073C40.3352 3.63797 40.5988 3.32942 40.4952 2.76811C40.748 2.40086 40.6722 2.15497 41.6178 2.56083Z" fill="#E7D267"/>
<path d="M16.6178 12.5608C17.3454 12.5716 17.0779 13.3162 16.8251 13.6835C16.5723 14.0507 16.0868 14.4002 15.7025 13.8907C15.3352 13.638 15.5988 13.3294 15.4952 12.7681C15.748 12.4009 15.6722 12.155 16.6178 12.5608Z" fill="#E7D267"/>
<path d="M42.6178 19.5608C43.3454 19.5716 43.0779 20.3162 42.8251 20.6835C42.5723 21.0507 42.0868 21.4002 41.7025 20.8907C41.3352 20.638 41.5988 20.3294 41.4952 19.7681C41.748 19.4009 41.6722 19.155 42.6178 19.5608Z" fill="#E7D267"/>
<path d="M20.6178 12.5608C21.3454 12.5716 21.0779 13.3162 20.8251 13.6835C20.5723 14.0507 20.0868 14.4002 19.7025 13.8907C19.3352 13.638 19.5988 13.3294 19.4952 12.7681C19.748 12.4009 19.6722 12.155 20.6178 12.5608Z" fill="#E7D267"/>
<path d="M39.6178 6.56083C40.3454 6.57161 40.0779 7.31621 39.8251 7.68345C39.5723 8.0507 39.0868 8.40022 38.7025 7.89073C38.3352 7.63797 38.5988 7.32942 38.4952 6.76811C38.748 6.40086 38.6722 6.15497 39.6178 6.56083Z" fill="#E7D267"/>
<path d="M25.5686 22.4097C26.0321 23.7688 24.4707 23.7665 23.6203 23.5409C22.7699 23.3153 21.7977 22.6452 22.4891 21.5926C22.7147 20.7422 23.4632 21.027 24.4374 20.4614C25.2878 20.687 25.6944 20.3828 25.5686 22.4097Z" fill="#E7BB67"/>
<path d="M24.4086 14.6264C24.7214 15.5437 23.6675 15.5421 23.0936 15.3898C22.5196 15.2376 21.8635 14.7853 22.3301 14.0749C22.4824 13.5009 22.9876 13.6931 23.6451 13.3114C24.219 13.4637 24.4934 13.2584 24.4086 14.6264Z" fill="#E7BB67"/>
<path d="M18.9483 9.31553C19.2013 10.0575 18.3489 10.0563 17.8846 9.93309C17.4204 9.8099 16.8896 9.44412 17.2671 8.86944C17.3902 8.40518 17.7989 8.56065 18.3307 8.25188C18.795 8.37506 19.0169 8.209 18.9483 9.31553Z" fill="#E7BB67"/>
<path d="M29.9483 10.3155C30.2013 11.0575 29.3489 11.0563 28.8846 10.9331C28.4204 10.8099 27.8896 10.4441 28.2671 9.86944C28.3902 9.40518 28.7989 9.56065 29.3307 9.25188C29.795 9.37506 30.0169 9.209 29.9483 10.3155Z" fill="#E7BB67"/>
<path d="M33.9483 5.31553C34.2013 6.05751 33.3489 6.05628 32.8846 5.93309C32.4204 5.8099 31.8896 5.44412 32.2671 4.86944C32.3902 4.40518 32.7989 4.56065 33.3307 4.25188C33.795 4.37506 34.0169 4.209 33.9483 5.31553Z" fill="#E7BB67"/>
<path d="M37.9483 3.31553C38.2013 4.05751 37.3489 4.05628 36.8846 3.93309C36.4204 3.8099 35.8896 3.44412 36.2671 2.86944C36.3902 2.40518 36.7989 2.56065 37.3307 2.25188C37.795 2.37506 38.0169 2.209 37.9483 3.31553Z" fill="#E7BB67"/>
<path d="M11.4086 6.62637C11.7214 7.54366 10.6675 7.54214 10.0936 7.38985C9.51964 7.23755 8.86349 6.78534 9.33011 6.07487C9.4824 5.50092 9.9876 5.69312 10.6451 5.31139C11.219 5.46368 11.4934 5.25839 11.4086 6.62637Z" fill="#E7BB67"/>
<path d="M11.9344 15.9541C11.6941 17.1558 10.5426 16.485 10.0117 15.9541C9.4807 15.4231 9.05027 14.512 10.0117 14.0313C10.5426 13.5003 10.973 14.0313 11.9344 14.0313C12.4654 14.5623 12.8958 14.512 11.9344 15.9541Z" fill="#E7BB67"/>
<path d="M42.8129 14.4096C43.4318 12.7164 44.9554 13.9498 45.6083 14.8408C46.2611 15.7318 46.6825 17.1529 45.177 17.6362C44.2861 18.289 43.7794 17.4206 42.3817 17.2049C41.7288 16.314 41.0918 16.2905 42.8129 14.4096Z" fill="#E7BB67"/>
<path d="M44.2701 8.98753C44.7037 7.80132 45.7711 8.66542 46.2285 9.28963C46.6859 9.91385 46.9811 10.9095 45.9264 11.248C45.3022 11.7054 44.9472 11.097 43.968 10.9459C43.5107 10.3217 43.0644 10.3053 44.2701 8.98753Z" fill="#E7BB67"/>
<circle cx="13.5" cy="20.5" r="0.5" fill="#862121"/>
<circle cx="31.5" cy="13.5" r="0.5" fill="#862121"/>
<circle cx="36.5" cy="6.5" r="0.5" fill="#862121"/>
<circle cx="26.5" cy="16.5" r="0.5" fill="#862121"/>
<circle cx="34.5" cy="21.5" r="0.5" fill="#862121"/>
<circle cx="40.5" cy="9.5" r="0.5" fill="#862121"/>
<circle cx="44.5" cy="5.5" r="0.5" fill="#862121"/>
<circle cx="19.5" cy="24.5" r="0.5" fill="#862121"/>
<circle cx="11.5" cy="9.5" r="0.5" fill="#862121"/>
<circle cx="15.5" cy="15.5" r="0.5" fill="#862121"/>
<circle cx="32.5" cy="9.5" r="0.5" fill="#862121"/>
<circle cx="32.5" cy="1.5" r="0.5" fill="#862121"/>
<circle cx="21.5" cy="9.5" r="0.5" fill="#862121"/>
<circle cx="7.5" cy="4.5" r="0.5" fill="#862121"/>
<circle cx="15.5" cy="6.5" r="0.5" fill="#862121"/>
<circle cx="21.5" cy="16.5" r="0.5" fill="#862121"/>
<circle cx="12.5" cy="4.5" r="0.5" fill="#862121"/>
</svg>
