<svg width="52" height="51" viewBox="0 0 52 51" fill="none" xmlns="http://www.w3.org/2000/svg">
<rect x="1" width="50" height="50" fill="#C4C4C4"/>
<path d="M3 30.5L6 33" stroke="#8F7C7C"/>
<path d="M4 29L7 31.5" stroke="#8F7C7C"/>
<path d="M35 17.5L38 20" stroke="#8F7C7C"/>
<path d="M36 16L39 18.5" stroke="#8F7C7C"/>
<path d="M26 18.5L29 21" stroke="#8F7C7C"/>
<path d="M27 17L30 19.5" stroke="#8F7C7C"/>
<path d="M1 40.5L4 43" stroke="#8F7C7C"/>
<path d="M1 40.5L4 43" stroke="#8F7C7C"/>
<path d="M2 39L5 41.5" stroke="#8F7C7C"/>
<path d="M9 36.5L6 39" stroke="#8F7C7C"/>
<path d="M8 35L5 37.5" stroke="#8F7C7C"/>
<path d="M25 46.5L22 49" stroke="#8F7C7C"/>
<path d="M24 45L21 47.5" stroke="#8F7C7C"/>
<path d="M17 40.5L20 43" stroke="#8F7C7C"/>
<path d="M18 39L21 41.5" stroke="#8F7C7C"/>
<path d="M25 36.5L22 39" stroke="#8F7C7C"/>
<path d="M24 35L21 37.5" stroke="#8F7C7C"/>
<path d="M10 47L13 49.5" stroke="#8F7C7C"/>
<path d="M17 44.5L14 47" stroke="#8F7C7C"/>
<path d="M16 43L13 45.5" stroke="#8F7C7C"/>
<path d="M2 47L5 49.5" stroke="#8F7C7C"/>
<path d="M9 44.5L6 47" stroke="#8F7C7C"/>
<path d="M8 43L5 45.5" stroke="#8F7C7C"/>
<path d="M9 40.5L12 43" stroke="#8F7C7C"/>
<path d="M10 39L13 41.5" stroke="#8F7C7C"/>
<path d="M17 36.5L14 39" stroke="#8F7C7C"/>
<path d="M16 35L13 37.5" stroke="#8F7C7C"/>
<path d="M45 16.5L48 19" stroke="#8F7C7C"/>
<path d="M46 15L49 17.5" stroke="#8F7C7C"/>
<path d="M30 13.5L33 16" stroke="#8F7C7C"/>
<path d="M31 12L34 14.5" stroke="#8F7C7C"/>
<path d="M38 9.5L35 12" stroke="#8F7C7C"/>
<path d="M37 8L34 10.5" stroke="#8F7C7C"/>
<path d="M38 13.5L41 16" stroke="#8F7C7C"/>
<path d="M39 12L42 14.5" stroke="#8F7C7C"/>
<path d="M46 9.5L43 12" stroke="#8F7C7C"/>
<path d="M45 8L42 10.5" stroke="#8F7C7C"/>
<path d="M47 6.5L50 9" stroke="#8F7C7C"/>
<path d="M48 5L51 7.5" stroke="#8F7C7C"/>
<path d="M39 4.5L42 7" stroke="#8F7C7C"/>
<path d="M40 3L43 5.5" stroke="#8F7C7C"/>
<path d="M47 0.5L44 3" stroke="#8F7C7C"/>
<path d="M31 4.5L34 7" stroke="#8F7C7C"/>
<path d="M32 3L35 5.5" stroke="#8F7C7C"/>
<path d="M39 0.5L36 3" stroke="#8F7C7C"/>
<path d="M27 25.5L30 28" stroke="#8F7C7C"/>
<path d="M27 25.5L30 28" stroke="#8F7C7C"/>
<path d="M28 24L31 26.5" stroke="#8F7C7C"/>
<path d="M35 21.5L32 24" stroke="#8F7C7C"/>
<path d="M34 20L31 22.5" stroke="#8F7C7C"/>
<path d="M41 45.5L44 48" stroke="#8F7C7C"/>
<path d="M42 44L45 46.5" stroke="#8F7C7C"/>
<path d="M49 41.5L46 44" stroke="#8F7C7C"/>
<path d="M48 40L45 42.5" stroke="#8F7C7C"/>
<path d="M26 42.5L29 45" stroke="#8F7C7C"/>
<path d="M27 41L30 43.5" stroke="#8F7C7C"/>
<path d="M34 38.5L31 41" stroke="#8F7C7C"/>
<path d="M33 37L30 39.5" stroke="#8F7C7C"/>
<path d="M34 42.5L37 45" stroke="#8F7C7C"/>
<path d="M35 41L38 43.5" stroke="#8F7C7C"/>
<path d="M42 38.5L39 41" stroke="#8F7C7C"/>
<path d="M41 37L38 39.5" stroke="#8F7C7C"/>
<path d="M43 35.5L46 38" stroke="#8F7C7C"/>
<path d="M44 34L47 36.5" stroke="#8F7C7C"/>
<path d="M51 31.5L48 34" stroke="#8F7C7C"/>
<path d="M50 30L47 32.5" stroke="#8F7C7C"/>
<path d="M43 25.5L46 28" stroke="#8F7C7C"/>
<path d="M44 24L47 26.5" stroke="#8F7C7C"/>
<path d="M51 21.5L48 24" stroke="#8F7C7C"/>
<path d="M50 20L47 22.5" stroke="#8F7C7C"/>
<path d="M35 33.5L38 36" stroke="#8F7C7C"/>
<path d="M36 32L39 34.5" stroke="#8F7C7C"/>
<path d="M43 29.5L40 32" stroke="#8F7C7C"/>
<path d="M42 28L39 30.5" stroke="#8F7C7C"/>
<path d="M27 33.5L30 36" stroke="#8F7C7C"/>
<path d="M28 32L31 34.5" stroke="#8F7C7C"/>
<path d="M35 29.5L32 32" stroke="#8F7C7C"/>
<path d="M34 28L31 30.5" stroke="#8F7C7C"/>
<path d="M35 25.5L38 28" stroke="#8F7C7C"/>
<path d="M36 24L39 26.5" stroke="#8F7C7C"/>
<path d="M43 21.5L40 24" stroke="#8F7C7C"/>
<path d="M42 20L39 22.5" stroke="#8F7C7C"/>
<path d="M3 6.5L6 9" stroke="#8F7C7C"/>
<path d="M3 6.5L6 9" stroke="#8F7C7C"/>
<path d="M4 5L7 7.5" stroke="#8F7C7C"/>
<path d="M11 2.5L8 5" stroke="#8F7C7C"/>
<path d="M10 1L7 3.5" stroke="#8F7C7C"/>
<path d="M17 26.5L20 29" stroke="#8F7C7C"/>
<path d="M18 25L21 27.5" stroke="#8F7C7C"/>
<path d="M25 22.5L22 25" stroke="#8F7C7C"/>
<path d="M24 21L21 23.5" stroke="#8F7C7C"/>
<path d="M31 8.5L28 11" stroke="#8F7C7C"/>
<path d="M30 7L27 9.5" stroke="#8F7C7C"/>
<path d="M35 47.5L32 50" stroke="#8F7C7C"/>
<path d="M34 46L31 48.5" stroke="#8F7C7C"/>
<path d="M28 29.5L25 32" stroke="#8F7C7C"/>
<path d="M27 28L24 30.5" stroke="#8F7C7C"/>
<path d="M22 31.5L19 34" stroke="#8F7C7C"/>
<path d="M21 30L18 32.5" stroke="#8F7C7C"/>
<path d="M14 31.5L11 34" stroke="#8F7C7C"/>
<path d="M13 30L10 32.5" stroke="#8F7C7C"/>
<path d="M2 23.5L5 26" stroke="#8F7C7C"/>
<path d="M3 22L6 24.5" stroke="#8F7C7C"/>
<path d="M10 19.5L7 22" stroke="#8F7C7C"/>
<path d="M9 18L6 20.5" stroke="#8F7C7C"/>
<path d="M10 23.5L13 26" stroke="#8F7C7C"/>
<path d="M11 22L14 24.5" stroke="#8F7C7C"/>
<path d="M18 19.5L15 22" stroke="#8F7C7C"/>
<path d="M17 18L14 20.5" stroke="#8F7C7C"/>
<path d="M19 16.5L22 19" stroke="#8F7C7C"/>
<path d="M20 15L23 17.5" stroke="#8F7C7C"/>
<path d="M27 12.5L24 15" stroke="#8F7C7C"/>
<path d="M26 11L23 13.5" stroke="#8F7C7C"/>
<path d="M19 6.5L22 9" stroke="#8F7C7C"/>
<path d="M20 5L23 7.5" stroke="#8F7C7C"/>
<path d="M27 2.5L24 5" stroke="#8F7C7C"/>
<path d="M26 1L23 3.5" stroke="#8F7C7C"/>
<path d="M11 14.5L14 17" stroke="#8F7C7C"/>
<path d="M12 13L15 15.5" stroke="#8F7C7C"/>
<path d="M19 10.5L16 13" stroke="#8F7C7C"/>
<path d="M18 9L15 11.5" stroke="#8F7C7C"/>
<path d="M3 14.5L6 17" stroke="#8F7C7C"/>
<path d="M4 13L7 15.5" stroke="#8F7C7C"/>
<path d="M11 10.5L8 13" stroke="#8F7C7C"/>
<path d="M10 9L7 11.5" stroke="#8F7C7C"/>
<path d="M11 6.5L14 9" stroke="#8F7C7C"/>
<path d="M12 5L15 7.5" stroke="#8F7C7C"/>
<path d="M19 2.5L16 5" stroke="#8F7C7C"/>
<path d="M18 1L15 3.5" stroke="#8F7C7C"/>
</svg>
