<svg width="48" height="97" viewBox="0 0 48 97" fill="none" xmlns="http://www.w3.org/2000/svg">
<path d="M45.8621 89.6214H36.8534" stroke="black"/>
<path d="M9.82764 90.2826H1.63798" stroke="black"/>
<path d="M47.5 93.5895L46.681 23.486L35.2155 24.1474V29.4382L26.2069 25.4701L27.8448 1L22.931 1L22.1121 24.8087L11.4655 28.7768L9.82759 23.486L0 24.1474L0 96.8962L11.4655 96.2349V93.5895L36.0345 92.9281V96.8962L45.8621 96.2349L47.5 93.5895Z" fill="#3A894C"/>
<path d="M21.8925 72.4262C13.2987 72.4262 6.33211 73.7489 6.33211 56.5537C6.33211 46.6334 14.9367 36.0517 23.5304 36.0517C32.1241 36.0517 39.3103 43.988 39.3103 55.8923C40.9482 71.7648 32.7585 71.7648 21.8925 72.4262Z" fill="#275532"/>
<path d="M33.5775 75.733L29.4827 72.4262V71.7649L37.6724 68.4581L39.3103 75.0717V80.3625L38.4913 87.6374L35.2155 88.9601V81.0238L33.5775 75.733Z" fill="#2B743C"/>
<path d="M13.1035 76.3942L17.1983 73.0874V72.4261L9.00866 69.1193L7.37073 75.7329L7.37073 81.0237L8.18969 88.2986L11.4656 89.6213V81.685L13.1035 76.3942Z" fill="#2B743C"/>
<path d="M26.6238 25.3833L26.4449 35.9951L23.175 36.1928L22.4965 24.9703L21.877 1.15551L26.7819 0.858948L26.6238 25.3833Z" fill="#43633B"/>
<path d="M27.8448 83.6692H18.8362L19.2457 78.0477M27.8448 83.6692V78.0477M27.8448 83.6692V72.4261V78.0477M19.6552 72.4261L19.2457 78.0477M19.2457 78.0477H27.0259H27.8448" stroke="#43633B"/>
<rect x="45.0431" y="77.0556" width="9.25895" height="3.27586" transform="rotate(90 45.0431 77.0556)" fill="#45AE5D"/>
<rect x="5.73279" y="77.0556" width="9.25895" height="3.27586" transform="rotate(90 5.73279 77.0556)" fill="#45AE5D"/>
<rect x="45.0431" y="29.4381" width="5.29083" height="6.55172" transform="rotate(90 45.0431 29.4381)" fill="#45AE5D"/>
<rect x="9.00854" y="29.4381" width="5.29083" height="6.55172" transform="rotate(90 9.00854 29.4381)" fill="#45AE5D"/>
<rect x="45.0431" y="36.0517" width="6.61353" height="8.18966" transform="rotate(90 45.0431 36.0517)" fill="#6AC57F"/>
<rect x="10.6466" y="36.0517" width="6.61353" height="8.18966" transform="rotate(90 10.6466 36.0517)" fill="#6AC57F"/>
<path d="M28.6638 62.5058C25.0454 62.5058 20.4741 59.1991 22.1121 55.2309C22.1121 51.2131 25.0454 47.9561 28.6638 47.9561C32.2822 47.9561 35.2155 51.2131 35.2155 55.2309C36.8535 60.5218 32.2822 62.5058 28.6638 62.5058Z" fill="#3B773E"/>
<path d="M23 6L26.2759 6" stroke="#0C1B03"/>
<path d="M23 8L26.2759 8" stroke="#0C1B03"/>
</svg>
