<svg width="70" height="70" viewBox="0 0 70 70" fill="none" xmlns="http://www.w3.org/2000/svg">
<path d="M67.5861 63.4117H54.3101" stroke="black"/>
<path d="M14.4822 64.0105H2.41313" stroke="black"/>
<path d="M70 67.0053L67.5862 9.65518H56.1206L51.8964 14.0805H39.7893H32.5859L16.8962 14.0805L15.0858 9.65518H2.41332L-0.000488281 70L16.8962 69.4011V67.0053L53.1033 66.4064V70L67.5862 69.4011L70 67.0053Z" fill="#3A894C"/>
<path d="M33.9312 53.9416C21.2667 53.9416 11 55.1395 11 39.5671C11 30.583 23.6805 21 36.345 21C49.0096 21 59.5999 28.1873 59.5999 38.9681C62.0136 53.3426 49.9445 53.3426 33.9312 53.9416Z" fill="#275532"/>
<path d="M53.0346 57.5883L47 54.5936V53.9947L59.0691 51L61.4829 56.9894V61.7809L60.276 68.3692L55.4484 69.5671V62.3798L53.0346 57.5883Z" fill="#2B743C"/>
<path d="M17.4483 57.5883L23.4829 54.5936V53.9947L11.4138 51L9 56.9894V61.7809L10.2069 68.3692L15.0345 69.5671L15.0345 62.3798L17.4483 57.5883Z" fill="#2B743C"/>
<path d="M38.3174 15.1148L38.0378 21.6602L33.2289 21.9329L32.2486 15.0509L31.375 0.40903L38.5884 0L38.3174 15.1148Z" fill="#43633B"/>
<path d="M41.276 65.1819H28L28.6035 60.091M41.276 65.1819V60.091M41.276 65.1819V55V60.091M29.2069 55L28.6035 60.091M28.6035 60.091H40.0691H41.276" stroke="#43633B"/>
<rect x="67.8276" y="56" width="8.38513" height="4.82762" transform="rotate(90 67.8276 56)" fill="#45AE5D"/>
<rect x="7.82764" y="57" width="8.38513" height="4.82762" transform="rotate(90 7.82764 57)" fill="#45AE5D"/>
<rect x="65.6553" y="13" width="4.7915" height="9.65524" transform="rotate(90 65.6553 13)" fill="#45AE5D"/>
<rect x="13.6553" y="12" width="4.7915" height="9.65524" transform="rotate(90 13.6553 12)" fill="#45AE5D"/>
<rect x="67.0691" y="21" width="5.98938" height="12.069" transform="rotate(90 67.0691 21)" fill="#6AC57F"/>
<rect x="15.0691" y="21" width="5.98938" height="12.069" transform="rotate(90 15.0691 21)" fill="#6AC57F"/>
<path d="M35.1603 50.1766C29.8278 50.1766 23.0912 47.1819 25.505 43.5883C25.505 39.9497 29.8278 37 35.1603 37C40.4927 37 44.8155 39.9497 44.8155 43.5883C47.2293 48.3798 40.4927 50.1766 35.1603 50.1766Z" fill="#3B773E"/>
<path d="M32.5866 3.21838L37.4142 3.21838" stroke="#0C1B03"/>
<path d="M32.5866 5.63217L37.4142 5.63217" stroke="#0C1B03"/>
</svg>
