<svg width="160" height="160" viewBox="0 0 160 160" fill="none" xmlns="http://www.w3.org/2000/svg">
<path d="M82.7722 16.6779L66.8975 21.9681L111.094 60.8832L129.166 54.8607L82.7722 16.6779Z" fill="#C2AF6A"/>
<path d="M136.117 67.6986L129.825 58.3414L112.631 93.7131L119.793 104.366L136.117 67.6986Z" fill="#C2AF6A"/>
<path d="M136.117 67.6986L129.825 58.3414L112.631 93.7131L119.793 104.366L136.117 67.6986Z" fill="#C2AF6A"/>
<path d="M84.7868 39.0427L78.591 29.8273L55.6216 68.343L62.675 78.8342L84.7868 39.0427Z" fill="#C2AF6A"/>
<path d="M139.599 86.6421L129.524 81.5273L131.834 120.757L143.303 126.58L139.599 86.6421Z" fill="#C2AF6A"/>
<path d="M23.1921 73.4226L11.9153 72.5793L29.2622 107.877L42.1 108.837L23.1921 73.4226Z" fill="#C2AF6A"/>
<path d="M107.803 109.386L96.7535 115.844L137.374 140.557L149.953 133.205L107.803 109.386Z" fill="#C2AF6A"/>
<path d="M107.803 109.386L96.7535 115.844L137.374 140.557L149.953 133.205L107.803 109.386Z" fill="#C2AF6A"/>
<path d="M52.7472 21.8871L41.8147 28.2767L98.3108 83.1531L110.757 75.8791L52.7472 21.8871Z" fill="#C2AF6A"/>
<path d="M57.24 82.5328L51.9206 88.9211L90.0769 102.218L96.1328 94.9451L57.24 82.5328Z" fill="#C2AF6A"/>
<path d="M73.7665 69.2769L62.9038 75.9928L108.43 107.155L120.796 99.5093L73.7665 69.2769Z" fill="#C9BA87"/>
<path d="M37.0644 131.48L37.1241 145.347L107.98 121.61L107.912 105.824L37.0644 131.48Z" fill="#C9BA87"/>
<path d="M64.45 32.3983L54.916 42.5057L122.749 73.7974L133.603 62.2909L64.45 32.3983Z" fill="#C9BA87"/>
<path d="M87.0044 80.5939L87.0721 96.3353L134.792 68.2717L134.715 50.3512L87.0044 80.5939Z" fill="#C9BA87"/>
<path d="M45.3594 92.8037L33.7124 104.401L98.8093 124.952L112.069 111.749L45.3594 92.8037Z" fill="#927750"/>
<path d="M41.9358 79.4148L41.9358 92.9539L91.9794 67.1134L91.9794 51.7002L41.9358 79.4148Z" fill="#927750"/>
<path d="M72.2863 83.4058L62.9038 92.7485L117.123 111.054L127.804 100.418L72.2863 83.4058Z" fill="#927750"/>
<path d="M46.4055 114.811L47.1335 125.882L86.6642 102.085L85.8355 89.4814L46.4055 114.811Z" fill="#927750"/>
<path d="M14.6522 115.279L20.9017 124.464L42.9231 84.0297L35.8084 73.5735L14.6522 115.279Z" fill="#927750"/>
<path d="M8.46339 125.748L9.19136 136.819L48.7221 113.021L47.8933 100.418L8.46339 125.748Z" fill="#927750"/>
<path d="M23.4404 71.0649L24.1684 82.1356L63.6991 58.3382L62.8704 45.735L23.4404 71.0649Z" fill="#927750"/>
<path d="M107.312 142.65L108.04 153.721L147.571 129.923L146.742 117.32L107.312 142.65Z" fill="#927750"/>
<path d="M62.3811 138.673L63.1091 149.743L102.64 125.946L101.811 113.343L62.3811 138.673Z" fill="#927750"/>
<path d="M62.3811 138.673L63.1091 149.743L102.64 125.946L101.811 113.343L62.3811 138.673Z" fill="#927750"/>
<path d="M62.3811 138.673L63.1091 149.743L102.64 125.946L101.811 113.343L62.3811 138.673Z" fill="#927750"/>
<path d="M71.7901 6.64442L61.548 2.98261L68.2478 45.5677L79.9077 49.7364L71.7901 6.64442Z" fill="#927750"/>
<path d="M107.964 95.3741L117.396 101.28L121.224 55.4408L110.486 48.7174L107.964 95.3741Z" fill="#927750"/>
<path d="M112.868 103.133C114.336 109.649 110.721 112.32 105.769 113.426C100.816 114.532 96.4019 113.654 94.9343 107.137C93.4668 100.621 97.7932 94.4415 98.057 83.6648C103.878 93.0827 111.401 96.6162 112.868 103.133Z" fill="#ECCB8A"/>
<path d="M112.868 103.133C114.336 109.649 110.721 112.32 105.769 113.426C100.816 114.532 96.4019 113.654 94.9343 107.137C93.4668 100.621 97.7932 94.4415 98.057 83.6648C103.878 93.0827 111.401 96.6162 112.868 103.133Z" fill="#ECCB8A"/>
<path d="M121.837 107.454C121.124 114.094 116.839 115.468 111.792 114.931C106.746 114.394 102.849 112.15 103.561 105.51C104.274 98.8691 110.364 94.4012 114.091 84.2802C116.565 95.0609 122.549 100.814 121.837 107.454Z" fill="#ECCB8A"/>
<path d="M129.609 121.15C127.964 127.624 123.527 128.383 118.607 127.144C113.687 125.905 110.146 123.137 111.79 116.662C113.435 110.188 120.097 106.619 125.217 97.1211C126.142 108.141 131.253 114.676 129.609 121.15Z" fill="#ECCB8A"/>
<path d="M115.702 110.116C120.482 116.47 117.618 121.308 112.479 125.14C107.34 128.973 101.872 130.349 97.0927 123.995C92.3129 117.641 94.3213 108.587 89.4947 96.6533C100.635 103.878 110.922 103.761 115.702 110.116Z" fill="#ECCB8A"/>
<path d="M121.827 123.94C121.371 129.11 117.208 130.164 112.227 129.728C107.246 129.292 103.332 127.53 103.788 122.36C104.245 117.19 110.069 113.731 113.361 105.861C116.189 114.267 122.284 118.77 121.827 123.94Z" fill="#FFE68E"/>
<path d="M111.114 112.62C113.798 117.069 111.624 120.019 108.039 122.163C104.455 124.307 100.818 124.834 98.134 120.385C95.4498 115.936 97.3456 110.19 94.9966 102.114C101.75 107.555 108.43 108.171 111.114 112.62Z" fill="#FFE68E"/>
<path d="M115.524 101.506C114.736 103.766 113.045 103.871 111.224 103.241C109.403 102.611 108.142 101.485 108.93 99.2249C109.719 96.9647 112.321 95.9355 114.498 92.7219C114.558 96.7094 116.313 99.2457 115.524 101.506Z" fill="#FFE68E"/>
<path d="M127.241 115.088C127.146 117.902 125.558 118.616 123.632 118.552C121.705 118.487 120.169 117.669 120.264 114.855C120.359 112.041 122.55 109.968 123.695 105.595C124.917 110.047 127.336 112.274 127.241 115.088Z" fill="#FFE68E"/>
<path d="M112.631 101.838C113.907 103.866 112.93 105.244 111.296 106.263C109.663 107.282 107.991 107.556 106.715 105.528C105.44 103.501 106.264 100.836 105.111 97.1335C108.271 99.5838 111.355 99.8103 112.631 101.838Z" fill="#FFE68E"/>
<path d="M54.9645 89.8245C55.9717 94.2967 53.4907 96.13 50.0919 96.889C46.6931 97.6479 43.6635 97.0451 42.6563 92.5729C41.6491 88.1007 44.6183 83.8597 44.7994 76.4637C48.7943 82.9272 53.9573 85.3522 54.9645 89.8245Z" fill="#ECCB8A"/>
<path d="M54.9645 89.8245C55.9717 94.2967 53.4907 96.13 50.0919 96.889C46.6931 97.6479 43.6635 97.0451 42.6563 92.5729C41.6491 88.1007 44.6183 83.8597 44.7994 76.4637C48.7943 82.9272 53.9573 85.3522 54.9645 89.8245Z" fill="#ECCB8A"/>
<path d="M61.1197 92.7901C60.6307 97.3474 57.6898 98.2899 54.2263 97.9214C50.7627 97.5529 48.0882 96.0129 48.5772 91.4556C49.0663 86.8982 53.2463 83.8319 55.8039 76.8858C57.5018 84.2846 61.6088 88.2327 61.1197 92.7901Z" fill="#ECCB8A"/>
<path d="M66.4535 102.19C65.3249 106.633 62.28 107.154 58.9031 106.304C55.5262 105.453 53.0961 103.554 54.2247 99.1102C55.3534 94.6668 59.9254 92.2172 63.4398 85.6989C64.0744 93.2621 67.5822 97.7467 66.4535 102.19Z" fill="#ECCB8A"/>
<path d="M56.9219 94.6185C60.2046 98.9779 58.2385 102.296 54.7103 104.925C51.1822 107.553 47.428 108.497 44.1453 104.137C40.8627 99.7781 42.2408 93.5678 38.9255 85.3813C46.5757 90.3382 53.6393 90.2592 56.9219 94.6185Z" fill="#ECCB8A"/>
<path d="M61.1131 104.105C60.7997 107.653 57.9429 108.377 54.5242 108.077C51.1055 107.778 48.4195 106.569 48.7328 103.02C49.0462 99.4722 53.0432 97.0985 55.3025 91.6969C57.2436 97.4663 61.4264 100.556 61.1131 104.105Z" fill="#FFE68E"/>
<path d="M53.7605 96.3357C55.6027 99.389 54.1102 101.414 51.6503 102.885C49.1903 104.357 46.6944 104.718 44.8523 101.665C43.0101 98.6114 44.3112 94.6679 42.6991 89.1251C47.3337 92.8598 51.9184 93.2824 53.7605 96.3357Z" fill="#FFE68E"/>
<path d="M56.7871 88.7081C56.246 90.2593 55.0855 90.3313 53.8357 89.899C52.586 89.4667 51.7203 88.6938 52.2614 87.1426C52.8026 85.5914 54.5887 84.8851 56.0826 82.6796C56.1242 85.4162 57.3283 87.1569 56.7871 88.7081Z" fill="#FFE68E"/>
<path d="M64.8289 98.0295C64.7637 99.9608 63.6741 100.451 62.3518 100.407C61.0296 100.362 59.9755 99.8005 60.0407 97.8693C60.1058 95.938 61.6091 94.5156 62.3952 91.5142C63.2337 94.5699 64.8941 96.0983 64.8289 98.0295Z" fill="#FFE68E"/>
<path d="M54.8016 88.9359C55.6772 90.3274 55.0068 91.2734 53.8856 91.9728C52.7645 92.6722 51.6172 92.8602 50.7416 91.4686C49.8661 90.0771 50.4317 88.2482 49.6406 85.7072C51.8092 87.3889 53.9261 87.5443 54.8016 88.9359Z" fill="#FFE68E"/>
<path d="M102.37 34.9761C100.691 41.2014 96.3981 41.8711 91.667 40.6057C86.9359 39.3404 83.5579 36.6191 85.2371 30.3939C86.9163 24.1686 93.3964 20.8177 98.4735 11.7236C99.2093 22.3724 104.049 28.7508 102.37 34.9761Z" fill="#ECCB8A"/>
<path d="M102.37 34.9761C100.691 41.2014 96.3981 41.8711 91.667 40.6057C86.9359 39.3404 83.5579 36.6191 85.2371 30.3939C86.9163 24.1686 93.3964 20.8177 98.4735 11.7236C99.2093 22.3724 104.049 28.7508 102.37 34.9761Z" fill="#ECCB8A"/>
<path d="M108.09 42.6732C104.492 48.0314 100.211 47.2924 96.1386 44.5807C92.0665 41.869 89.7455 38.2114 93.3441 32.8533C96.9426 27.4951 104.16 26.3947 111.902 19.4069C109.164 29.7265 111.689 37.3151 108.09 42.6732Z" fill="#ECCB8A"/>
<path d="M108.568 57.8498C104.248 62.65 100.114 61.3181 96.4657 58.0624C92.8177 54.8068 91.037 50.8602 95.3575 46.06C99.6779 41.2598 106.979 41.1824 115.632 35.3497C111.462 45.1825 112.889 53.0496 108.568 57.8498Z" fill="#ECCB8A"/>
<path d="M101.648 42.2102C102.873 49.7755 98.2474 52.6323 92.1293 53.6146C86.0112 54.5968 80.7178 53.3327 79.4928 45.7674C78.2678 38.2021 84.0604 31.3595 85.3072 19.0043C91.5775 30.1526 100.423 34.6449 101.648 42.2102Z" fill="#ECCB8A"/>
<path d="M100.661 56.7611C97.943 60.9767 93.9101 60.02 89.8485 57.4235C85.7868 54.8271 83.2344 51.5741 85.9523 47.3585C88.6702 43.1429 95.2055 42.7862 101.563 37.5279C100.196 45.9763 103.379 52.5455 100.661 56.7611Z" fill="#FFE68E"/>
<path d="M96.5989 42.3028C96.8904 47.3039 93.7035 48.8548 89.6743 49.0877C85.6451 49.3205 82.2994 48.1472 82.0079 43.1461C81.7164 38.145 85.9237 34.0795 87.5517 26.1274C90.8743 33.7934 96.3074 37.3017 96.5989 42.3028Z" fill="#FFE68E"/>
<path d="M105.372 34.7709C103.681 36.3509 102.188 35.6858 100.915 34.3346C99.6423 32.9833 99.0711 31.4576 100.763 29.8775C102.454 28.2975 105.142 28.5794 108.45 26.8042C106.706 30.2397 107.064 33.1909 105.372 34.7709Z" fill="#FFE68E"/>
<path d="M109.273 51.6116C107.925 53.9746 106.247 53.8763 104.629 52.9612C103.011 52.0461 102.067 50.6607 103.415 48.2977C104.763 45.9347 107.568 45.1407 110.516 41.9138C109.556 46.2651 110.622 49.2486 109.273 51.6116Z" fill="#FFE68E"/>
<path d="M102.75 33.7635C102.928 36.0661 101.472 36.8083 99.617 36.9502C97.7618 37.0922 96.2095 36.5801 96.0318 34.2774C95.8542 31.9747 97.7583 30.0647 98.4399 26.3853C100.038 29.8903 102.572 31.4608 102.75 33.7635Z" fill="#FFE68E"/>
<path d="M71.0789 116.723C71.9244 120.477 69.8417 122.016 66.9885 122.654C64.1354 123.291 61.5921 122.785 60.7466 119.03C59.9012 115.276 62.3937 111.716 62.5457 105.507C65.8993 110.933 70.2334 112.969 71.0789 116.723Z" fill="#ECCB8A"/>
<path d="M71.0789 116.723C71.9244 120.477 69.8417 122.016 66.9885 122.654C64.1354 123.291 61.5921 122.785 60.7466 119.03C59.9012 115.276 62.3937 111.716 62.5457 105.507C65.8993 110.933 70.2334 112.969 71.0789 116.723Z" fill="#ECCB8A"/>
<path d="M76.2458 119.213C75.8353 123.038 73.3665 123.83 70.459 123.52C67.5516 123.211 65.3064 121.918 65.7169 118.092C66.1274 114.267 69.6364 111.693 71.7834 105.862C73.2087 112.073 76.6563 115.387 76.2458 119.213Z" fill="#ECCB8A"/>
<path d="M80.7234 127.104C79.7759 130.834 77.2199 131.271 74.3851 130.557C71.5504 129.843 69.5104 128.248 70.4578 124.518C71.4052 120.788 75.2433 118.732 78.1934 113.26C78.7262 119.609 81.6708 123.374 80.7234 127.104Z" fill="#ECCB8A"/>
<path d="M55.4041 56.7556C54.4566 60.4857 51.9005 60.9228 49.0658 60.2089C46.231 59.4949 44.191 57.9003 45.1385 54.1703C46.0859 50.4402 49.9239 48.3838 52.8741 42.912C53.4069 49.261 56.3515 53.0256 55.4041 56.7556Z" fill="#ECCB8A"/>
<path d="M72.7113 120.746C75.4651 124.407 73.815 127.194 70.8544 129.402C67.8938 131.61 64.7438 132.403 61.9901 128.742C59.2363 125.082 60.3934 119.866 57.6127 112.99C64.031 117.153 69.9576 117.085 72.7113 120.746Z" fill="#ECCB8A"/>
<path d="M76.2404 128.711C75.9774 131.689 73.5793 132.297 70.7094 132.046C67.8395 131.794 65.5847 130.779 65.8478 127.801C66.1108 124.822 69.4661 122.829 71.3627 118.295C72.9922 123.138 76.5035 125.732 76.2404 128.711Z" fill="#FFE68E"/>
<path d="M70.0679 122.189C71.6143 124.752 70.3615 126.452 68.2965 127.687C66.2314 128.922 64.1362 129.226 62.5898 126.663C61.0434 124.099 62.1356 120.789 60.7823 116.136C64.6728 119.271 68.5215 119.626 70.0679 122.189Z" fill="#FFE68E"/>
<path d="M51.5645 54.2644C53.1109 56.8275 51.8581 58.527 49.793 59.7624C47.728 60.9977 45.6328 61.301 44.0864 58.7379C42.54 56.1747 43.6322 52.8643 42.2789 48.2114C46.1694 51.3465 50.0181 51.7012 51.5645 54.2644Z" fill="#FFE68E"/>
<path d="M144.268 137.289C143.321 141.019 140.765 141.456 137.93 140.742C135.095 140.028 133.055 138.433 134.002 134.703C134.95 130.973 138.788 128.917 141.738 123.445C142.271 129.794 145.216 133.559 144.268 137.289Z" fill="#ECCB8A"/>
<path d="M140.429 134.797C141.975 137.36 140.722 139.06 138.657 140.295C136.592 141.531 134.497 141.834 132.951 139.271C131.404 136.708 132.496 133.397 131.143 128.744C135.034 131.879 138.882 132.234 140.429 134.797Z" fill="#FFE68E"/>
<path d="M72.6092 115.786C72.1549 117.088 71.1807 117.149 70.1316 116.786C69.0825 116.423 68.3558 115.774 68.8101 114.472C69.2644 113.17 70.7637 112.577 72.0178 110.725C72.0527 113.023 73.0635 114.484 72.6092 115.786Z" fill="#FFE68E"/>
<path d="M79.3597 123.611C79.3049 125.232 78.3902 125.644 77.2803 125.607C76.1703 125.569 75.2854 125.098 75.3401 123.477C75.3948 121.855 76.6567 120.661 77.3167 118.142C78.0205 120.707 79.4144 121.99 79.3597 123.611Z" fill="#FFE68E"/>
<path d="M70.9421 115.977C71.6771 117.145 71.1143 117.939 70.1732 118.527C69.232 119.114 68.2689 119.271 67.5339 118.103C66.7989 116.935 67.2737 115.4 66.6097 113.267C68.4301 114.678 70.2071 114.809 70.9421 115.977Z" fill="#FFE68E"/>
</svg>
