<svg width="53" height="53" viewBox="0 0 53 53" fill="none" xmlns="http://www.w3.org/2000/svg">
<path d="M1 1H51V51H1V1Z" fill="#6BBCF8"/>
<path d="M51.9999 12.8105C52.7682 21.5 27.05 30 14.0064 30C0.962687 30 0.48877 24.2642 0.48877 16.353C2.5 -18.5 -3.96357 15.9371 14.0064 4C40 -4.00002 51 1.5 51.9999 12.8105Z" fill="#6BBCF8"/>
<path d="M51.5 21C51.5 29.4057 34.0582 43 19.4502 43C4.84231 43 0.500022 37.9057 0.500022 29.5C0.500022 21.0943 -0.674755 25.2434 19.4502 12.5602C41.3002 2.41359 51.5 12.5943 51.5 21Z" fill="#8FC4EB"/>
<path d="M51.5 41.5C46.0001 48.078 39.2266 50.9999 23.1386 50.9999C7.05047 50.9999 2.00751 41.1106 2.00751 33.9411C2.00751 26.7715 0.974388 35.8546 23.1386 25.0366C47.2025 16.3821 54.5 15 51.5 41.5Z" fill="#A6CAEB"/>
<path d="M51.0002 42C55.0002 55 32.5438 51 19.5002 51C6.45651 51 1.40325 55.3049 1.0003 45.1665C5.34058e-05 20 1.53023 46.4371 19.5002 34.5C39.0104 24.9502 51.0002 34.0887 51.0002 42Z" fill="#8DCBF8"/>
<path d="M51.5 49.5C52.2753 55.918 30.1631 50.9204 17 50.9204C3.83686 50.9204 0.5 55.3432 0.5 49.5C2.52965 23.7578 -3.49313 50.6132 14.6414 41.7965C40.8731 35.8877 50.4909 41.1461 51.5 49.5Z" fill="#6BBCF8"/>
</svg>
